<svg width="200" height="101" viewBox="0 0 200 101" fill="none" xmlns="http://www.w3.org/2000/svg">
<g clip-path="url(#clip0_2794_3826)">
<path d="M20 19.916H180V81.9672H20V19.916Z" fill="white"/>
<path d="M113.654 41.7962C111.642 41.7962 110.061 42.2278 108.48 43.0894C108.48 38.4901 108.48 34.3223 108.624 32.8855L98.9931 34.6095V35.472L99.9992 35.6156C101.292 35.9028 101.725 36.6208 102.01 38.3465C102.299 41.7962 102.154 60.1945 102.01 63.2134C104.597 63.7887 107.329 64.2203 110.06 64.2203C117.679 64.2203 122.278 59.4765 122.278 52.0018C122.278 46.1092 118.541 41.7962 113.654 41.7962ZM110.348 62.6382C109.772 62.6382 109.053 62.6382 108.623 62.4954C108.478 60.4834 108.335 52.0018 108.478 44.5279C109.341 44.2399 109.915 44.0963 110.635 44.0963C113.799 44.0963 115.524 47.8332 115.524 52.4318C115.523 58.1833 113.366 62.6382 110.348 62.6382ZM62.7693 33.4599H37.4707V34.7531L38.9084 34.8967C40.776 35.1839 41.4957 36.3336 41.782 39.0645C42.2145 44.2391 42.0701 53.5831 41.782 58.0372C41.4948 60.7689 40.7768 62.063 38.9084 62.2049L37.4707 62.4938V63.6434H53.7133V62.4938L51.9885 62.2049C50.12 62.0621 49.4012 60.7689 49.114 58.0372C48.9695 56.1679 48.8259 53.1489 48.8259 49.4128L52.2757 49.5564C54.4322 49.5564 55.4374 51.2813 55.869 53.7242H57.1631V43.5219H55.869C55.4365 45.9656 54.4322 47.6896 52.2757 47.6896L48.8268 47.8341C48.8268 42.9467 48.9704 38.3473 49.1148 35.6164H54.145C58.0272 35.6164 60.0392 38.0593 61.4761 42.3723L62.9137 41.9406L62.7693 33.4599Z" fill="#9A3242"/>
<path d="M70.9636 41.509C78.1511 41.509 81.7444 46.3964 81.7444 52.8642C81.7444 59.0448 77.7194 64.2211 70.532 64.2211C63.3453 64.2211 59.752 59.3329 59.752 52.8642C59.752 46.6836 63.7761 41.509 70.9636 41.509ZM70.532 42.9466C67.3694 42.9466 66.507 47.2588 66.507 52.8642C66.507 58.326 67.9447 62.7818 70.82 62.7818C74.1236 62.7818 74.9877 58.4696 74.9877 52.8642C74.9877 47.4024 73.5517 42.9466 70.532 42.9466ZM124.146 53.0086C124.146 47.1152 127.883 41.509 135.214 41.509C141.25 41.509 144.126 45.9656 144.126 51.8582H130.758C130.613 57.1764 133.201 61.0577 138.376 61.0577C140.676 61.0577 141.826 60.4842 143.264 59.4773L143.838 60.1953C142.4 62.2074 139.239 64.2211 135.214 64.2211C128.746 64.2203 124.146 59.6209 124.146 53.0086ZM130.758 50.2777L137.514 50.1333C137.514 47.2588 137.082 42.9466 134.639 42.9466C132.196 42.9466 130.901 46.9708 130.758 50.2777ZM161.234 42.6594C159.509 41.9398 157.209 41.509 154.622 41.509C149.305 41.509 145.997 44.6707 145.997 48.4084C145.997 52.1462 148.438 53.7266 151.892 54.8771C155.485 56.1695 156.491 57.1764 156.491 58.9012C156.491 60.6261 155.197 62.2065 152.897 62.2065C150.167 62.2065 148.153 60.6261 146.573 56.3131L145.566 56.602L145.711 62.9262C147.435 63.6442 150.597 64.2203 153.329 64.2203C158.935 64.2203 162.529 61.3441 162.529 56.8892C162.529 53.8702 160.947 52.1462 157.21 50.7077C153.184 49.1273 151.748 48.1212 151.748 46.2519C151.748 44.3835 153.044 43.0894 154.769 43.0894C157.355 43.0894 159.079 44.6707 160.375 48.552L161.38 48.2648L161.234 42.6594ZM100.43 42.0842C97.987 40.6482 93.674 41.3654 91.3748 46.5408L91.5175 41.5098L81.888 43.3783V44.2407L82.894 44.3843C84.1889 44.5287 84.7625 45.2467 84.9069 47.116C85.1941 50.5658 85.0505 56.6036 84.9069 59.6217C84.7625 61.3449 84.1889 62.2074 82.894 62.3518L81.888 62.4962V63.6459H95.2553V62.4962L93.5304 62.3518C92.0936 62.2074 91.662 61.3449 91.5175 59.6217C91.2303 56.89 91.2303 51.4282 91.3748 47.9785C92.0928 46.9716 95.2553 46.11 98.1298 47.9785L100.43 42.0842Z" fill="#9A3242"/>
</g>
<defs>
<clipPath id="clip0_2794_3826">
<rect width="160" height="62.08" fill="white" transform="translate(20 19.9011)"/>
</clipPath>
</defs>
</svg>
