<svg width="200" height="101" viewBox="0 0 200 101" fill="none" xmlns="http://www.w3.org/2000/svg">
<g clip-path="url(#clip0_2794_3831)">
<path d="M47.7031 45.9163V51.0878C47.7031 52.5099 49.3839 53.6735 51.5817 53.6735H59.339C60.7611 53.6735 61.9247 53.9321 61.9247 54.32V58.1986C61.9247 58.5864 60.7611 58.845 59.339 58.845H47.7031V61.4307H61.9247C64.1226 61.4307 65.8033 60.2672 65.8033 58.845V53.6735C65.8033 52.2514 64.1226 51.0878 61.9247 51.0878H54.1675C52.7453 51.0878 51.5817 50.8292 51.5817 50.4413V46.5627C51.5817 46.1749 52.7453 45.9163 54.1675 45.9163H65.8033V43.3306H51.5817C49.3839 43.3306 47.7031 44.4941 47.7031 45.9163ZM151.133 45.9163V51.0878C151.133 52.5099 152.813 53.6735 155.011 53.6735H162.769C164.191 53.6735 165.354 53.9321 165.354 54.32V58.1986C165.354 58.5864 164.191 58.845 162.769 58.845H151.133V61.4307H165.354C167.552 61.4307 169.233 60.2672 169.233 58.845V53.6735C169.233 52.2514 167.552 51.0878 165.354 51.0878H157.597C156.175 51.0878 155.011 50.8292 155.011 50.4413V46.5627C155.011 46.1749 156.175 45.9163 157.597 45.9163H169.233V43.3306H155.011C152.813 43.3306 151.133 44.4941 151.133 45.9163ZM178.283 45.9163H189.919V43.3306H175.697C173.499 43.3306 171.819 44.4941 171.819 45.9163V51.0878C171.819 52.5099 173.499 53.6735 175.697 53.6735H183.454C184.877 53.6735 186.04 53.9321 186.04 54.32V58.1986C186.04 58.5864 184.877 58.845 183.454 58.845H171.819V61.4307H186.04C188.238 61.4307 189.919 60.2672 189.919 58.845V53.6735C189.919 52.2514 188.238 51.0878 186.04 51.0878H178.283C176.861 51.0878 175.697 50.8292 175.697 50.4413V46.5627C175.697 46.1749 176.861 45.9163 178.283 45.9163ZM82.6106 58.1986C82.6106 58.5864 81.447 58.845 80.0249 58.845H74.8534C73.4312 58.845 72.2676 58.5864 72.2676 58.1986V43.3306H68.389V58.845C68.389 60.2672 70.0698 61.4307 72.2676 61.4307H82.6106C84.8085 61.4307 86.4892 60.2672 86.4892 58.845V43.3306H82.6106V58.1986ZM89.075 45.9163V58.845C89.075 60.2672 90.7557 61.4307 92.9536 61.4307H107.175V58.845H95.5393C94.1171 58.845 92.9536 58.5864 92.9536 58.1986V46.5627C92.9536 46.1749 94.1171 45.9163 95.5393 45.9163H107.175V43.3306H92.9536C90.7557 43.3306 89.075 44.4941 89.075 45.9163ZM109.761 45.9163V58.845C109.761 60.2672 111.442 61.4307 113.639 61.4307H127.861V58.845H116.225C114.803 58.845 113.639 58.5864 113.639 58.1986V46.5627C113.639 46.1749 114.803 45.9163 116.225 45.9163H127.861V43.3306H113.639C111.442 43.3306 109.761 44.4941 109.761 45.9163ZM130.447 45.9163V58.845C130.447 60.2672 132.128 61.4307 134.325 61.4307H148.547V58.845H136.911C135.489 58.845 134.325 58.5864 134.325 58.1986V46.5627C134.325 46.1749 135.489 45.9163 136.911 45.9163H148.547V43.3306H134.325C132.128 43.3306 130.447 44.4941 130.447 45.9163Z" fill="white"/>
<path d="M138.204 51.0879H147.254V53.6736H138.204V51.0879Z" fill="white"/>
<path d="M43.8244 35.5735H19.2599C18.4842 35.5735 17.7084 36.0906 17.5792 36.8664L13.7006 51.0879C13.5713 51.8636 13.9591 52.3808 14.6056 52.3808H23.6556C24.4314 52.3808 25.0778 51.8636 25.3364 51.0879L27.0171 44.6236C27.1464 43.8479 27.9221 43.3307 28.6978 43.3307H41.6265C42.4023 43.3307 43.0487 42.8136 43.3073 42.0378L44.7294 36.8664C44.8587 36.0906 44.4708 35.5735 43.8244 35.5735Z" fill="white"/>
<path d="M40.3342 48.5022H29.9912C29.2155 48.5022 28.5691 49.0193 28.3105 49.7951L26.6298 56.2594C26.5005 57.0351 25.7248 57.5523 24.949 57.5523H13.3132C12.5375 57.5523 11.891 58.0694 11.6325 58.8452L10.2103 64.0166C10.081 64.7924 10.4689 65.3095 11.1153 65.3095H36.9727L41.1099 49.7951C41.4978 49.0193 40.9806 48.5022 40.3342 48.5022Z" fill="white"/>
</g>
<defs>
<clipPath id="clip0_2794_3831">
<rect width="180" height="29.736" fill="white" transform="translate(10 35.5732)"/>
</clipPath>
</defs>
</svg>
