<svg width="200" height="101" viewBox="0 0 200 101" fill="none" xmlns="http://www.w3.org/2000/svg">
<path fill-rule="evenodd" clip-rule="evenodd" d="M153.864 17.7988V13.2147H47V17.7988H153.864ZM153.864 11.6824V10.9412H47V11.6824H153.864ZM153.849 82.5331V19.3493H47V82.5331H153.849Z" fill="white"/>
<path fill-rule="evenodd" clip-rule="evenodd" d="M140.276 74.7933V63.4295L148.759 51.1249H141.555L137.277 57.7776L133.111 51.1249H125.905L134.389 63.4295V74.7933H140.276ZM124.871 51.1249H118.16L112.935 64.7951C113.096 64.0302 112.979 63.7748 112.979 62.9588C112.979 56.3037 107.386 51.1243 100.596 51.1243H91.6074V58.6976C89.7967 53.7517 84.576 50.5303 78.9995 50.5303C74.9006 50.5303 71.2621 52.0346 68.7599 54.9216V51.1249H51.6768V56.6059H56.9145V74.7939H63.2516V56.6059H67.5955C66.4159 58.1035 65.7179 60.1995 65.7179 62.5283C65.7179 70.073 71.2919 75.391 78.9995 75.391C85.1305 75.391 89.9079 72.0243 91.6074 66.8497V74.7933H100.596C105.236 74.7933 109.14 72.9582 111.259 69.2722L109.12 74.7933H115.509L117.191 70.6817H125.545L127.226 74.7933H133.911L124.871 51.1249Z" fill="#9A3242"/>
<path fill-rule="evenodd" clip-rule="evenodd" d="M72.3877 62.5652C72.3877 66.4841 75.3684 69.3486 79.0021 69.3486C82.6352 69.3486 85.6164 66.4841 85.6164 62.5652C85.6164 59.4301 82.6352 56.5655 79.0021 56.5655C75.369 56.5655 72.3877 59.4301 72.3877 62.5652ZM98.2815 69.5827H99.165C102.948 69.5827 106.181 67.5743 106.181 62.9592C106.181 58.7217 103.304 56.3357 99.2295 56.3357H98.2815V69.5827ZM123.814 65.9739L121.339 59.0391L118.936 65.9739H123.814Z" fill="white"/>
<path fill-rule="evenodd" clip-rule="evenodd" d="M145.186 71.8647H145.947C146.279 71.8647 146.647 71.9869 146.647 72.4028C146.647 72.8741 146.19 72.9173 145.772 72.9173H145.185V73.1191H145.904L146.733 74.3675H146.996L146.172 73.1252C146.566 73.0632 146.884 72.8498 146.884 72.4089C146.884 71.9194 146.609 71.6628 145.985 71.6628H144.948V74.3668H145.186V71.8647Z" fill="#9A3242"/>
<path fill-rule="evenodd" clip-rule="evenodd" d="M145.797 70.727C147.089 70.727 148.132 71.7485 148.132 73.0145C148.132 74.2817 147.089 75.3032 145.797 75.3032C144.506 75.3032 143.464 74.2817 143.464 73.0145C143.464 71.7485 144.506 70.727 145.797 70.727L145.803 70.9277C144.6 70.9277 143.701 71.8337 143.701 73.0145C143.701 74.171 144.612 75.1013 145.803 75.1013C146.996 75.1013 147.895 74.1655 147.895 73.009C147.895 71.8404 147.001 70.9277 145.803 70.9277L145.797 70.727ZM135.67 25.6656H129.429L123.386 41.6409C123.388 41.5479 123.391 41.4542 123.391 41.3618C123.391 37.5317 120.797 35.8681 117.435 34.8946L115.834 34.424C114.745 34.0792 113.048 33.5453 113.048 32.1638C113.048 30.8456 114.584 30.1865 115.738 30.1865C117.274 30.1865 118.747 30.814 119.901 31.7558L122.398 26.9845C120.253 25.7915 117.274 25.0381 114.841 25.0381C110.277 25.0381 106.63 28.0777 106.236 32.4581V25.6656H99.9601V38.1282C99.9601 41.2043 99.7357 44.5632 95.7013 44.5632C91.6669 44.5632 91.4425 41.2043 91.4425 38.1282V25.6656H86.0169V25.5975H71.2741C71.2462 25.5659 71.212 25.5406 71.1736 25.5232C71.1353 25.5058 71.0937 25.4967 71.0515 25.4966H66.4C66.3228 25.5014 66.2504 25.5355 66.1975 25.5919C66.1446 25.6483 66.1151 25.7227 66.1151 25.8C66.1151 25.8773 66.1446 25.9517 66.1975 26.008C66.2504 26.0644 66.3228 26.0985 66.4 26.1034H71.0515C71.0936 26.1031 71.1352 26.094 71.1735 26.0766C71.2119 26.0592 71.2461 26.0339 71.2741 26.0025H85.1668V26.7273H74.5776C74.5498 26.6957 74.5155 26.6703 74.4772 26.6529C74.4388 26.6355 74.3972 26.6265 74.3551 26.6263H68.8686C68.8153 26.5944 68.7545 26.577 68.6923 26.5758H63.3664C63.268 26.5758 63.1737 26.6149 63.1041 26.6845C63.0346 26.754 62.9955 26.8484 62.9955 26.9468C62.9955 27.0451 63.0346 27.1395 63.1041 27.209C63.1737 27.2786 63.268 27.3177 63.3664 27.3177H64.9352C64.7065 27.4295 64.4542 27.5536 64.1891 27.6886H61.5465C61.4508 27.6925 61.3603 27.7332 61.294 27.8023C61.2276 27.8714 61.1906 27.9634 61.1906 28.0592C61.1906 28.155 61.2276 28.247 61.294 28.3161C61.3603 28.3852 61.4508 28.4259 61.5465 28.4298H62.8356C62.6252 28.5563 62.4215 28.6852 62.2293 28.8171H60.2653C60.1696 28.821 60.0792 28.8617 60.0128 28.9308C59.9465 28.9999 59.9094 29.092 59.9094 29.1877C59.9094 29.2835 59.9465 29.3756 60.0128 29.4446C60.0792 29.5137 60.1696 29.5545 60.2653 29.5583H61.3367C61.3039 29.5936 61.268 29.6289 61.2382 29.6635C61.1458 29.7566 61.0607 29.8514 60.9737 29.9457H59.321C59.2227 29.9457 59.1283 29.9847 59.0588 30.0543C58.9892 30.1239 58.9501 30.2182 58.9501 30.3166C58.9501 30.4149 58.9892 30.5093 59.0588 30.5788C59.1283 30.6484 59.2227 30.6875 59.321 30.6875H60.3565C60.2617 30.8158 60.1693 30.9447 60.0853 31.0754H58.5123C58.4624 31.0734 58.4126 31.0815 58.3658 31.0992C58.3191 31.1169 58.2764 31.1439 58.2404 31.1785C58.2043 31.2131 58.1757 31.2547 58.1561 31.3006C58.1365 31.3466 58.1264 31.3961 58.1264 31.446C58.1264 31.496 58.1365 31.5455 58.1561 31.5914C58.1757 31.6374 58.2043 31.6789 58.2404 31.7136C58.2764 31.7482 58.3191 31.7751 58.3658 31.7929C58.4126 31.8106 58.4624 31.8187 58.5123 31.8166H59.681C59.621 31.9437 59.566 32.0731 59.5162 32.2046H57.9061C57.8562 32.2026 57.8063 32.2106 57.7596 32.2283C57.7129 32.2461 57.6702 32.273 57.6342 32.3076C57.5981 32.3423 57.5694 32.3838 57.5499 32.4298C57.5303 32.4757 57.5202 32.5252 57.5202 32.5752C57.5202 32.6252 57.5303 32.6746 57.5499 32.7206C57.5694 32.7666 57.5981 32.8081 57.6342 32.8427C57.6702 32.8773 57.7129 32.9043 57.7596 32.922C57.8063 32.9397 57.8562 32.9478 57.9061 32.9458H59.3016C59.2764 33.0742 59.257 33.2036 59.2432 33.3337H57.5017C57.4034 33.3337 57.3092 33.3728 57.2397 33.4423C57.1702 33.5118 57.1311 33.606 57.1311 33.7043C57.1311 33.8026 57.1702 33.8969 57.2397 33.9664C57.3092 34.0359 57.4034 34.0749 57.5017 34.0749H59.2164C59.2231 34.2069 59.2377 34.3352 59.2547 34.4629H57.0974C57.0475 34.4608 56.9976 34.4689 56.9509 34.4867C56.9042 34.5044 56.8615 34.5313 56.8255 34.5659C56.7894 34.6006 56.7607 34.6421 56.7411 34.6881C56.7216 34.734 56.7115 34.7835 56.7115 34.8335C56.7115 34.8834 56.7216 34.9329 56.7411 34.9789C56.7607 35.0249 56.7894 35.0664 56.8255 35.101C56.8615 35.1356 56.9042 35.1626 56.9509 35.1803C56.9976 35.198 57.0475 35.2061 57.0974 35.2041H59.4189C59.4603 35.3379 59.5077 35.4668 59.56 35.592H56.8943C56.8444 35.59 56.7945 35.5981 56.7478 35.6158C56.7011 35.6335 56.6584 35.6605 56.6224 35.6951C56.5863 35.7297 56.5576 35.7713 56.5381 35.8172C56.5185 35.8632 56.5084 35.9127 56.5084 35.9626C56.5084 36.0126 56.5185 36.0621 56.5381 36.108C56.5576 36.154 56.5863 36.1955 56.6224 36.2302C56.6584 36.2648 56.7011 36.2917 56.7478 36.3095C56.7945 36.3272 56.8444 36.3353 56.8943 36.3332H59.9692C60.0665 36.4719 60.1711 36.6014 60.283 36.7206H56.7192C56.6235 36.7244 56.533 36.7652 56.4667 36.8343C56.4003 36.9033 56.3633 36.9954 56.3633 37.0912C56.3633 37.1869 56.4003 37.279 56.4667 37.3481C56.533 37.4172 56.6235 37.4579 56.7192 37.4618H60.9409C61.0485 37.5919 61.1555 37.7214 61.2631 37.8497H56.7593C56.7094 37.8477 56.6596 37.8558 56.6128 37.8735C56.5661 37.8912 56.5234 37.9182 56.4874 37.9528C56.4513 37.9874 56.4227 38.0289 56.4031 38.0749C56.3835 38.1209 56.3734 38.1703 56.3734 38.2203C56.3734 38.2703 56.3835 38.3198 56.4031 38.3657C56.4227 38.4117 56.4513 38.4532 56.4874 38.4878C56.5234 38.5225 56.5661 38.5494 56.6128 38.5671C56.6596 38.5849 56.7094 38.593 56.7593 38.5909H61.9733C62.1649 38.7508 62.3668 38.8816 62.5863 38.9655L62.6191 38.9783H56.8268C56.7769 38.9762 56.727 38.9843 56.6803 39.002C56.6336 39.0197 56.5909 39.0467 56.5549 39.0813C56.5188 39.1159 56.4902 39.1575 56.4706 39.2035C56.451 39.2494 56.4409 39.2989 56.4409 39.3489C56.4409 39.3988 56.451 39.4483 56.4706 39.4943C56.4902 39.5402 56.5188 39.5818 56.5549 39.6164C56.5909 39.651 56.6336 39.678 56.6803 39.6957C56.727 39.7134 56.7769 39.7215 56.8268 39.7195H63.9076C63.9823 39.8283 64.0316 39.9566 64.0559 40.1074H57.0299C56.9316 40.1074 56.8373 40.1465 56.7678 40.216C56.6983 40.2855 56.6593 40.3797 56.6593 40.478C56.6593 40.5763 56.6983 40.6706 56.7678 40.7401C56.8373 40.8096 56.9316 40.8486 57.0299 40.8486H64.3587C64.4755 40.9927 64.6214 41.1198 64.7807 41.2366H57.3668C57.2685 41.2366 57.1742 41.2756 57.1047 41.3451C57.0352 41.4146 56.9961 41.5089 56.9961 41.6072C56.9961 41.7055 57.0352 41.7997 57.1047 41.8692C57.1742 41.9387 57.2685 41.9778 57.3668 41.9778H65.767C65.8399 42.0957 65.8819 42.2252 65.8959 42.3651H57.8386C57.7403 42.3651 57.646 42.4041 57.5765 42.4736C57.507 42.5431 57.468 42.6374 57.468 42.7357C57.468 42.834 57.507 42.9283 57.5765 42.9978C57.646 43.0673 57.7403 43.1063 57.8386 43.1063H65.7688L65.756 43.144C65.711 43.2589 65.6706 43.3755 65.635 43.4936H58.4454C58.3471 43.4936 58.2527 43.5327 58.1832 43.6023C58.1136 43.6718 58.0745 43.7662 58.0745 43.8646C58.0745 43.9629 58.1136 44.0573 58.1832 44.1268C58.2527 44.1964 58.3471 44.2355 58.4454 44.2355H65.4806C65.4656 44.364 65.4591 44.4934 65.4611 44.6228H59.2547C59.2048 44.6208 59.155 44.6289 59.1083 44.6466C59.0615 44.6643 59.0189 44.6913 58.9828 44.7259C58.9468 44.7605 58.9181 44.802 58.8985 44.848C58.8789 44.894 58.8688 44.9434 58.8688 44.9934C58.8688 45.0434 58.8789 45.0928 58.8985 45.1388C58.9181 45.1848 58.9468 45.2263 58.9828 45.2609C59.0189 45.2955 59.0615 45.3225 59.1083 45.3402C59.155 45.3579 59.2048 45.366 59.2547 45.364H65.6235C65.6448 45.4108 65.6618 45.4595 65.6879 45.5032C65.736 45.5835 65.7767 45.6668 65.812 45.7519H60.1984C60.1001 45.7519 60.0057 45.791 59.9362 45.8606C59.8666 45.9301 59.8275 46.0245 59.8275 46.1229C59.8275 46.2212 59.8666 46.3156 59.9362 46.3851C60.0057 46.4547 60.1001 46.4938 60.1984 46.4938H65.9749C65.9828 46.6239 65.9853 46.754 65.9761 46.8817H61.4115C61.3132 46.8817 61.2189 46.9207 61.1494 46.9902C61.0799 47.0597 61.0409 47.154 61.0409 47.2523C61.0409 47.3506 61.0799 47.4449 61.1494 47.5144C61.2189 47.5839 61.3132 47.6229 61.4115 47.6229H65.8339C65.8296 47.6351 65.8266 47.6485 65.8229 47.6606C65.7864 47.7743 65.7631 47.8918 65.7536 48.0108H63.097C63.0471 48.0088 62.9973 48.0169 62.9505 48.0346C62.9038 48.0523 62.8611 48.0793 62.8251 48.1139C62.7891 48.1485 62.7604 48.1901 62.7408 48.2361C62.7212 48.282 62.7111 48.3315 62.7111 48.3815C62.7111 48.4314 62.7212 48.4809 62.7408 48.5269C62.7604 48.5728 62.7891 48.6144 62.8251 48.649C62.8611 48.6836 62.9038 48.7106 62.9505 48.7283C62.9973 48.746 63.0471 48.7541 63.097 48.7521H65.8892C65.9713 48.9114 66.0838 49.0458 66.2224 49.14H66.0631C65.9647 49.14 65.8704 49.1791 65.8008 49.2486C65.7313 49.3182 65.6922 49.4125 65.6922 49.5109C65.6922 49.6093 65.7313 49.7036 65.8008 49.7732C65.8704 49.8427 65.9647 49.8818 66.0631 49.8818H67.2768C67.3491 49.8799 67.4192 49.8564 67.478 49.8143H71.794C71.8361 49.8142 71.8777 49.8051 71.9161 49.7877C71.9544 49.7703 71.9887 49.745 72.0165 49.7134H92.8945C93.8214 49.877 94.7607 49.96 95.7019 49.9615C98.5196 49.9615 101.689 49.2707 103.708 47.3244C106.109 45.0326 106.237 42.0191 106.237 38.9746V34.1059C106.588 37.9282 109.371 38.639 113.049 39.6654C114.395 40.0417 116.86 40.6388 116.86 42.3651C116.86 44.0287 115.29 44.7505 113.818 44.7505C111.673 44.7505 109.815 43.6517 108.247 42.3019L105.557 47.2617C108.022 48.957 111 49.9615 114.042 49.9615C116.475 49.9615 119.005 49.3023 120.895 47.7324C120.994 47.6497 121.088 47.5633 121.18 47.4758L120.478 49.3334H126.804L128.469 45.2211H136.742L138.407 49.3334H144.623L135.67 25.6656Z" fill="#9A3242"/>
<path fill-rule="evenodd" clip-rule="evenodd" d="M88.7968 48.1808H74.9144C74.8865 48.1491 74.8523 48.1237 74.814 48.1062C74.7756 48.0887 74.734 48.0795 74.6918 48.0792H69.2978C69.2389 48.0374 69.1688 48.0141 69.0966 48.0124H68.5603C68.6782 47.8792 68.8035 47.7497 68.936 47.6244H70.3777C70.4501 47.6227 70.5202 47.5992 70.579 47.5569H76.4449C76.487 47.5566 76.5286 47.5474 76.567 47.5299C76.6053 47.5124 76.6396 47.487 76.6674 47.4554H87.8531C88.1462 47.7229 88.463 47.9625 88.7968 48.1808ZM87.4311 47.0516H76.6674C76.6395 47.0202 76.6052 46.9949 76.5669 46.9775C76.5285 46.9601 76.487 46.951 76.4449 46.9507H70.579C70.5201 46.9087 70.45 46.8851 70.3777 46.8832H69.8037C69.9089 46.7665 70.008 46.6369 70.0998 46.4953H71.1189C71.1913 46.4933 71.2613 46.4698 71.3202 46.4278H77.5904C77.6325 46.4276 77.6742 46.4186 77.7125 46.4012C77.7509 46.3838 77.7851 46.3584 77.813 46.3268H86.8237C87.0049 46.5755 87.208 46.8169 87.4311 47.0516ZM86.1487 45.1983C86.2673 45.4446 86.3968 45.6866 86.5458 45.9231H77.813C77.7852 45.8914 77.751 45.8659 77.7126 45.8484C77.6742 45.8309 77.6326 45.8218 77.5904 45.8215H71.3196C71.2608 45.7794 71.1907 45.7559 71.1183 45.7541H70.5085C70.5717 45.6239 70.6325 45.4938 70.6903 45.3661H71.7921C71.8643 45.3644 71.9344 45.3411 71.9933 45.2992H78.5335C78.5757 45.2989 78.6173 45.2897 78.6556 45.2722C78.694 45.2547 78.7282 45.2293 78.7561 45.1977L86.1487 45.1983ZM85.9669 44.7939H78.7567C78.7288 44.7623 78.6946 44.7369 78.6562 44.7194C78.6179 44.7019 78.5763 44.6927 78.5341 44.6924H71.9939C71.9351 44.6503 71.865 44.6268 71.7927 44.6249H71.0034C71.0502 44.5003 71.0971 44.3713 71.1451 44.2376H72.332C72.4043 44.2356 72.4744 44.2121 72.5333 44.1701H79.3434C79.3856 44.1699 79.4272 44.1609 79.4655 44.1435C79.5039 44.1261 79.5381 44.1007 79.566 44.0691H85.7055C85.7815 44.3142 85.869 44.5556 85.9669 44.7939ZM85.5918 43.6648H79.566C79.5381 43.6331 79.5039 43.6077 79.4656 43.5902C79.4272 43.5727 79.3856 43.5635 79.3434 43.5633H72.5333C72.4745 43.5211 72.4043 43.4976 72.332 43.4958H71.409C71.4582 43.3626 71.5075 43.2337 71.5573 43.1078H72.7364C72.8087 43.1061 72.8789 43.0826 72.9376 43.0403H79.9497C79.9918 43.0402 80.0335 43.0311 80.0719 43.0136C80.1103 42.996 80.1445 42.9706 80.1722 42.9388H85.4288C85.4744 43.1844 85.5297 43.4252 85.5918 43.6648ZM85.3631 42.535H80.1728C80.145 42.5034 80.1107 42.4781 80.0724 42.4607C80.034 42.4433 79.9924 42.4342 79.9503 42.4341H72.9382C72.8794 42.392 72.8093 42.3685 72.737 42.3666H71.9088C71.9854 42.2225 72.0012 42.0936 71.9672 41.9793H73.0738C73.1462 41.9776 73.2163 41.9541 73.2751 41.9118H80.4215C80.4637 41.9115 80.5054 41.9024 80.5438 41.885C80.5823 41.8677 80.6166 41.8424 80.6447 41.8108H85.2707C85.295 42.0541 85.3267 42.2955 85.3631 42.535ZM85.2379 41.4059H80.6447C80.6167 41.3743 80.5823 41.3489 80.5439 41.3314C80.5054 41.3139 80.4637 41.3047 80.4215 41.3043H73.2751C73.2162 41.2625 73.1461 41.2392 73.0738 41.2375H70.6653C70.6019 41.2212 70.5383 41.2058 70.4744 41.1912C70.0646 41.0964 69.6821 40.945 69.2553 40.8495H73.2763C73.3486 40.8476 73.4187 40.8241 73.4776 40.782H80.6921C80.7342 40.7819 80.7758 40.7728 80.8142 40.7554C80.8526 40.738 80.8868 40.7127 80.9146 40.6811H85.1953C85.2044 40.9243 85.2196 41.1657 85.2379 41.4059ZM68.6922 27.3167C68.775 27.3152 68.8548 27.2853 68.9184 27.2322H74.355C74.4324 27.232 74.5068 27.2017 74.5623 27.1477H85.1667V27.8561H76.398C76.3701 27.8244 76.3358 27.7989 76.2973 27.7814C76.2589 27.7639 76.2171 27.7547 76.1749 27.7545H70.309C70.2501 27.7127 70.18 27.6894 70.1078 27.6877H68.8783C68.8164 27.5569 68.7416 27.4327 68.6551 27.3167H68.6922ZM80.914 34.631C80.8862 34.5994 80.8519 34.574 80.8136 34.5566C80.7752 34.5392 80.7336 34.5302 80.6915 34.53H73.477C73.4181 34.4879 73.348 34.4644 73.2757 34.4626H70.6732C70.7316 34.3531 70.7912 34.2248 70.8544 34.0746H73.0063C73.0786 34.0727 73.1487 34.0492 73.2076 34.0071H80.4215C80.4638 34.0068 80.5054 33.9976 80.5439 33.9801C80.5823 33.9626 80.6167 33.9372 80.6447 33.9056H85.1667V34.6304L80.914 34.631ZM85.1667 35.0353V35.7601H81.0496C81.0217 35.7284 80.9874 35.703 80.9489 35.6855C80.9105 35.6679 80.8687 35.6588 80.8265 35.6586H73.6794C73.6205 35.6167 73.5504 35.5934 73.4782 35.5917H68.6442C68.9555 35.475 69.307 35.3436 69.6298 35.2038H73.2763C73.3487 35.2021 73.4188 35.1786 73.4776 35.1363H80.6921C80.7342 35.1361 80.7758 35.1271 80.8142 35.1097C80.8526 35.0923 80.8868 35.0669 80.9146 35.0353H85.1667ZM80.6447 33.5018C80.6168 33.4701 80.5824 33.4447 80.544 33.4272C80.5055 33.4097 80.4638 33.4005 80.4215 33.4003H73.2076C73.1487 33.3584 73.0786 33.3351 73.0063 33.3334H71.1408L71.2831 32.9455H72.6695C72.7418 32.9435 72.8119 32.92 72.8707 32.878H79.8159C79.858 32.8778 79.8996 32.8688 79.938 32.8514C79.9763 32.834 80.0106 32.8086 80.0384 32.777H85.1674V33.5018H80.6447ZM80.0378 32.3727C80.01 32.341 79.9758 32.3156 79.9374 32.2981C79.8991 32.2806 79.8574 32.2714 79.8153 32.2711H72.8701C72.8113 32.229 72.7412 32.2055 72.6689 32.2036H71.5683C71.6109 32.1045 71.651 32.0182 71.6875 31.955C71.7106 31.9142 71.7215 31.8644 71.7337 31.8157H72.2651C72.3375 31.814 72.4076 31.7905 72.4664 31.7482H79.2759C79.318 31.7479 79.3596 31.7388 79.3979 31.7214C79.4363 31.704 79.4705 31.6788 79.4985 31.6473H85.1667V32.3721L80.0378 32.3727ZM79.4985 31.2435C79.4706 31.2119 79.4364 31.1866 79.398 31.1692C79.3597 31.1518 79.3181 31.1427 79.2759 31.1426H72.4664C72.4075 31.1006 72.3374 31.0772 72.2651 31.0751H71.6431C71.5903 30.9389 71.5228 30.8088 71.4418 30.6872H71.6577C71.73 30.6855 71.8002 30.662 71.8589 30.6197H78.4666C78.5087 30.6195 78.5504 30.6105 78.5887 30.5931C78.6271 30.5757 78.6613 30.5503 78.6892 30.5187H85.1661V31.2429H79.4985V31.2435ZM78.6898 30.1144C78.6619 30.0827 78.6277 30.0573 78.5894 30.0398C78.551 30.0223 78.5094 30.0131 78.4672 30.0128H71.8595C71.8007 29.9708 71.7306 29.9473 71.6583 29.9453H70.3346C70.0322 29.8295 69.7352 29.7002 69.4444 29.558H70.984C71.0563 29.5563 71.1265 29.5328 71.1852 29.4905H77.4554C77.4977 29.4902 77.5394 29.481 77.5778 29.4635C77.6163 29.446 77.6506 29.4206 77.6786 29.389H85.1667V30.1138L78.6898 30.1144ZM77.6786 28.9852C77.6507 28.9536 77.6163 28.9282 77.5778 28.9108C77.5394 28.8934 77.4977 28.8844 77.4554 28.8843H71.1852C71.1264 28.8422 71.0563 28.8187 70.984 28.8168H69.4121C69.4456 28.7286 69.4255 28.6313 69.3282 28.5176C69.3051 28.4909 69.2863 28.4587 69.265 28.4289H70.1071C70.1795 28.4269 70.2495 28.4034 70.3084 28.3614H76.1743C76.2165 28.3612 76.2583 28.352 76.2967 28.3345C76.3352 28.317 76.3695 28.2916 76.3974 28.2598H85.1661V28.9846L77.6786 28.9852ZM67.9778 29.558H68.7001C68.5907 29.6529 68.5074 29.7885 68.4703 29.9453H68.0781C68.0221 29.831 67.9571 29.7161 67.9778 29.558ZM67.8069 30.6872H68.4824C68.4824 30.8264 68.4733 30.9614 68.4508 31.0751H67.8598C67.7145 30.8878 67.7303 30.7784 67.8069 30.6872ZM67.5965 36.3335H73.4782C73.5505 36.3318 73.6207 36.3083 73.6794 36.266H80.8259C80.8681 36.2658 80.9097 36.2567 80.9482 36.2393C80.9866 36.2219 81.021 36.1966 81.049 36.1651H85.1661V36.8893H81.2509C81.223 36.8576 81.1888 36.8322 81.1505 36.8147C81.1121 36.7972 81.0705 36.788 81.0283 36.7877H73.6794C73.6206 36.7457 73.5505 36.7222 73.4782 36.7202H67.5181C67.5351 36.5786 67.5618 36.4497 67.5965 36.3335ZM67.4676 37.4621H73.4782C73.5505 37.4604 73.6207 37.4369 73.6794 37.3946H81.0283C81.0704 37.3943 81.112 37.3851 81.1503 37.3678C81.1887 37.3504 81.2229 37.3251 81.2509 37.2936H85.1661V38.0184H81.3184C81.2905 37.9868 81.2563 37.9614 81.218 37.9439C81.1796 37.9264 81.138 37.9172 81.0958 37.9169H73.7469C73.688 37.8749 73.618 37.8514 73.5457 37.8494H67.4433C67.4542 37.7247 67.4615 37.594 67.4676 37.4621ZM66.8097 27.3167H67.3083C67.2954 27.4246 67.2946 27.5335 67.3059 27.6414C67.3077 27.6579 67.3046 27.6712 67.3052 27.6877H66.4528C66.5239 27.5782 66.6461 27.459 66.8097 27.3167ZM64.0862 36.3335H66.1931C66.2576 36.3925 66.2947 36.4776 66.2947 36.6078L66.2959 36.7215H63.795C63.8631 36.5755 63.9598 36.4405 64.0862 36.3335ZM63.8777 37.85C63.7936 37.7324 63.7305 37.6011 63.691 37.4621H66.3512C66.3768 37.5977 66.4205 37.7266 66.4795 37.85H63.8777ZM64.7441 38.6295L64.6888 38.5918H73.5457C73.618 38.5899 73.6881 38.5664 73.7469 38.5243H81.0958C81.138 38.5242 81.1796 38.5151 81.2179 38.4977C81.2563 38.4803 81.2905 38.455 81.3184 38.4234H85.1661V38.9761L85.1667 39.1482H81.1153C81.0875 39.1165 81.0532 39.0911 81.0149 39.0736C80.9765 39.0561 80.9349 39.0469 80.8928 39.0466H73.6119C73.5531 39.0046 73.483 38.9811 73.4107 38.9792H65.1576C65.0348 38.846 64.8959 38.7285 64.7441 38.6295ZM65.8119 40.1083C65.7662 39.9762 65.7132 39.8467 65.6532 39.7204H73.4113C73.4835 39.7186 73.5536 39.6954 73.6126 39.6535H80.8946C80.9367 39.6532 80.9783 39.644 81.0167 39.6265C81.0551 39.609 81.0893 39.5836 81.1171 39.5519H85.1698C85.1716 39.7939 85.1765 40.0353 85.1826 40.2767H80.9146C80.8868 40.2451 80.8526 40.2198 80.8142 40.2024C80.7758 40.185 80.7342 40.1759 80.6921 40.1758H73.477C73.4181 40.1336 73.348 40.1101 73.2757 40.1083H65.8119ZM66.0022 40.8501H67.8118C67.712 40.872 67.6154 40.8897 67.5083 40.9219C66.3105 41.2812 66.1238 41.3183 66.0022 40.8501ZM72.0158 49.3099C71.988 49.2783 71.9537 49.253 71.9154 49.2356C71.877 49.2182 71.8354 49.2091 71.7933 49.209H67.4773C67.4394 49.1837 67.3968 49.1661 67.3521 49.1573C67.6062 49.0691 67.8343 48.9317 67.9674 48.7542H69.096C69.1683 48.7522 69.2384 48.7287 69.2972 48.6867H74.6912C74.7334 48.6864 74.775 48.6772 74.8134 48.6597C74.8517 48.6422 74.8859 48.6168 74.9138 48.5851H89.4571C90.0105 48.88 90.6027 49.1172 91.2144 49.3099H72.0158ZM153.864 88.6496V84.0655H47V88.6496H153.864ZM153.864 90.9413V90.2001H47V90.9413H153.864Z" fill="white"/>
<path fill-rule="evenodd" clip-rule="evenodd" d="M79.165 85.1572H80.1337C80.6566 85.1572 81.0184 85.398 81.0184 85.9574C81.0184 86.532 80.7089 86.7838 80.1568 86.7838H79.7986V87.59H79.1656L79.165 85.1572Z" fill="#9A3242"/>
<path fill-rule="evenodd" clip-rule="evenodd" d="M79.7979 86.2741H79.9043C80.1335 86.2741 80.3597 86.2741 80.3597 85.9773C80.3597 85.6709 80.1499 85.6672 79.9043 85.6672H79.7979V86.2741Z" fill="white"/>
<path fill-rule="evenodd" clip-rule="evenodd" d="M83.4101 85.1572V86.5253C83.4101 86.8391 83.3973 87.1486 83.1547 87.3839C82.9516 87.5846 82.6318 87.6545 82.3478 87.6545C82.0638 87.6545 81.744 87.5846 81.5409 87.3839C81.2989 87.1486 81.2861 86.8391 81.2861 86.5253V85.1572H81.9191V86.4384C81.9191 86.7546 81.9416 87.1 82.3484 87.1C82.7552 87.1 82.7777 86.7546 82.7777 86.4384V85.1572H83.4101ZM83.9111 87.5906V85.1572H84.8147C85.247 85.1572 85.5376 85.3244 85.5376 85.789C85.5376 86.0085 85.4665 86.1867 85.2695 86.2864V86.2925C85.6185 86.3375 85.7669 86.574 85.7669 86.9127C85.7669 87.4234 85.3315 87.5906 84.8858 87.5906H83.9111Z" fill="#9A3242"/>
<path fill-rule="evenodd" clip-rule="evenodd" d="M84.543 87.106H84.6238C84.8111 87.106 85.1273 87.1158 85.1273 86.8482C85.1273 86.5539 84.8142 86.5831 84.608 86.5831H84.5436L84.543 87.106ZM84.543 86.1125H84.6141C84.7813 86.1125 84.9558 86.0839 84.9558 85.8772C84.9558 85.654 84.7588 85.6406 84.588 85.6406H84.543V86.1125Z" fill="white"/>
<path fill-rule="evenodd" clip-rule="evenodd" d="M86.8277 87.0553H87.5865V87.591H86.1953V85.1576H86.8277V87.0553ZM88.6275 87.591H87.9951V85.1576H88.6275V87.591ZM90.3769 85.7839C90.2601 85.6828 90.1117 85.6256 89.9573 85.6221C89.8412 85.6221 89.6861 85.6896 89.6861 85.8252C89.6861 85.9675 89.8576 86.0222 89.9671 86.0581L90.1282 86.1068C90.4675 86.2065 90.7283 86.3773 90.7283 86.772C90.7283 87.014 90.6706 87.2627 90.4766 87.4262C90.2869 87.588 90.0315 87.6555 89.7859 87.6555C89.4794 87.6555 89.179 87.5521 88.9303 87.3788L89.2015 86.868C89.3596 87.0073 89.5469 87.1198 89.7634 87.1198C89.9117 87.1198 90.0698 87.0462 90.0698 86.8753C90.0698 86.6972 89.8211 86.6352 89.6855 86.5975C89.2885 86.4844 89.027 86.3816 89.027 85.9097C89.027 85.416 89.3791 85.0925 89.8661 85.0925C90.1112 85.0925 90.4115 85.1698 90.628 85.2932L90.3769 85.7839ZM92.575 86.097V85.1576H93.208V87.591H92.575V86.5938H91.6617V87.591H91.0287V85.1576H91.6617V86.097H92.575ZM94.2532 85.6933V86.0995H94.9664V86.6352H94.2532V87.0553H95.0054V87.591H93.6208V85.1576H95.0054V85.6933H94.2532ZM95.3951 85.1576H96.2926C96.9706 85.1576 97.5288 85.6896 97.5288 86.3737C97.5288 87.059 96.9669 87.591 96.2926 87.591H95.3951V85.1576Z" fill="#9A3242"/>
<path fill-rule="evenodd" clip-rule="evenodd" d="M96.0273 87.0554H96.1696C96.5472 87.0554 96.8701 86.8486 96.8701 86.3738C96.8701 85.9378 96.5825 85.6934 96.1757 85.6934H96.0273V87.0554Z" fill="white"/>
<path fill-rule="evenodd" clip-rule="evenodd" d="M99.4922 87.5906V85.1572H100.396C100.828 85.1572 101.119 85.3244 101.119 85.789C101.119 86.0085 101.048 86.1867 100.851 86.2864V86.2925C101.2 86.3375 101.348 86.574 101.348 86.9127C101.348 87.4234 100.912 87.5906 100.466 87.5906H99.4922Z" fill="#9A3242"/>
<path fill-rule="evenodd" clip-rule="evenodd" d="M100.125 87.106H100.205C100.393 87.106 100.709 87.1158 100.709 86.8482C100.709 86.5539 100.396 86.5831 100.189 86.5831H100.125V87.106ZM100.125 86.1125H100.196C100.363 86.1125 100.538 86.0839 100.538 85.8772C100.538 85.654 100.341 85.6406 100.17 85.6406H100.125V86.1125Z" fill="white"/>
<path fill-rule="evenodd" clip-rule="evenodd" d="M101.472 85.1574H102.231L102.687 85.819L103.141 85.1574H103.899L103.002 86.4222V87.5908H102.369V86.4222L101.472 85.1574ZM107.881 86.2324C107.875 86.5875 107.849 86.8904 107.633 87.1944C107.394 87.527 107.036 87.6717 106.63 87.6717C105.864 87.6717 105.332 87.1518 105.332 86.3869C105.332 85.5958 105.867 85.0771 106.652 85.0771C107.152 85.0771 107.539 85.3027 107.75 85.7575L107.149 86.0093C107.062 85.7764 106.878 85.622 106.623 85.622C106.206 85.622 105.99 86.0184 105.99 86.3905C105.99 86.7681 106.217 87.1518 106.633 87.1518C106.907 87.1518 107.117 87.0107 107.144 86.7292H106.627V86.2331H107.881V86.2324ZM109.051 87.1682L108.882 87.5908H108.211L109.147 85.1574H109.838L110.755 87.5908H110.08L109.921 87.1682H109.051Z" fill="#9A3242"/>
<path fill-rule="evenodd" clip-rule="evenodd" d="M109.493 85.9097H109.486L109.225 86.6837H109.751L109.493 85.9097Z" fill="white"/>
<path fill-rule="evenodd" clip-rule="evenodd" d="M111.251 85.1575H111.884L113.043 86.646H113.049V85.1575H113.682V87.5909H113.049L111.89 86.0993H111.884V87.5909H111.251V85.1575ZM114.33 85.1575H114.963L116.121 86.646H116.128V85.1575H116.761V87.5909H116.128L114.969 86.0993H114.963V87.5909H114.33V85.1575ZM117.799 85.6932V86.0993H118.513V86.635H117.799V87.0552H118.551V87.5909H117.166V85.1575H118.551V85.6932H117.799ZM120.146 87.5909H119.513V85.6932H118.99V85.1575H120.668V85.6932H120.146V87.5909ZM122.001 87.5909H121.368V85.6932H120.845V85.1575H122.523V85.6932H122.001V87.5909ZM78.0906 16.6867H77.4558V14.7841H76.9316V14.2466H78.6147V14.7841H78.0906V16.6867ZM80.3945 15.1885V14.2466H81.0287V16.6867H80.3945V15.6864H79.4782V16.6867H78.8446V14.2466H79.4782V15.1885H80.3945ZM82.077 14.7841V15.1915H82.792V15.729H82.077V16.1498H82.8309V16.6867H81.4422V14.2466H82.8309V14.7841H82.077ZM84.3304 14.2466H84.9646L86.1266 15.7387H86.1333V14.2466H86.7675V16.6867H86.1333L84.9713 15.1915H84.9646V16.6867H84.3304V14.2466ZM87.8024 16.2629L87.6339 16.6867H86.9608L87.8997 14.2466H88.5916L89.511 16.6867H88.8348L88.6761 16.2629H87.8024Z" fill="#9A3242"/>
<path fill-rule="evenodd" clip-rule="evenodd" d="M88.2453 15.0007H88.2392L87.9766 15.7772H88.5044L88.2453 15.0007Z" fill="white"/>
<path fill-rule="evenodd" clip-rule="evenodd" d="M90.6779 16.6865H90.0437V14.7839H89.5195V14.2464H91.2026V14.7839H90.6779V16.6865ZM92.0667 16.6865H91.4318V14.2464H92.0667V16.6865ZM95.0564 15.4212C95.0564 16.2104 94.4897 16.7674 93.7072 16.7674C92.924 16.7674 92.3579 16.2104 92.3579 15.4212C92.3579 14.6836 93.0049 14.1655 93.7072 14.1655C94.4095 14.1655 95.0564 14.6836 95.0564 15.4212Z" fill="#9A3242"/>
<path fill-rule="evenodd" clip-rule="evenodd" d="M93.0176 15.4242C93.0176 15.845 93.3283 16.152 93.7071 16.152C94.0859 16.152 94.3966 15.845 94.3966 15.4242C94.3966 15.0873 94.0859 14.7803 93.7071 14.7803C93.3283 14.7803 93.0176 15.0879 93.0176 15.4242Z" fill="white"/>
<path fill-rule="evenodd" clip-rule="evenodd" d="M95.3496 14.2467H95.9838L97.1458 15.7389H97.1525V14.2467H97.7867V16.6868H97.1525L95.9905 15.1916H95.9838V16.6868H95.3496V14.2467ZM98.6726 14.2467L98.5851 15.3181H98.2099L98.1223 14.2467H98.6726ZM111.944 14.8742C111.827 14.7731 111.678 14.7159 111.524 14.7125C111.408 14.7125 111.252 14.7806 111.252 14.9162C111.252 15.0584 111.423 15.1138 111.533 15.149L111.695 15.1977C112.035 15.298 112.297 15.4695 112.297 15.8641C112.297 16.1067 112.239 16.356 112.045 16.5214C111.855 16.6832 111.598 16.7506 111.352 16.7506C111.045 16.7506 110.744 16.6473 110.494 16.4722L110.766 15.9608C110.925 16.1 111.113 16.2137 111.329 16.2137C111.479 16.2137 111.637 16.139 111.637 15.9675C111.637 15.7899 111.388 15.7279 111.252 15.689C110.854 15.5753 110.592 15.4719 110.592 14.9995C110.592 14.5045 110.944 14.1804 111.434 14.1804C111.679 14.1804 111.98 14.2582 112.197 14.3811L111.944 14.8742ZM102.112 14.2467H102.746L103.907 15.7389H103.914V14.2467H104.548V16.6868H103.914L102.751 15.1916H102.746V16.6868H102.112V14.2467ZM105.596 14.7842V15.1916H106.311V15.7291H105.596V16.1499H106.35V16.6868H104.962V14.2467H106.35V14.7842H105.596ZM107.704 15.8228H107.711L108.221 14.2467H108.727L109.205 15.8228H109.212L109.672 14.2467H110.332L109.552 16.6868H108.904L108.477 15.2725H108.471L107.992 16.6868H107.348L106.62 14.2467H107.28L107.704 15.8228ZM112.782 14.2467H113.752C114.277 14.2467 114.639 14.4893 114.639 15.0493C114.639 15.6251 114.328 15.8775 113.775 15.8775H113.416V16.6868H112.782V14.2467Z" fill="#9A3242"/>
<path fill-rule="evenodd" clip-rule="evenodd" d="M113.416 15.3665H113.523C113.752 15.3665 113.979 15.3665 113.979 15.0685C113.979 14.7615 113.769 14.7578 113.523 14.7578H113.416V15.3665Z" fill="white"/>
<path fill-rule="evenodd" clip-rule="evenodd" d="M115.542 16.2629L115.373 16.6867H114.7L115.638 14.2466H116.33L117.25 16.6867H116.574L116.415 16.2629H115.542Z" fill="#9A3242"/>
<path fill-rule="evenodd" clip-rule="evenodd" d="M115.985 15.0007H115.979L115.717 15.7772H116.244L115.985 15.0007Z" fill="white"/>
<path fill-rule="evenodd" clip-rule="evenodd" d="M117.447 14.2466H118.418C118.942 14.2466 119.305 14.4892 119.305 15.0492C119.305 15.625 118.994 15.8774 118.44 15.8774H118.081V16.6867H117.447V14.2466Z" fill="#9A3242"/>
<path fill-rule="evenodd" clip-rule="evenodd" d="M118.081 15.3665H118.188C118.417 15.3665 118.644 15.3665 118.644 15.0685C118.644 14.7615 118.434 14.7578 118.188 14.7578H118.081V15.3665Z" fill="white"/>
<path fill-rule="evenodd" clip-rule="evenodd" d="M120.22 14.7841V15.1915H120.935V15.729H120.22V16.1498H120.973V16.6867H119.585V14.2466H120.973V14.7841H120.22ZM123.394 16.6867H122.604L122.006 15.7485H122V16.6867H121.365V14.2466H122.313C122.795 14.2466 123.162 14.4764 123.162 14.9975C123.162 15.3338 122.974 15.625 122.627 15.6864L123.394 16.6867Z" fill="#9A3242"/>
<path fill-rule="evenodd" clip-rule="evenodd" d="M122 15.3402H122.061C122.269 15.3402 122.502 15.3013 122.502 15.0362C122.502 14.7711 122.269 14.7322 122.061 14.7322H122V15.3402Z" fill="white"/>
<path fill-rule="evenodd" clip-rule="evenodd" d="M100.483 14.8742C100.366 14.7731 100.218 14.716 100.063 14.7125C99.9463 14.7125 99.7912 14.7806 99.7912 14.9162C99.7912 15.0584 99.9627 15.1138 100.073 15.149L100.234 15.1977C100.574 15.298 100.836 15.4695 100.836 15.8641C100.836 16.1067 100.779 16.356 100.584 16.5214C100.393 16.6832 100.138 16.7506 99.8915 16.7506C99.5845 16.7506 99.2835 16.6473 99.0342 16.4722L99.306 15.9608C99.4647 16.1 99.6526 16.2137 99.869 16.2137C100.018 16.2137 100.177 16.139 100.177 15.9675C100.177 15.7899 99.9274 15.7279 99.7918 15.689C99.3935 15.5753 99.1315 15.4719 99.1315 14.9995C99.1315 14.5045 99.4841 14.1804 99.973 14.1804C100.219 14.1804 100.52 14.2582 100.737 14.3811L100.483 14.8742Z" fill="#9A3242"/>
<path fill-rule="evenodd" clip-rule="evenodd" d="M135.027 40.5136L132.577 33.5793L130.197 40.5136H135.027Z" fill="white"/>
</svg>
