<svg width="107" height="80" viewBox="0 0 107 80" fill="none" xmlns="http://www.w3.org/2000/svg">
<path fill-rule="evenodd" clip-rule="evenodd" d="M106.864 6.8576V2.2735H0V6.8576H106.864ZM106.864 0.741214V0H0V0.741214H106.864ZM106.849 71.5919V8.40813H0V71.5919H106.849Z" fill="black"/>
<path fill-rule="evenodd" clip-rule="evenodd" d="M93.2764 63.8522V52.4883L101.759 40.1838H94.5546L90.2769 46.8365L86.1105 40.1838H78.9045L87.3887 52.4883V63.8522H93.2764ZM77.8709 40.1838H71.1598L65.9354 53.854C66.096 53.0891 65.9792 52.8337 65.9792 52.0177C65.9792 45.3626 60.3858 40.1832 53.5957 40.1832H44.6074V47.7564C42.7967 42.8106 37.576 39.5891 31.9995 39.5891C27.9006 39.5891 24.2621 41.0934 21.7599 43.9805V40.1838H4.67676V45.6648H9.91451V63.8528H16.2516V45.6648H20.5955C19.4159 47.1624 18.7179 49.2583 18.7179 51.5872C18.7179 59.1319 24.2919 64.4499 31.9995 64.4499C38.1305 64.4499 42.9079 61.0831 44.6074 55.9086V63.8522H53.5963C58.2363 63.8522 62.14 62.0171 64.259 58.3311L62.1199 63.8522H68.5093L70.1912 59.7405H78.5446L80.2264 63.8522H86.9114L77.8709 40.1838Z" fill="white"/>
<path fill-rule="evenodd" clip-rule="evenodd" d="M25.3877 51.624C25.3877 55.5429 28.3684 58.4074 32.0021 58.4074C35.6352 58.4074 38.6164 55.5429 38.6164 51.624C38.6164 48.4889 35.6352 45.6244 32.0021 45.6244C28.369 45.6244 25.3877 48.4889 25.3877 51.624ZM51.2815 58.6415H52.165C55.9477 58.6415 59.1813 56.6331 59.1813 52.018C59.1813 47.7805 56.304 45.3945 52.2295 45.3945H51.2815V58.6415ZM76.8136 55.0327L74.3388 48.0979L71.9364 55.0327H76.8136Z" fill="black"/>
<path fill-rule="evenodd" clip-rule="evenodd" d="M98.186 60.9236H98.9473C99.2787 60.9236 99.6465 61.0458 99.6465 61.4617C99.6465 61.9329 99.1905 61.9761 98.7721 61.9761H98.1854V62.178H98.9041L99.7329 63.4263H99.9955L99.1716 62.184C99.5657 62.122 99.8843 61.9086 99.8843 61.4678C99.8843 60.9783 99.6088 60.7217 98.985 60.7217H97.9482V63.4257H98.186V60.9236Z" fill="white"/>
<path fill-rule="evenodd" clip-rule="evenodd" d="M98.7974 59.7859C100.089 59.7859 101.132 60.8074 101.132 62.0733C101.132 63.3405 100.089 64.362 98.7974 64.362C97.5065 64.362 96.4637 63.3405 96.4637 62.0733C96.4637 60.8074 97.5065 59.7859 98.7974 59.7859L98.8035 59.9865C97.5995 59.9865 96.7014 60.8925 96.7014 62.0733C96.7014 63.2298 97.6123 64.1602 98.8035 64.1602C99.9959 64.1602 100.895 63.2244 100.895 62.0679C100.895 60.8992 100.001 59.9865 98.8035 59.9865L98.7974 59.7859ZM88.6697 14.7244H82.4287L76.3859 30.6997C76.3883 30.6067 76.3907 30.5131 76.3907 30.4207C76.3907 26.5905 73.7968 24.9269 70.4349 23.9534L68.8339 23.4828C67.7448 23.138 66.0478 22.6042 66.0478 21.2227C66.0478 19.9044 67.5843 19.2453 68.7378 19.2453C70.2743 19.2453 71.747 19.8728 72.9005 20.8147L75.3978 16.0433C73.2532 14.8503 70.2743 14.0969 67.8409 14.0969C63.2769 14.0969 59.6298 17.1366 59.2358 21.517V14.7244H52.9601V27.187C52.9601 30.2632 52.7357 33.622 48.7013 33.622C44.6669 33.622 44.4425 30.2632 44.4425 27.187V14.7244H39.0169V14.6563H24.2741C24.2462 14.6247 24.212 14.5994 24.1736 14.582C24.1353 14.5646 24.0937 14.5555 24.0515 14.5554H19.4C19.3228 14.5603 19.2504 14.5944 19.1975 14.6507C19.1446 14.7071 19.1151 14.7815 19.1151 14.8588C19.1151 14.9361 19.1446 15.0105 19.1975 15.0669C19.2504 15.1232 19.3228 15.1573 19.4 15.1622H24.0515C24.0936 15.1619 24.1352 15.1528 24.1735 15.1354C24.2119 15.118 24.2461 15.0928 24.2741 15.0613H38.1668V15.7861H27.5776C27.5498 15.7545 27.5155 15.7292 27.4772 15.7118C27.4388 15.6944 27.3972 15.6853 27.3551 15.6852H21.8686C21.8153 15.6532 21.7545 15.6358 21.6923 15.6347H16.3664C16.268 15.6347 16.1737 15.6738 16.1041 15.7433C16.0346 15.8129 15.9955 15.9072 15.9955 16.0056C15.9955 16.104 16.0346 16.1983 16.1041 16.2679C16.1737 16.3374 16.268 16.3765 16.3664 16.3765H17.9352C17.7065 16.4884 17.4542 16.6124 17.1891 16.7474H14.5465C14.4508 16.7513 14.3603 16.792 14.294 16.8611C14.2276 16.9302 14.1906 17.0223 14.1906 17.118C14.1906 17.2138 14.2276 17.3059 14.294 17.3749C14.3603 17.444 14.4508 17.4848 14.5465 17.4886H15.8356C15.6252 17.6151 15.4215 17.744 15.2293 17.876H13.2653C13.1696 17.8798 13.0792 17.9206 13.0128 17.9897C12.9465 18.0587 12.9094 18.1508 12.9094 18.2466C12.9094 18.3423 12.9465 18.4344 13.0128 18.5035C13.0792 18.5726 13.1696 18.6133 13.2653 18.6172H14.3367C14.3039 18.6524 14.268 18.6877 14.2382 18.7224C14.1458 18.8154 14.0607 18.9103 13.9737 19.0045H12.321C12.2227 19.0045 12.1283 19.0436 12.0588 19.1131C11.9892 19.1827 11.9501 19.277 11.9501 19.3754C11.9501 19.4738 11.9892 19.5681 12.0588 19.6377C12.1283 19.7072 12.2227 19.7463 12.321 19.7463H13.3565C13.2617 19.8746 13.1693 20.0035 13.0853 20.1343H11.5123C11.4624 20.1322 11.4126 20.1403 11.3658 20.158C11.3191 20.1758 11.2764 20.2027 11.2404 20.2373C11.2043 20.272 11.1757 20.3135 11.1561 20.3595C11.1365 20.4054 11.1264 20.4549 11.1264 20.5049C11.1264 20.5548 11.1365 20.6043 11.1561 20.6503C11.1757 20.6962 11.2043 20.7378 11.2404 20.7724C11.2764 20.807 11.3191 20.834 11.3658 20.8517C11.4126 20.8694 11.4624 20.8775 11.5123 20.8755H12.681C12.621 21.0026 12.566 21.132 12.5162 21.2634H10.9061C10.8562 21.2614 10.8063 21.2695 10.7596 21.2872C10.7129 21.3049 10.6702 21.3319 10.6342 21.3665C10.5981 21.4011 10.5694 21.4426 10.5499 21.4886C10.5303 21.5346 10.5202 21.584 10.5202 21.634C10.5202 21.684 10.5303 21.7334 10.5499 21.7794C10.5694 21.8254 10.5981 21.8669 10.6342 21.9015C10.6702 21.9362 10.7129 21.9631 10.7596 21.9808C10.8063 21.9986 10.8562 22.0066 10.9061 22.0046H12.3016C12.2764 22.133 12.257 22.2625 12.2432 22.3926H10.5017C10.4034 22.3926 10.3092 22.4316 10.2397 22.5011C10.1702 22.5706 10.1311 22.6649 10.1311 22.7632C10.1311 22.8615 10.1702 22.9557 10.2397 23.0252C10.3092 23.0947 10.4034 23.1338 10.5017 23.1338H12.2164C12.2231 23.2657 12.2377 23.394 12.2547 23.5217H10.0974C10.0475 23.5197 9.99763 23.5278 9.9509 23.5455C9.90417 23.5632 9.8615 23.5902 9.82546 23.6248C9.78942 23.6594 9.76074 23.7009 9.74115 23.7469C9.72156 23.7929 9.71146 23.8423 9.71146 23.8923C9.71146 23.9423 9.72156 23.9917 9.74115 24.0377C9.76074 24.0837 9.78942 24.1252 9.82546 24.1598C9.8615 24.1945 9.90417 24.2214 9.9509 24.2391C9.99763 24.2569 10.0475 24.2649 10.0974 24.2629H12.4189C12.4603 24.3967 12.5077 24.5256 12.56 24.6509H9.8943C9.84436 24.6488 9.79454 24.6569 9.74781 24.6746C9.70108 24.6923 9.65842 24.7193 9.62237 24.7539C9.58633 24.7886 9.55765 24.8301 9.53806 24.8761C9.51847 24.922 9.50837 24.9715 9.50837 25.0215C9.50837 25.0714 9.51847 25.1209 9.53806 25.1669C9.55765 25.2128 9.58633 25.2544 9.62237 25.289C9.65842 25.3236 9.70108 25.3506 9.74781 25.3683C9.79454 25.386 9.84436 25.3941 9.8943 25.3921H12.9692C13.0665 25.5307 13.1711 25.6602 13.283 25.7794H9.71918C9.62348 25.7833 9.533 25.824 9.46666 25.8931C9.40033 25.9622 9.36328 26.0542 9.36328 26.15C9.36328 26.2458 9.40033 26.3378 9.46666 26.4069C9.533 26.476 9.62348 26.5167 9.71918 26.5206H13.9409C14.0485 26.6507 14.1555 26.7803 14.2631 26.9086H9.75931C9.70938 26.9065 9.65955 26.9146 9.61282 26.9323C9.56609 26.95 9.52343 26.977 9.48738 27.0116C9.45134 27.0462 9.42266 27.0878 9.40307 27.1338C9.38348 27.1797 9.37338 27.2292 9.37338 27.2792C9.37338 27.3291 9.38348 27.3786 9.40307 27.4246C9.42266 27.4705 9.45134 27.5121 9.48738 27.5467C9.52343 27.5813 9.56609 27.6083 9.61282 27.626C9.65955 27.6437 9.70938 27.6518 9.75931 27.6498H14.9733C15.1649 27.8097 15.3668 27.9404 15.5863 28.0243L15.6191 28.0371H9.8268C9.77687 28.0351 9.72705 28.0432 9.68032 28.0609C9.63359 28.0786 9.59092 28.1056 9.55488 28.1402C9.51883 28.1748 9.49016 28.2163 9.47057 28.2623C9.45098 28.3083 9.44088 28.3577 9.44088 28.4077C9.44088 28.4577 9.45098 28.5071 9.47057 28.5531C9.49016 28.5991 9.51883 28.6406 9.55488 28.6752C9.59092 28.7098 9.63359 28.7368 9.68032 28.7545C9.72705 28.7722 9.77687 28.7803 9.8268 28.7783H16.9076C16.9823 28.8871 17.0316 29.0154 17.0559 29.1662H10.0299C9.9316 29.1662 9.83733 29.2053 9.76783 29.2748C9.69833 29.3443 9.65928 29.4386 9.65928 29.5369C9.65928 29.6351 9.69833 29.7294 9.76783 29.7989C9.83733 29.8684 9.9316 29.9075 10.0299 29.9075H17.3587C17.4755 30.0516 17.6214 30.1786 17.7807 30.2954H10.3668C10.2685 30.2954 10.1742 30.3344 10.1047 30.4039C10.0352 30.4734 9.99615 30.5677 9.99615 30.666C9.99615 30.7643 10.0352 30.8586 10.1047 30.9281C10.1742 30.9976 10.2685 31.0366 10.3668 31.0366H18.767C18.8399 31.1546 18.8819 31.2841 18.8959 31.4239H10.8386C10.7403 31.4239 10.646 31.463 10.5765 31.5325C10.507 31.602 10.468 31.6963 10.468 31.7945C10.468 31.8928 10.507 31.9871 10.5765 32.0566C10.646 32.1261 10.7403 32.1651 10.8386 32.1651H18.7688L18.756 32.2029C18.711 32.3177 18.6706 32.4344 18.635 32.5525H11.4454C11.3471 32.5525 11.2527 32.5916 11.1832 32.6611C11.1136 32.7307 11.0745 32.825 11.0745 32.9234C11.0745 33.0218 11.1136 33.1161 11.1832 33.1857C11.2527 33.2552 11.3471 33.2943 11.4454 33.2943H18.4806C18.4656 33.4228 18.4591 33.5522 18.4611 33.6816H12.2547C12.2048 33.6796 12.155 33.6877 12.1083 33.7054C12.0615 33.7231 12.0189 33.7501 11.9828 33.7847C11.9468 33.8193 11.9181 33.8609 11.8985 33.9068C11.8789 33.9528 11.8688 34.0023 11.8688 34.0522C11.8688 34.1022 11.8789 34.1517 11.8985 34.1976C11.9181 34.2436 11.9468 34.2852 11.9828 34.3198C12.0189 34.3544 12.0615 34.3814 12.1083 34.3991C12.155 34.4168 12.2048 34.4249 12.2547 34.4228H18.6235C18.6448 34.4697 18.6618 34.5183 18.6879 34.5621C18.736 34.6423 18.7767 34.7257 18.812 34.8108H13.1984C13.1001 34.8108 13.0057 34.8499 12.9362 34.9194C12.8666 34.989 12.8275 35.0833 12.8275 35.1817C12.8275 35.2801 12.8666 35.3744 12.9362 35.444C13.0057 35.5135 13.1001 35.5526 13.1984 35.5526H18.9749C18.9828 35.6827 18.9853 35.8128 18.9761 35.9405H14.4115C14.3132 35.9405 14.2189 35.9796 14.1494 36.0491C14.0799 36.1186 14.0409 36.2129 14.0409 36.3111C14.0409 36.4094 14.0799 36.5037 14.1494 36.5732C14.2189 36.6427 14.3132 36.6817 14.4115 36.6817H18.8339C18.8296 36.6939 18.8266 36.7073 18.8229 36.7195C18.7864 36.8331 18.7631 36.9507 18.7536 37.0697H16.097C16.0471 37.0677 15.9973 37.0758 15.9505 37.0935C15.9038 37.1112 15.8611 37.1382 15.8251 37.1728C15.7891 37.2074 15.7604 37.2489 15.7408 37.2949C15.7212 37.3409 15.7111 37.3903 15.7111 37.4403C15.7111 37.4903 15.7212 37.5397 15.7408 37.5857C15.7604 37.6317 15.7891 37.6732 15.8251 37.7078C15.8611 37.7424 15.9038 37.7694 15.9505 37.7871C15.9973 37.8048 16.0471 37.8129 16.097 37.8109H18.8892C18.9713 37.9702 19.0838 38.1046 19.2224 38.1988H19.0631C18.9647 38.1988 18.8704 38.2379 18.8008 38.3075C18.7313 38.377 18.6922 38.4714 18.6922 38.5697C18.6922 38.6681 18.7313 38.7625 18.8008 38.832C18.8704 38.9016 18.9647 38.9407 19.0631 38.9407H20.2768C20.3491 38.9387 20.4192 38.9152 20.478 38.8732H24.794C24.8361 38.873 24.8777 38.864 24.9161 38.8466C24.9544 38.8292 24.9887 38.8038 25.0165 38.7722H45.8945C46.8214 38.9358 47.7607 39.0188 48.7019 39.0203C51.5196 39.0203 54.6894 38.3296 56.7075 36.3832C59.1087 34.0915 59.237 31.078 59.237 28.0334V23.1648C59.5885 26.987 62.3709 27.6978 66.049 28.7242C67.3946 29.1006 69.8603 29.6977 69.8603 31.4239C69.8603 33.0876 68.2903 33.8093 66.8176 33.8093C64.673 33.8093 62.8154 32.7106 61.2466 31.3607L58.5566 36.3206C61.0222 38.0158 64.0005 39.0203 67.0419 39.0203C69.4754 39.0203 72.0049 38.3612 73.8947 36.7912C73.9944 36.7085 74.088 36.6222 74.1798 36.5346L73.4781 38.3922H79.8043L81.4692 34.28H89.7417L91.4065 38.3922H97.6226L88.6697 14.7244Z" fill="white"/>
<path fill-rule="evenodd" clip-rule="evenodd" d="M41.7968 37.2396H27.9144C27.8865 37.208 27.8523 37.1826 27.814 37.1651C27.7756 37.1476 27.734 37.1384 27.6918 37.1381H22.2978C22.2389 37.0962 22.1688 37.0729 22.0966 37.0712H21.5603C21.6782 36.938 21.8035 36.8085 21.936 36.6833H23.3777C23.4501 36.6816 23.5202 36.658 23.579 36.6158H29.4449C29.487 36.6155 29.5286 36.6063 29.567 36.5888C29.6053 36.5713 29.6396 36.5459 29.6674 36.5142H40.8531C41.1462 36.7818 41.463 37.0213 41.7968 37.2396ZM40.4311 36.1105H29.6674C29.6395 36.079 29.6052 36.0537 29.5669 36.0364C29.5285 36.019 29.487 36.0098 29.4449 36.0095H23.579C23.5201 35.9675 23.45 35.944 23.3777 35.942H22.8037C22.9089 35.8253 23.008 35.6958 23.0998 35.5541H24.1189C24.1913 35.5522 24.2613 35.5287 24.3202 35.4866H30.5904C30.6325 35.4865 30.6742 35.4774 30.7125 35.46C30.7509 35.4426 30.7851 35.4173 30.813 35.3857H39.8237C40.0049 35.6344 40.208 35.8758 40.4311 36.1105ZM39.1487 34.2571C39.2673 34.5034 39.3968 34.7454 39.5458 34.9819H30.813C30.7852 34.9502 30.751 34.9248 30.7126 34.9073C30.6742 34.8898 30.6326 34.8806 30.5904 34.8804H24.3196C24.2608 34.8382 24.1907 34.8147 24.1183 34.8129H23.5085C23.5717 34.6828 23.6325 34.5526 23.6903 34.425H24.7921C24.8643 34.4232 24.9344 34.3999 24.9933 34.3581H31.5335C31.5757 34.3578 31.6173 34.3486 31.6556 34.3311C31.694 34.3136 31.7282 34.2882 31.7561 34.2565L39.1487 34.2571ZM38.9669 33.8528H31.7567C31.7288 33.8211 31.6946 33.7957 31.6562 33.7782C31.6179 33.7607 31.5763 33.7515 31.5341 33.7512H24.9939C24.9351 33.7092 24.865 33.6857 24.7927 33.6837H24.0034C24.0502 33.5591 24.0971 33.4302 24.1451 33.2964H25.332C25.4043 33.2945 25.4744 33.271 25.5333 33.2289H32.3434C32.3856 33.2288 32.4272 33.2197 32.4655 33.2023C32.5039 33.1849 32.5381 33.1596 32.566 33.128H38.7055C38.7815 33.373 38.869 33.6144 38.9669 33.8528ZM38.5918 32.7236H32.566C32.5381 32.692 32.5039 32.6666 32.4656 32.6491C32.4272 32.6316 32.3856 32.6224 32.3434 32.6221H25.5333C25.4745 32.5799 25.4043 32.5564 25.332 32.5546H24.409C24.4582 32.4214 24.5075 32.2925 24.5573 32.1667H25.7364C25.8087 32.165 25.8789 32.1415 25.9376 32.0992H32.9497C32.9918 32.099 33.0335 32.0899 33.0719 32.0724C33.1103 32.0549 33.1445 32.0294 33.1722 31.9976H38.4288C38.4744 32.2433 38.5297 32.4841 38.5918 32.7236ZM38.3631 31.5939H33.1728C33.145 31.5623 33.1107 31.5369 33.0724 31.5195C33.034 31.5021 32.9924 31.4931 32.9503 31.4929H25.9382C25.8794 31.4509 25.8093 31.4274 25.737 31.4254H24.9088C24.9854 31.2813 25.0012 31.1524 24.9672 31.0381H26.0738C26.1462 31.0364 26.2163 31.0129 26.2751 30.9706H33.4215C33.4637 30.9704 33.5054 30.9613 33.5438 30.9439C33.5823 30.9265 33.6166 30.9012 33.6447 30.8697H38.2707C38.295 31.1129 38.3267 31.3543 38.3631 31.5939ZM38.2379 30.4647H33.6447C33.6167 30.4331 33.5823 30.4077 33.5439 30.3903C33.5054 30.3728 33.4637 30.3635 33.4215 30.3632H26.2751C26.2162 30.3213 26.1461 30.298 26.0738 30.2963H23.6653C23.6019 30.28 23.5383 30.2646 23.4744 30.2501C23.0646 30.1552 22.6821 30.0038 22.2553 29.9084H26.2763C26.3486 29.9064 26.4187 29.8829 26.4776 29.8409H33.6921C33.7342 29.8407 33.7758 29.8317 33.8142 29.8143C33.8526 29.7969 33.8868 29.7715 33.9146 29.7399H38.1953C38.2044 29.9831 38.2196 30.2245 38.2379 30.4647ZM21.6922 16.3756C21.775 16.374 21.8548 16.3442 21.9184 16.2911H27.355C27.4324 16.2908 27.5068 16.2605 27.5623 16.2065H38.1667V16.9149H29.398C29.3701 16.8832 29.3358 16.8577 29.2973 16.8402C29.2589 16.8227 29.2171 16.8136 29.1749 16.8134H23.309C23.2501 16.7715 23.18 16.7482 23.1078 16.7465H21.8783C21.8164 16.6158 21.7416 16.4915 21.6551 16.3756H21.6922ZM33.914 23.6898C33.8862 23.6582 33.8519 23.6329 33.8136 23.6155C33.7752 23.5981 33.7336 23.589 33.6915 23.5889H26.477C26.4181 23.5467 26.348 23.5232 26.2757 23.5214H23.6732C23.7316 23.4119 23.7912 23.2836 23.8544 23.1335H26.0063C26.0786 23.1315 26.1487 23.108 26.2076 23.066H33.4215C33.4638 23.0656 33.5054 23.0564 33.5439 23.0389C33.5823 23.0214 33.6167 22.9961 33.6447 22.9644H38.1667V23.6892L33.914 23.6898ZM38.1667 24.0942V24.819H34.0496C34.0217 24.7872 33.9874 24.7618 33.9489 24.7443C33.9105 24.7268 33.8687 24.7176 33.8265 24.7174H26.6794C26.6205 24.6756 26.5504 24.6523 26.4782 24.6505H21.6442C21.9555 24.5338 22.307 24.4025 22.6298 24.2626H26.2763C26.3487 24.2609 26.4188 24.2374 26.4776 24.1951H33.6921C33.7342 24.195 33.7758 24.1859 33.8142 24.1685C33.8526 24.1511 33.8868 24.1258 33.9146 24.0942H38.1667ZM33.6447 22.5607C33.6168 22.5289 33.5824 22.5035 33.544 22.486C33.5055 22.4685 33.4638 22.4593 33.4215 22.4591H26.2076C26.1487 22.4173 26.0786 22.394 26.0063 22.3922H24.1408L24.2831 22.0043H25.6695C25.7418 22.0024 25.8119 21.9789 25.8707 21.9368H32.8159C32.858 21.9367 32.8996 21.9276 32.938 21.9102C32.9763 21.8928 33.0106 21.8675 33.0384 21.8359H38.1674V22.5607H33.6447ZM33.0378 21.4315C33.01 21.3999 32.9758 21.3745 32.9374 21.357C32.8991 21.3395 32.8574 21.3303 32.8153 21.33H25.8701C25.8113 21.2878 25.7412 21.2643 25.6689 21.2625H24.5683C24.6109 21.1634 24.651 21.077 24.6875 21.0138C24.7106 20.9731 24.7215 20.9232 24.7337 20.8745H25.2651C25.3375 20.8729 25.4076 20.8493 25.4664 20.8071H32.2759C32.318 20.8068 32.3596 20.7976 32.3979 20.7802C32.4363 20.7628 32.4705 20.7376 32.4985 20.7061H38.1667V21.4309L33.0378 21.4315ZM32.4985 20.3024C32.4706 20.2708 32.4364 20.2454 32.398 20.228C32.3597 20.2106 32.3181 20.2016 32.2759 20.2014H25.4664C25.4075 20.1595 25.3374 20.136 25.2651 20.1339H24.6431C24.5903 19.9977 24.5228 19.8676 24.4418 19.746H24.6577C24.73 19.7443 24.8002 19.7208 24.8589 19.6785H31.4666C31.5087 19.6784 31.5504 19.6693 31.5887 19.6519C31.6271 19.6345 31.6613 19.6092 31.6892 19.5776H38.1661V20.3018H32.4985V20.3024ZM31.6898 19.1732C31.6619 19.1416 31.6277 19.1162 31.5894 19.0987C31.551 19.0812 31.5094 19.072 31.4672 19.0717H24.8595C24.8007 19.0296 24.7306 19.0061 24.6583 19.0042H23.3346C23.0322 18.8883 22.7352 18.7591 22.4444 18.6169H23.984C24.0563 18.6152 24.1265 18.5916 24.1852 18.5494H30.4554C30.4977 18.549 30.5394 18.5398 30.5778 18.5223C30.6163 18.5048 30.6506 18.4795 30.6786 18.4478H38.1667V19.1726L31.6898 19.1732ZM30.6786 18.0441C30.6507 18.0124 30.6163 17.9871 30.5778 17.9697C30.5394 17.9523 30.4977 17.9432 30.4554 17.9431H24.1852C24.1264 17.9011 24.0563 17.8776 23.984 17.8756H22.4121C22.4456 17.7875 22.4255 17.6902 22.3282 17.5765C22.3051 17.5497 22.2863 17.5175 22.265 17.4877H23.1071C23.1795 17.4858 23.2495 17.4623 23.3084 17.4202H29.1743C29.2165 17.42 29.2583 17.4109 29.2967 17.3933C29.3352 17.3758 29.3695 17.3504 29.3974 17.3187H38.1661V18.0435L30.6786 18.0441ZM20.9778 18.6169H21.7001C21.5907 18.7117 21.5074 18.8473 21.4703 19.0042H21.0781C21.0221 18.8899 20.9571 18.7749 20.9778 18.6169ZM20.8069 19.746H21.4824C21.4824 19.8852 21.4733 20.0202 21.4508 20.1339H20.8598C20.7145 19.9467 20.7303 19.8372 20.8069 19.746ZM20.5965 25.3924H26.4782C26.5505 25.3907 26.6207 25.3672 26.6794 25.3249H33.8259C33.8681 25.3246 33.9097 25.3155 33.9482 25.2981C33.9866 25.2807 34.021 25.2555 34.049 25.2239H38.1661V25.9481H34.2509C34.223 25.9165 34.1888 25.8911 34.1505 25.8736C34.1121 25.8561 34.0705 25.8469 34.0283 25.8466H26.6794C26.6206 25.8045 26.5505 25.781 26.4782 25.7791H20.5181C20.5351 25.6374 20.5618 25.5085 20.5965 25.3924ZM20.4676 26.5209H26.4782C26.5505 26.5192 26.6207 26.4957 26.6794 26.4534H34.0283C34.0704 26.4531 34.112 26.444 34.1503 26.4266C34.1887 26.4092 34.2229 26.384 34.2509 26.3525H38.1661V27.0773H34.3184C34.2905 27.0456 34.2563 27.0202 34.218 27.0027C34.1796 26.9852 34.138 26.976 34.0958 26.9757H26.7469C26.688 26.9338 26.618 26.9103 26.5457 26.9082H20.4433C20.4542 26.7836 20.4615 26.6529 20.4676 26.5209ZM19.8097 16.3756H20.3083C20.2954 16.4834 20.2946 16.5923 20.3059 16.7003C20.3077 16.7167 20.3046 16.7301 20.3052 16.7465H19.4528C19.5239 16.637 19.6461 16.5179 19.8097 16.3756ZM17.0862 25.3924H19.1931C19.2576 25.4513 19.2947 25.5365 19.2947 25.6666L19.2959 25.7803H16.795C16.8631 25.6344 16.9598 25.4994 17.0862 25.3924ZM16.8777 26.9088C16.7936 26.7912 16.7305 26.66 16.691 26.5209H19.3512C19.3768 26.6565 19.4205 26.7854 19.4795 26.9088H16.8777ZM17.7441 27.6884L17.6888 27.6507H26.5457C26.618 27.6487 26.6881 27.6252 26.7469 27.5832H34.0958C34.138 27.583 34.1796 27.574 34.2179 27.5566C34.2563 27.5392 34.2905 27.5138 34.3184 27.4822H38.1661V28.035L38.1667 28.207H34.1153C34.0875 28.1754 34.0532 28.15 34.0149 28.1325C33.9765 28.115 33.9349 28.1058 33.8928 28.1055H26.6119C26.5531 28.0634 26.483 28.0399 26.4107 28.038H18.1576C18.0348 27.9048 17.8959 27.7874 17.7441 27.6884ZM18.8119 29.1671C18.7662 29.035 18.7132 28.9055 18.6532 28.7792H26.4113C26.4835 28.7775 26.5536 28.7542 26.6126 28.7123H33.8946C33.9367 28.712 33.9783 28.7028 34.0167 28.6853C34.0551 28.6678 34.0893 28.6424 34.1171 28.6108H38.1698C38.1716 28.8528 38.1765 29.0942 38.1826 29.3356H33.9146C33.8868 29.304 33.8526 29.2786 33.8142 29.2612C33.7758 29.2438 33.7342 29.2348 33.6921 29.2346H26.477C26.4181 29.1925 26.348 29.169 26.2757 29.1671H18.8119ZM19.0022 29.909H20.8118C20.712 29.9309 20.6154 29.9485 20.5083 29.9807C19.3105 30.3401 19.1238 30.3772 19.0022 29.909ZM25.0158 38.3688C24.988 38.3372 24.9537 38.3118 24.9154 38.2944C24.877 38.277 24.8354 38.268 24.7933 38.2678H20.4773C20.4394 38.2425 20.3968 38.225 20.3521 38.2162C20.6062 38.128 20.8343 37.9906 20.9674 37.813H22.096C22.1683 37.8111 22.2384 37.7876 22.2972 37.7455H27.6912C27.7334 37.7452 27.775 37.736 27.8134 37.7185C27.8517 37.701 27.8859 37.6756 27.9138 37.644H42.4571C43.0105 37.9389 43.6027 38.176 44.2144 38.3688H25.0158ZM106.864 77.7084V73.1243H0V77.7084H106.864ZM106.864 80.0002V79.259H0V80.0002H106.864Z" fill="black"/>
<path fill-rule="evenodd" clip-rule="evenodd" d="M32.165 74.2161H33.1337C33.6566 74.2161 34.0184 74.4569 34.0184 75.0163C34.0184 75.5909 33.7089 75.8426 33.1568 75.8426H32.7986V76.6489H32.1656L32.165 74.2161Z" fill="white"/>
<path fill-rule="evenodd" clip-rule="evenodd" d="M32.7979 75.3329H32.9043C33.1335 75.3329 33.3597 75.3329 33.3597 75.0362C33.3597 74.7297 33.1499 74.7261 32.9043 74.7261H32.7979V75.3329Z" fill="black"/>
<path fill-rule="evenodd" clip-rule="evenodd" d="M36.4101 74.2161V75.5842C36.4101 75.8979 36.3973 76.2074 36.1547 76.4427C35.9516 76.6434 35.6318 76.7133 35.3478 76.7133C35.0638 76.7133 34.744 76.6434 34.5409 76.4427C34.2989 76.2074 34.2861 75.8979 34.2861 75.5842V74.2161H34.9191V75.4972C34.9191 75.8134 34.9416 76.1588 35.3484 76.1588C35.7552 76.1588 35.7777 75.8134 35.7777 75.4972V74.2161H36.4101ZM36.9111 76.6495V74.2161H37.8147C38.247 74.2161 38.5376 74.3833 38.5376 74.8478C38.5376 75.0673 38.4665 75.2455 38.2695 75.3452V75.3513C38.6185 75.3963 38.7669 75.6328 38.7669 75.9715C38.7669 76.4823 38.3315 76.6495 37.8858 76.6495H36.9111Z" fill="white"/>
<path fill-rule="evenodd" clip-rule="evenodd" d="M37.543 76.1649H37.6238C37.8111 76.1649 38.1273 76.1746 38.1273 75.907C38.1273 75.6128 37.8142 75.6419 37.608 75.6419H37.5436L37.543 76.1649ZM37.543 75.1713H37.6141C37.7813 75.1713 37.9558 75.1427 37.9558 74.936C37.9558 74.7128 37.7588 74.6995 37.588 74.6995H37.543V75.1713Z" fill="black"/>
<path fill-rule="evenodd" clip-rule="evenodd" d="M39.8277 76.1142H40.5865V76.6498H39.1953V74.2164H39.8277V76.1142ZM41.6275 76.6498H40.9951V74.2164H41.6275V76.6498ZM43.3769 74.8427C43.2601 74.7416 43.1117 74.6845 42.9573 74.681C42.8412 74.681 42.6861 74.7485 42.6861 74.8841C42.6861 75.0264 42.8576 75.0811 42.9671 75.117L43.1282 75.1656C43.4675 75.2653 43.7283 75.4362 43.7283 75.8308C43.7283 76.0728 43.6706 76.3215 43.4766 76.4851C43.2869 76.6468 43.0315 76.7143 42.7859 76.7143C42.4794 76.7143 42.179 76.6109 41.9303 76.4376L42.2015 75.9269C42.3596 76.0661 42.5469 76.1786 42.7634 76.1786C42.9117 76.1786 43.0698 76.105 43.0698 75.9342C43.0698 75.756 42.8211 75.694 42.6855 75.6563C42.2885 75.5432 42.027 75.4404 42.027 74.9686C42.027 74.4748 42.3791 74.1514 42.8661 74.1514C43.1112 74.1514 43.4115 74.2286 43.628 74.352L43.3769 74.8427ZM45.575 75.1559V74.2164H46.208V76.6498H45.575V75.6526H44.6617V76.6498H44.0287V74.2164H44.6617V75.1559H45.575ZM47.2532 74.7521V75.1583H47.9664V75.694H47.2532V76.1142H48.0054V76.6498H46.6208V74.2164H48.0054V74.7521H47.2532ZM48.3951 74.2164H49.2926C49.9706 74.2164 50.5288 74.7485 50.5288 75.4325C50.5288 76.1178 49.9669 76.6498 49.2926 76.6498H48.3951V74.2164Z" fill="white"/>
<path fill-rule="evenodd" clip-rule="evenodd" d="M49.0273 76.1142H49.1696C49.5472 76.1142 49.8701 75.9075 49.8701 75.4326C49.8701 74.9966 49.5825 74.7522 49.1757 74.7522H49.0273V76.1142Z" fill="black"/>
<path fill-rule="evenodd" clip-rule="evenodd" d="M52.4922 76.6495V74.2161H53.3958C53.8281 74.2161 54.1187 74.3833 54.1187 74.8478C54.1187 75.0673 54.0476 75.2455 53.8506 75.3452V75.3513C54.1996 75.3963 54.348 75.6328 54.348 75.9715C54.348 76.4823 53.912 76.6495 53.4663 76.6495H52.4922Z" fill="white"/>
<path fill-rule="evenodd" clip-rule="evenodd" d="M53.125 76.1649H53.2053C53.3925 76.1649 53.7087 76.1746 53.7087 75.907C53.7087 75.6128 53.3956 75.6419 53.1895 75.6419H53.125V76.1649ZM53.125 75.1713H53.1955C53.3634 75.1713 53.5379 75.1427 53.5379 74.936C53.5379 74.7128 53.3409 74.6995 53.17 74.6995H53.125V75.1713Z" fill="black"/>
<path fill-rule="evenodd" clip-rule="evenodd" d="M54.4717 74.2162H55.2305L55.6866 74.8778L56.1414 74.2162H56.899L56.0021 75.481V76.6497H55.3692V75.481L54.4717 74.2162ZM60.8811 75.2913C60.8751 75.6464 60.8489 75.9492 60.6331 76.2532C60.3941 76.5858 60.036 76.7305 59.6298 76.7305C58.8636 76.7305 58.3316 76.2107 58.3316 75.4457C58.3316 74.6546 58.8673 74.136 59.6523 74.136C60.1521 74.136 60.5394 74.3616 60.7498 74.8164L60.1491 75.0681C60.0621 74.8352 59.8785 74.6808 59.6231 74.6808C59.206 74.6808 58.9901 75.0772 58.9901 75.4494C58.9901 75.827 59.2169 76.2106 59.6328 76.2106C59.907 76.2106 60.1174 76.0696 60.1436 75.7881H59.6267V75.2919H60.8811V75.2913ZM62.051 76.2271L61.882 76.6497H61.2113L62.1471 74.2162H62.8385L63.7548 76.6497H63.0805L62.9212 76.2271H62.051Z" fill="white"/>
<path fill-rule="evenodd" clip-rule="evenodd" d="M62.4928 74.9685H62.4861L62.2246 75.7426H62.7506L62.4928 74.9685Z" fill="black"/>
<path fill-rule="evenodd" clip-rule="evenodd" d="M64.2506 74.2163H64.8836L66.0426 75.7048H66.0486V74.2163H66.6816V76.6497H66.0486L64.8897 75.1582H64.8836V76.6497H64.2506V74.2163ZM67.3298 74.2163H67.9628L69.1211 75.7048H69.1278V74.2163H69.7608V76.6497H69.1278L67.9689 75.1582H67.9628V76.6497H67.3298V74.2163ZM70.7987 74.752V75.1582H71.5126V75.6939H70.7987V76.114H71.5509V76.6497H70.1658V74.2163H71.5509V74.752H70.7987ZM73.1458 76.6497H72.5128V74.752H71.9899V74.2163H73.6681V74.752H73.1458V76.6497ZM75.001 76.6497H74.368V74.752H73.8451V74.2163H75.5233V74.752H75.001V76.6497ZM31.0906 5.74553H30.4558V3.84294H29.9316V3.30542H31.6147V3.84294H31.0906V5.74553ZM33.3945 4.24729V3.30542H34.0287V5.74553H33.3945V4.74528H32.4782V5.74553H31.8446V3.30542H32.4782V4.24729H33.3945ZM35.077 3.84294V4.25033H35.792V4.78785H35.077V5.20862H35.8309V5.74553H34.4422V3.30542H35.8309V3.84294H35.077ZM37.3304 3.30542H37.9646L39.1266 4.79758H39.1333V3.30542H39.7675V5.74553H39.1333L37.9713 4.25033H37.9646V5.74553H37.3304V3.30542ZM40.8024 5.32172L40.6339 5.74553H39.9608L40.8997 3.30542H41.5916L42.511 5.74553H41.8348L41.6761 5.32172H40.8024Z" fill="white"/>
<path fill-rule="evenodd" clip-rule="evenodd" d="M41.2453 4.05957H41.2392L40.9766 4.83605H41.5044L41.2453 4.05957Z" fill="black"/>
<path fill-rule="evenodd" clip-rule="evenodd" d="M43.6779 5.74534H43.0437V3.84275H42.5195V3.30524H44.2026V3.84275H43.6779V5.74534ZM45.0667 5.74534H44.4318V3.30524H45.0667V5.74534ZM48.0564 4.47999C48.0564 5.26924 47.4897 5.82621 46.7072 5.82621C45.924 5.82621 45.3579 5.26924 45.3579 4.47999C45.3579 3.74243 46.0049 3.22437 46.7072 3.22437C47.4095 3.22437 48.0564 3.74243 48.0564 4.47999Z" fill="white"/>
<path fill-rule="evenodd" clip-rule="evenodd" d="M46.0176 4.48304C46.0176 4.90381 46.3283 5.21087 46.7071 5.21087C47.0859 5.21087 47.3966 4.90381 47.3966 4.48304C47.3966 4.14618 47.0859 3.83911 46.7071 3.83911C46.3283 3.83911 46.0176 4.14678 46.0176 4.48304Z" fill="black"/>
<path fill-rule="evenodd" clip-rule="evenodd" d="M48.3496 3.30553H48.9838L50.1458 4.79769H50.1525V3.30553H50.7867V5.74564H50.1525L48.9905 4.25045H48.9838V5.74564H48.3496V3.30553ZM51.6726 3.30553L51.5851 4.37692H51.2099L51.1223 3.30553H51.6726ZM64.9439 3.93304C64.827 3.83189 64.6784 3.77469 64.5238 3.7713C64.4076 3.7713 64.252 3.8394 64.252 3.975C64.252 4.11728 64.4228 4.17261 64.5335 4.20788L64.6952 4.25653C65.0351 4.35686 65.2972 4.52832 65.2972 4.92295C65.2972 5.16556 65.2388 5.41486 65.0455 5.58025C64.8545 5.74199 64.5979 5.80949 64.3517 5.80949C64.0452 5.80949 63.7436 5.70612 63.4943 5.531L63.7661 5.01963C63.9254 5.15887 64.1127 5.27258 64.3292 5.27258C64.4788 5.27258 64.6369 5.19779 64.6369 5.02632C64.6369 4.84877 64.3876 4.78675 64.252 4.74783C63.8543 4.63413 63.5916 4.53076 63.5916 4.0583C63.5916 3.56335 63.9443 3.23926 64.4338 3.23926C64.6794 3.23926 64.9798 3.31709 65.1975 3.43991L64.9439 3.93304ZM55.1117 3.30553H55.7459L56.9073 4.79769H56.914V3.30553H57.5482V5.74564H56.914L55.7514 4.25045H55.7459V5.74564H55.1117V3.30553ZM58.5959 3.84305V4.25045H59.3109V4.78796H58.5959V5.20873H59.3499V5.74564H57.9617V3.30553H59.3499V3.84305H58.5959ZM60.704 4.8816H60.7113L61.2214 3.30553H61.7267L62.2053 4.8816H62.212L62.6716 3.30553H63.332L62.5519 5.74564H61.9043L61.4768 4.33132H61.4713L60.9922 5.74564H60.3477L59.6198 3.30553H60.2802L60.704 4.8816ZM65.7818 3.30553H66.7523C67.277 3.30553 67.6394 3.54815 67.6394 4.10816C67.6394 4.68398 67.3281 4.93633 66.7748 4.93633H66.416V5.74564H65.7818V3.30553Z" fill="white"/>
<path fill-rule="evenodd" clip-rule="evenodd" d="M66.416 4.42531H66.523C66.7523 4.42531 66.9791 4.42531 66.9791 4.12737C66.9791 3.8203 66.7687 3.81665 66.523 3.81665H66.416V4.42531Z" fill="black"/>
<path fill-rule="evenodd" clip-rule="evenodd" d="M68.5423 5.32172L68.3733 5.74553H67.7002L68.6384 3.30542H69.3304L70.2498 5.74553H69.5742L69.4149 5.32172H68.5423Z" fill="white"/>
<path fill-rule="evenodd" clip-rule="evenodd" d="M68.9849 4.05957H68.9789L68.7168 4.83605H69.244L68.9849 4.05957Z" fill="black"/>
<path fill-rule="evenodd" clip-rule="evenodd" d="M70.4473 3.30542H71.4177C71.9425 3.30542 72.3049 3.54803 72.3049 4.10805C72.3049 4.68387 71.9935 4.93621 71.4402 4.93621H71.0815V5.74553H70.4473V3.30542Z" fill="white"/>
<path fill-rule="evenodd" clip-rule="evenodd" d="M71.0811 4.42531H71.1881C71.4173 4.42531 71.6441 4.42531 71.6441 4.12737C71.6441 3.8203 71.4337 3.81665 71.1881 3.81665H71.0811V4.42531Z" fill="black"/>
<path fill-rule="evenodd" clip-rule="evenodd" d="M73.2204 3.84294V4.25033H73.9354V4.78785H73.2204V5.20862H73.9731V5.74553H72.585V3.30542H73.9731V3.84294H73.2204ZM76.3938 5.74553H75.6039L75.0056 4.80731H74.9995V5.74553H74.3653V3.30542H75.3133C75.7955 3.30542 76.1615 3.53526 76.1615 4.05636C76.1615 4.39261 75.9736 4.68387 75.627 4.74528L76.3938 5.74553Z" fill="white"/>
<path fill-rule="evenodd" clip-rule="evenodd" d="M75 4.39907H75.0608C75.2688 4.39907 75.5016 4.36015 75.5016 4.09504C75.5016 3.82993 75.2688 3.79102 75.0608 3.79102H75V4.39907Z" fill="black"/>
<path fill-rule="evenodd" clip-rule="evenodd" d="M53.4832 3.93304C53.3661 3.83198 53.2176 3.77479 53.063 3.7713C52.9463 3.7713 52.7912 3.8394 52.7912 3.975C52.7912 4.11728 52.9627 4.17261 53.0727 4.20788L53.2345 4.25653C53.5744 4.35686 53.8364 4.52832 53.8364 4.92295C53.8364 5.16556 53.7787 5.41486 53.5841 5.58025C53.3932 5.74199 53.1378 5.80949 52.8915 5.80949C52.5845 5.80949 52.2835 5.70612 52.0342 5.531L52.306 5.01963C52.4647 5.15887 52.6526 5.27258 52.869 5.27258C53.018 5.27258 53.1767 5.19779 53.1767 5.02632C53.1767 4.84877 52.9274 4.78675 52.7918 4.74783C52.3935 4.63413 52.1315 4.53076 52.1315 4.0583C52.1315 3.56335 52.4841 3.23926 52.973 3.23926C53.2187 3.23926 53.5196 3.31709 53.7367 3.43991L53.4832 3.93304Z" fill="white"/>
<path fill-rule="evenodd" clip-rule="evenodd" d="M88.027 29.5724L85.5772 22.6382L83.1973 29.5724H88.027Z" fill="black"/>
</svg>
