<svg width="200" height="101" viewBox="0 0 200 101" fill="none" xmlns="http://www.w3.org/2000/svg">
<path fill-rule="evenodd" clip-rule="evenodd" d="M46.5285 11.0885C45.3244 11.2749 44.1528 11.8599 43.551 12.575C41.889 14.5502 42.8242 17.8615 45.2785 18.6919C45.9078 18.9048 45.967 18.7188 45.4222 18.2394C44.5674 17.4869 44.6446 16.3033 45.5802 15.8195C46.1575 15.5209 46.7327 15.6281 50.8946 16.8095C55.4342 18.0982 55.5271 18.1229 56.176 18.2121L56.6498 18.2772V25.1992V32.1212L56.2758 32.2267C54.9102 32.6114 53.3442 32.5986 51.7366 32.1898C50.7301 31.9339 49.5351 31.3798 49.5958 31.1973C49.615 31.14 50.3667 30.6211 51.2665 30.0442C53.1007 28.8679 53.8873 28.1555 54.3162 27.282L54.6049 26.6941L54.6349 22.5792C54.6515 20.3161 54.6425 18.4644 54.615 18.4644C54.5874 18.4644 52.9358 19.4981 50.9448 20.7614C48.9537 22.0246 47.31 23.0141 47.292 22.9602C47.2741 22.9063 47.3298 22.5869 47.416 22.2506C47.9251 20.2631 49.049 18.4835 50.2989 17.6854C50.5651 17.5153 50.7071 17.3567 50.6864 17.2522C50.6571 17.1042 50.5711 17.1128 49.8422 17.3366C46.8769 18.2473 44.5495 20.094 43.2342 22.5799C42.4208 24.117 42.0746 25.5134 42.0762 27.2511C42.0786 29.8723 42.9569 32.2286 44.5738 33.9516C46.2658 35.7547 48.2989 36.6085 51.3118 36.7813C55.9351 37.0464 59.4737 34.1994 60.7947 29.1521C61.0986 27.9903 61.1066 27.7415 60.8395 27.7415C60.7297 27.7415 60.64 27.7928 60.64 27.8557C60.64 27.9185 60.4822 28.2979 60.2894 28.6988C59.6845 29.9564 58.589 31.1408 57.5227 31.6903L57.0489 31.9345V25.1155V18.2964L57.859 18.1368C59.3959 17.834 60.4787 17.0745 61.0608 15.8908C61.3515 15.3 61.3873 15.1358 61.3811 14.4242C61.369 13.0405 60.6992 11.9495 59.5117 11.3792C58.774 11.0251 57.9965 10.9356 56.9657 11.0863C55.9907 11.2289 55.8755 11.4219 56.7071 11.5196C58.0188 11.6738 58.7122 12.2929 58.3439 12.9812C58.2882 13.0855 58.0646 13.2186 57.8473 13.2772C57.3831 13.4022 57.5134 13.4322 53.3511 12.2414C51.7288 11.7772 50.0679 11.3298 49.6602 11.247C48.6723 11.0464 47.2614 10.9751 46.5285 11.0885ZM69.3185 11.4901C65.8679 11.7823 64.053 12.9111 63.1749 15.311C62.9964 15.7987 62.9376 15.8808 62.8808 15.7212C62.725 15.2838 62.3497 14.5131 62.2007 14.3247C62.0477 14.1313 62.0428 14.1347 62.0397 14.4337C62.0379 14.6035 62.1219 14.9904 62.2261 15.2936C62.7044 16.6836 62.7348 17.2466 62.7348 24.7197C62.7348 32.4006 62.7448 32.2648 62.1546 32.57C61.9914 32.6544 61.6715 32.7533 61.4438 32.7897C60.8576 32.8833 60.9542 33.0841 61.7457 33.4175C62.7482 33.8398 63.4945 34.3719 64.4867 35.3726L65.3908 36.2843L66.1327 35.5869C66.8845 34.8803 68.3787 33.723 69.2435 33.1775C69.514 33.0069 69.7172 32.8038 69.7173 32.7042C69.7175 32.4953 69.6479 32.4909 69.3185 32.6792C68.9759 32.8751 68.4859 32.8639 68.2273 32.6543C68.1088 32.5583 67.9702 32.3002 67.9194 32.0807C67.8686 31.8613 67.8259 29.5862 67.8246 27.0251L67.8222 22.3685L68.5828 21.813C69.6595 21.0267 70.2141 21.0448 70.5783 21.8781C70.7521 22.2756 70.7671 22.6953 70.7963 27.9908C70.8301 34.1035 70.7453 36.2991 70.4121 37.9342C69.9119 40.3885 68.8168 41.9075 66.7863 42.9631C65.9215 43.4127 65.9954 43.3468 66.0747 43.5964C66.1374 43.7941 66.2079 43.7698 67.4055 43.1368C72.673 40.3529 74.528 38.4269 75.403 34.833C75.8009 33.1988 75.8487 32.3656 75.8506 27.0432C75.8525 21.4537 75.8407 21.3177 75.2572 20.1673C74.9985 19.6576 74.0062 18.2337 73.674 17.8958L73.4582 17.6763L70.6651 19.7209L67.872 21.7655L67.8431 18.9429C67.799 14.6504 67.9864 13.5035 68.8638 12.6947C69.3908 12.2089 70.0845 11.9805 71.0324 11.9805H71.7125V11.6812V11.382L70.9893 11.3959C70.5916 11.4036 69.8397 11.446 69.3185 11.4901ZM83.1811 18.9958C81.5061 19.7185 79.9037 20.4589 79.6203 20.641C78.5788 21.3103 78.0292 22.1746 77.7276 23.6173C77.5999 24.2284 77.563 25.0006 77.559 27.1429C77.5543 29.6628 77.5714 29.9487 77.7699 30.654C78.475 33.1585 79.9576 34.6457 83.0283 35.9287L83.9982 36.334L84.5138 35.8479C85.2348 35.1685 86.2487 34.3758 88.5739 32.6745C90.3208 31.3962 90.5628 31.1869 90.4378 31.0619C90.3128 30.9371 90.2202 30.9657 89.7247 31.2827C89.4115 31.483 88.8778 31.7782 88.5389 31.9386C86.6588 32.828 84.0454 31.6832 82.9933 29.5095C82.4219 28.3288 82.0737 28.6954 86.3204 26.0069C88.3811 24.7023 90.0643 23.605 90.0608 23.5684C90.047 23.4239 86.4196 17.7303 86.3263 17.7068C86.2715 17.693 84.8561 18.2731 83.1811 18.9958ZM84.2312 22.8079C85.1102 24.4015 85.7653 25.6959 85.7162 25.7415C85.6677 25.7863 84.9245 26.2735 84.0647 26.8242C82.8603 27.5955 82.488 27.791 82.4437 27.6755C82.2862 27.2651 82.424 19.811 82.5872 19.9119C82.6263 19.936 83.3661 21.2393 84.2312 22.8079ZM49.6932 30.5969C49.2867 30.911 49.0605 30.8829 48.7049 30.4738C48.154 29.8403 47.4842 28.3725 47.2681 27.325C47.0734 26.3811 46.9932 23.9202 47.1499 23.6967C47.1902 23.6392 47.8067 23.2218 48.52 22.7691L49.8168 21.946L49.8428 26.2036C49.867 30.1684 49.8568 30.4704 49.6932 30.5969ZM25.4174 37.184C24.8634 37.7561 22.852 39.5327 21.2746 40.8431C20.2343 41.7074 20.0801 41.8727 20.1737 42.0226C20.2748 42.1845 20.3058 42.1791 20.6121 41.9456C20.7933 41.8073 21.1447 41.6043 21.3927 41.4946C21.7671 41.329 21.9003 41.3136 22.1745 41.4041C22.5997 41.5444 22.8825 41.8503 23.1027 42.4079C23.2636 42.8152 23.2811 43.4051 23.3042 49.1884L23.3295 55.5227L22.7138 55.8219C21.1463 56.5838 20.3256 58.0892 20.5567 59.779C20.6683 60.5954 20.9685 61.1973 21.5583 61.7879C22.0403 62.2703 22.9885 62.7811 23.6067 62.8914C23.8747 62.9393 23.9309 62.9179 23.9309 62.768C23.9309 62.6434 23.8079 62.55 23.5372 62.4689C22.794 62.2462 22.4755 61.5031 22.7807 60.7038C23.0836 59.9106 23.9757 59.4413 25.1778 59.4425C26.4644 59.4438 27.6296 60.1128 28.5791 61.3957L29.0616 62.0475L30.1123 60.9782C30.6901 60.39 31.6244 59.4922 32.1885 58.983L33.214 58.0571L35.0814 59.3251C36.1083 60.0226 37.4111 60.9261 37.9763 61.3329L39.0039 62.0725L40.0764 61.042C40.9559 60.197 41.4171 59.8512 42.6398 59.1208C45.6305 57.334 46.791 56.4379 47.3534 55.4811L47.6222 55.0239L47.6721 49.0886L47.7219 43.1533L47.9713 42.6596C48.3 42.0089 48.8235 41.5991 49.4103 41.5329C50.0977 41.4554 50.0134 41.2382 49.0142 40.5123C47.6752 39.5394 46.3814 38.2528 45.3051 36.824C45.2866 36.7993 44.7903 37.2579 44.2024 37.8432C43.6144 38.4283 42.4151 39.4684 41.5373 40.1544L39.9412 41.4017L39.9145 39.1103C39.8886 36.9035 39.8804 36.819 39.6904 36.819C39.4955 36.819 39.493 36.933 39.4679 46.7494L39.4424 56.6798L38.8214 56.1511L38.2004 55.6224L38.1968 48.0911C38.1928 39.9088 38.2032 40.0752 37.6278 38.9317C37.3403 38.36 36.2463 37.1769 35.7768 36.9299C35.5182 36.7937 35.4953 36.8096 34.458 37.847C33.4852 38.8197 30.6238 41.3079 30.478 41.3079C30.4432 41.3079 30.4148 40.2754 30.4148 39.0136C30.4148 36.7858 30.409 36.7192 30.2153 36.7192C30.0172 36.7192 30.0158 36.7858 30.0158 46.4342V56.1492L29.3689 55.8858L28.7221 55.6224L28.7193 48.1409C28.7164 40.0128 28.7266 40.1759 28.1513 39.0304C27.8409 38.4121 27.0195 37.5231 26.3152 37.0431L25.8566 36.7306L25.4174 37.184ZM87.64 37.2271C84.9672 37.4474 82.9292 38.2245 81.8053 39.4517C81.3307 39.9699 80.9227 40.7542 80.8267 41.3328C80.7925 41.5386 80.7366 41.7062 80.7025 41.7054C80.6684 41.7046 80.5341 41.4241 80.4042 41.0819C80.146 40.4021 79.6651 39.5565 79.2143 38.9891C78.9499 38.6565 78.9125 38.6396 78.7664 38.7857C78.6201 38.9319 78.635 38.978 78.9431 39.3381C79.5816 40.084 80.2734 41.7409 80.5502 43.187C80.7384 44.17 80.7471 57.2238 80.56 57.7577C80.4032 58.2052 80.0211 58.4754 79.4548 58.5392C78.7883 58.6143 78.833 58.8608 79.5681 59.1642C80.6235 59.5998 81.3314 60.0884 82.3249 61.0665L83.311 62.0376L84.1904 61.2615C85.1748 60.3927 86.241 59.573 87.0994 59.0249C87.415 58.8235 87.673 58.5928 87.673 58.5122C87.673 58.3317 87.6286 58.3318 87.1062 58.5139C86.7958 58.6221 86.6142 58.6332 86.3968 58.5574C85.8304 58.3599 85.8302 58.3575 85.7992 53.0232L85.7706 48.1295L86.4913 47.6087C87.2892 47.0322 87.5796 46.9219 87.9511 47.0542C88.3387 47.1924 88.5718 47.5932 88.6733 48.2959C88.7967 49.1494 88.7939 59.3228 88.6698 61.14C88.3896 65.2446 87.241 67.3559 84.5226 68.7632C83.7467 69.1649 83.692 69.2131 83.8169 69.3837C83.945 69.5591 84.0201 69.5331 85.239 68.8891C90.2318 66.2512 92.1321 64.3652 93.1929 60.9949C93.7376 59.2648 93.8033 58.3886 93.8056 52.8293C93.808 47.2504 93.8042 47.2066 93.2042 45.9464C92.8468 45.1957 91.5633 43.434 91.4082 43.4812C91.3564 43.4969 90.1056 44.3947 88.6286 45.4762C87.1518 46.5578 85.9061 47.4576 85.8605 47.4759C85.7383 47.525 85.7598 41.5512 85.885 40.6501C86.1725 38.583 87.089 37.7168 88.988 37.7168H89.6681V37.4175C89.6681 37.1212 89.6629 37.1183 89.1444 37.1322C88.8563 37.1399 88.1794 37.1826 87.64 37.2271ZM98.3797 37.2979C97.2556 37.6972 96.694 38.4628 96.7686 39.4944C96.7912 39.8076 96.9075 40.2652 97.027 40.5112C97.2723 41.0163 98.0347 41.9582 98.5201 42.3558L98.8432 42.6205L99.3987 42.3027C100.126 41.8867 101.098 40.9805 101.366 40.4682C101.803 39.6346 101.59 38.4757 100.875 37.7969C100.258 37.2117 99.2115 37.0024 98.3797 37.2979ZM143.224 39.8864C142.408 42.2848 141.083 44.6063 139.938 45.6401C139.346 46.1754 138.413 46.7564 137.842 46.946C137.48 47.0663 137.35 47.1602 137.35 47.301C137.35 47.4758 137.429 47.4926 138.252 47.4926H139.154L139.125 52.5388L139.096 57.5851L138.803 57.8363C138.547 58.0572 138.44 58.0826 137.931 58.0457C137.397 58.0071 137.35 58.0204 137.351 58.2096C137.351 58.3736 137.473 58.4532 137.946 58.6007C139.163 58.98 140.984 60.3695 142.005 61.698L142.305 62.0877L145.109 59.6032C147.384 57.588 147.889 57.0945 147.787 56.9905C147.684 56.8863 147.55 56.9285 147.073 57.2161C145.722 58.0297 144.906 57.9451 144.469 56.946C144.298 56.5546 144.28 56.1549 144.253 52.0064L144.223 47.4926H145.974H147.724V46.5948V45.697H145.979H144.233V42.1558V38.6145H143.945C143.664 38.6145 143.644 38.6501 143.224 39.8864ZM32.3519 41.5323C32.6854 41.8288 32.8072 42.6155 32.8081 44.48C32.809 46.0659 32.7227 46.3797 32.2137 46.643C31.6139 46.9531 30.8485 46.7452 30.564 46.195C30.4381 45.9516 30.4154 45.5449 30.4376 43.9323L30.4647 41.9662L30.8964 41.6371C31.4306 41.2298 31.9681 41.1911 32.3519 41.5323ZM41.8313 41.5323C42.1809 41.8397 42.2854 42.4927 42.2854 44.3689C42.2854 46.0744 42.2065 46.376 41.6902 46.643C41.0924 46.9521 40.3252 46.7453 40.0427 46.1991C39.9229 45.9673 39.8913 45.5086 39.8913 43.9963V42.0861L40.2137 41.785C40.7857 41.2507 41.4016 41.1545 41.8313 41.5323ZM78.0635 42.6712C78.0269 42.7077 77.997 42.9002 77.997 43.0989C77.997 43.6167 77.6153 44.3017 77.1491 44.6209C76.6325 44.9746 75.7426 45.1982 74.8519 45.1982C73.608 45.1982 72.6103 44.7874 71.6493 43.8794L71.1372 43.3956L70.868 43.8549C70.4317 44.5993 69.4105 45.6015 67.8438 46.8228C65.5961 48.5749 64.8432 49.448 64.4755 50.7295C64.2408 51.547 64.3204 52.6707 64.6667 53.427C64.9831 54.1181 65.8663 55.0163 66.675 55.4693C67.0042 55.6537 67.29 55.8174 67.31 55.8332C67.4427 55.9368 65.3458 59.3919 64.3425 60.7227C64.0674 61.0877 64.0496 61.1492 64.1866 61.263C64.3177 61.3718 64.3869 61.3357 64.6442 61.0234C65.0818 60.4927 65.4026 60.3604 66.2461 60.3629C67.5799 60.3668 69.8401 61.0007 71.5933 61.8624C72.1252 62.1238 72.5622 62.3306 72.5644 62.3218C72.5666 62.313 72.8322 61.9468 73.1546 61.5078C73.7285 60.7265 75.2961 59.1088 77.2143 57.3182C78.7781 55.8585 79.2517 54.8508 79.177 53.1417C79.1273 52.0054 78.8186 51.2955 78.0321 50.5079C77.5267 50.0019 76.4551 49.3881 76.0767 49.388C75.6589 49.3878 76.0022 48.7055 76.9301 47.6921C78.1338 46.3776 78.5806 45.2168 78.4641 43.7064C78.3879 42.7176 78.2844 42.4502 78.0635 42.6712ZM57.398 43.8703C56.064 44.8492 53.9577 45.9646 51.8907 46.7869C50.4525 47.3591 49.649 48.1152 49.5164 49.0214C49.4829 49.2504 49.4694 51.5924 49.4865 54.2259L49.5175 59.014L49.7969 59.5829C50.257 60.5199 52.3518 62.2599 52.7067 61.9998C52.7765 61.9488 53.2478 61.5477 53.7537 61.1088C54.6896 60.297 57.3365 58.2659 57.4584 58.2659C57.4952 58.2659 57.5566 58.4322 57.5947 58.6353C57.7555 59.4924 58.4642 60.4415 59.6548 61.394C60.1102 61.7584 60.5069 62.0562 60.5364 62.0559C60.5659 62.0556 61.039 61.6442 61.5876 61.1418C62.4835 60.3212 64.0151 59.052 64.7606 58.5126C64.9524 58.3737 65.0196 58.2575 64.9751 58.1416C64.9165 57.9886 64.8651 57.9958 64.4244 58.2191C63.9133 58.4781 63.4443 58.5318 63.1359 58.3667C63.0345 58.3126 62.8691 58.0544 62.7684 57.7931C62.6005 57.3581 62.5851 56.9494 62.5851 52.9247C62.5851 48.8581 62.5985 48.5108 62.7651 48.2566C63.0064 47.8883 63.4593 47.626 63.992 47.5461C64.3368 47.4944 64.4306 47.439 64.4306 47.287C64.4306 47.1663 64.3621 47.0935 64.2485 47.0935C63.9524 47.0935 62.6594 46.6238 61.794 46.202C60.6628 45.6503 59.5251 44.8761 58.7012 44.0973L57.9965 43.4311L57.398 43.8703ZM96.9562 45.2609C94.3009 47.4322 94.4848 47.2618 94.6348 47.4118C94.7265 47.5035 94.8444 47.4793 95.154 47.3053C95.6258 47.0402 96.1037 47.0025 96.315 47.2137C96.398 47.2968 96.5064 47.5393 96.556 47.7528C96.6055 47.9663 96.6471 50.4321 96.6484 53.2323C96.651 58.7718 96.6719 59.0172 97.2218 59.9617C97.5509 60.5272 98.6451 61.6717 99.0808 61.9064L99.4109 62.0841L101.647 60.2099C104.421 57.8848 104.302 57.9962 104.163 57.8578C104.081 57.7762 103.951 57.8156 103.67 58.0063C103.128 58.3745 102.548 58.3628 102.114 57.9749L101.788 57.6838L101.758 53.0621C101.737 49.9761 101.763 48.3183 101.834 48.0735C101.982 47.5663 102.417 47.2284 103.031 47.144C103.73 47.0478 103.707 46.8207 102.96 46.4557C102.098 46.0346 101.196 45.3582 100.142 44.3433L99.1945 43.4307L96.9562 45.2609ZM106.077 45.4144C104.87 46.5159 103.872 47.4452 103.86 47.4797C103.847 47.5142 103.875 47.6038 103.922 47.6788C103.992 47.7885 104.084 47.7642 104.393 47.5541C104.804 47.2745 105.384 47.2087 105.743 47.4009C105.854 47.4601 106.03 47.6959 106.134 47.9246C106.31 48.3127 106.323 48.64 106.324 52.8293C106.325 55.6052 106.287 57.4593 106.223 57.6878C106.074 58.2259 105.717 58.4654 105.066 58.4654C104.613 58.4654 104.531 58.4935 104.531 58.6491C104.531 58.7791 104.655 58.8695 104.955 58.9581C106.11 59.2994 107.389 60.2272 108.432 61.4805L108.915 62.0604L109.159 61.5787C109.732 60.4477 110.876 59.3772 111.908 59.0061C112.26 58.8797 112.412 58.7707 112.412 58.6451C112.412 58.5336 112.338 58.4654 112.218 58.4654C112.111 58.4654 111.898 58.3571 111.744 58.2247L111.464 57.984L111.436 53.0041L111.409 48.0241L112.121 47.5508C113.018 46.9544 113.371 46.8843 113.766 47.2242L114.058 47.475L114.116 52.9951C114.159 57.0669 114.208 58.6199 114.302 58.9143C114.496 59.522 114.848 60.1703 115.28 60.7157C115.746 61.305 116.745 62.0993 116.931 62.0281C117.031 61.9895 121.222 58.5215 121.734 58.0533C121.793 57.9989 121.787 57.9256 121.718 57.8567C121.638 57.7765 121.505 57.8172 121.226 58.0063C120.681 58.3771 120.029 58.3688 119.663 57.9864C119.225 57.5297 119.18 56.9668 119.214 52.4006C119.241 48.7703 119.266 48.1939 119.412 47.8732C119.603 47.4507 119.947 47.2424 120.618 47.1417C121.194 47.0553 121.266 46.7981 120.764 46.6168C119.876 46.2957 118.025 44.7523 117.245 43.6837L117.05 43.416L114.257 45.4638L111.464 47.5116L111.388 46.9876C111.205 45.7282 110.363 44.6263 108.936 43.7768C108.59 43.5711 108.3 43.4048 108.29 43.4073C108.28 43.4098 107.284 44.3129 106.077 45.4144ZM130.058 43.7657C129.265 44.5916 127.578 45.5588 124.935 46.7035C123.574 47.2929 122.805 47.8275 122.511 48.3903L122.277 48.8392L122.311 53.8269C122.349 59.3896 122.332 59.2424 123.061 60.2039C123.431 60.6913 124.501 61.5748 125.133 61.9153L125.462 62.0923L126.643 61.0925C127.79 60.1209 129.821 58.5513 130.177 58.3607C130.333 58.2771 130.36 58.3315 130.416 58.8398C130.586 60.3909 130.86 61.128 131.788 62.5334C132.83 64.1114 133.003 64.5341 133.005 65.498C133.007 66.1222 132.956 66.4092 132.774 66.8161C132.122 68.2692 130.179 69.1403 127.874 69.0133C126.706 68.9489 126.178 68.758 126.178 68.3998C126.178 68.1842 126.25 68.1278 126.693 67.996C127.591 67.7295 127.988 67.3731 128.166 66.6758C128.324 66.0539 128.297 65.6607 128.06 65.1714C127.355 63.7165 124.517 63.3803 123.371 64.616C122.881 65.144 122.758 65.5144 122.808 66.3036C122.931 68.2124 124.529 69.2302 127.888 69.5394C129.95 69.729 131.784 69.4505 133.406 68.7014C135.906 67.5464 137.271 65.6765 137.275 63.4032C137.277 62.3418 137.064 61.681 136.452 60.8491C136.234 60.553 135.92 60.1112 135.755 59.8673L135.455 59.4238L135.455 53.932C135.455 48.67 135.464 48.4269 135.649 48.1224C135.879 47.7456 136.059 47.6393 136.627 47.5452C136.949 47.4919 137.051 47.4304 137.051 47.2888C137.051 47.1522 136.951 47.0844 136.677 47.0344C135.012 46.731 132.613 45.4336 131.005 43.9677L130.397 43.4127L130.058 43.7657ZM158.336 43.6151C157.981 44.0081 156.51 44.9117 155.683 45.2451C154.099 45.8839 152.575 46.1837 150.492 46.2662L149.021 46.3245L149.02 51.3724C149.02 54.406 148.98 56.5627 148.921 56.777C148.804 57.1981 148.462 57.5478 148.062 57.6547C147.877 57.7041 147.774 57.7972 147.774 57.9148C147.774 58.055 147.962 58.1613 148.572 58.367C150.202 58.9164 152.052 59.9872 153.742 61.3589C154.227 61.7521 154.633 62.0588 154.646 62.0402C154.659 62.0218 154.815 61.7744 154.993 61.4906C155.544 60.6115 156.478 59.8747 157.503 59.5105C157.748 59.4235 158.373 59.239 158.891 59.1006C161.222 58.4777 161.727 57.7956 161.999 54.9003C162.156 53.2264 162.059 48.6909 161.846 47.7419C161.586 46.5878 161.065 45.6577 160.2 44.8014C159.783 44.3887 159.235 43.9065 158.982 43.7299L158.523 43.4087L158.336 43.6151ZM164.491 45.408C163.28 46.5099 162.288 47.4485 162.288 47.4938C162.288 47.5389 162.316 47.6473 162.349 47.7345C162.4 47.8666 162.467 47.8431 162.752 47.593C163.366 47.0537 164.241 47.2289 164.543 47.9513C164.76 48.4714 164.747 57.4516 164.528 57.9128C164.342 58.3054 164.024 58.4654 163.431 58.4654C163.07 58.4654 162.986 58.499 162.986 58.6442C162.986 58.7727 163.147 58.8776 163.555 59.0164C164.614 59.3762 165.807 60.2619 166.736 61.3777L167.31 62.0665L167.652 61.4196C168.142 60.4915 169.043 59.628 169.991 59.1792C170.836 58.7794 170.99 58.5302 170.465 58.4148C169.813 58.2716 169.822 58.3496 169.795 52.9336L169.77 48.0412L170.411 47.6114C171.527 46.8625 172.006 46.8147 172.337 47.4191C172.497 47.7134 172.517 48.2271 172.563 53.2284C172.611 58.5327 172.62 58.7335 172.827 59.2802C173.114 60.0384 173.521 60.6092 174.267 61.3003C175.3 62.2564 174.996 62.365 177.74 60.0574C179.829 58.3008 180.382 57.7572 180.069 57.7702C180.028 57.7719 179.815 57.8839 179.595 58.0191C179.127 58.3075 178.504 58.344 178.161 58.1032C177.665 57.7559 177.65 57.6037 177.65 52.7891C177.65 49.854 177.687 48.2065 177.757 48.0227C177.941 47.5356 178.247 47.3012 178.864 47.1737C179.659 47.0095 179.625 46.8371 178.707 46.3654C177.821 45.911 176.814 45.0848 176.068 44.2007C175.767 43.8441 175.484 43.5374 175.439 43.5192C175.394 43.501 174.127 44.3875 172.624 45.4893C171.121 46.5911 169.864 47.4926 169.83 47.4926C169.797 47.4926 169.77 47.3147 169.77 47.0973C169.77 46.5464 169.426 45.6845 168.981 45.1222C168.653 44.7073 167.549 43.852 166.91 43.5177C166.713 43.4145 166.503 43.5788 164.491 45.408ZM155.614 46.8489C155.866 46.9764 156.212 47.2401 156.383 47.4349C156.98 48.1152 157.001 48.3268 157.001 53.5458C157.001 56.1418 156.978 58.2659 156.951 58.2659C156.923 58.2659 156.576 57.9936 156.179 57.6607C155.783 57.3278 155.156 56.8677 154.788 56.6382L154.117 56.2209L154.113 51.2636L154.108 46.3063L154.632 46.4616C154.92 46.5471 155.362 46.7214 155.614 46.8489ZM55.6557 47.3082C56.0141 47.6077 56.5628 48.0073 56.8748 48.1963L57.4422 48.54L57.4451 53.0998L57.4479 57.6595L56.69 58.2199C55.8941 58.8085 55.4281 58.9649 55.059 58.7674C54.563 58.502 54.555 58.3974 54.555 52.1668V46.3605L54.7795 46.5622C54.903 46.673 55.2972 47.0088 55.6557 47.3082ZM30.9109 47.0233C31.3852 47.3503 32.4378 47.1716 32.7011 46.7195C32.7738 46.5948 32.8037 46.943 32.8059 47.9387C32.8087 49.2298 32.7974 49.3161 32.6532 49.1102C32.4472 48.8161 31.9945 48.5898 31.6118 48.5898C31.2292 48.5898 30.7765 48.8161 30.5705 49.1102C30.4263 49.3161 30.415 49.2297 30.418 47.9387C30.4205 46.8248 30.4455 46.5758 30.5427 46.6991C30.6095 46.7839 30.7752 46.9298 30.9109 47.0233ZM40.3874 47.0233C40.8617 47.3503 41.9143 47.1716 42.1777 46.7195C42.2503 46.5948 42.2802 46.943 42.2824 47.9387C42.2852 49.2298 42.2739 49.3161 42.1297 49.1102C41.9237 48.8161 41.471 48.5898 41.0884 48.5898C40.7057 48.5898 40.253 48.8161 40.0471 49.1102C39.9028 49.3161 39.8915 49.2297 39.8945 47.9387C39.897 46.8248 39.9221 46.5758 40.0192 46.6991C40.0861 46.7839 40.2517 46.9298 40.3874 47.0233ZM68.8325 47.1607C68.9077 47.2525 69.306 47.5967 69.7175 47.9255C70.5902 48.623 71.7995 49.2201 72.6901 49.3932C73.4749 49.546 74.5051 49.4583 75.0405 49.1934C75.2616 49.0841 75.4606 49.0127 75.4827 49.0348C75.5978 49.1501 74.8672 50.2239 74.2531 50.8423C72.1431 52.9668 69.679 52.7005 68.4506 50.2151C68.1197 49.5455 68.076 49.3666 68.0448 48.5534C68.0148 47.7702 68.0385 47.5967 68.2138 47.318C68.4404 46.9577 68.627 46.9102 68.8325 47.1607ZM128.459 47.6385C128.992 47.9931 129.639 48.3768 129.897 48.4911L130.367 48.699V53.1608V57.6227L129.649 58.1598C129.255 58.4552 128.807 58.7439 128.656 58.8012C128.234 58.9605 127.859 58.7839 127.624 58.3153C127.433 57.9336 127.423 57.6852 127.395 52.4553C127.379 49.4514 127.393 46.9938 127.428 46.9938C127.462 46.9938 127.927 47.284 128.459 47.6385ZM32.4858 49.4314L32.8111 49.7864L32.785 53.8408L32.759 57.8953L32.4729 58.1055C32.1878 58.315 32.1863 58.315 32.0747 58.1162C32.013 58.0065 31.6143 57.5692 31.1887 57.1445L30.4148 56.3721L30.4163 53.1543C30.4179 49.6268 30.4202 49.6113 31.0148 49.2077C31.5102 48.8714 32.0475 48.953 32.4858 49.4314ZM41.9611 49.4302L42.2854 49.784V54.4239C42.2854 56.9759 42.2517 59.0623 42.2106 59.0602C42.1695 59.0582 41.642 58.618 41.0385 58.0818L39.9412 57.1071L39.9171 53.5218C39.8905 49.586 39.8863 49.6185 40.4914 49.2077C40.9862 48.8717 41.524 48.9531 41.9611 49.4302ZM73.6667 53.2049C73.946 53.348 74.3229 53.634 74.5043 53.8406C75.2285 54.6655 75.6904 56.2226 75.5501 57.3663C75.4735 57.9902 75.2303 58.6649 75.082 58.6649C75.0269 58.6649 74.5874 58.4425 74.1053 58.1708C72.2105 57.1027 70.1799 56.4197 68.5454 56.3009C68.0449 56.2646 67.7224 56.1978 67.7224 56.1305C67.7224 55.8887 68.5582 54.7611 69.1295 54.2322C70.1739 53.2652 71.1551 52.8646 72.3609 52.9129C72.9816 52.9378 73.2718 53.0027 73.6667 53.2049ZM110.467 65.1168C110.302 65.1349 109.932 65.1751 109.644 65.2063C108.959 65.2804 108.93 65.5099 109.594 65.5997C110.62 65.7385 111.126 65.9894 111.319 66.4568C111.428 66.7198 111.419 66.7913 111.245 67.0256C110.822 67.5949 110.648 67.5744 106.898 66.5144C105.02 65.9836 103.215 65.477 102.885 65.3886C102.101 65.1782 99.7687 65.088 99.0373 65.2398C97.7078 65.5158 96.3829 66.4726 95.9455 67.4729C95.6635 68.1178 95.566 69.5184 95.7559 70.1968C96.0522 71.2547 97.1323 72.4219 98.1463 72.7796C98.7688 72.9993 98.9021 72.8215 98.4156 72.4205C97.9497 72.0366 97.7481 71.6539 97.7481 71.1538C97.7481 70.3785 98.4595 69.738 99.321 69.7377C99.5671 69.7376 101.576 70.2605 104.082 70.977C106.467 71.6587 108.666 72.2475 108.969 72.2854L109.52 72.3542L109.495 79.2939L109.469 86.2335L108.97 86.3793C108.642 86.4749 107.976 86.5277 107.025 86.5332C105.452 86.5422 104.506 86.363 103.315 85.8299C102.235 85.3469 102.236 85.3437 103.803 84.3488C105.536 83.2487 106.159 82.7488 106.732 81.9998C107.538 80.9454 107.53 81.0016 107.5 76.4922L107.474 72.5243L103.846 74.8263C101.85 76.0923 100.2 77.1107 100.179 77.0893C100.092 77.003 100.672 75.2237 101.03 74.4757C101.561 73.3654 102.231 72.5029 102.988 71.9533C103.343 71.696 103.633 71.41 103.633 71.3179C103.633 71.1674 103.549 71.1759 102.811 71.4C98.9834 72.5623 96.2443 75.28 95.287 78.8649C95.0536 79.7386 95.0209 80.048 95.023 81.3587C95.0251 82.6424 95.0615 82.9895 95.2794 83.8026C95.8247 85.8374 96.4599 87.0096 97.6854 88.2429C99.3289 89.8968 101.413 90.7218 104.282 90.8537C106.96 90.9769 109.101 90.2059 110.819 88.5C112.267 87.0613 113.249 85.2124 113.815 82.855C114.05 81.8741 114.051 81.807 113.833 81.8099C113.711 81.8115 113.51 82.1195 113.167 82.8301C112.751 83.6894 112.549 83.9734 111.87 84.6516C111.427 85.0935 110.829 85.5799 110.541 85.7324L110.018 86.0097V79.1817V72.3537L110.492 72.2873C112.256 72.04 113.699 70.9782 114.177 69.5756C114.403 68.9136 114.316 67.7468 113.989 67.0421C113.545 66.0846 112.563 65.326 111.597 65.1949C111.359 65.1627 111.075 65.1245 110.965 65.1102C110.856 65.0959 110.631 65.0989 110.467 65.1168ZM116.951 65.6862C115.141 66.5432 115.138 68.3326 116.944 70.2155L117.649 70.9506L118.416 70.4496C120.05 69.3828 120.636 68.4271 120.383 67.2452C120.068 65.7766 118.379 65.0096 116.951 65.6862ZM174.982 70.9076C174.91 70.9325 174.857 71.1196 174.857 71.345C174.857 73.2069 171.988 74.1352 169.702 73.0126C169.363 72.8461 168.835 72.4764 168.529 72.191L167.971 71.6721L167.67 72.2047C167.254 72.9423 166.26 73.9131 164.732 75.0748C161.959 77.1835 161.079 78.517 161.214 80.4065C161.306 81.7016 162.144 82.9132 163.508 83.723L164.181 84.1233L163.683 85.0933C163.187 86.0592 161.898 88.0992 161.239 88.9633C160.922 89.3776 160.907 89.4277 161.061 89.5405C161.206 89.6466 161.268 89.6114 161.5 89.2919C161.805 88.8704 162.393 88.5908 162.975 88.5908C164.173 88.5908 166.818 89.3366 168.468 90.1397C168.982 90.3898 169.432 90.5588 169.468 90.5153C169.505 90.4718 169.846 90.0322 170.225 89.5384C170.986 88.5487 171.894 87.6105 173.722 85.9246C175.648 84.1484 176.101 83.2717 176.031 81.4584C175.997 80.5811 175.955 80.3883 175.683 79.8583C175.175 78.868 174.128 77.9862 173.136 77.7132C172.931 77.6566 172.762 77.5653 172.762 77.5104C172.762 77.2688 173.205 76.6103 173.865 75.8723C175.04 74.5571 175.424 73.5418 175.325 72.0099C175.266 71.0928 175.186 70.836 174.982 70.9076ZM140.991 73.7407L138.198 75.8053L138.079 75.1632C137.847 73.9079 137.264 73.1258 135.896 72.2324C135.474 71.9575 135.101 71.7325 135.066 71.7325C135.03 71.7325 133.972 72.6287 132.713 73.7241C131.159 75.0767 130.4 75.6768 130.348 75.5945C130.305 75.5278 130.27 75.3515 130.269 75.2027C130.267 74.7846 129.896 73.8895 129.541 73.4449C129.023 72.7967 127.439 71.658 127.182 71.7487C127.129 71.7672 126.1 72.6759 124.895 73.768C123.017 75.4694 122.719 75.7782 122.812 75.926C122.911 76.0846 122.952 76.0753 123.317 75.8108C124.007 75.311 124.827 75.5314 125.095 76.2885C125.289 76.8382 125.292 85.4738 125.098 86.0218C124.919 86.5261 124.646 86.6955 124.011 86.6955C123.559 86.6955 123.484 86.7226 123.484 86.8856C123.484 87.0225 123.613 87.1196 123.945 87.2326C125.094 87.6241 126.798 88.9262 127.488 89.9395C127.618 90.1297 127.746 90.285 127.774 90.2847C127.801 90.2845 127.977 90.0042 128.163 89.6619C128.742 88.6028 129.861 87.6296 130.991 87.203C131.326 87.0766 131.378 86.6955 131.061 86.6955C130.949 86.6955 130.747 86.5852 130.612 86.4506L130.367 86.2058V81.2227V76.2398L131.083 75.7817C131.969 75.2148 132.516 75.1563 132.858 75.5919C133.067 75.8581 133.069 75.8978 133.04 80.9037C133.012 85.78 133.004 85.9589 132.806 86.2965C132.631 86.5956 132.542 86.65 132.183 86.6762C131.532 86.7239 131.612 87.0047 132.387 87.3975C133.244 87.8317 134.241 88.658 134.982 89.5486C135.513 90.1867 135.619 90.2712 135.704 90.1263C136.611 88.5825 137.376 87.8212 138.522 87.3217C138.951 87.1348 139.146 86.9948 139.146 86.8727C139.146 86.7645 139.071 86.6955 138.954 86.6955C138.629 86.6955 138.446 86.5828 138.294 86.2893C138.172 86.053 138.148 85.2192 138.148 81.1621V76.3172L138.909 75.8204C139.8 75.2389 140.176 75.184 140.55 75.5809L140.791 75.8382L140.848 81.3416C140.908 87.1742 140.905 87.1321 141.413 88.1365C141.697 88.6979 142.586 89.6725 143.202 90.0975L143.617 90.3842L146.063 88.3294C148.53 86.2563 149.033 85.686 147.842 86.314C147.415 86.5392 147.192 86.5993 146.937 86.5582C146.505 86.4889 146.155 86.16 146.029 85.7053C145.893 85.215 145.897 77.177 146.034 76.5391C146.185 75.8365 146.562 75.5034 147.273 75.4443C147.735 75.4061 147.824 75.3675 147.824 75.2064C147.824 75.0785 147.699 74.9619 147.45 74.8581C146.43 74.4326 144.81 73.0984 144.074 72.0784L143.784 71.6761L140.991 73.7407ZM154.204 72.975C150.862 74.4024 150.186 74.7605 149.613 75.4072C148.863 76.2546 148.579 77.1621 148.425 79.214C148.163 82.6942 148.439 84.9422 149.316 86.4619C149.713 87.1488 150.614 88.109 151.358 88.6369C152.007 89.0971 153.178 89.7104 154.202 90.1265L154.833 90.3832L155.493 89.8047C156.47 88.9485 157.34 88.272 159.416 86.7556C160.443 86.0057 161.312 85.3448 161.348 85.287C161.384 85.2291 161.368 85.137 161.313 85.0822C161.247 85.0159 160.914 85.1636 160.317 85.5235C159.193 86.2008 158.726 86.3353 157.703 86.2761C156.64 86.2146 155.634 85.7323 154.797 84.8824C154.268 84.3452 153.645 83.3009 153.468 82.6555C153.414 82.4579 153.984 82.0782 160.468 77.9914L160.992 77.6611L159.121 74.6675L157.251 71.6738L154.204 72.975ZM115.625 73.6549C113.594 75.3209 113.321 75.5774 113.448 75.7043C113.575 75.8312 113.626 75.823 113.86 75.639C114.169 75.3965 114.692 75.2743 115.002 75.3726C115.429 75.5081 115.446 75.7102 115.501 81.5582L115.554 87.1444L115.916 87.8925C116.339 88.7674 116.791 89.3155 117.606 89.9426L118.195 90.3959L120.64 88.3375C121.985 87.2054 123.085 86.2456 123.085 86.2047C123.085 86.0073 122.92 86.0322 122.443 86.3019C121.855 86.6337 121.607 86.6618 121.187 86.4444C120.589 86.1356 120.591 86.1539 120.591 81.1111C120.591 76.0324 120.595 75.9997 121.209 75.6255C121.403 75.5072 121.714 75.424 121.963 75.4238C122.319 75.4235 122.387 75.3918 122.387 75.2253C122.387 75.082 122.214 74.9411 121.764 74.7158C120.915 74.292 119.892 73.5118 118.913 72.542C118.464 72.0968 118.063 71.7366 118.022 71.7415C117.981 71.7465 116.903 72.6075 115.625 73.6549ZM155.147 76.9179C156.008 78.4806 156.677 79.7718 156.633 79.7874C156.588 79.8029 155.834 80.2842 154.956 80.857L153.36 81.8985L153.287 81.5288C153.246 81.3255 153.241 79.5062 153.276 77.4858C153.325 74.5816 153.364 73.84 153.46 73.9445C153.527 74.0173 154.287 75.3553 155.147 76.9179ZM166.177 75.8473C166.936 76.5465 167.668 77.0164 168.595 77.398C169.485 77.7649 170.98 77.8273 171.759 77.5304C172.057 77.4165 172.322 77.3435 172.346 77.3682C172.461 77.4825 171.643 78.6035 170.995 79.2202C170.201 79.976 169.594 80.3283 168.791 80.4986C166.71 80.9401 164.759 78.9036 164.898 76.4366C164.93 75.8641 164.982 75.6848 165.176 75.4781C165.308 75.3383 165.435 75.2239 165.458 75.2239C165.481 75.2239 165.805 75.5045 166.177 75.8473ZM102.835 80.2599V84.498L102.461 84.744L102.087 84.9899L101.655 84.5272C101.154 83.9905 100.654 83.0471 100.351 82.0654C100.062 81.1286 99.8848 79.2574 100.001 78.3726L100.092 77.6808L101.389 76.8532C102.102 76.3982 102.719 76.0249 102.761 76.0238C102.802 76.0228 102.835 77.929 102.835 80.2599ZM169.909 81.2604C171.454 81.6629 172.398 83.1334 172.405 85.1493C172.408 86.0606 172.268 86.6843 172.013 86.8963C171.902 86.9878 171.811 86.9714 171.594 86.8208C169.998 85.7143 167.286 84.7343 165.306 84.5485C164.908 84.5112 164.583 84.4515 164.583 84.416C164.584 84.3804 164.723 84.1106 164.891 83.8163C165.543 82.6805 167.021 81.541 168.224 81.2479C168.906 81.0815 169.231 81.084 169.909 81.2604Z" fill="white"/>
</svg>
