<svg width="65" height="64" viewBox="0 0 65 64" fill="none" xmlns="http://www.w3.org/2000/svg">
<path opacity="0.2" d="M54.7158 14V28C54.7158 52 32.7158 58 32.7158 58C32.7158 58 10.7158 52 10.7158 28V14C10.7158 13.4696 10.9265 12.9609 11.3016 12.5858C11.6767 12.2107 12.1854 12 12.7158 12H52.7158C53.2463 12 53.755 12.2107 54.13 12.5858C54.5051 12.9609 54.7158 13.4696 54.7158 14Z" fill="#7C3AED"/>
<path d="M52.7158 10H12.7158C11.655 10 10.6375 10.4214 9.88739 11.1716C9.13725 11.9217 8.71582 12.9391 8.71582 14V28C8.71582 41.18 15.0958 49.1675 20.4483 53.5475C26.2133 58.2625 31.9483 59.8625 32.1983 59.93C32.5421 60.0235 32.9046 60.0235 33.2483 59.93C33.4983 59.8625 39.2258 58.2625 44.9983 53.5475C50.3358 49.1675 56.7158 41.18 56.7158 28V14C56.7158 12.9391 56.2944 11.9217 55.5442 11.1716C54.7941 10.4214 53.7767 10 52.7158 10ZM52.7158 28C52.7158 37.2675 49.3008 44.79 42.5658 50.355C39.634 52.7693 36.2997 54.648 32.7158 55.905C29.1788 54.6699 25.8857 52.8245 22.9858 50.4525C16.1708 44.8775 12.7158 37.325 12.7158 28V14H52.7158V28ZM21.3008 35.415C20.9255 35.0397 20.7147 34.5307 20.7147 34C20.7147 33.4693 20.9255 32.9603 21.3008 32.585C21.6761 32.2097 22.1851 31.9989 22.7158 31.9989C23.2465 31.9989 23.7555 32.2097 24.1308 32.585L28.7158 37.1725L41.3008 24.585C41.4866 24.3992 41.7072 24.2518 41.95 24.1512C42.1928 24.0506 42.453 23.9989 42.7158 23.9989C42.9786 23.9989 43.2388 24.0506 43.4816 24.1512C43.7244 24.2518 43.945 24.3992 44.1308 24.585C44.3166 24.7708 44.464 24.9914 44.5646 25.2342C44.6652 25.477 44.7169 25.7372 44.7169 26C44.7169 26.2628 44.6652 26.523 44.5646 26.7658C44.464 27.0086 44.3166 27.2292 44.1308 27.415L30.1308 41.415C29.9451 41.601 29.7245 41.7485 29.4817 41.8491C29.2389 41.9498 28.9787 42.0016 28.7158 42.0016C28.453 42.0016 28.1927 41.9498 27.9499 41.8491C27.7071 41.7485 27.4866 41.601 27.3008 41.415L21.3008 35.415Z" fill="#7C3AED"/>
</svg>
