<svg width="80" height="80" viewBox="0 0 80 80" fill="none" xmlns="http://www.w3.org/2000/svg">
<path fill-rule="evenodd" clip-rule="evenodd" d="M24.7213 22.3644C28.4223 19.1551 33.1436 17.0914 38.3336 16.7252V19.9999C38.3336 20.9204 39.0799 21.6666 40.0003 21.6666C40.9208 21.6666 41.6669 20.9204 41.6669 19.9999V16.7252C46.8568 17.0914 51.5779 19.1549 55.2789 22.3639L52.9639 24.6789C52.3131 25.3297 52.3131 26.3851 52.9639 27.0359C53.6149 27.6867 54.6701 27.6867 55.3209 27.0359L57.6359 24.7209C60.8451 28.4219 62.9088 33.1432 63.2751 38.3332H60.0003C59.0799 38.3332 58.3336 39.0794 58.3336 39.9999C58.3336 40.9204 59.0799 41.6666 60.0003 41.6666H63.2751C62.9088 46.8564 60.8453 51.5775 57.6363 55.2785L55.3209 52.9634C54.6701 52.3125 53.6149 52.3125 52.9639 52.9634C52.3131 53.6142 52.3131 54.6696 52.9639 55.3204L55.2791 57.6356C51.5783 60.8447 46.8569 62.9084 41.6669 63.2746V59.9999C41.6669 59.0794 40.9208 58.3332 40.0003 58.3332C39.0799 58.3332 38.3336 59.0794 38.3336 59.9999V63.2746C33.1439 62.9084 28.4228 60.8449 24.7219 57.6359L27.0368 55.3211C27.6876 54.6702 27.6876 53.6151 27.0368 52.9641C26.3859 52.3132 25.3306 52.3132 24.6798 52.9641L22.3648 55.2789C19.1556 51.5779 17.0919 46.8566 16.7256 41.6666H20.0003C20.9208 41.6666 21.6669 40.9204 21.6669 39.9999C21.6669 39.0794 20.9208 38.3332 20.0003 38.3332H16.7256C17.0919 33.1434 19.1553 28.4224 22.3643 24.7214L24.6798 27.0367C25.3306 27.6876 26.3858 27.6876 27.0368 27.0367C27.6876 26.3859 27.6876 25.3306 27.0368 24.6797L24.7213 22.3644ZM29.1671 35.8332C29.1671 34.9127 28.4208 34.1666 27.5004 34.1666C26.5799 34.1666 25.8338 34.9127 25.8338 35.8332V44.1666C25.8338 45.0871 26.5799 45.8332 27.5004 45.8332C28.4208 45.8332 29.1671 45.0871 29.1671 44.1666V41.6666H30.8338V44.1666C30.8338 45.0871 31.5799 45.8332 32.5004 45.8332C33.4208 45.8332 34.1671 45.0871 34.1671 44.1666V35.8332C34.1671 34.9127 33.4208 34.1666 32.5004 34.1666C31.5799 34.1666 30.8338 34.9127 30.8338 35.8332V38.3332H29.1671V35.8332ZM35.8338 35.8332C35.8338 34.9127 36.5799 34.1666 37.5004 34.1666H42.5004C43.4208 34.1666 44.1671 34.9127 44.1671 35.8332C44.1671 36.7537 43.4208 37.4999 42.5004 37.4999H41.6671V42.4999H42.5004C43.4208 42.4999 44.1671 43.2461 44.1671 44.1666C44.1671 45.0871 43.4208 45.8332 42.5004 45.8332H37.5004C36.5799 45.8332 35.8338 45.0871 35.8338 44.1666C35.8338 43.2461 36.5799 42.4999 37.5004 42.4999H38.3338V37.4999H37.5004C36.5799 37.4999 35.8338 36.7537 35.8338 35.8332ZM52.3811 44.7856C52.1281 45.4182 51.5153 45.8332 50.8338 45.8332C50.1523 45.8332 49.5393 45.4182 49.2863 44.7856L45.9529 36.4522C45.6111 35.5976 46.0268 34.6276 46.8814 34.2857C47.7359 33.9439 48.7059 34.3596 49.0478 35.2142L50.8338 39.6789L52.6196 35.2142C52.9614 34.3596 53.9314 33.9439 54.7859 34.2857C55.6406 34.6276 56.0563 35.5976 55.7144 36.4522L52.3811 44.7856Z" fill="#7C3AED"/>
<path fill-rule="evenodd" clip-rule="evenodd" d="M35 8.33329C35 7.41283 35.7462 6.66663 36.6667 6.66663H43.3333C44.2537 6.66663 45 7.41283 45 8.33329C45 9.25376 44.2537 9.99996 43.3333 9.99996H41.6667V13.3333C41.6667 14.2538 40.9203 15 40 15C39.0795 15 38.3333 14.2538 38.3333 13.3333V9.99996H36.6667C35.7462 9.99996 35 9.25376 35 8.33329Z" fill="#7C3AED"/>
<path fill-rule="evenodd" clip-rule="evenodd" d="M40 65C40.9203 65 41.6667 65.7462 41.6667 66.6667V70H43.3333C44.2537 70 45 70.7462 45 71.6667C45 72.5872 44.2537 73.3333 43.3333 73.3333H36.6667C35.7462 73.3333 35 72.5872 35 71.6667C35 70.7462 35.7462 70 36.6667 70H38.3333V66.6667C38.3333 65.7462 39.0795 65 40 65Z" fill="#7C3AED"/>
<path fill-rule="evenodd" clip-rule="evenodd" d="M21.1431 65.9279C20.4923 66.5788 19.4371 66.5788 18.7861 65.9279L14.0721 61.2139C13.4213 60.5631 13.4213 59.5078 14.0721 58.8569C14.723 58.2061 15.7783 58.2061 16.4292 58.8569L17.6076 60.0354L19.9646 57.6784C20.6156 57.0274 21.6708 57.0274 22.3218 57.6784C22.9726 58.3293 22.9726 59.3846 22.3218 60.0354L19.9646 62.3924L21.1431 63.5709C21.7941 64.2218 21.7941 65.2771 21.1431 65.9279Z" fill="#7C3AED"/>
<path fill-rule="evenodd" clip-rule="evenodd" d="M57.6777 22.323C57.0267 21.672 57.0267 20.6168 57.6777 19.966L60.0347 17.6088L58.8562 16.4304C58.2052 15.7795 58.2052 14.7242 58.8562 14.0734C59.507 13.4225 60.5624 13.4225 61.2132 14.0734L65.9272 18.7873C66.578 19.4383 66.578 20.4935 65.9272 21.1445C65.2764 21.7953 64.221 21.7953 63.5702 21.1445L62.3917 19.966L60.0347 22.323C59.3837 22.9738 58.3285 22.9738 57.6777 22.323Z" fill="#7C3AED"/>
<path fill-rule="evenodd" clip-rule="evenodd" d="M8.33366 45C7.41318 45 6.66699 44.2538 6.66699 43.3333V36.6667C6.66699 35.7462 7.41318 35 8.33366 35C9.25413 35 10.0003 35.7462 10.0003 36.6667V38.3333H13.3337C14.2541 38.3333 15.0003 39.0795 15.0003 40C15.0003 40.9205 14.2541 41.6667 13.3337 41.6667H10.0003V43.3333C10.0003 44.2538 9.25413 45 8.33366 45Z" fill="#7C3AED"/>
<path fill-rule="evenodd" clip-rule="evenodd" d="M65 40C65 39.0795 65.7462 38.3333 66.6667 38.3333H70V36.6667C70 35.7462 70.7462 35 71.6667 35C72.587 35 73.3333 35.7462 73.3333 36.6667V43.3333C73.3333 44.2538 72.587 45 71.6667 45C70.7462 45 70 44.2538 70 43.3333V41.6667H66.6667C65.7462 41.6667 65 40.9205 65 40Z" fill="#7C3AED"/>
<path fill-rule="evenodd" clip-rule="evenodd" d="M14.0721 21.1444C13.4213 20.4936 13.4213 19.4383 14.0721 18.7874L18.7861 14.0734C19.4371 13.4225 20.4923 13.4225 21.1431 14.0734C21.7941 14.7242 21.7941 15.7795 21.1431 16.4304L19.9646 17.6089L22.3218 19.9659C22.9726 20.6168 22.9726 21.6721 22.3218 22.3229C21.6708 22.9738 20.6156 22.9738 19.9646 22.3229L17.6076 19.9659L16.4292 21.1444C15.7783 21.7953 14.723 21.7953 14.0721 21.1444Z" fill="#7C3AED"/>
<path fill-rule="evenodd" clip-rule="evenodd" d="M57.6777 57.6781C58.3285 57.0272 59.3837 57.0272 60.0347 57.6781L62.3917 60.0351L63.5702 58.8566C64.221 58.2057 65.2764 58.2057 65.9272 58.8566C66.578 59.5074 66.578 60.5627 65.9272 61.2136L61.2132 65.9277C60.5624 66.5786 59.507 66.5786 58.8562 65.9277C58.2052 65.2767 58.2052 64.2216 58.8562 63.5706L60.0347 62.3921L57.6777 60.0351C57.0267 59.3842 57.0267 58.3289 57.6777 57.6781Z" fill="#7C3AED"/>
</svg>
