<svg width="80" height="80" viewBox="0 0 80 80" fill="none" xmlns="http://www.w3.org/2000/svg">
<path fill-rule="evenodd" clip-rule="evenodd" d="M69.9997 23.3333C69.9997 30.6972 64.0302 36.6667 56.6663 36.6667C49.3025 36.6667 43.333 30.6972 43.333 23.3333C43.333 15.9695 49.3025 10 56.6663 10C64.0302 10 69.9997 15.9695 69.9997 23.3333ZM63.8035 24.9745C63.5973 25.8717 62.7028 26.4317 61.8058 26.2253L50.7797 23.6905C49.8827 23.4843 49.3227 22.5898 49.5288 21.6928C49.7352 20.7958 50.6295 20.2357 51.5265 20.442L62.5527 22.9768C63.4497 23.183 64.0098 24.0775 63.8035 24.9745Z" fill="#7C3AED"/>
<path d="M27.9637 15.4086C26.8845 12.8556 23.2755 12.5981 21.8258 14.9707L10.488 33.5247C9.18015 35.665 10.6425 38.3975 13.1932 38.5795L32.9705 39.9907C35.5212 40.1727 37.3768 37.677 36.4033 35.3739L27.9637 15.4086Z" fill="#7C3AED"/>
<path fill-rule="evenodd" clip-rule="evenodd" d="M58.9739 60.5987C63.9793 58.2647 66.1449 52.3148 63.8107 47.3093C61.4767 42.304 55.5269 40.1385 50.5216 42.4725L32.3954 50.9248C27.3899 53.259 25.2244 59.2087 27.5584 64.2142C29.8926 69.2195 35.8423 71.3852 40.8478 69.051L58.9739 60.5987ZM49.9034 61.1503L57.5651 57.5777C60.9021 56.0217 62.3458 52.055 60.7898 48.7182C59.2338 45.3812 55.2673 43.9375 51.9303 45.4935L44.2686 49.0662L49.9034 61.1503Z" fill="#7C3AED"/>
</svg>
