<svg width="65" height="64" viewBox="0 0 65 64" fill="none" xmlns="http://www.w3.org/2000/svg">
<path opacity="0.2" d="M56.3579 26V38C56.3579 38.5304 56.1472 39.0391 55.7721 39.4142C55.3971 39.7893 54.8883 40 54.3579 40H40.3579V54C40.3579 54.5304 40.1472 55.0391 39.7721 55.4142C39.3971 55.7893 38.8883 56 38.3579 56H26.3579C25.8275 56 25.3188 55.7893 24.9437 55.4142C24.5686 55.0391 24.3579 54.5304 24.3579 54V40H10.3579C9.82748 40 9.31877 39.7893 8.9437 39.4142C8.56862 39.0391 8.35791 38.5304 8.35791 38V26C8.35791 25.4696 8.56862 24.9609 8.9437 24.5858C9.31877 24.2107 9.82748 24 10.3579 24H24.3579V10C24.3579 9.46957 24.5686 8.96086 24.9437 8.58579C25.3188 8.21071 25.8275 8 26.3579 8H38.3579C38.8883 8 39.3971 8.21071 39.7721 8.58579C40.1472 8.96086 40.3579 9.46957 40.3579 10V24H54.3579C54.8883 24 55.3971 24.2107 55.7721 24.5858C56.1472 24.9609 56.3579 25.4696 56.3579 26Z" fill="#7C3AED"/>
<path d="M54.3579 22H42.3579V10C42.3579 8.93913 41.9365 7.92172 41.1863 7.17157C40.4362 6.42143 39.4188 6 38.3579 6H26.3579C25.297 6 24.2796 6.42143 23.5295 7.17157C22.7793 7.92172 22.3579 8.93913 22.3579 10V22H10.3579C9.29704 22 8.27963 22.4214 7.52948 23.1716C6.77934 23.9217 6.35791 24.9391 6.35791 26V38C6.35791 39.0609 6.77934 40.0783 7.52948 40.8284C8.27963 41.5786 9.29704 42 10.3579 42H22.3579V54C22.3579 55.0609 22.7793 56.0783 23.5295 56.8284C24.2796 57.5786 25.297 58 26.3579 58H38.3579C39.4188 58 40.4362 57.5786 41.1863 56.8284C41.9365 56.0783 42.3579 55.0609 42.3579 54V42H54.3579C55.4188 42 56.4362 41.5786 57.1863 40.8284C57.9365 40.0783 58.3579 39.0609 58.3579 38V26C58.3579 24.9391 57.9365 23.9217 57.1863 23.1716C56.4362 22.4214 55.4188 22 54.3579 22ZM54.3579 38H40.3579C39.8275 38 39.3188 38.2107 38.9437 38.5858C38.5686 38.9609 38.3579 39.4696 38.3579 40V54H26.3579V40C26.3579 39.4696 26.1472 38.9609 25.7721 38.5858C25.3971 38.2107 24.8883 38 24.3579 38H10.3579V26H24.3579C24.8883 26 25.3971 25.7893 25.7721 25.4142C26.1472 25.0391 26.3579 24.5304 26.3579 24V10H38.3579V24C38.3579 24.5304 38.5686 25.0391 38.9437 25.4142C39.3188 25.7893 39.8275 26 40.3579 26H54.3579V38Z" fill="#7C3AED"/>
</svg>
