<svg width="33" height="32" viewBox="0 0 33 32" fill="none" xmlns="http://www.w3.org/2000/svg">
<path d="M28.7347 5.3335C29.2827 5.3335 29.6667 5.75083 29.6667 6.2175C29.6667 6.54816 29.4733 6.90416 29.004 7.1535C26.62 8.4175 23.86 12.7882 23.86 15.4842C27.8813 15.3615 29.628 18.9268 29.628 21.1615C29.628 23.8375 27.3107 26.6668 23.884 26.6668C19.564 26.6668 17.444 23.2708 17.444 19.5908C17.444 11.6175 26.556 5.3335 28.7347 5.3335ZM14.2907 5.3335C14.8373 5.3335 15.2227 5.75083 15.2227 6.2175C15.2227 6.54816 15.0293 6.90416 14.56 7.1535C12.176 8.4175 9.416 12.7882 9.416 15.4842C13.4373 15.3615 15.184 18.9268 15.184 21.1615C15.184 23.8375 12.8653 26.6668 9.44 26.6668C5.11867 26.6668 3 23.2708 3 19.5908C3 11.6175 12.1107 5.3335 14.2907 5.3335Z" fill="white"/>
</svg>
