<svg width="32" height="33" viewBox="0 0 32 33" fill="none" xmlns="http://www.w3.org/2000/svg">
<path d="M16.0009 15.4411C16.2976 15.4411 16.5876 15.5291 16.8343 15.6939C17.0809 15.8587 17.2732 16.093 17.3867 16.3671C17.5002 16.6411 17.53 16.9427 17.4721 17.2337C17.4142 17.5247 17.2713 17.792 17.0616 18.0017C16.8518 18.2115 16.5845 18.3544 16.2935 18.4123C16.0026 18.4701 15.701 18.4404 15.4269 18.3269C15.1528 18.2134 14.9185 18.0211 14.7537 17.7744C14.5889 17.5278 14.5009 17.2378 14.5009 16.9411C14.5009 16.5433 14.6589 16.1617 14.9402 15.8804C15.2215 15.5991 15.6031 15.4411 16.0009 15.4411ZM26.5359 20.4061C27.0134 20.8673 27.3944 21.419 27.6564 22.0291C27.9184 22.6391 28.0564 23.2952 28.0622 23.9591C28.0679 24.623 27.9414 25.2814 27.69 25.8959C27.4386 26.5103 27.0673 27.0686 26.5979 27.5381C26.1284 28.0075 25.5701 28.3788 24.9557 28.6302C24.3412 28.8816 23.6828 29.0081 23.0189 29.0023C22.355 28.9966 21.6989 28.8586 21.0889 28.5966C20.4789 28.3345 19.9271 27.9536 19.4659 27.4761L16.0009 24.0123L12.5359 27.4761C12.0747 27.9536 11.5229 28.3345 10.9129 28.5966C10.3029 28.8586 9.6468 28.9966 8.9829 29.0023C8.319 29.0081 7.66061 28.8816 7.04612 28.6302C6.43164 28.3788 5.87338 28.0075 5.40392 27.5381C4.93446 27.0686 4.56319 26.5103 4.31179 25.8959C4.06038 25.2814 3.93387 24.623 3.93964 23.9591C3.94541 23.2952 4.08334 22.6391 4.34539 22.0291C4.60743 21.419 4.98834 20.8673 5.46589 20.4061L8.92964 16.9411L5.46589 13.4761C4.98834 13.0148 4.60743 12.4631 4.34539 11.8531C4.08334 11.2431 3.94541 10.587 3.93964 9.92309C3.93387 9.25919 4.06038 8.60079 4.31179 7.98631C4.56319 7.37183 4.93446 6.81357 5.40392 6.34411C5.87338 5.87464 6.43164 5.50338 7.04612 5.25197C7.66061 5.00057 8.319 4.87406 8.9829 4.87983C9.6468 4.8856 10.3029 5.02353 10.9129 5.28557C11.5229 5.54762 12.0747 5.92853 12.5359 6.40608L16.0009 9.86983L19.4659 6.40608C19.9271 5.92853 20.4789 5.54762 21.0889 5.28557C21.6989 5.02353 22.355 4.8856 23.0189 4.87983C23.6828 4.87406 24.3412 5.00057 24.9557 5.25197C25.5701 5.50338 26.1284 5.87464 26.5979 6.34411C27.0673 6.81357 27.4386 7.37183 27.69 7.98631C27.9414 8.60079 28.0679 9.25919 28.0622 9.92309C28.0564 10.587 27.9184 11.2431 27.6564 11.8531C27.3944 12.4631 27.0134 13.0148 26.5359 13.4761L23.0721 16.9411L26.5359 20.4061ZM14.5871 22.5973L10.3446 18.3548L6.87589 21.8161C6.59684 22.0951 6.37547 22.4264 6.22445 22.791C6.07342 23.1556 5.99569 23.5464 5.99569 23.9411C5.99569 24.3357 6.07342 24.7265 6.22445 25.0911C6.37547 25.4557 6.59684 25.787 6.87589 26.0661C7.15495 26.3451 7.48624 26.5665 7.85085 26.7175C8.21546 26.8686 8.60625 26.9463 9.00089 26.9463C9.39554 26.9463 9.78633 26.8686 10.1509 26.7175C10.5155 26.5665 10.8468 26.3451 11.1259 26.0661L14.5871 22.5973ZM20.2434 16.9411L16.0009 12.6986L11.7584 16.9411L16.0009 21.1836L20.2434 16.9411ZM25.1184 12.0661C25.3975 11.7875 25.6189 11.4567 25.7701 11.0926C25.9213 10.7284 25.9994 10.338 25.9997 9.94373C26 9.54943 25.9227 9.15892 25.7722 8.7945C25.6216 8.43008 25.4007 8.09889 25.1221 7.81983C24.8436 7.54077 24.5128 7.31931 24.1486 7.1681C23.7845 7.01688 23.3941 6.93888 22.9998 6.93853C22.6055 6.93818 22.215 7.0155 21.8506 7.16607C21.4861 7.31664 21.155 7.53751 20.8759 7.81608L17.4146 11.2848L21.6571 15.5273L25.1184 12.0661Z" fill="white"/>
</svg>
