<svg width="32" height="33" viewBox="0 0 32 33" fill="none" xmlns="http://www.w3.org/2000/svg">
<path d="M25 3.94116H7C6.46957 3.94116 5.96086 4.15188 5.58579 4.52695C5.21071 4.90202 5 5.41073 5 5.94116V27.9412C5 28.4716 5.21071 28.9803 5.58579 29.3554C5.96086 29.7304 6.46957 29.9412 7 29.9412H25C25.5304 29.9412 26.0391 29.7304 26.4142 29.3554C26.7893 28.9803 27 28.4716 27 27.9412V5.94116C27 5.41073 26.7893 4.90202 26.4142 4.52695C26.0391 4.15188 25.5304 3.94116 25 3.94116ZM16 20.9412C16.2967 20.9412 16.5867 21.0291 16.8334 21.194C17.08 21.3588 17.2723 21.593 17.3858 21.8671C17.4993 22.1412 17.5291 22.4428 17.4712 22.7338C17.4133 23.0248 17.2704 23.292 17.0607 23.5018C16.8509 23.7116 16.5836 23.8545 16.2926 23.9123C16.0017 23.9702 15.7001 23.9405 15.426 23.827C15.1519 23.7134 14.9176 23.5212 14.7528 23.2745C14.588 23.0278 14.5 22.7378 14.5 22.4412C14.5 22.0433 14.658 21.6618 14.9393 21.3805C15.2206 21.0992 15.6022 20.9412 16 20.9412ZM15 17.9412V10.9412C15 10.6759 15.1054 10.4216 15.2929 10.2341C15.4804 10.0465 15.7348 9.94116 16 9.94116C16.2652 9.94116 16.5196 10.0465 16.7071 10.2341C16.8946 10.4216 17 10.6759 17 10.9412V17.9412C17 18.2064 16.8946 18.4607 16.7071 18.6483C16.5196 18.8358 16.2652 18.9412 16 18.9412C15.7348 18.9412 15.4804 18.8358 15.2929 18.6483C15.1054 18.4607 15 18.2064 15 17.9412Z" fill="white"/>
</svg>
