<svg width="32" height="33" viewBox="0 0 32 33" fill="none" xmlns="http://www.w3.org/2000/svg">
<path d="M22.0002 29.9412C22.0002 30.2064 21.8948 30.4608 21.7073 30.6483C21.5197 30.8358 21.2654 30.9412 21.0002 30.9412H11.0002C10.7349 30.9412 10.4806 30.8358 10.2931 30.6483C10.1055 30.4608 10.0002 30.2064 10.0002 29.9412C10.0002 29.676 10.1055 29.4216 10.2931 29.2341C10.4806 29.0465 10.7349 28.9412 11.0002 28.9412H21.0002C21.2654 28.9412 21.5197 29.0465 21.7073 29.2341C21.8948 29.4216 22.0002 29.676 22.0002 29.9412ZM27.0002 13.9412C27.0045 15.6082 26.6279 17.2542 25.8991 18.7536C25.1704 20.2529 24.1087 21.5659 22.7952 22.5924C22.5496 22.7807 22.3502 23.0226 22.2125 23.2997C22.0747 23.5768 22.0021 23.8817 22.0002 24.1912V24.9412C22.0002 25.4716 21.7894 25.9803 21.4144 26.3554C21.0393 26.7305 20.5306 26.9412 20.0002 26.9412H12.0002C11.4697 26.9412 10.961 26.7305 10.586 26.3554C10.2109 25.9803 10.0002 25.4716 10.0002 24.9412V24.1912C9.99996 23.8854 9.92965 23.5838 9.79465 23.3095C9.65965 23.0351 9.46355 22.7954 9.22141 22.6087C7.91116 21.5882 6.85022 20.2831 6.11889 18.7921C5.38755 17.301 5.00499 15.6632 5.00016 14.0024C4.96766 8.04493 9.78266 3.08368 15.7352 2.94118C17.2018 2.90584 18.6608 3.16425 20.0261 3.7012C21.3914 4.23816 22.6355 5.04281 23.6852 6.0678C24.7349 7.09278 25.5689 8.31739 26.1382 9.66954C26.7075 11.0217 27.0006 12.4741 27.0002 13.9412ZM22.9864 12.7737C22.7271 11.3253 22.0303 9.99114 20.9897 8.9508C19.9492 7.91047 18.6149 7.21392 17.1664 6.95493C17.0369 6.9331 16.9043 6.93699 16.7763 6.96638C16.6483 6.99578 16.5274 7.0501 16.4203 7.12624C16.3133 7.20239 16.2223 7.29886 16.1526 7.41017C16.0829 7.52147 16.0357 7.64542 16.0139 7.77493C15.9921 7.90445 15.996 8.037 16.0254 8.16501C16.0548 8.29302 16.1091 8.41399 16.1852 8.52101C16.2614 8.62803 16.3578 8.719 16.4691 8.78874C16.5804 8.85847 16.7044 8.9056 16.8339 8.92743C18.9052 9.27618 20.6627 11.0337 21.0139 13.1087C21.0535 13.3416 21.1742 13.553 21.3548 13.7053C21.5353 13.8577 21.7639 13.9413 22.0002 13.9412C22.0567 13.9408 22.1131 13.9362 22.1689 13.9274C22.4303 13.8828 22.6633 13.7362 22.8166 13.5198C22.9699 13.3035 23.031 13.0351 22.9864 12.7737Z" fill="white"/>
</svg>
