<svg width="32" height="33" viewBox="0 0 32 33" fill="none" xmlns="http://www.w3.org/2000/svg">
<path d="M27.0529 5.89114C25.8041 4.64258 24.1106 3.94116 22.3447 3.94116C20.5789 3.94116 18.8853 4.64258 17.6366 5.89114L4.94911 18.5774C3.72672 19.8312 3.04755 21.5162 3.05873 23.2673C3.06991 25.0184 3.77054 26.6945 5.00884 27.9326C6.24714 29.1708 7.9234 29.8712 9.67447 29.8821C11.4255 29.8931 13.1104 29.2137 14.3641 27.9911L27.0529 15.3049C28.2991 14.0555 28.999 12.3628 28.999 10.598C28.999 8.83328 28.2991 7.14058 27.0529 5.89114ZM25.6379 13.8911L19.2941 20.2336L12.7079 13.6486L19.0516 7.30489C19.9285 6.44829 21.1077 5.97192 22.3335 5.97908C23.5593 5.98624 24.7328 6.47636 25.5996 7.34315C26.4664 8.20993 26.9565 9.38349 26.9637 10.6093C26.9708 11.8351 26.4945 13.0143 25.6379 13.8911ZM23.7091 11.2336C23.8021 11.3265 23.8758 11.4368 23.9262 11.5582C23.9765 11.6796 24.0024 11.8097 24.0024 11.9411C24.0024 12.0726 23.9765 12.2027 23.9262 12.3241C23.8758 12.4455 23.8021 12.5558 23.7091 12.6486L20.7091 15.6486C20.6162 15.7415 20.5059 15.8151 20.3846 15.8653C20.2632 15.9155 20.1331 15.9413 20.0018 15.9413C19.8705 15.9412 19.7404 15.9153 19.6191 15.865C19.4978 15.8146 19.3876 15.7409 19.2947 15.648C19.2019 15.5551 19.1283 15.4448 19.0781 15.3235C19.0279 15.2021 19.0021 15.072 19.0021 14.9407C19.0022 14.8094 19.0281 14.6793 19.0784 14.558C19.1287 14.4367 19.2024 14.3265 19.2954 14.2336L22.2954 11.2336C22.4829 11.0462 22.7371 10.941 23.0022 10.941C23.2673 10.941 23.5216 11.0462 23.7091 11.2336Z" fill="white"/>
</svg>
