<svg width="65" height="64" viewBox="0 0 65 64" fill="none" xmlns="http://www.w3.org/2000/svg">
<path opacity="0.2" d="M54.7158 12V22H10.7158V12C10.7158 11.4696 10.9265 10.9609 11.3016 10.5858C11.6767 10.2107 12.1854 10 12.7158 10H52.7158C53.2463 10 53.755 10.2107 54.13 10.5858C54.5051 10.9609 54.7158 11.4696 54.7158 12Z" fill="#7C3AED"/>
<path d="M52.7158 8H46.7158V6C46.7158 5.46957 46.5051 4.96086 46.13 4.58579C45.755 4.21071 45.2463 4 44.7158 4C44.1854 4 43.6767 4.21071 43.3016 4.58579C42.9265 4.96086 42.7158 5.46957 42.7158 6V8H22.7158V6C22.7158 5.46957 22.5051 4.96086 22.13 4.58579C21.755 4.21071 21.2463 4 20.7158 4C20.1854 4 19.6767 4.21071 19.3016 4.58579C18.9265 4.96086 18.7158 5.46957 18.7158 6V8H12.7158C11.655 8 10.6375 8.42143 9.88739 9.17157C9.13725 9.92172 8.71582 10.9391 8.71582 12V52C8.71582 53.0609 9.13725 54.0783 9.88739 54.8284C10.6375 55.5786 11.655 56 12.7158 56H52.7158C53.7767 56 54.7941 55.5786 55.5442 54.8284C56.2944 54.0783 56.7158 53.0609 56.7158 52V12C56.7158 10.9391 56.2944 9.92172 55.5442 9.17157C54.7941 8.42143 53.7767 8 52.7158 8ZM18.7158 12V14C18.7158 14.5304 18.9265 15.0391 19.3016 15.4142C19.6767 15.7893 20.1854 16 20.7158 16C21.2463 16 21.755 15.7893 22.13 15.4142C22.5051 15.0391 22.7158 14.5304 22.7158 14V12H42.7158V14C42.7158 14.5304 42.9265 15.0391 43.3016 15.4142C43.6767 15.7893 44.1854 16 44.7158 16C45.2463 16 45.755 15.7893 46.13 15.4142C46.5051 15.0391 46.7158 14.5304 46.7158 14V12H52.7158V20H12.7158V12H18.7158ZM52.7158 52H12.7158V24H52.7158V52ZM40.7158 38C40.7158 38.5304 40.5051 39.0391 40.13 39.4142C39.755 39.7893 39.2463 40 38.7158 40H34.7158V44C34.7158 44.5304 34.5051 45.0391 34.13 45.4142C33.755 45.7893 33.2463 46 32.7158 46C32.1854 46 31.6767 45.7893 31.3016 45.4142C30.9265 45.0391 30.7158 44.5304 30.7158 44V40H26.7158C26.1854 40 25.6767 39.7893 25.3016 39.4142C24.9265 39.0391 24.7158 38.5304 24.7158 38C24.7158 37.4696 24.9265 36.9609 25.3016 36.5858C25.6767 36.2107 26.1854 36 26.7158 36H30.7158V32C30.7158 31.4696 30.9265 30.9609 31.3016 30.5858C31.6767 30.2107 32.1854 30 32.7158 30C33.2463 30 33.755 30.2107 34.13 30.5858C34.5051 30.9609 34.7158 31.4696 34.7158 32V36H38.7158C39.2463 36 39.755 36.2107 40.13 36.5858C40.5051 36.9609 40.7158 37.4696 40.7158 38Z" fill="#7C3AED"/>
</svg>
