<svg width="49" height="52" viewBox="0 0 49 52" fill="none" xmlns="http://www.w3.org/2000/svg">
<path d="M44.7158 4H38.7158V2C38.7158 1.46957 38.5051 0.960859 38.13 0.585786C37.755 0.210714 37.2463 0 36.7158 0C36.1854 0 35.6767 0.210714 35.3016 0.585786C34.9265 0.960859 34.7158 1.46957 34.7158 2V4H14.7158V2C14.7158 1.46957 14.5051 0.960859 14.13 0.585786C13.755 0.210714 13.2463 0 12.7158 0C12.1854 0 11.6767 0.210714 11.3016 0.585786C10.9265 0.960859 10.7158 1.46957 10.7158 2V4H4.71582C3.65495 4 2.63754 4.42143 1.88739 5.17157C1.13725 5.92172 0.71582 6.93913 0.71582 8V48C0.71582 49.0609 1.13725 50.0783 1.88739 50.8284C2.63754 51.5786 3.65495 52 4.71582 52H44.7158C45.7767 52 46.7941 51.5786 47.5442 50.8284C48.2944 50.0783 48.7158 49.0609 48.7158 48V8C48.7158 6.93913 48.2944 5.92172 47.5442 5.17157C46.7941 4.42143 45.7767 4 44.7158 4ZM10.7158 8V10C10.7158 10.5304 10.9265 11.0391 11.3016 11.4142C11.6767 11.7893 12.1854 12 12.7158 12C13.2463 12 13.755 11.7893 14.13 11.4142C14.5051 11.0391 14.7158 10.5304 14.7158 10V8H34.7158V10C34.7158 10.5304 34.9265 11.0391 35.3016 11.4142C35.6767 11.7893 36.1854 12 36.7158 12C37.2463 12 37.755 11.7893 38.13 11.4142C38.5051 11.0391 38.7158 10.5304 38.7158 10V8H44.7158V16H4.71582V8H10.7158ZM44.7158 48H4.71582V20H44.7158V48ZM32.7158 34C32.7158 34.5304 32.5051 35.0391 32.13 35.4142C31.755 35.7893 31.2463 36 30.7158 36H26.7158V40C26.7158 40.5304 26.5051 41.0391 26.13 41.4142C25.755 41.7893 25.2463 42 24.7158 42C24.1854 42 23.6767 41.7893 23.3016 41.4142C22.9265 41.0391 22.7158 40.5304 22.7158 40V36H18.7158C18.1854 36 17.6767 35.7893 17.3016 35.4142C16.9265 35.0391 16.7158 34.5304 16.7158 34C16.7158 33.4696 16.9265 32.9609 17.3016 32.5858C17.6767 32.2107 18.1854 32 18.7158 32H22.7158V28C22.7158 27.4696 22.9265 26.9609 23.3016 26.5858C23.6767 26.2107 24.1854 26 24.7158 26C25.2463 26 25.755 26.2107 26.13 26.5858C26.5051 26.9609 26.7158 27.4696 26.7158 28V32H30.7158C31.2463 32 31.755 32.2107 32.13 32.5858C32.5051 32.9609 32.7158 33.4696 32.7158 34Z" fill="#9A3242"/>
</svg>
