<svg width="49" height="50" viewBox="0 0 49 50" fill="none" xmlns="http://www.w3.org/2000/svg">
<path d="M44.7158 0H4.71582C3.65495 0 2.63754 0.421427 1.88739 1.17157C1.13725 1.92172 0.71582 2.93913 0.71582 4V18C0.71582 31.18 7.09582 39.1675 12.4483 43.5475C18.2133 48.2625 23.9483 49.8625 24.1983 49.93C24.5421 50.0235 24.9046 50.0235 25.2483 49.93C25.4983 49.8625 31.2258 48.2625 36.9983 43.5475C42.3358 39.1675 48.7158 31.18 48.7158 18V4C48.7158 2.93913 48.2944 1.92172 47.5442 1.17157C46.7941 0.421427 45.7767 0 44.7158 0ZM44.7158 18C44.7158 27.2675 41.3008 34.79 34.5658 40.355C31.634 42.7693 28.2997 44.648 24.7158 45.905C21.1788 44.6699 17.8857 42.8245 14.9858 40.4525C8.17082 34.8775 4.71582 27.325 4.71582 18V4H44.7158V18ZM13.3008 25.415C12.9255 25.0397 12.7147 24.5307 12.7147 24C12.7147 23.4693 12.9255 22.9603 13.3008 22.585C13.6761 22.2097 14.1851 21.9989 14.7158 21.9989C15.2465 21.9989 15.7555 22.2097 16.1308 22.585L20.7158 27.1725L33.3008 14.585C33.4866 14.3992 33.7072 14.2518 33.95 14.1512C34.1928 14.0506 34.453 13.9989 34.7158 13.9989C34.9786 13.9989 35.2388 14.0506 35.4816 14.1512C35.7244 14.2518 35.945 14.3992 36.1308 14.585C36.3166 14.7708 36.464 14.9914 36.5646 15.2342C36.6652 15.477 36.7169 15.7372 36.7169 16C36.7169 16.2628 36.6652 16.523 36.5646 16.7658C36.464 17.0086 36.3166 17.2292 36.1308 17.415L22.1308 31.415C21.9451 31.601 21.7245 31.7485 21.4817 31.8491C21.2389 31.9498 20.9787 32.0016 20.7158 32.0016C20.453 32.0016 20.1927 31.9498 19.9499 31.8491C19.7071 31.7485 19.4866 31.601 19.3008 31.415L13.3008 25.415Z" fill="#9A3242"/>
</svg>
