<svg width="64" height="64" viewBox="0 0 64 64" fill="none" xmlns="http://www.w3.org/2000/svg">
<path opacity="0.2" d="M40 12V54H32V40H20V54H12V12C12 11.4696 12.2107 10.9609 12.5858 10.5858C12.9609 10.2107 13.4696 10 14 10H38C38.5304 10 39.0391 10.2107 39.4142 10.5858C39.7893 10.9609 40 11.4696 40 12Z" fill="#7C3AED"/>
<path d="M62 52H60V32C60 30.9391 59.5786 29.9217 58.8284 29.1716C58.0783 28.4214 57.0609 28 56 28H42V12C42 10.9391 41.5786 9.92172 40.8284 9.17157C40.0783 8.42143 39.0609 8 38 8H14C12.9391 8 11.9217 8.42143 11.1716 9.17157C10.4214 9.92172 10 10.9391 10 12V52H8C7.46957 52 6.96086 52.2107 6.58579 52.5858C6.21071 52.9609 6 53.4696 6 54C6 54.5304 6.21071 55.0391 6.58579 55.4142C6.96086 55.7893 7.46957 56 8 56H62C62.5304 56 63.0391 55.7893 63.4142 55.4142C63.7893 55.0391 64 54.5304 64 54C64 53.4696 63.7893 52.9609 63.4142 52.5858C63.0391 52.2107 62.5304 52 62 52ZM56 32V52H42V32H56ZM14 12H38V52H34V40C34 39.4696 33.7893 38.9609 33.4142 38.5858C33.0391 38.2107 32.5304 38 32 38H20C19.4696 38 18.9609 38.2107 18.5858 38.5858C18.2107 38.9609 18 39.4696 18 40V52H14V12ZM30 52H22V42H30V52ZM18 24C18 23.4696 18.2107 22.9609 18.5858 22.5858C18.9609 22.2107 19.4696 22 20 22H24V18C24 17.4696 24.2107 16.9609 24.5858 16.5858C24.9609 16.2107 25.4696 16 26 16C26.5304 16 27.0391 16.2107 27.4142 16.5858C27.7893 16.9609 28 17.4696 28 18V22H32C32.5304 22 33.0391 22.2107 33.4142 22.5858C33.7893 22.9609 34 23.4696 34 24C34 24.5304 33.7893 25.0391 33.4142 25.4142C33.0391 25.7893 32.5304 26 32 26H28V30C28 30.5304 27.7893 31.0391 27.4142 31.4142C27.0391 31.7893 26.5304 32 26 32C25.4696 32 24.9609 31.7893 24.5858 31.4142C24.2107 31.0391 24 30.5304 24 30V26H20C19.4696 26 18.9609 25.7893 18.5858 25.4142C18.2107 25.0391 18 24.5304 18 24Z" fill="#7C3AED"/>
</svg>
