<svg width="58" height="48" viewBox="0 0 58 48" fill="none" xmlns="http://www.w3.org/2000/svg">
<path d="M56 44H54V24C54 22.9391 53.5786 21.9217 52.8284 21.1716C52.0783 20.4214 51.0609 20 50 20H36V4C36 2.93913 35.5786 1.92172 34.8284 1.17157C34.0783 0.421427 33.0609 0 32 0H8C6.93913 0 5.92172 0.421427 5.17157 1.17157C4.42143 1.92172 4 2.93913 4 4V44H2C1.46957 44 0.960859 44.2107 0.585786 44.5858C0.210714 44.9609 0 45.4696 0 46C0 46.5304 0.210714 47.0391 0.585786 47.4142C0.960859 47.7893 1.46957 48 2 48H56C56.5304 48 57.0391 47.7893 57.4142 47.4142C57.7893 47.0391 58 46.5304 58 46C58 45.4696 57.7893 44.9609 57.4142 44.5858C57.0391 44.2107 56.5304 44 56 44ZM50 24V44H36V24H50ZM8 4H32V44H28V32C28 31.4696 27.7893 30.9609 27.4142 30.5858C27.0391 30.2107 26.5304 30 26 30H14C13.4696 30 12.9609 30.2107 12.5858 30.5858C12.2107 30.9609 12 31.4696 12 32V44H8V4ZM24 44H16V34H24V44ZM12 16C12 15.4696 12.2107 14.9609 12.5858 14.5858C12.9609 14.2107 13.4696 14 14 14H18V10C18 9.46957 18.2107 8.96086 18.5858 8.58579C18.9609 8.21071 19.4696 8 20 8C20.5304 8 21.0391 8.21071 21.4142 8.58579C21.7893 8.96086 22 9.46957 22 10V14H26C26.5304 14 27.0391 14.2107 27.4142 14.5858C27.7893 14.9609 28 15.4696 28 16C28 16.5304 27.7893 17.0391 27.4142 17.4142C27.0391 17.7893 26.5304 18 26 18H22V22C22 22.5304 21.7893 23.0391 21.4142 23.4142C21.0391 23.7893 20.5304 24 20 24C19.4696 24 18.9609 23.7893 18.5858 23.4142C18.2107 23.0391 18 22.5304 18 22V18H14C13.4696 18 12.9609 17.7893 12.5858 17.4142C12.2107 17.0391 12 16.5304 12 16Z" fill="#9A3242"/>
</svg>
