<svg width="53" height="52" viewBox="0 0 53 52" fill="none" xmlns="http://www.w3.org/2000/svg">
<path d="M48.4651 3.89996C45.9676 1.40284 42.5805 0 39.0488 0C35.5171 0 32.1301 1.40284 29.6326 3.89996L4.25759 29.2725C1.81281 31.7802 0.454473 35.1501 0.476834 38.6522C0.499196 42.1544 1.90046 45.5067 4.37706 47.983C6.85366 50.4593 10.2062 51.8601 13.7083 51.882C17.2105 51.9039 20.5802 50.5451 23.0876 48.1L48.4651 22.7275C50.9576 20.2286 52.3574 16.8432 52.3574 13.3137C52.3574 9.78424 50.9576 6.39884 48.4651 3.89996ZM20.2601 45.2725C18.5133 47.0196 16.144 48.0012 13.6735 48.0015C11.2029 48.0017 8.83346 47.0205 7.08634 45.2737C5.33923 43.5269 4.35758 41.1577 4.35735 38.6871C4.35711 36.2165 5.33831 33.8471 7.08509 32.1L18.3576 20.8275L31.5326 34L20.2601 45.2725ZM45.6351 19.9L34.3576 31.1725L21.1876 18L32.4626 6.72746C34.2163 5.01427 36.5747 4.06151 39.0263 4.07583C41.4779 4.09016 43.825 5.07041 45.5586 6.80398C47.2921 8.53755 48.2724 10.8847 48.2867 13.3363C48.301 15.7878 47.3483 18.1463 45.6351 19.9ZM41.7776 14.585C41.9635 14.7707 42.1111 14.9913 42.2117 15.2341C42.3124 15.4769 42.3642 15.7371 42.3642 16C42.3642 16.2628 42.3124 16.523 42.2117 16.7658C42.1111 17.0086 41.9635 17.2292 41.7776 17.415L35.7776 23.415C35.5918 23.6006 35.3712 23.7479 35.1285 23.8483C34.8858 23.9487 34.6256 24.0003 34.363 24.0002C34.1003 24.0001 33.8402 23.9482 33.5976 23.8476C33.3549 23.747 33.1345 23.5995 32.9488 23.4137C32.7632 23.2279 32.6159 23.0073 32.5155 22.7646C32.4151 22.5219 32.3635 22.2618 32.3636 21.9991C32.3637 21.7364 32.4156 21.4763 32.5162 21.2337C32.6168 20.9911 32.7643 20.7706 32.9501 20.585L38.9501 14.585C39.3251 14.2102 39.8336 13.9996 40.3638 13.9996C40.894 13.9996 41.4026 14.2102 41.7776 14.585Z" fill="#9A3242"/>
</svg>
