<svg width="65" height="64" viewBox="0 0 65 64" fill="none" xmlns="http://www.w3.org/2000/svg">
<path opacity="0.2" d="M40.3579 40L27.6704 52.6875C25.5485 54.8089 22.6708 56.0007 19.6704 56.0007C16.6699 56.0007 13.7923 54.8089 11.6704 52.6875C9.54894 50.5656 8.35718 47.688 8.35718 44.6875C8.35718 41.687 9.54894 38.8094 11.6704 36.6875L24.3579 24L40.3579 40Z" fill="#7C3AED"/>
<path d="M54.4653 9.89996C51.9679 7.40284 48.5808 6 45.0491 6C41.5174 6 38.1303 7.40284 35.6328 9.89996L10.2578 35.2725C7.81306 37.7802 6.45472 41.1501 6.47708 44.6522C6.49944 48.1544 7.9007 51.5067 10.3773 53.983C12.8539 56.4593 16.2064 57.8601 19.7086 57.882C23.2107 57.9039 26.5805 56.5451 29.0878 54.1L54.4653 28.7275C56.9579 26.2286 58.3576 22.8432 58.3576 19.3137C58.3576 15.7842 56.9579 12.3988 54.4653 9.89996ZM26.2603 51.2725C24.5136 53.0196 22.1443 54.0012 19.6737 54.0015C17.2032 54.0017 14.8337 53.0205 13.0866 51.2737C11.3395 49.5269 10.3578 47.1577 10.3576 44.6871C10.3574 42.2165 11.3386 39.8471 13.0853 38.1L24.3578 26.8275L37.5328 40L26.2603 51.2725ZM51.6353 25.9L40.3578 37.1725L27.1878 24L38.4628 12.7275C40.2165 11.0143 42.575 10.0615 45.0265 10.0758C47.4781 10.0902 49.8253 11.0704 51.5588 12.804C53.2924 14.5375 54.2726 16.8847 54.287 19.3363C54.3013 21.7878 53.3485 24.1463 51.6353 25.9ZM47.7778 20.585C47.9638 20.7707 48.1113 20.9913 48.212 21.2341C48.3126 21.4769 48.3644 21.7371 48.3644 22C48.3644 22.2628 48.3126 22.523 48.212 22.7658C48.1113 23.0086 47.9638 23.2292 47.7778 23.415L41.7778 29.415C41.592 29.6006 41.3714 29.7479 41.1287 29.8483C40.886 29.9487 40.6259 30.0003 40.3632 30.0002C40.1005 30.0001 39.8405 29.9482 39.5978 29.8476C39.3552 29.747 39.1347 29.5995 38.9491 29.4137C38.7634 29.2279 38.6162 29.0073 38.5158 28.7646C38.4154 28.5219 38.3637 28.2618 38.3639 27.9991C38.364 27.7364 38.4158 27.4763 38.5165 27.2337C38.6171 26.9911 38.7645 26.7706 38.9503 26.585L44.9503 20.585C45.3254 20.2102 45.8339 19.9996 46.3641 19.9996C46.8943 19.9996 47.4028 20.2102 47.7778 20.585Z" fill="#7C3AED"/>
</svg>
