<svg width="53" height="52" viewBox="0 0 53 52" fill="none" xmlns="http://www.w3.org/2000/svg">
<path d="M48.3574 16H36.3574V4C36.3574 2.93913 35.936 1.92172 35.1858 1.17157C34.4357 0.421427 33.4183 0 32.3574 0H20.3574C19.2966 0 18.2791 0.421427 17.529 1.17157C16.7789 1.92172 16.3574 2.93913 16.3574 4V16H4.35742C3.29656 16 2.27914 16.4214 1.52899 17.1716C0.778849 17.9217 0.357422 18.9391 0.357422 20V32C0.357422 33.0609 0.778849 34.0783 1.52899 34.8284C2.27914 35.5786 3.29656 36 4.35742 36H16.3574V48C16.3574 49.0609 16.7789 50.0783 17.529 50.8284C18.2791 51.5786 19.2966 52 20.3574 52H32.3574C33.4183 52 34.4357 51.5786 35.1858 50.8284C35.936 50.0783 36.3574 49.0609 36.3574 48V36H48.3574C49.4183 36 50.4357 35.5786 51.1858 34.8284C51.936 34.0783 52.3574 33.0609 52.3574 32V20C52.3574 18.9391 51.936 17.9217 51.1858 17.1716C50.4357 16.4214 49.4183 16 48.3574 16ZM48.3574 32H34.3574C33.827 32 33.3183 32.2107 32.9432 32.5858C32.5681 32.9609 32.3574 33.4696 32.3574 34V48H20.3574V34C20.3574 33.4696 20.1467 32.9609 19.7716 32.5858C19.3966 32.2107 18.8879 32 18.3574 32H4.35742V20H18.3574C18.8879 20 19.3966 19.7893 19.7716 19.4142C20.1467 19.0391 20.3574 18.5304 20.3574 18V4H32.3574V18C32.3574 18.5304 32.5681 19.0391 32.9432 19.4142C33.3183 19.7893 33.827 20 34.3574 20H48.3574V32Z" fill="#9A3242"/>
</svg>
