<svg width="64" height="64" viewBox="0 0 64 64" fill="none" xmlns="http://www.w3.org/2000/svg">
<path opacity="0.2" d="M38 12C38 13.1867 37.6481 14.3467 36.9888 15.3334C36.3295 16.3201 35.3925 17.0892 34.2961 17.5433C33.1997 17.9974 31.9933 18.1162 30.8295 17.8847C29.6656 17.6532 28.5965 17.0818 27.7574 16.2426C26.9182 15.4035 26.3468 14.3344 26.1153 13.1705C25.8838 12.0067 26.0026 10.8003 26.4567 9.7039C26.9109 8.60754 27.6799 7.67047 28.6666 7.01118C29.6533 6.35189 30.8133 6 32 6C33.5913 6 35.1174 6.63214 36.2426 7.75736C37.3679 8.88258 38 10.4087 38 12Z" fill="#7C3AED"/>
<path d="M32 20C33.5823 20 35.129 19.5308 36.4446 18.6518C37.7602 17.7727 38.7855 16.5233 39.391 15.0615C39.9965 13.5997 40.155 11.9911 39.8463 10.4393C39.5376 8.88743 38.7757 7.46197 37.6569 6.34315C36.538 5.22433 35.1126 4.4624 33.5607 4.15372C32.0089 3.84504 30.4003 4.00347 28.9385 4.60897C27.4767 5.21447 26.2273 6.23985 25.3482 7.55544C24.4692 8.87103 24 10.4178 24 12C24 14.1217 24.8429 16.1566 26.3431 17.6569C27.8434 19.1571 29.8783 20 32 20ZM32 8C32.7911 8 33.5645 8.2346 34.2223 8.67413C34.8801 9.11365 35.3928 9.73836 35.6955 10.4693C35.9983 11.2002 36.0775 12.0044 35.9231 12.7804C35.7688 13.5563 35.3878 14.269 34.8284 14.8284C34.269 15.3878 33.5563 15.7688 32.7804 15.9231C32.0044 16.0775 31.2002 15.9983 30.4693 15.6955C29.7384 15.3928 29.1136 14.8801 28.6741 14.2223C28.2346 13.5645 28 12.7911 28 12C28 10.9391 28.4214 9.92172 29.1716 9.17158C29.9217 8.42143 30.9391 8 32 8ZM56 26C56 26.5304 55.7893 27.0391 55.4142 27.4142C55.0391 27.7893 54.5304 28 54 28H34V34.68L46.7875 40.1625C47.1472 40.3166 47.4538 40.5728 47.6693 40.8994C47.8848 41.226 47.9998 41.6087 48 42V54C48 54.5304 47.7893 55.0391 47.4142 55.4142C47.0391 55.7893 46.5304 56 46 56C45.4696 56 44.9609 55.7893 44.5858 55.4142C44.2107 55.0391 44 54.5304 44 54V43.32L32.3875 38.3425L13.3375 55.5C12.943 55.8547 12.4237 56.0382 11.8939 56.0101C11.3641 55.982 10.8672 55.7445 10.5125 55.35C10.1578 54.9555 9.97429 54.4362 10.0024 53.9064C10.0306 53.3766 10.268 52.8797 10.6625 52.525L30 35.11V28H10C9.46957 28 8.96086 27.7893 8.58579 27.4142C8.21071 27.0391 8 26.5304 8 26C8 25.4696 8.21071 24.9609 8.58579 24.5858C8.96086 24.2107 9.46957 24 10 24H54C54.5304 24 55.0391 24.2107 55.4142 24.5858C55.7893 24.9609 56 25.4696 56 26Z" fill="#7C3AED"/>
</svg>
