<svg width="48" height="53" viewBox="0 0 48 53" fill="none" xmlns="http://www.w3.org/2000/svg">
<path d="M24 16C25.5823 16 27.129 15.5308 28.4446 14.6518C29.7602 13.7727 30.7855 12.5233 31.391 11.0615C31.9965 9.59966 32.155 7.99113 31.8463 6.43928C31.5376 4.88743 30.7757 3.46197 29.6569 2.34315C28.538 1.22433 27.1126 0.462403 25.5607 0.153721C24.0089 -0.15496 22.4003 0.00346625 20.9385 0.608967C19.4767 1.21447 18.2273 2.23985 17.3482 3.55544C16.4692 4.87103 16 6.41775 16 8C16 10.1217 16.8429 12.1566 18.3431 13.6569C19.8434 15.1571 21.8783 16 24 16ZM24 4C24.7911 4 25.5645 4.2346 26.2223 4.67413C26.8801 5.11365 27.3928 5.73836 27.6955 6.46927C27.9983 7.20017 28.0775 8.00444 27.9231 8.78036C27.7688 9.55629 27.3878 10.269 26.8284 10.8284C26.269 11.3878 25.5563 11.7688 24.7804 11.9231C24.0044 12.0775 23.2002 11.9983 22.4693 11.6955C21.7384 11.3928 21.1136 10.8801 20.6741 10.2223C20.2346 9.56449 20 8.79113 20 8C20 6.93914 20.4214 5.92172 21.1716 5.17158C21.9217 4.42143 22.9391 4 24 4ZM48 22C48 22.5304 47.7893 23.0391 47.4142 23.4142C47.0391 23.7893 46.5304 24 46 24H26V30.68L38.7875 36.1625C39.1472 36.3166 39.4538 36.5728 39.6693 36.8994C39.8848 37.226 39.9998 37.6087 40 38V50C40 50.5304 39.7893 51.0391 39.4142 51.4142C39.0391 51.7893 38.5304 52 38 52C37.4696 52 36.9609 51.7893 36.5858 51.4142C36.2107 51.0391 36 50.5304 36 50V39.32L24.3875 34.3425L5.3375 51.5C4.94299 51.8547 4.42372 52.0382 3.89393 52.0101C3.36414 51.982 2.86723 51.7445 2.5125 51.35C2.15777 50.9555 1.97429 50.4362 2.00242 49.9064C2.03055 49.3766 2.26799 48.8797 2.6625 48.525L22 31.11V24H2C1.46957 24 0.96086 23.7893 0.585787 23.4142C0.210714 23.0391 0 22.5304 0 22C0 21.4696 0.210714 20.9609 0.585787 20.5858C0.96086 20.2107 1.46957 20 2 20H46C46.5304 20 47.0391 20.2107 47.4142 20.5858C47.7893 20.9609 48 21.4696 48 22Z" fill="#9A3242"/>
</svg>
