<svg width="36" height="32" viewBox="0 0 36 32" fill="none" xmlns="http://www.w3.org/2000/svg">
<path d="M14 26C14.5523 26 15 25.5523 15 25C15 24.4477 14.5523 24 14 24C13.4477 24 13 24.4477 13 25C13 25.5523 13.4477 26 14 26Z" stroke="white" stroke-width="2" stroke-linecap="round" stroke-linejoin="round"/>
<path d="M25 26C25.5523 26 26 25.5523 26 25C26 24.4477 25.5523 24 25 24C24.4477 24 24 24.4477 24 25C24 25.5523 24.4477 26 25 26Z" stroke="white" stroke-width="2" stroke-linecap="round" stroke-linejoin="round"/>
<path d="M8.0498 6.04999H10.0498L12.7098 18.47C12.8074 18.9248 13.0605 19.3315 13.4255 19.6198C13.7906 19.9082 14.2447 20.0603 14.7098 20.05H24.4898C24.945 20.0493 25.3863 19.8933 25.7408 19.6078C26.0954 19.3224 26.3419 18.9245 26.4398 18.48L28.0898 11.05H11.1198" stroke="white" stroke-width="2" stroke-linecap="round" stroke-linejoin="round"/>
</svg>
