<svg width="24" height="25" viewBox="0 0 24 25" fill="none" xmlns="http://www.w3.org/2000/svg">
<path d="M19.5 4.69116H4.5C4.10218 4.69116 3.72064 4.8492 3.43934 5.1305C3.15804 5.41181 3 5.79334 3 6.19116V11.4412C3 16.3837 5.3925 19.379 7.39969 21.0215C9.56156 22.7896 11.7122 23.3896 11.8059 23.4149C11.9348 23.45 12.0708 23.45 12.1997 23.4149C12.2934 23.3896 14.4412 22.7896 16.6059 21.0215C18.6075 19.379 21 16.3837 21 11.4412V6.19116C21 5.79334 20.842 5.41181 20.5607 5.1305C20.2794 4.8492 19.8978 4.69116 19.5 4.69116ZM19.5 11.4412C19.5 14.9165 18.2194 17.7374 15.6937 19.8243C14.5943 20.7296 13.344 21.4342 12 21.9055C10.6736 21.4424 9.4387 20.7504 8.35125 19.8608C5.79563 17.7702 4.5 14.938 4.5 11.4412V6.19116H19.5V11.4412ZM7.71937 14.2218C7.57864 14.0811 7.49958 13.8902 7.49958 13.6912C7.49958 13.4921 7.57864 13.3013 7.71937 13.1605C7.86011 13.0198 8.05098 12.9407 8.25 12.9407C8.44902 12.9407 8.63989 13.0198 8.78063 13.1605L10.5 14.8808L15.2194 10.1605C15.2891 10.0909 15.3718 10.0356 15.4628 9.99787C15.5539 9.96015 15.6515 9.94075 15.75 9.94075C15.8485 9.94075 15.9461 9.96015 16.0372 9.99787C16.1282 10.0356 16.2109 10.0909 16.2806 10.1605C16.3503 10.2302 16.4056 10.3129 16.4433 10.404C16.481 10.495 16.5004 10.5926 16.5004 10.6912C16.5004 10.7897 16.481 10.8873 16.4433 10.9783C16.4056 11.0694 16.3503 11.1521 16.2806 11.2218L11.0306 16.4718C10.961 16.5415 10.8783 16.5968 10.7872 16.6346C10.6962 16.6723 10.5986 16.6918 10.5 16.6918C10.4014 16.6918 10.3038 16.6723 10.2128 16.6346C10.1217 16.5968 10.039 16.5415 9.96937 16.4718L7.71937 14.2218Z" fill="#0A0A0A"/>
</svg>
