<svg width="24" height="25" viewBox="0 0 24 25" fill="none" xmlns="http://www.w3.org/2000/svg">
<path fill-rule="evenodd" clip-rule="evenodd" d="M6.25 5.9707C6.25 5.0042 7.0335 4.2207 8 4.2207H16.5C17.4665 4.2207 18.25 5.0042 18.25 5.9707V7.77051C18.25 8.737 17.4665 9.52051 16.5 9.52051H12.9C12.7619 9.52051 12.65 9.63244 12.65 9.77051C12.65 9.90858 12.7619 10.0205 12.9 10.0205H16.5C17.4665 10.0205 18.25 10.804 18.25 11.7705V13.0707C18.25 14.0372 17.4665 14.8207 16.5 14.8207H12.2C12.0619 14.8207 11.95 14.9326 11.95 15.0707V20.2705C11.95 21.237 11.1665 22.0205 10.2 22.0205H8C7.0335 22.0205 6.25 21.237 6.25 20.2705V5.9707ZM8 5.7207C7.86193 5.7207 7.75 5.83263 7.75 5.9707V20.2705C7.75 20.4086 7.86193 20.5205 8 20.5205H10.2C10.3381 20.5205 10.45 20.4086 10.45 20.2705V15.0707C10.45 14.1042 11.2335 13.3207 12.2 13.3207H16.5C16.6381 13.3207 16.75 13.2088 16.75 13.0707V11.7705C16.75 11.6324 16.6381 11.5205 16.5 11.5205H12.9C11.9335 11.5205 11.15 10.737 11.15 9.77051C11.15 8.80401 11.9335 8.02051 12.9 8.02051H16.5C16.6381 8.02051 16.75 7.90858 16.75 7.77051V5.9707C16.75 5.83263 16.6381 5.7207 16.5 5.7207H8Z" fill="#7C3AED"/>
</svg>
