<svg width="24" height="25" viewBox="0 0 24 25" fill="none" xmlns="http://www.w3.org/2000/svg">
<path d="M16.6875 4.69116C14.7516 4.69116 13.0566 5.52366 12 6.93085C10.9434 5.52366 9.24844 4.69116 7.3125 4.69116C5.77146 4.6929 4.29404 5.30584 3.20436 6.39552C2.11468 7.4852 1.50174 8.96262 1.5 10.5037C1.5 17.0662 11.2303 22.378 11.6447 22.5974C11.7539 22.6562 11.876 22.6869 12 22.6869C12.124 22.6869 12.2461 22.6562 12.3553 22.5974C12.7697 22.378 22.5 17.0662 22.5 10.5037C22.4983 8.96262 21.8853 7.4852 20.7956 6.39552C19.706 5.30584 18.2285 4.6929 16.6875 4.69116ZM12 21.0787C10.2881 20.0812 3 15.5371 3 10.5037C3.00149 9.36037 3.45632 8.26434 4.26475 7.45591C5.07317 6.64748 6.16921 6.19265 7.3125 6.19116C9.13594 6.19116 10.6669 7.16241 11.3062 8.72241C11.3628 8.85997 11.4589 8.97762 11.5824 9.06043C11.7059 9.14323 11.8513 9.18744 12 9.18744C12.1487 9.18744 12.2941 9.14323 12.4176 9.06043C12.5411 8.97762 12.6372 8.85997 12.6937 8.72241C13.3331 7.1596 14.8641 6.19116 16.6875 6.19116C17.8308 6.19265 18.9268 6.64748 19.7353 7.45591C20.5437 8.26434 20.9985 9.36037 21 10.5037C21 15.5296 13.71 20.0802 12 21.0787Z" fill="#0A0A0A"/>
</svg>
