<svg width="24" height="25" viewBox="0 0 24 25" fill="none" xmlns="http://www.w3.org/2000/svg">
<path d="M12 3.19116C10.0716 3.19116 8.18657 3.76299 6.58319 4.83433C4.97982 5.90568 3.73013 7.42842 2.99218 9.21C2.25422 10.9916 2.06114 12.952 2.43735 14.8433C2.81355 16.7346 3.74215 18.4719 5.10571 19.8355C6.46928 21.199 8.20656 22.1276 10.0979 22.5038C11.9892 22.88 13.9496 22.6869 15.7312 21.949C17.5127 21.211 19.0355 19.9614 20.1068 18.358C21.1782 16.7546 21.75 14.8695 21.75 12.9412C21.7473 10.3561 20.7192 7.87777 18.8913 6.04989C17.0634 4.222 14.585 3.19389 12 3.19116ZM12 21.1912C10.3683 21.1912 8.77326 20.7073 7.41655 19.8008C6.05984 18.8943 5.00242 17.6058 4.378 16.0983C3.75358 14.5908 3.5902 12.932 3.90853 11.3317C4.22685 9.73132 5.01259 8.26131 6.16637 7.10753C7.32016 5.95375 8.79017 5.16801 10.3905 4.84968C11.9909 4.53136 13.6497 4.69473 15.1571 5.31916C16.6646 5.94358 17.9531 7.001 18.8596 8.35771C19.7661 9.71441 20.25 11.3095 20.25 12.9412C20.2475 15.1284 19.3775 17.2254 17.8309 18.7721C16.2843 20.3187 14.1873 21.1887 12 21.1912ZM15.75 14.8162C15.75 15.5124 15.4734 16.18 14.9812 16.6723C14.4889 17.1646 13.8212 17.4412 13.125 17.4412H12.75V18.1912C12.75 18.3901 12.671 18.5808 12.5303 18.7215C12.3897 18.8621 12.1989 18.9412 12 18.9412C11.8011 18.9412 11.6103 18.8621 11.4697 18.7215C11.329 18.5808 11.25 18.3901 11.25 18.1912V17.4412H9.75C9.55109 17.4412 9.36033 17.3621 9.21967 17.2215C9.07902 17.0808 9 16.8901 9 16.6912C9 16.4922 9.07902 16.3015 9.21967 16.1608C9.36033 16.0202 9.55109 15.9412 9.75 15.9412H13.125C13.4234 15.9412 13.7095 15.8226 13.9205 15.6117C14.1315 15.4007 14.25 15.1145 14.25 14.8162C14.25 14.5178 14.1315 14.2316 13.9205 14.0207C13.7095 13.8097 13.4234 13.6912 13.125 13.6912H10.875C10.1788 13.6912 9.51113 13.4146 9.01885 12.9223C8.52657 12.43 8.25 11.7624 8.25 11.0662C8.25 10.37 8.52657 9.70229 9.01885 9.21001C9.51113 8.71772 10.1788 8.44116 10.875 8.44116H11.25V7.69116C11.25 7.49225 11.329 7.30148 11.4697 7.16083C11.6103 7.02018 11.8011 6.94116 12 6.94116C12.1989 6.94116 12.3897 7.02018 12.5303 7.16083C12.671 7.30148 12.75 7.49225 12.75 7.69116V8.44116H14.25C14.4489 8.44116 14.6397 8.52018 14.7803 8.66083C14.921 8.80148 15 8.99225 15 9.19116C15 9.39007 14.921 9.58084 14.7803 9.72149C14.6397 9.86214 14.4489 9.94116 14.25 9.94116H10.875C10.5766 9.94116 10.2905 10.0597 10.0795 10.2707C9.86853 10.4816 9.75 10.7678 9.75 11.0662C9.75 11.3645 9.86853 11.6507 10.0795 11.8617C10.2905 12.0726 10.5766 12.1912 10.875 12.1912H13.125C13.8212 12.1912 14.4889 12.4677 14.9812 12.96C15.4734 13.4523 15.75 14.12 15.75 14.8162Z" fill="white"/>
</svg>
