<svg width="24" height="25" viewBox="0 0 24 25" fill="none" xmlns="http://www.w3.org/2000/svg">
<path d="M20.2897 4.65357C19.3533 3.7172 18.0833 3.19116 16.7591 3.19116C15.4348 3.19116 14.1648 3.7172 13.2284 4.65357L3.71281 14.1683C2.79602 15.1086 2.28664 16.3724 2.29502 17.6857C2.30341 18.999 2.82888 20.2561 3.75761 21.1847C4.68634 22.1133 5.94352 22.6386 7.25683 22.6468C8.57013 22.655 9.83379 22.1455 10.7741 21.2286L20.2906 11.7139C21.2254 10.7768 21.7503 9.50715 21.7502 8.18353C21.75 6.8599 21.2247 5.5904 20.2897 4.65357ZM9.71375 20.1683C9.0587 20.8234 8.17022 21.1915 7.24376 21.1916C6.31731 21.1917 5.42876 20.8238 4.77359 20.1687C4.11842 19.5137 3.7503 18.6252 3.75022 17.6987C3.75013 16.7723 4.11808 15.8837 4.77312 15.2286L9.00031 11.0014L13.9409 15.9411L9.71375 20.1683ZM19.2294 10.6536L15.0003 14.8808L10.0616 9.94107L14.2897 5.71388C14.9473 5.07143 15.8317 4.71415 16.7511 4.71952C17.6704 4.72489 18.5506 5.09248 19.2007 5.74257C19.8508 6.39266 20.2184 7.27283 20.2237 8.19218C20.2291 9.11152 19.8718 9.99593 19.2294 10.6536ZM17.7828 8.66044C17.8525 8.7301 17.9079 8.81281 17.9456 8.90386C17.9833 8.99491 18.0028 9.0925 18.0028 9.19107C18.0028 9.28963 17.9833 9.38722 17.9456 9.47827C17.9079 9.56932 17.8525 9.65204 17.7828 9.72169L15.5328 11.9717C15.4631 12.0413 15.3804 12.0965 15.2894 12.1342C15.1984 12.1718 15.1008 12.1912 15.0023 12.1912C14.9038 12.1911 14.8063 12.1717 14.7153 12.1339C14.6243 12.0962 14.5416 12.0409 14.472 11.9712C14.4024 11.9015 14.3472 11.8188 14.3095 11.7278C14.2719 11.6368 14.2525 11.5392 14.2526 11.4407C14.2526 11.3422 14.2721 11.2447 14.3098 11.1537C14.3475 11.0627 14.4028 10.9801 14.4725 10.9104L16.7225 8.66044C16.8631 8.5199 17.0538 8.44095 17.2527 8.44095C17.4515 8.44095 17.6422 8.5199 17.7828 8.66044Z" fill="#0A0A0A"/>
</svg>
