<svg width="157" height="156" viewBox="0 0 157 156" fill="none" xmlns="http://www.w3.org/2000/svg">
<path d="M81.7193 102.344L69.288 119.437L54.4193 104.325L45.8881 112.125" stroke="#082F49" stroke-width="4.875" stroke-linecap="round"/>
<circle cx="79.3267" cy="87.023" r="29.0108" fill="#0C4A6E"/>
<circle cx="90.674" cy="101.948" r="5.36617" fill="#075985"/>
<circle cx="79.3267" cy="87.0224" r="20.2908" fill="#0369A1"/>
<circle cx="100.624" cy="67.7384" r="4.5836" fill="#0C4A6E"/>
<circle cx="54.8995" cy="101.277" r="6.03694" fill="#0C4A6E"/>
<circle cx="54.8995" cy="101.277" r="3.80103" fill="#075985"/>
<circle cx="87.9908" cy="113.016" r="4.4718" fill="#0C4A6E"/>
<circle cx="82.9043" cy="66.7881" r="3.63334" fill="#0369A1"/>
<circle cx="61.8866" cy="79.9803" r="4.86309" fill="#0369A1"/>
<circle cx="66.8057" cy="101.445" r="7.09899" fill="#0369A1"/>
<circle cx="66.8057" cy="101.444" r="4.97488" fill="#075985"/>
<path d="M99.3939 75.2831C101.385 75.2831 103.237 76.6594 104.608 78.993C105.974 81.3204 106.829 84.554 106.829 88.1405C106.829 91.7271 105.974 94.9606 104.608 97.288C103.237 99.6218 101.385 100.998 99.3939 100.998C97.4031 100.998 95.5506 99.6218 94.1801 97.288C92.8134 94.9606 91.9584 91.7271 91.9584 88.1405C91.9584 84.554 92.8134 81.3204 94.1801 78.993C95.5506 76.6594 97.4032 75.2831 99.3939 75.2831Z" fill="white" stroke="#0C4A6E" stroke-width="0.557143"/>
<ellipse cx="100.623" cy="88.1412" rx="2.12411" ry="4.08052" fill="#0C4A6E"/>
<circle cx="79.1004" cy="101.9" r="3.91283" fill="#0C4A6E"/>
<path d="M79.6977 102.225L94.3943 122.851L108.337 142.107L116.869 136.013" stroke="#082F49" stroke-width="4.875" stroke-linecap="round"/>
</svg>
