<svg width="126" height="99" viewBox="0 0 126 99" fill="none" xmlns="http://www.w3.org/2000/svg">
<path d="M70.8466 31.6796C72.2662 26.7049 74.0669 16.898 68.5006 1.78594" stroke="#064E3B" stroke-width="3.33953" stroke-linecap="round"/>
<path fill-rule="evenodd" clip-rule="evenodd" d="M63.0913 19.1781L67.5915 14.3557L65.6572 24.4803C66.5117 25.2446 67.0495 26.3558 67.0495 27.5925C67.0495 29.8979 65.1806 31.7669 62.8751 31.7669C60.5696 31.7669 58.7007 29.8979 58.7007 27.5925C58.7007 26.3749 59.222 25.279 60.0536 24.516L59.1444 13.9648L63.0913 19.1781ZM42.58 18.5955L41.0938 25.0222L35.0691 22.4808L41.1321 31.1638C40.7934 32.2405 40.8898 33.4502 41.4986 34.5047C42.6514 36.5013 45.2044 37.1854 47.201 36.0326C49.1976 34.8799 49.8817 32.3269 48.7289 30.3303C48.1106 29.2593 47.0894 28.566 45.9672 28.3312L42.58 18.5955ZM24.9658 41.0847L23.0396 34.7764L30.8406 41.5138C31.9298 41.156 33.161 41.2458 34.232 41.8641C36.2286 43.0169 36.9127 45.5699 35.76 47.5665C34.6072 49.5631 32.0542 50.2472 30.0576 49.0944C29.0031 48.4856 28.3147 47.4861 28.0697 46.3844L18.4776 41.8962L24.9658 41.0847ZM19.029 63.0576L14.2066 58.5574L24.3309 60.4917C25.0953 59.6371 26.2065 59.0992 27.4433 59.0992C29.7488 59.0992 31.6177 60.9682 31.6177 63.2736C31.6177 65.5791 29.7488 67.4481 27.4433 67.4481C26.2258 67.4481 25.13 66.9268 24.367 66.0953L13.8157 67.0045L19.029 63.0576ZM106.971 63.3498L111.793 58.8497L101.668 60.784C100.904 59.9295 99.793 59.3918 98.5563 59.3918C96.2509 59.3918 94.3819 61.2607 94.3819 63.5662C94.3819 65.8717 96.2509 67.7406 98.5563 67.7406C99.774 67.7406 100.87 67.2192 101.633 66.3876L112.184 67.2968L106.971 63.3498ZM109.257 82.5459L103.11 84.9374L106.488 90.5361L97.0259 85.7796C96.0089 86.269 94.7979 86.3468 93.6671 85.8954C91.5259 85.0406 90.4831 82.6119 91.3379 80.4708C92.1927 78.3296 94.6214 77.2868 96.7625 78.1416C97.9111 78.6002 98.7436 79.5115 99.1367 80.5885L109.257 82.5459ZM91.3729 23.1884L85.0644 25.1147L84.2529 18.6264L79.7647 28.2185C78.663 28.4636 77.6636 29.152 77.0548 30.2064C75.9021 32.203 76.5861 34.7561 78.5827 35.9088C80.5793 37.0615 83.1324 36.3774 84.2851 34.3808C84.9034 33.3098 84.9932 32.0787 84.6354 30.9895L91.3729 23.1884ZM21.0525 87.0325L18.0634 92.9123L26.913 87.6268C27.9238 88.1677 29.1519 88.2923 30.3137 87.8687C32.4797 87.0789 33.5954 84.6828 32.8056 82.5169C32.0159 80.3509 29.6198 79.2352 27.4538 80.025C26.3098 80.4421 25.4588 81.3073 25.0268 82.35L14.8026 85.1101L21.0525 87.0325ZM107.552 42.7287L101.125 41.2426L103.666 35.2177L94.9834 41.2807C93.9068 40.9422 92.6972 41.0386 91.6428 41.6474C89.6462 42.8001 88.9621 45.3532 90.1148 47.3498C91.2676 49.3464 93.8206 50.0304 95.8172 48.8777C96.8882 48.2593 97.5816 47.2381 97.8163 46.1159L107.552 42.7287Z" fill="#065F46"/>
<path d="M62.6567 28.5013C81.7919 28.5015 97.3041 44.0145 97.3041 63.1498C97.3041 69.3591 97.1585 74.5628 96.437 78.9017C95.7174 83.2283 94.44 86.5925 92.2504 89.1888C87.8771 94.3745 79.4553 96.9623 62.6567 96.9623C43.4532 96.9623 35.1114 93.6399 31.3344 88.1869C29.4284 85.4351 28.5708 81.9912 28.2133 77.7679C27.854 73.5236 28.0092 68.6902 28.0092 63.1498C28.0092 44.0144 43.5213 28.5013 62.6567 28.5013Z" fill="#047857" stroke="#065F46" stroke-width="2.50465"/>
<ellipse cx="66.088" cy="86.9718" rx="3.75697" ry="4.38313" transform="rotate(-21.4886 66.088 86.9718)" fill="#059669"/>
<ellipse cx="56.0849" cy="82.1652" rx="1.75139" ry="2.04329" transform="rotate(-21.4886 56.0849 82.1652)" fill="#059669"/>
<ellipse cx="41.057" cy="77.9908" rx="1.30894" ry="1.52709" transform="rotate(-21.4886 41.057 77.9908)" fill="#059669"/>
<ellipse cx="76.957" cy="88.0093" rx="1.30894" ry="1.52709" transform="rotate(-21.4886 76.957 88.0093)" fill="#064E3B"/>
<ellipse cx="70.2779" cy="37.0815" rx="1.30894" ry="1.52709" transform="rotate(-21.4886 70.2779 37.0815)" fill="#064E3B"/>
<ellipse cx="47.7361" cy="86.3394" rx="1.06709" ry="1.24494" transform="rotate(-21.4886 47.7361 86.3394)" fill="#064E3B"/>
<ellipse cx="59.4244" cy="51.6921" rx="1.30894" ry="1.52709" transform="rotate(-21.4886 59.4244 51.6921)" fill="#059669"/>
<ellipse cx="58.1721" cy="40.8384" rx="1.30894" ry="1.52709" transform="rotate(-21.4886 58.1721 40.8384)" fill="#065F46"/>
<ellipse cx="37.3" cy="50.0221" rx="1.30894" ry="1.52709" transform="rotate(-21.4886 37.3 50.0221)" fill="#065F46"/>
<ellipse cx="48.6057" cy="37.5689" rx="3.75697" ry="2.12943" transform="rotate(-27.9076 48.6057 37.5689)" fill="#059669"/>
<ellipse cx="35.303" cy="64.7072" rx="3.75697" ry="6.04062" transform="rotate(-1.05863 35.303 64.7072)" fill="#059669"/>
<ellipse cx="53.4603" cy="69.2796" rx="4.88618" ry="6.04062" transform="rotate(-2.71061 53.4603 69.2796)" fill="#059669"/>
<ellipse cx="48.2982" cy="51.7505" rx="4.88618" ry="6.04062" transform="rotate(-12.7217 48.2982 51.7505)" fill="#10B981"/>
<path d="M78.9362 42.4863C82.557 42.4863 85.7554 44.7127 88.0193 48.1475C90.2864 51.5873 91.6686 56.3026 91.6687 61.4795C91.6687 66.6565 90.2864 71.3726 88.0193 74.8125C85.7554 78.2471 82.5569 80.4736 78.9362 80.4736C75.3156 80.4735 72.117 78.2471 69.8532 74.8125C67.5861 71.3726 66.2048 66.6565 66.2048 61.4795C66.2048 56.3027 67.5862 51.5872 69.8532 48.1475C72.117 44.7128 75.3156 42.4865 78.9362 42.4863Z" fill="white" stroke="#064E3B" stroke-width="1.25232"/>
<ellipse cx="84.7808" cy="61.4799" rx="4.17441" ry="9.60115" fill="#F472B6"/>
<path d="M54.9303 32.4298C54.8471 29.0635 51.2759 11.3764 45.75 4.70814" stroke="#064E3B" stroke-width="3.33953" stroke-linecap="round"/>
</svg>
