<svg width="51" height="102" viewBox="0 0 51 102" fill="none" xmlns="http://www.w3.org/2000/svg">
<path d="M22.4608 59.8595L17.8801 77.2516L3.72174 92.7373L11.0221 98.9316" stroke="#B91C1C" stroke-width="4.42449" stroke-linecap="round"/>
<path d="M26.4742 35.4218C13.5419 35.4218 3.05811 36.8385 3.05811 23.8352C3.05811 10.832 13.5419 0.290723 26.4742 0.290724C54.544 -0.526316 49.8903 18.4561 49.8903 23.8352C49.8903 36.8385 39.4066 35.4218 26.4742 35.4218Z" fill="#F87171"/>
<path d="M26.4799 34.1266C13.5444 34.1266 3.05807 32.72 3.05806 45.6302C3.05806 58.5405 13.5444 69.0063 26.4799 69.0063C39.4154 69.0063 49.9017 58.5405 49.9017 45.6302C49.9017 32.72 39.4154 34.1266 26.4799 34.1266Z" fill="#EF4444"/>
<path d="M42.4175 7.52527C43.6072 7.52527 44.8992 8.46273 45.9458 10.4608C46.9705 12.417 47.6313 15.1808 47.6313 18.2821C47.6313 21.3834 46.9705 24.1472 45.9458 26.1034C44.8992 28.1015 43.6072 29.0389 42.4175 29.0389C41.2279 29.0388 39.9367 28.1012 38.8901 26.1034C37.8655 24.1472 37.2046 21.3834 37.2046 18.2821C37.2046 15.1808 37.8655 12.417 38.8901 10.4608C39.9367 8.463 41.2279 7.52544 42.4175 7.52527Z" fill="white" stroke="#B91C1C" stroke-width="1.76979"/>
<ellipse cx="44.3581" cy="19.1137" rx="1.94027" ry="3.60335" fill="#B91C1C"/>
<path d="M24.2956 59.9674L40.0025 66.8537L29.8262 81.012L33.3658 90.0822" stroke="#B91C1C" stroke-width="4.42449" stroke-linecap="round"/>
</svg>
