<svg width="145" height="125" viewBox="0 0 145 125" fill="none" xmlns="http://www.w3.org/2000/svg">
<path fill-rule="evenodd" clip-rule="evenodd" d="M52.6823 22.807L36.2239 0.904663L47.2656 25.8852L52.6823 22.807ZM97.4042 99.051L108.446 124.032L91.9875 102.129L97.4042 99.051ZM144.557 62.4678L117.057 65.546V59.3896L144.557 62.4678ZM27.6129 65.546L0.112854 62.4678L27.6129 59.3897V65.546ZM142.096 44.0691L116.343 54.048L114.724 48.1015L142.096 44.0691ZM29.9459 76.8348L2.57355 80.8672L28.3271 70.8882L29.9459 76.8348ZM142.096 80.8665L114.724 76.8341L116.343 70.8876L142.096 80.8665ZM28.3275 54.0478L2.57391 44.0689L29.9463 48.1013L28.3275 54.0478ZM123.404 12.2016L106.169 33.5181L101.747 29.1649L123.404 12.2016ZM42.9229 95.7711L21.2661 112.734L38.5002 91.4179L42.9229 95.7711ZM108.446 0.904778L97.4044 25.8853L91.9877 22.8071L108.446 0.904778ZM52.6821 102.129L36.2238 124.032L47.2654 99.0511L52.6821 102.129ZM123.403 112.735L101.747 95.7713L106.169 91.4181L123.403 112.735ZM38.5001 33.5181L21.266 12.2017L42.9227 29.1649L38.5001 33.5181Z" fill="#4A044E"/>
<path d="M72.0572 18.7222C96.6421 18.7223 116.528 38.3325 116.528 62.4683C116.528 86.604 96.6421 106.214 72.0572 106.214C47.4722 106.214 27.5866 86.604 27.5865 62.4683C27.5865 38.3324 47.4721 18.7222 72.0572 18.7222Z" fill="#701A75" stroke="#4A044E" stroke-width="3.28095"/>
<path d="M93.1681 62.4677C93.1681 73.9438 83.7164 83.2471 72.057 83.2471C60.3977 83.2471 50.9459 73.9438 50.9459 62.4677C50.9459 50.9916 60.3977 58.6403 72.057 58.6403C83.7164 58.6403 93.1681 50.9916 93.1681 62.4677Z" fill="#4A044E"/>
<ellipse cx="72.0571" cy="69.5769" rx="5" ry="4.92143" fill="white"/>
<path fill-rule="evenodd" clip-rule="evenodd" d="M113.559 42.665C112.067 39.642 110.244 36.8064 108.137 34.204C97.3246 39.6872 85.0579 42.7829 72.0567 42.7829C59.0556 42.7829 46.789 39.6873 35.9763 34.2041C33.8692 36.8066 32.0466 39.6421 30.5549 42.6652C42.611 50.02 56.8301 54.2661 72.0567 54.2661C87.2835 54.2661 101.503 50.02 113.559 42.665Z" fill="#4A044E"/>
<path d="M56.1627 40.8491L56.3043 40.8647C60.4185 41.4207 67.0946 42.2056 72.0572 42.2056C76.3996 42.2056 82.0539 41.6042 86.1558 41.0815L87.8101 40.8647C89.327 40.6598 90.6812 41.8349 90.6812 43.3472V51.77C90.6812 52.9069 89.9125 53.872 88.8414 54.1245L88.6236 54.1646C84.6666 54.7186 77.3324 55.6333 72.0572 55.6333C67.4414 55.6333 61.2494 54.9333 57.1226 54.3872L55.4908 54.1646C54.3079 53.9988 53.4332 52.9825 53.4332 51.77V43.3472C53.4332 41.8822 54.7042 40.7332 56.1627 40.8491Z" fill="#701A75" stroke="#4A044E" stroke-width="1.64048"/>
</svg>
