<svg width="95" height="87" viewBox="0 0 95 87" fill="none" xmlns="http://www.w3.org/2000/svg">
<circle cx="47.2379" cy="46.7536" r="37.3045" fill="#B91C1C" stroke="#991B1B" stroke-width="4.96253"/>
<path fill-rule="evenodd" clip-rule="evenodd" d="M80.415 14.127C80.5823 13.8261 80.2505 13.4943 79.9496 13.6616L76.4474 15.6086C76.286 15.6984 76.0825 15.6438 75.9875 15.4854L73.9281 12.0481C73.7511 11.7527 73.2979 11.8742 73.2923 12.2185L73.2274 16.225C73.2255 16.3395 73.1675 16.4404 73.0796 16.5011C74.6932 17.8808 76.1951 19.3874 77.5699 21.0053C77.63 20.9128 77.7335 20.8511 77.8516 20.8492L81.8581 20.7843C82.2024 20.7787 82.3239 20.3255 82.0285 20.1485L78.5912 18.0891C78.4328 17.9941 78.3782 17.7906 78.468 17.6292L80.415 14.127ZM86.89 50.039C86.9786 48.9554 87.0238 47.8595 87.0238 46.7531C87.0238 45.7066 86.9834 44.6695 86.904 43.6433C87.0241 43.6881 87.1642 43.6632 87.2619 43.5685L90.1409 40.7814C90.3883 40.5419 90.7946 40.7765 90.7109 41.1105L89.7366 44.9973C89.6917 45.1764 89.7971 45.3589 89.9747 45.4096L93.8279 46.5092C94.159 46.6037 94.159 47.073 93.8279 47.1674L89.9747 48.2671C89.7971 48.3178 89.6917 48.5003 89.7366 48.6794L90.7109 52.5662C90.7946 52.9002 90.3883 53.1348 90.1409 52.8953L87.2619 50.1082C87.1604 50.0098 87.0131 49.9868 86.89 50.039ZM72.9444 77.1201C74.5907 75.7251 76.122 74.1986 77.5222 72.5569C77.5548 72.7098 77.6893 72.8248 77.8514 72.8274L81.8579 72.8923C82.2021 72.8979 82.3236 73.3511 82.0282 73.5281L78.5909 75.5875C78.4325 75.6825 78.378 75.886 78.4677 76.0474L80.4148 79.5496C80.5821 79.8505 80.2503 80.1823 79.9493 80.015L76.4471 78.068C76.2857 77.9782 76.0822 78.0328 75.9873 78.1912L73.9278 81.6285C73.7508 81.9239 73.2976 81.8024 73.292 81.4581L73.2271 77.4516C73.2244 77.2853 73.1034 77.148 72.9444 77.1201ZM16.9541 72.5574C18.3543 74.199 19.8856 75.7254 21.5318 77.1203C21.373 77.1483 21.252 77.2856 21.2493 77.4518L21.1844 81.4584C21.1788 81.8026 20.7256 81.9241 20.5486 81.6287L18.4891 78.1914C18.3942 78.033 18.1907 77.9784 18.0292 78.0682L14.5271 80.0152C14.2261 80.1825 13.8943 79.8508 14.0616 79.5498L16.0087 76.0476C16.0984 75.8862 16.0439 75.6827 15.8855 75.5878L12.4482 73.5283C12.1528 73.3513 12.2743 72.8981 12.6185 72.8925L16.625 72.8276C16.787 72.825 16.9214 72.7101 16.9541 72.5574ZM7.5719 43.6436C7.49257 44.6697 7.45217 45.7067 7.45217 46.7531C7.45217 47.8596 7.49734 48.9555 7.58593 50.0391C7.46296 49.987 7.31579 50.0101 7.21427 50.1084L4.33535 52.8955C4.08797 53.135 3.68161 52.9004 3.76532 52.5664L4.7396 48.6796C4.78451 48.5005 4.67915 48.318 4.50154 48.2673L0.648345 47.1676C0.31725 47.0732 0.317251 46.6039 0.648346 46.5094L4.50155 45.4098C4.67915 45.3591 4.7845 45.1766 4.7396 44.9975L3.76532 41.1107C3.68161 40.7767 4.08797 40.5421 4.33535 40.7816L7.21427 43.5687C7.31195 43.6633 7.45191 43.6882 7.5719 43.6436ZM16.9064 21.0049C16.8463 20.9125 16.7428 20.851 16.6248 20.8491L12.6183 20.7842C12.274 20.7786 12.1526 20.3253 12.4479 20.1484L15.8852 18.0889C16.0437 17.994 16.0982 17.7905 16.0085 17.629L14.0614 14.1268C13.8941 13.8259 14.2259 13.4941 14.5268 13.6614L18.029 15.6085C18.1905 15.6982 18.394 15.6437 18.4889 15.4852L20.5484 12.0479C20.7253 11.7526 21.1786 11.874 21.1841 12.2183L21.249 16.2248C21.2509 16.3393 21.3089 16.4401 21.3967 16.5009C19.7831 17.8805 18.2812 19.387 16.9064 21.0049ZM47.5671 0.248322C47.4726 -0.0827739 47.0034 -0.0827739 46.9089 0.248322L45.8093 4.10152C45.7586 4.27913 45.5761 4.38448 45.3969 4.33957L41.5102 3.3653C41.1762 3.28158 40.9416 3.68794 41.181 3.93532L43.9682 6.81425C44.0424 6.89089 44.0737 6.99357 44.0622 7.0922C45.1099 7.00946 46.169 6.9673 47.238 6.9673C48.307 6.9673 49.3661 7.00946 50.4138 7.0922C50.4023 6.99357 50.4336 6.89089 50.5078 6.81425L53.295 3.93532C53.5345 3.68794 53.2999 3.28158 52.9659 3.3653L49.0791 4.33957C48.8999 4.38448 48.7175 4.27913 48.6668 4.10152L47.5671 0.248322ZM62.2718 18.3058C62.3121 17.9638 61.8791 17.7831 61.6644 18.0523L60.2019 19.886C60.0868 20.0304 59.8778 20.0574 59.7297 19.947L57.8496 18.5447C57.5736 18.3388 57.2007 18.6235 57.3264 18.944L58.1832 21.1274C58.2229 21.2286 58.2112 21.3375 58.1602 21.425C59.5977 21.8947 60.9953 22.4804 62.3383 23.1757C62.3631 23.0751 62.4332 22.9871 62.5354 22.9431L64.6898 22.0161C65.0061 21.88 64.9461 21.4146 64.6056 21.3633L62.2863 21.0136C62.1037 20.986 61.9759 20.8186 61.9975 20.6351L62.2718 18.3058ZM23.0054 56.4117C23.23 57.1088 23.4836 57.8024 23.7669 58.4912C24.0659 59.2185 24.3923 59.9264 24.7442 60.6141C24.6255 60.6266 24.5171 60.701 24.4662 60.8177L23.5281 62.9674C23.3904 63.283 22.9254 63.2206 22.8758 62.8798L22.5379 60.5588C22.5113 60.3761 22.3445 60.2474 22.161 60.268L19.8302 60.5306C19.4881 60.5691 19.3096 60.1351 19.5799 59.9218L21.421 58.4687C21.566 58.3543 21.594 58.1455 21.4844 57.9968L20.0917 56.1096C19.8872 55.8326 20.1738 55.461 20.4937 55.5885L22.6726 56.4564C22.7876 56.5021 22.9129 56.4813 23.0054 56.4117ZM24.7581 35.1609C24.0669 36.506 23.4856 37.9055 23.0203 39.3444C22.9318 39.2903 22.82 39.277 22.7163 39.3176L20.533 40.1744C20.2124 40.3002 19.9277 39.9272 20.1336 39.6512L21.5359 37.7711C21.6463 37.6231 21.6193 37.4141 21.4749 37.2989L19.6413 35.8365C19.3721 35.6218 19.5527 35.1887 19.8947 35.229L22.224 35.5034C22.4075 35.525 22.575 35.3972 22.6025 35.2145L22.9522 32.8953C23.0035 32.5548 23.4689 32.4947 23.605 32.811L24.532 34.9655C24.575 35.0654 24.6602 35.1347 24.7581 35.1609ZM41.0578 21.3679C40.3447 21.5962 39.6352 21.8549 38.9307 22.1447C38.2261 22.4344 37.5397 22.7498 36.8722 23.0891C36.8437 22.9974 36.7769 22.9184 36.6823 22.8771L34.5325 21.939C34.217 21.8013 34.2794 21.3363 34.6201 21.2867L36.9411 20.9488C37.1239 20.9222 37.2526 20.7554 37.2319 20.5718L36.9694 18.2411C36.9309 17.899 37.3648 17.7205 37.5782 17.9908L39.0312 19.8319C39.1457 19.9769 39.3545 20.0049 39.5031 19.8953L41.3903 18.5026C41.6674 18.2981 42.0389 18.5847 41.9115 18.9046L41.0436 21.0835C41.0054 21.1794 41.0136 21.2826 41.0578 21.3679ZM49.411 25.7791C49.486 25.443 49.9544 25.4156 50.0681 25.7406L50.4112 26.7212C50.4722 26.8955 50.6605 26.99 50.8368 26.9347L51.828 26.6235C52.1565 26.5204 52.4145 26.9123 52.1899 27.1733L51.5122 27.9607C51.4429 28.0413 51.4176 28.1451 51.4344 28.2425C50.4022 28.2153 49.3691 28.2743 48.3468 28.4188C48.3507 28.3216 48.3133 28.2236 48.2363 28.1529L47.4713 27.45C47.2177 27.2171 47.4281 26.7977 47.7664 26.8617L48.7872 27.0549C48.9687 27.0892 49.1447 26.9734 49.1849 26.7931L49.411 25.7791ZM38.672 60.4928C38.2921 60.1551 37.9296 59.8052 37.5843 59.4443C37.5287 59.5354 37.4316 59.5992 37.3174 59.6077L36.2814 59.6853C35.938 59.7111 35.8433 60.1706 36.1485 60.33L37.0695 60.8109C37.2332 60.8964 37.2996 61.0963 37.2194 61.2627L36.7686 62.1988C36.6192 62.509 36.9699 62.8208 37.2605 62.6362L38.1374 62.079C38.2933 61.98 38.4997 62.0225 38.6037 62.1751L39.1889 63.0335C39.3829 63.318 39.8283 63.1702 39.8137 62.8262L39.7696 61.7883C39.7647 61.6714 39.819 61.5654 39.9063 61.4999C39.4845 61.1848 39.0726 60.8491 38.672 60.4928ZM32.669 49.3468C32.5213 48.3249 32.4591 47.292 32.483 46.2598C32.387 46.2749 32.2854 46.2493 32.2062 46.1811L31.4187 45.5035C31.1578 45.2789 30.7658 45.5369 30.869 45.8654L31.1801 46.8566C31.2355 47.0328 31.141 47.2211 30.9666 47.2821L29.986 47.6253C29.661 47.739 29.6885 48.2074 30.0245 48.2823L31.0386 48.5085C31.2188 48.5487 31.3347 48.7247 31.3003 48.9061L31.1072 49.9269C31.0431 50.2653 31.4626 50.4757 31.6955 50.2221L32.3983 49.457C32.4702 49.3788 32.5703 49.3415 32.669 49.3468ZM37.1434 34.43C37.4891 34.0412 37.8476 33.6705 38.2175 33.318C38.1434 33.2606 38.0931 33.1732 38.0855 33.0727L38.0079 32.0367C37.9822 31.6934 37.5226 31.5987 37.3633 31.9039L36.8824 32.8248C36.7969 32.9885 36.5969 33.0549 36.4305 32.9747L35.4945 32.5239C35.1843 32.3745 34.8725 32.7252 35.0571 33.0158L35.6142 33.8927C35.7133 34.0486 35.6707 34.255 35.5181 34.359L34.6597 34.9443C34.3752 35.1382 34.523 35.5836 34.867 35.569L35.905 35.525C36.0057 35.5207 36.0984 35.5605 36.164 35.6274C36.4711 35.2185 36.7976 34.819 37.1434 34.43Z" fill="#991B1B"/>
<path d="M75.3868 33.662C77.5634 33.662 79.6389 34.9855 81.2091 37.3407C82.7754 39.6901 83.7726 42.9856 83.7726 46.6678C83.7725 50.3499 82.7753 53.6447 81.2091 55.994C79.6389 58.3492 77.5634 59.6727 75.3868 59.6727C73.2103 59.6726 71.1347 58.3492 69.5646 55.994C67.9984 53.6448 67.0022 50.3498 67.0021 46.6678C67.0021 42.9857 67.9984 39.6901 69.5646 37.3407C71.1347 34.9855 73.2103 33.6621 75.3868 33.662Z" fill="#FECACA" stroke="#991B1B" stroke-width="1.71122"/>
<path d="M59.6439 31.6084C62.1985 31.6084 64.616 33.1618 66.434 35.8887C68.2479 38.6096 69.3978 42.4178 69.3978 46.667C69.3978 50.9162 68.2479 54.7243 66.434 57.4453C64.616 60.1723 62.1986 61.7256 59.6439 61.7256C57.0893 61.7255 54.6718 60.1722 52.8539 57.4453C51.04 54.7244 49.89 50.9161 49.89 46.667C49.8901 42.4178 51.0399 38.6096 52.8539 35.8887C54.6718 33.1618 57.0893 31.6085 59.6439 31.6084Z" fill="#FECACA" stroke="#991B1B" stroke-width="1.71122"/>
<ellipse cx="63.2378" cy="46.6677" rx="2.90907" ry="4.96253" fill="#7F1D1D"/>
<ellipse cx="79.3233" cy="46.6675" rx="2.22458" ry="4.10692" fill="#7F1D1D"/>
</svg>
