<svg width="89" height="86" viewBox="0 0 89 86" fill="none" xmlns="http://www.w3.org/2000/svg">
<mask id="path-1-inside-1_2681_96" fill="white">
<path fill-rule="evenodd" clip-rule="evenodd" d="M41.7843 5.10763L46.5879 0.304077L51.3914 5.10763L48.1442 8.35486C51.5041 8.7534 54.376 10.7434 55.985 13.55C57.8759 11.6793 60.4762 10.5241 63.3462 10.5241C64.6765 10.5241 65.9487 10.7723 67.1193 11.2248L65.8996 6.67301L72.4614 4.91479L74.2196 11.4766L69.7145 12.6837C72.2066 14.5969 73.813 17.6062 73.8131 20.9908C76.8191 20.9908 79.5291 22.2579 81.4381 24.2872V19.6948H88.2314V26.4881H83.0273C83.8264 27.9665 84.28 29.6591 84.28 31.4577C84.28 32.9882 83.9516 34.4419 83.3613 35.7523C86.5839 37.5365 88.7658 40.9713 88.7658 44.9157C88.7658 48.1652 87.2851 51.0688 84.9616 52.9886L84.9558 53.1222L84.9517 53.2139C86.8463 55.1081 88.0182 57.7252 88.0182 60.616C88.0182 63.7728 86.6207 66.6031 84.4107 68.5222C84.4141 68.632 84.4158 68.7423 84.4158 68.8529C84.4158 74.2397 80.3465 78.6761 75.1142 79.2557C73.1959 81.5553 70.3098 83.0195 67.0816 83.0222C62.2515 84.9603 56.229 86.0353 48.7673 86.0353C43.8663 86.0353 39.6182 85.663 35.9375 84.9615C35.3139 85.0773 34.671 85.1379 34.0138 85.1379C31.6142 85.1379 29.4031 84.3304 27.6376 82.9722C27.2991 83.0053 26.9558 83.0222 26.6086 83.0222C20.8279 83.0222 16.1417 78.336 16.1417 72.5553C16.1417 72.3276 16.149 72.1016 16.1633 71.8775C13.0799 70.0564 11.0116 66.699 11.0116 62.8586C11.0116 60.7299 11.6471 58.7496 12.7386 57.0971C12.7326 57.0138 12.7268 56.9304 12.721 56.8469C10.6668 55.2113 9.24151 52.8193 8.8667 50.0923L5.70761 53.2514L0.904053 48.4479L5.70761 43.6443L8.92201 46.8587C9.43086 43.9146 11.1696 41.3918 13.59 39.8385C12.8966 38.4396 12.5069 36.8635 12.5069 35.1963C12.5069 33.9161 12.7367 32.6895 13.1574 31.5557L8.37003 32.8384L6.61181 26.2766L13.1736 24.5184L14.4185 29.1646C16.1789 26.6723 19.0008 24.9833 22.2261 24.7557L22.2261 24.7292C22.2261 21.5061 23.6828 18.6233 25.9738 16.7033L21.2703 15.443L23.0285 8.88121L29.5903 10.6394L28.3699 15.1939C29.6877 14.5955 31.1514 14.2622 32.693 14.2622C34.246 14.2622 35.72 14.6005 37.0454 15.2073C38.3019 11.7116 41.3659 9.078 45.1102 8.43356L41.7843 5.10763Z"/>
</mask>
<path fill-rule="evenodd" clip-rule="evenodd" d="M41.7843 5.10763L46.5879 0.304077L51.3914 5.10763L48.1442 8.35486C51.5041 8.7534 54.376 10.7434 55.985 13.55C57.8759 11.6793 60.4762 10.5241 63.3462 10.5241C64.6765 10.5241 65.9487 10.7723 67.1193 11.2248L65.8996 6.67301L72.4614 4.91479L74.2196 11.4766L69.7145 12.6837C72.2066 14.5969 73.813 17.6062 73.8131 20.9908C76.8191 20.9908 79.5291 22.2579 81.4381 24.2872V19.6948H88.2314V26.4881H83.0273C83.8264 27.9665 84.28 29.6591 84.28 31.4577C84.28 32.9882 83.9516 34.4419 83.3613 35.7523C86.5839 37.5365 88.7658 40.9713 88.7658 44.9157C88.7658 48.1652 87.2851 51.0688 84.9616 52.9886L84.9558 53.1222L84.9517 53.2139C86.8463 55.1081 88.0182 57.7252 88.0182 60.616C88.0182 63.7728 86.6207 66.6031 84.4107 68.5222C84.4141 68.632 84.4158 68.7423 84.4158 68.8529C84.4158 74.2397 80.3465 78.6761 75.1142 79.2557C73.1959 81.5553 70.3098 83.0195 67.0816 83.0222C62.2515 84.9603 56.229 86.0353 48.7673 86.0353C43.8663 86.0353 39.6182 85.663 35.9375 84.9615C35.3139 85.0773 34.671 85.1379 34.0138 85.1379C31.6142 85.1379 29.4031 84.3304 27.6376 82.9722C27.2991 83.0053 26.9558 83.0222 26.6086 83.0222C20.8279 83.0222 16.1417 78.336 16.1417 72.5553C16.1417 72.3276 16.149 72.1016 16.1633 71.8775C13.0799 70.0564 11.0116 66.699 11.0116 62.8586C11.0116 60.7299 11.6471 58.7496 12.7386 57.0971C12.7326 57.0138 12.7268 56.9304 12.721 56.8469C10.6668 55.2113 9.24151 52.8193 8.8667 50.0923L5.70761 53.2514L0.904053 48.4479L5.70761 43.6443L8.92201 46.8587C9.43086 43.9146 11.1696 41.3918 13.59 39.8385C12.8966 38.4396 12.5069 36.8635 12.5069 35.1963C12.5069 33.9161 12.7367 32.6895 13.1574 31.5557L8.37003 32.8384L6.61181 26.2766L13.1736 24.5184L14.4185 29.1646C16.1789 26.6723 19.0008 24.9833 22.2261 24.7557L22.2261 24.7292C22.2261 21.5061 23.6828 18.6233 25.9738 16.7033L21.2703 15.443L23.0285 8.88121L29.5903 10.6394L28.3699 15.1939C29.6877 14.5955 31.1514 14.2622 32.693 14.2622C34.246 14.2622 35.72 14.6005 37.0454 15.2073C38.3019 11.7116 41.3659 9.078 45.1102 8.43356L41.7843 5.10763Z" fill="#DC2626"/>
<path d="M46.5879 0.304077L48.0587 -1.16671L46.5879 -2.63749L45.1171 -1.16671L46.5879 0.304077ZM41.7843 5.10763L40.3135 3.63685L38.8428 5.10763L40.3135 6.57841L41.7843 5.10763ZM51.3914 5.10763L52.8622 6.57841L54.333 5.10763L52.8622 3.63685L51.3914 5.10763ZM48.1442 8.35486L46.6734 6.88408L43.6421 9.9154L47.8992 10.4204L48.1442 8.35486ZM55.985 13.55L54.1805 14.5846L55.5255 16.9306L57.4479 15.0287L55.985 13.55ZM67.1193 11.2248L66.3693 13.1649L70.1881 14.6412L69.1284 10.6865L67.1193 11.2248ZM65.8996 6.67301L65.3613 4.66388L63.3522 5.20223L63.8905 7.21135L65.8996 6.67301ZM72.4614 4.91479L74.4705 4.37645L73.9322 2.36732L71.9231 2.90566L72.4614 4.91479ZM74.2196 11.4766L74.758 13.4857L76.7671 12.9473L76.2288 10.9382L74.2196 11.4766ZM69.7145 12.6837L69.1762 10.6746L65.1034 11.7659L68.4479 14.3335L69.7145 12.6837ZM73.8131 20.9908L71.7331 20.9908L71.7332 23.0708H73.8131V20.9908ZM81.4381 24.2872L79.9232 25.7124L83.5181 29.5338V24.2872H81.4381ZM81.4381 19.6948V17.6148H79.3581V19.6948H81.4381ZM88.2314 19.6948H90.3114V17.6148H88.2314V19.6948ZM88.2314 26.4881V28.5681H90.3114V26.4881H88.2314ZM83.0273 26.4881V24.4081H79.5388L81.1975 27.4771L83.0273 26.4881ZM83.3613 35.7523L81.4648 34.898L80.6781 36.6443L82.3538 37.572L83.3613 35.7523ZM84.9616 52.9886L83.6367 51.3851L82.9235 51.9744L82.8836 52.8988L84.9616 52.9886ZM84.9558 53.1222L87.0338 53.2155L87.0339 53.212L84.9558 53.1222ZM84.9517 53.2139L82.8738 53.1206L82.8327 54.0366L83.4811 54.6849L84.9517 53.2139ZM84.4107 68.5222L83.0469 66.9517L82.301 67.5994L82.3317 68.5868L84.4107 68.5222ZM75.1142 79.2557L74.8852 77.1883L74.0531 77.2805L73.5169 77.9233L75.1142 79.2557ZM67.0816 83.0222L67.0798 80.9422L66.679 80.9425L66.307 81.0918L67.0816 83.0222ZM35.9375 84.9615L36.3269 82.9183L35.9424 82.845L35.5576 82.9165L35.9375 84.9615ZM27.6376 82.9722L28.9058 81.3236L28.254 80.8222L27.4356 80.9021L27.6376 82.9722ZM16.1633 71.8775L18.2391 72.0102L18.3205 70.7359L17.2211 70.0865L16.1633 71.8775ZM12.7386 57.0971L14.4742 58.2435L14.8642 57.6531L14.8133 56.9474L12.7386 57.0971ZM12.721 56.8469L14.7961 56.7042L14.7333 55.7903L14.0166 55.2196L12.721 56.8469ZM8.8667 50.0923L10.9273 49.8091L10.3571 45.6604L7.39592 48.6216L8.8667 50.0923ZM5.70761 53.2514L4.23683 54.7222L5.70761 56.193L7.17839 54.7222L5.70761 53.2514ZM0.904053 48.4479L-0.56673 46.9771L-2.03751 48.4479L-0.566729 49.9187L0.904053 48.4479ZM5.70761 43.6443L7.17839 42.1735L5.70761 40.7028L4.23682 42.1735L5.70761 43.6443ZM8.92201 46.8587L7.45123 48.3295L10.2883 51.1666L10.9716 47.213L8.92201 46.8587ZM13.59 39.8385L14.7134 41.589L16.2806 40.5833L15.4536 38.9148L13.59 39.8385ZM13.1574 31.5557L15.1075 32.2792L16.508 28.5045L12.619 29.5465L13.1574 31.5557ZM8.37003 32.8384L6.3609 33.3768L6.89925 35.3859L8.90837 34.8475L8.37003 32.8384ZM6.61181 26.2766L6.07346 24.2675L4.06434 24.8059L4.60268 26.815L6.61181 26.2766ZM13.1736 24.5184L15.1827 23.9801L14.6444 21.971L12.6352 22.5093L13.1736 24.5184ZM14.4185 29.1646L12.4094 29.7029L13.5577 33.9886L16.1175 30.3646L14.4185 29.1646ZM22.2261 24.7557L22.3726 26.8305L24.3086 26.6939L24.3061 24.753L22.2261 24.7557ZM22.2261 24.7292H20.1461L20.1461 24.7319L22.2261 24.7292ZM25.9738 16.7033L27.3099 18.2975L30.3745 15.7291L26.5122 14.6942L25.9738 16.7033ZM21.2703 15.443L19.2612 14.9046L18.7228 16.9138L20.732 17.4521L21.2703 15.443ZM23.0285 8.88121L23.5669 6.87209L21.5577 6.33374L21.0194 8.34287L23.0285 8.88121ZM29.5903 10.6394L31.5994 11.1778L32.1378 9.16865L30.1286 8.63031L29.5903 10.6394ZM28.3699 15.1939L26.3608 14.6556L25.2213 18.9081L29.2299 17.0878L28.3699 15.1939ZM37.0454 15.2073L36.1795 17.0985L38.2373 18.0406L39.0028 15.9109L37.0454 15.2073ZM45.1102 8.43356L45.4631 10.4834L49.4205 9.80229L46.581 6.96278L45.1102 8.43356ZM45.1171 -1.16671L40.3135 3.63685L43.2551 6.57841L48.0587 1.77486L45.1171 -1.16671ZM52.8622 3.63685L48.0587 -1.16671L45.1171 1.77486L49.9206 6.57841L52.8622 3.63685ZM49.615 9.82564L52.8622 6.57841L49.9206 3.63685L46.6734 6.88408L49.615 9.82564ZM57.7895 12.5155C55.8634 9.15586 52.4231 6.76784 48.3892 6.28934L47.8992 10.4204C50.585 10.739 52.8885 12.331 54.1805 14.5846L57.7895 12.5155ZM63.3462 8.44413C59.9065 8.44413 56.7866 9.83106 54.5221 12.0714L57.4479 15.0287C58.9652 13.5275 61.0459 12.6041 63.3462 12.6041V8.44413ZM67.8693 9.28474C66.4633 8.74119 64.937 8.44413 63.3462 8.44413V12.6041C64.4159 12.6041 65.4342 12.8034 66.3693 13.1649L67.8693 9.28474ZM63.8905 7.21135L65.1102 11.7632L69.1284 10.6865L67.9088 6.13467L63.8905 7.21135ZM71.9231 2.90566L65.3613 4.66388L66.438 8.68214L72.9998 6.92391L71.9231 2.90566ZM76.2288 10.9382L74.4705 4.37645L70.4523 5.45313L72.2105 12.0149L76.2288 10.9382ZM70.2529 14.6928L74.758 13.4857L73.6813 9.46744L69.1762 10.6746L70.2529 14.6928ZM75.8931 20.9907C75.893 16.9324 73.9639 13.3238 70.9812 11.0339L68.4479 14.3335C70.4492 15.8701 71.7331 18.2801 71.7331 20.9908L75.8931 20.9907ZM82.9531 22.862C80.6674 20.4323 77.4163 18.9108 73.8131 18.9108V23.0708C76.2219 23.0708 78.3908 24.0835 79.9232 25.7124L82.9531 22.862ZM79.3581 19.6948V24.2872H83.5181V19.6948H79.3581ZM88.2314 17.6148H81.4381V21.7748H88.2314V17.6148ZM90.3114 26.4881V19.6948H86.1514V26.4881H90.3114ZM83.0273 28.5681H88.2314V24.4081H83.0273V28.5681ZM86.36 31.4577C86.36 29.3053 85.8164 27.2738 84.8572 25.4991L81.1975 27.4771C81.8365 28.6593 82.2 30.0129 82.2 31.4577H86.36ZM85.2577 36.6066C85.9666 35.033 86.36 33.2885 86.36 31.4577H82.2C82.2 32.6878 81.9365 33.8508 81.4648 34.898L85.2577 36.6066ZM90.8458 44.9157C90.8458 40.1847 88.2264 36.0683 84.3687 33.9325L82.3538 37.572C84.9414 39.0046 86.6858 41.7579 86.6858 44.9157H90.8458ZM86.2865 54.592C89.0677 52.294 90.8458 48.8116 90.8458 44.9157H86.6858C86.6858 47.5187 85.5025 49.8435 83.6367 51.3851L86.2865 54.592ZM87.0339 53.212L87.0397 53.0784L82.8836 52.8988L82.8778 53.0324L87.0339 53.212ZM87.0296 53.3072L87.0338 53.2155L82.8779 53.0289L82.8738 53.1206L87.0296 53.3072ZM90.0982 60.616C90.0982 57.1513 88.6912 54.0113 86.4223 51.743L83.4811 54.6849C85.0015 56.2049 85.9382 58.2991 85.9382 60.616H90.0982ZM85.7744 70.0928C88.4201 67.7954 90.0982 64.4005 90.0982 60.616H85.9382C85.9382 63.145 84.8214 65.4109 83.0469 66.9517L85.7744 70.0928ZM86.4958 68.8529C86.4958 68.7207 86.4938 68.589 86.4897 68.4576L82.3317 68.5868C82.3344 68.6751 82.3358 68.7638 82.3358 68.8529H86.4958ZM75.3431 81.323C81.6174 80.6281 86.4958 75.3116 86.4958 68.8529H82.3358C82.3358 73.1679 79.0755 76.7242 74.8852 77.1883L75.3431 81.323ZM67.0833 85.1022C70.9538 85.0989 74.4153 83.3407 76.7114 80.588L73.5169 77.9233C71.9766 79.77 69.6658 80.94 67.0798 80.9422L67.0833 85.1022ZM48.7673 88.1153C56.4212 88.1153 62.72 87.0135 67.8562 84.9526L66.307 81.0918C61.7831 82.907 56.0367 83.9553 48.7673 83.9553V88.1153ZM35.5481 87.0047C39.3823 87.7354 43.764 88.1153 48.7673 88.1153V83.9553C43.9686 83.9553 39.8541 83.5905 36.3269 82.9183L35.5481 87.0047ZM34.0138 87.2179C34.799 87.2179 35.5692 87.1455 36.3174 87.0065L35.5576 82.9165C35.0587 83.0091 34.5429 83.0579 34.0138 83.0579V87.2179ZM26.3694 84.6209C28.4857 86.2489 31.1396 87.2179 34.0138 87.2179V83.0579C32.0888 83.0579 30.3205 82.4118 28.9058 81.3236L26.3694 84.6209ZM26.6086 85.1022C27.0234 85.1022 27.434 85.082 27.8396 85.0424L27.4356 80.9021C27.1641 80.9286 26.8883 80.9422 26.6086 80.9422V85.1022ZM14.0617 72.5553C14.0617 79.4847 19.6792 85.1022 26.6086 85.1022V80.9422C21.9767 80.9422 18.2217 77.1872 18.2217 72.5553H14.0617ZM14.0876 71.7448C14.0704 72.013 14.0617 72.2833 14.0617 72.5553H18.2217C18.2217 72.3719 18.2276 72.1901 18.2391 72.0102L14.0876 71.7448ZM8.93159 62.8586C8.93159 67.4647 11.4148 71.4886 15.1056 73.6684L17.2211 70.0865C14.745 68.6241 13.0916 65.9333 13.0916 62.8586H8.93159ZM11.0031 55.9507C9.69376 57.9328 8.93159 60.3099 8.93159 62.8586H13.0916C13.0916 61.1499 13.6004 59.5664 14.4742 58.2435L11.0031 55.9507ZM10.6459 56.9895C10.6518 57.0753 10.6579 57.1611 10.664 57.2467L14.8133 56.9474C14.8074 56.8665 14.8017 56.7854 14.7961 56.7042L10.6459 56.9895ZM6.80607 50.3756C7.25611 53.6499 8.96706 56.5168 11.4254 58.4741L14.0166 55.2196C12.3664 53.9058 11.2269 51.9887 10.9273 49.8091L6.80607 50.3756ZM7.17839 54.7222L10.3375 51.5631L7.39592 48.6216L4.23683 51.7806L7.17839 54.7222ZM-0.566729 49.9187L4.23683 54.7222L7.17839 51.7806L2.37483 46.9771L-0.566729 49.9187ZM4.23682 42.1735L-0.56673 46.9771L2.37484 49.9187L7.17839 45.1151L4.23682 42.1735ZM10.3928 45.3879L7.17839 42.1735L4.23682 45.1151L7.45123 48.3295L10.3928 45.3879ZM12.4666 38.088C9.56961 39.9471 7.48342 42.9692 6.8724 46.5045L10.9716 47.213C11.3783 44.86 12.7696 42.8365 14.7134 41.589L12.4666 38.088ZM10.4269 35.1963C10.4269 37.191 10.8938 39.0826 11.7264 40.7622L15.4536 38.9148C14.8994 37.7966 14.5869 36.5359 14.5869 35.1963H10.4269ZM11.2073 30.8321C10.702 32.1941 10.4269 33.6654 10.4269 35.1963H14.5869C14.5869 34.1667 14.7714 33.185 15.1075 32.2792L11.2073 30.8321ZM8.90837 34.8475L13.6957 33.5648L12.619 29.5465L7.83168 30.8293L8.90837 34.8475ZM4.60268 26.815L6.3609 33.3768L10.3792 32.3001L8.62093 25.7383L4.60268 26.815ZM12.6352 22.5093L6.07346 24.2675L7.15015 28.2858L13.7119 26.5275L12.6352 22.5093ZM16.4276 28.6262L15.1827 23.9801L11.1645 25.0568L12.4094 29.7029L16.4276 28.6262ZM22.0797 22.6809C18.2084 22.9541 14.8262 24.982 12.7196 27.9646L16.1175 30.3646C17.5315 28.3626 19.7931 27.0126 22.3726 26.8305L22.0797 22.6809ZM20.1461 24.7319L20.1461 24.7584L24.3061 24.753L24.3061 24.7265L20.1461 24.7319ZM24.6378 15.1091C21.8954 17.4074 20.1461 20.865 20.1461 24.7292H24.3061C24.3061 22.1473 25.4703 19.8392 27.3099 18.2975L24.6378 15.1091ZM26.5122 14.6942L21.8086 13.4339L20.732 17.4521L25.4355 18.7124L26.5122 14.6942ZM23.2794 15.9813L25.0376 9.41956L21.0194 8.34287L19.2612 14.9046L23.2794 15.9813ZM22.4902 10.8903L29.052 12.6486L30.1286 8.63031L23.5669 6.87209L22.4902 10.8903ZM27.5812 10.1011L26.3608 14.6556L30.3791 15.7322L31.5994 11.1778L27.5812 10.1011ZM32.693 12.1822C30.8489 12.1822 29.0924 12.5814 27.5099 13.3L29.2299 17.0878C30.283 16.6096 31.454 16.3422 32.693 16.3422V12.1822ZM37.9113 13.3161C36.3197 12.5874 34.5508 12.1822 32.693 12.1822V16.3422C33.9412 16.3422 35.1204 16.6136 36.1795 17.0985L37.9113 13.3161ZM44.7574 6.3837C40.2632 7.1572 36.5939 10.3142 35.088 14.5037L39.0028 15.9109C40.0099 13.109 42.4686 10.9988 45.4631 10.4834L44.7574 6.3837ZM40.3135 6.57841L43.6395 9.90434L46.581 6.96278L43.2551 3.63685L40.3135 6.57841Z" fill="#991B1B" mask="url(#path-1-inside-1_2681_96)"/>
<mask id="path-3-outside-2_2681_96" maskUnits="userSpaceOnUse" x="49.0518" y="24.2241" width="31" height="35" fill="black">
<rect fill="white" x="49.0518" y="24.2241" width="31" height="35"/>
<path fill-rule="evenodd" clip-rule="evenodd" d="M65.1822 48.3565C63.9623 53.3991 61.4304 56.8641 58.5047 56.8641C54.3886 56.8641 51.0518 50.0051 51.0518 41.5441C51.0518 33.0831 54.3886 26.2241 58.5047 26.2241C61.4305 26.2241 63.9625 29.6895 65.1823 34.7323C66.3264 30.6374 68.4703 27.8809 70.9263 27.8809C74.5852 27.8809 77.5512 33.9983 77.5512 41.5447C77.5512 49.091 74.5852 55.2084 70.9263 55.2084C68.4702 55.2084 66.3262 52.4517 65.1822 48.3565Z"/>
</mask>
<path fill-rule="evenodd" clip-rule="evenodd" d="M65.1822 48.3565C63.9623 53.3991 61.4304 56.8641 58.5047 56.8641C54.3886 56.8641 51.0518 50.0051 51.0518 41.5441C51.0518 33.0831 54.3886 26.2241 58.5047 26.2241C61.4305 26.2241 63.9625 29.6895 65.1823 34.7323C66.3264 30.6374 68.4703 27.8809 70.9263 27.8809C74.5852 27.8809 77.5512 33.9983 77.5512 41.5447C77.5512 49.091 74.5852 55.2084 70.9263 55.2084C68.4702 55.2084 66.3262 52.4517 65.1822 48.3565Z" fill="white"/>
<path d="M65.1822 48.3565L66.7848 47.9088L65.0664 41.7581L63.5648 47.9653L65.1822 48.3565ZM65.1823 34.7323L63.5649 35.1235L65.0664 41.3307L66.7849 35.1801L65.1823 34.7323ZM63.5648 47.9653C62.9911 50.3367 62.1321 52.2283 61.1642 53.4868C60.187 54.7571 59.2569 55.2001 58.5047 55.2001V58.5281C60.6782 58.5281 62.4769 57.2386 63.8021 55.5158C65.1364 53.7811 66.1533 51.4189 66.7995 48.7478L63.5648 47.9653ZM58.5047 55.2001C57.4405 55.2001 56.0022 54.262 54.731 51.6491C53.5148 49.1491 52.7158 45.5785 52.7158 41.5441H49.3878C49.3878 45.9707 50.2571 50.0602 51.7384 53.105C53.1646 56.0367 55.4528 58.5281 58.5047 58.5281V55.2001ZM52.7158 41.5441C52.7158 37.5097 53.5148 33.9392 54.731 31.4392C56.0022 28.8262 57.4405 27.8881 58.5047 27.8881V24.5601C55.4528 24.5601 53.1646 27.0515 51.7384 29.9833C50.2571 33.0281 49.3878 37.1175 49.3878 41.5441H52.7158ZM58.5047 27.8881C59.2569 27.8881 60.1871 28.3312 61.1643 29.6016C62.1323 30.8602 62.9913 32.7519 63.5649 35.1235L66.7996 34.3411C66.1535 31.6698 65.1366 29.3075 63.8022 27.5726C62.477 25.8497 60.6783 24.5601 58.5047 24.5601V27.8881ZM66.7849 35.1801C67.3162 33.2784 68.0523 31.7966 68.8484 30.8269C69.6487 29.8521 70.3707 29.5449 70.9263 29.5449V26.2169C69.0259 26.2169 67.448 27.2879 66.2762 28.7151C65.1004 30.1473 64.1925 32.0913 63.5797 34.2845L66.7849 35.1801ZM70.9263 29.5449C71.7589 29.5449 72.9909 30.2934 74.1135 32.6089C75.1806 34.8096 75.8872 37.9669 75.8872 41.5447H79.2152C79.2152 37.5761 78.4388 33.9015 77.1081 31.1569C75.833 28.5271 73.7526 26.2169 70.9263 26.2169V29.5449ZM75.8872 41.5447C75.8872 45.1225 75.1806 48.2797 74.1135 50.4805C72.9909 52.7959 71.7589 53.5444 70.9263 53.5444V56.8724C73.7526 56.8724 75.833 54.5622 77.1081 51.9324C78.4388 49.1878 79.2152 45.5132 79.2152 41.5447H75.8872ZM70.9263 53.5444C70.3707 53.5444 69.6486 53.2372 68.8484 52.2623C68.0522 51.2925 67.3161 49.8106 66.7848 47.9088L63.5795 48.8043C64.1923 50.9976 65.1003 52.9417 66.2761 54.374C67.4479 55.8013 69.0259 56.8724 70.9263 56.8724V53.5444Z" fill="#991B1B" mask="url(#path-3-outside-2_2681_96)"/>
<ellipse cx="61.834" cy="44.2179" rx="2.76037" ry="8.28112" fill="#991B1B"/>
<ellipse cx="73.6943" cy="44.3527" rx="2.31719" ry="6.95157" fill="#991B1B"/>
<path d="M36.0896 44.1764C36.1588 43.4906 36.7708 42.9908 37.4566 43.0599L43.682 43.6879C44.3678 43.7571 44.8676 44.3691 44.7985 45.0549L44.1705 51.2803C44.1013 51.9661 43.4893 52.4659 42.8035 52.3968L36.5781 51.7688C35.8923 51.6996 35.3925 51.0876 35.4617 50.4018L36.0896 44.1764Z" fill="#B91C1C"/>
<path d="M75.0476 58.4766C75.3172 57.8423 76.05 57.5467 76.6843 57.8164L81.5896 59.9018C82.2239 60.1715 82.5195 60.9043 82.2498 61.5386L80.1644 66.4438C79.8948 67.0781 79.1619 67.3737 78.5276 67.1041L73.6224 65.0187C72.9881 64.749 72.6925 64.0162 72.9622 63.3819L75.0476 58.4766Z" fill="#B91C1C"/>
<path d="M51.0356 64.5008C50.6064 63.9616 50.6955 63.1764 51.2348 62.7471L55.4049 59.4275C55.9441 58.9982 56.7293 59.0874 57.1586 59.6266L60.4782 63.7968C60.9075 64.336 60.8183 65.1212 60.2791 65.5504L56.109 68.8701C55.5697 69.2994 54.7846 69.2102 54.3553 68.6709L51.0356 64.5008Z" fill="#EF4444"/>
<path d="M64.1481 19.1894C63.8348 18.5755 64.0786 17.8238 64.6925 17.5105L65.1738 17.2649C65.7878 16.9517 66.5394 17.1954 66.8527 17.8094L67.0983 18.2907C67.4116 18.9046 67.1678 19.6563 66.5539 19.9695L66.0726 20.2151C65.4586 20.5284 64.707 20.2847 64.3937 19.6707L64.1481 19.1894Z" fill="#EF4444"/>
<path d="M26.2324 25.7718C26.2099 25.0829 26.7501 24.5062 27.439 24.4837L32.7663 24.3099C33.4551 24.2874 34.0318 24.8276 34.0543 25.5165L34.2282 30.8438C34.2506 31.5326 33.7104 32.1093 33.0215 32.1318L27.6943 32.3057C27.0054 32.3281 26.4287 31.7879 26.4062 31.099L26.2324 25.7718Z" fill="#EF4444"/>
<path d="M21.4878 59.8778C21.6128 59.2 22.2636 58.7518 22.9414 58.8768L27.7579 59.7651C28.4357 59.8901 28.8839 60.5409 28.7589 61.2187L27.8707 66.0352C27.7457 66.713 27.0948 67.1612 26.417 67.0362L21.6005 66.148C20.9227 66.023 20.4745 65.3721 20.5995 64.6943L21.4878 59.8778Z" fill="#EF4444"/>
<path d="M41.571 64.913C41.6588 64.2294 42.2842 63.7464 42.9678 63.8342L44.1016 63.9798C44.7852 64.0676 45.2683 64.693 45.1804 65.3766L45.0348 66.5104C44.947 67.194 44.3216 67.6771 43.638 67.5892L42.5042 67.4436C41.8206 67.3558 41.3376 66.7304 41.4254 66.0468L41.571 64.913Z" fill="#F87171"/>
<path d="M37.6013 76.9987C37.2884 76.3845 37.5327 75.633 38.1469 75.3202L40.1667 74.2915C40.7809 73.9786 41.5324 74.2229 41.8452 74.8371L42.8739 76.8569C43.1867 77.4711 42.9424 78.2226 42.3282 78.5354L40.3085 79.5641C39.6943 79.8769 38.9428 79.6326 38.63 79.0184L37.6013 76.9987Z" fill="#7F1D1D"/>
<path d="M64.0515 73.2398C64.029 72.5509 64.5693 71.9742 65.2581 71.9517L66.4006 71.9144C67.0895 71.892 67.6662 72.4322 67.6887 73.1211L67.726 74.2636C67.7484 74.9525 67.2082 75.5291 66.5193 75.5516L65.3768 75.5889C64.688 75.6114 64.1113 75.0711 64.0888 74.3823L64.0515 73.2398Z" fill="#FCA5A5"/>
<path d="M21.3423 47.3614C21.6217 46.7313 22.3589 46.4469 22.989 46.7263L24.0341 47.1896C24.6642 47.4689 24.9485 48.2062 24.6692 48.8363L24.2059 49.8813C23.9265 50.5114 23.1893 50.7957 22.5592 50.5164L21.5141 50.0531C20.884 49.7737 20.5997 49.0365 20.879 48.4064L21.3423 47.3614Z" fill="#991B1B"/>
<path d="M46.5681 25.6498C46.8766 25.0335 47.6263 24.7839 48.2427 25.0924L49.2649 25.604C49.8813 25.9125 50.1309 26.6622 49.8224 27.2786L49.3108 28.3008C49.0023 28.9171 48.2526 29.1667 47.6362 28.8583L46.614 28.3467C45.9976 28.0382 45.748 27.2884 46.0565 26.6721L46.5681 25.6498Z" fill="#7F1D1D"/>
</svg>
