<svg width="119" height="72" viewBox="0 0 119 72" fill="none" xmlns="http://www.w3.org/2000/svg">
<path d="M1.53178 60.5289C3.72617 57.5339 10.0705 52.2326 17.8927 54.9876" stroke="#C2410C" stroke-width="1.62583" stroke-linecap="round"/>
<path d="M24.5601 34.3441C27.4097 33.7296 33.8981 33.9243 37.0545 39.6194" stroke="#C2410C" stroke-width="1.62583" stroke-linecap="round"/>
<mask id="path-3-inside-1_2681_17" fill="white">
<path fill-rule="evenodd" clip-rule="evenodd" d="M118.49 35.6364C118.49 55.263 102.58 71.1735 82.9529 71.1736V71.1742H26.6104H26.4982V71.1737C19.9041 71.1135 14.5772 65.7494 14.5772 59.1411C14.5772 52.9244 19.2913 47.8089 25.3398 47.1742C26.7338 36.8478 35.5828 28.8869 46.2911 28.8869C46.8807 28.8869 47.4647 28.911 48.0421 28.9583C51.1668 12.524 65.6088 0.0991211 82.9528 0.0991211C102.58 0.0991211 118.49 16.0097 118.49 35.6364Z"/>
</mask>
<path fill-rule="evenodd" clip-rule="evenodd" d="M118.49 35.6364C118.49 55.263 102.58 71.1735 82.9529 71.1736V71.1742H26.6104H26.4982V71.1737C19.9041 71.1135 14.5772 65.7494 14.5772 59.1411C14.5772 52.9244 19.2913 47.8089 25.3398 47.1742C26.7338 36.8478 35.5828 28.8869 46.2911 28.8869C46.8807 28.8869 47.4647 28.911 48.0421 28.9583C51.1668 12.524 65.6088 0.0991211 82.9528 0.0991211C102.58 0.0991211 118.49 16.0097 118.49 35.6364Z" fill="#FB923C"/>
<path d="M82.9529 71.1736V69.7104H81.4897V71.1736H82.9529ZM82.9529 71.1742V72.6375H84.4162V71.1742H82.9529ZM26.4982 71.1742H25.035V72.6375H26.4982V71.1742ZM26.4982 71.1737H27.9615V69.7238L26.5116 69.7105L26.4982 71.1737ZM25.3398 47.1742L25.4926 48.6294L26.6361 48.5094L26.7899 47.3699L25.3398 47.1742ZM48.0421 28.9583L47.9225 30.4167L49.2338 30.5242L49.4796 29.2317L48.0421 28.9583ZM82.953 72.6369C103.388 72.6368 119.953 56.0711 119.953 35.6364H117.027C117.027 54.4549 101.771 69.7103 82.9529 69.7104L82.953 72.6369ZM84.4162 71.1742V71.1736H81.4897V71.1742H84.4162ZM26.6104 72.6375H82.9529V69.711H26.6104V72.6375ZM26.4982 72.6375H26.6104V69.711H26.4982V72.6375ZM25.035 71.1737V71.1742H27.9615V71.1737H25.035ZM26.5116 69.7105C20.7196 69.6576 16.0405 64.9457 16.0405 59.1411H13.114C13.114 66.553 19.0886 72.5694 26.4849 72.6369L26.5116 69.7105ZM16.0405 59.1411C16.0405 53.6813 20.1811 49.1868 25.4926 48.6294L25.1871 45.7189C18.4016 46.431 13.114 52.1676 13.114 59.1411H16.0405ZM46.2911 27.4236C34.8405 27.4236 25.3804 35.936 23.8898 46.9784L26.7899 47.3699C28.0872 37.7597 36.3251 30.3501 46.2911 30.3501V27.4236ZM48.1616 27.5C47.5445 27.4494 46.9207 27.4236 46.2911 27.4236V30.3501C46.8408 30.3501 47.3848 30.3726 47.9225 30.4167L48.1616 27.5ZM82.9528 -1.36413C64.8931 -1.36413 49.8581 11.5732 46.6046 28.685L49.4796 29.2317C52.4755 13.4748 66.3246 1.56237 82.9528 1.56237V-1.36413ZM119.953 35.6364C119.953 15.2016 103.388 -1.36413 82.9528 -1.36413V1.56237C101.771 1.56237 117.027 16.8178 117.027 35.6364H119.953Z" fill="#EA580C" mask="url(#path-3-inside-1_2681_17)"/>
<path d="M98.2034 16.6763C100.671 16.6764 103.011 18.6633 104.759 22.1187C106.495 25.5511 107.58 30.3215 107.58 35.6128C107.58 40.904 106.495 45.6745 104.759 49.1069C103.011 52.5623 100.671 54.5492 98.2034 54.5493C95.736 54.5493 93.3955 52.5624 91.6477 49.1069C89.9116 45.6745 88.8254 40.9041 88.8254 35.6128C88.8255 30.3215 89.9115 25.5511 91.6477 22.1187C93.3955 18.6634 95.7361 16.6763 98.2034 16.6763Z" fill="white" stroke="#C2410C" stroke-width="0.812915"/>
<ellipse cx="103.503" cy="36.2887" rx="2.58657" ry="10.0089" fill="#C2410C"/>
<circle cx="25.5982" cy="56.5527" r="4.94822" fill="#FDBA74"/>
<circle cx="75.0804" cy="46.656" r="4.94822" fill="#FDBA74"/>
<circle cx="85.2603" cy="21.5321" r="4.94822" fill="#FDBA74"/>
<circle cx="56.8622" cy="54.0779" r="7.42234" fill="#FDBA74"/>
<circle cx="39.9931" cy="44.1815" r="2.92395" fill="#FED7AA"/>
<circle cx="91.9497" cy="57.0023" r="2.92395" fill="#FED7AA"/>
<circle cx="69.5043" cy="21.5321" r="4.94822" fill="#FED7AA"/>
<circle cx="2.02427" cy="2.02427" r="2.02427" transform="matrix(1 0 0 -1 73.0563 34.9591)" fill="#FED7AA"/>
</svg>
