<svg width="141" height="136" viewBox="0 0 141 136" fill="none" xmlns="http://www.w3.org/2000/svg">
<path fill-rule="evenodd" clip-rule="evenodd" d="M16.9956 91.7298C16.3075 91.0575 16.0965 90.0347 16.4623 89.145L21.8483 76.0443C23.0763 73.0575 24.8676 70.335 27.1245 68.0251L41.6046 53.2054C42.5153 52.2734 44.0092 52.2561 44.9413 53.1668L48.8792 57.0145C49.8113 57.9252 49.8286 59.4191 48.9179 60.3511L36.8937 72.6573C33.0147 76.6273 29.9359 81.3067 27.8253 86.4403L24.5001 94.5284C23.8641 96.0753 21.8651 96.4877 20.6688 95.3188L16.9956 91.7298Z" fill="#2563EB"/>
<path fill-rule="evenodd" clip-rule="evenodd" d="M108.554 128.687C110.467 129.016 111.938 127.023 111.058 125.292L101.773 107.027C100.065 103.666 97.6228 100.731 94.6281 98.4406L78.837 86.3619C77.802 85.5702 76.3211 85.7674 75.5293 86.8025L72.1844 91.1755C71.3927 92.2105 71.5899 93.6914 72.625 94.4832L81.1191 100.98C88.795 106.852 94.2838 115.124 96.7101 124.479L97.2991 126.75L108.554 128.687Z" fill="#2563EB"/>
<path fill-rule="evenodd" clip-rule="evenodd" d="M124.295 87.9633C124.535 87.5051 124.618 86.9808 124.531 86.471L122.207 72.868C120.78 64.5158 115.245 57.4423 107.482 54.0473L91.4638 47.0424C89.5501 46.2055 87.5728 48.0846 88.3112 50.0384L90.0832 54.7269C90.2876 55.2677 90.6834 55.7146 91.1956 55.9829L96.3576 58.6868C108.217 64.8988 116.499 76.2877 118.754 89.484C119.131 91.6925 122.097 92.1609 123.136 90.1761L124.295 87.9633Z" fill="#2563EB"/>
<path fill-rule="evenodd" clip-rule="evenodd" d="M20.7758 120.233C20.2393 122.099 22.06 123.778 23.8764 123.093L43.0473 115.86C46.5749 114.529 49.7584 112.422 52.3626 109.696L66.0945 95.3189C66.9946 94.3765 66.9603 92.8829 66.018 91.9828L62.0366 88.1801C61.0943 87.28 59.6007 87.3142 58.7006 88.2566L51.3141 95.9899C44.6392 102.978 35.8163 107.53 26.2528 108.92L23.9314 109.257L20.7758 120.233Z" fill="#2563EB"/>
<path d="M100.881 59.3483C100.881 81.0673 87.7638 98.6741 71.5831 98.6741C55.4024 98.6741 42.2854 81.0673 42.2854 59.3483C42.2854 37.6292 45.8011 19.6292 71.5831 19.6292C97.3651 19.6292 100.881 37.6292 100.881 59.3483Z" fill="#3B82F6"/>
<path d="M96.1618 59.1271C96.1618 78.1447 85.1575 93.5616 71.5831 93.5616C58.0087 93.5616 47.0045 78.1447 47.0045 59.1271C47.0045 40.1094 49.9539 24.3481 71.5831 24.3481C93.2123 24.3481 96.1618 40.1094 96.1618 59.1271Z" fill="#2563EB"/>
<path d="M60.075 57.1138C56.1076 47.6532 60.6853 36.6666 70.1459 32.6993C79.6066 28.7319 90.5931 33.3096 94.5605 42.7702C98.5278 52.2309 93.9501 63.2174 84.4895 67.1848C75.0289 71.1521 64.0423 66.5744 60.075 57.1138Z" fill="#EFF6FF"/>
<path d="M79.6162 77.8536C78.794 75.8474 79.7149 73.5451 81.754 72.69C83.7603 71.8678 86.0625 72.7887 86.9176 74.8278C87.7398 76.834 86.8189 79.1362 84.7798 79.9914C82.7736 80.8136 80.4714 79.8927 79.6162 77.8536Z" fill="#3B82F6"/>
<path d="M78.8326 51.6459C77.6754 48.8223 78.9715 45.582 81.8414 44.3785C84.6651 43.2213 87.9053 44.5174 89.1088 47.3873C90.266 50.2109 88.97 53.4512 86.1 54.6547C83.2764 55.8119 80.0362 54.5158 78.8326 51.6459Z" fill="#3B82F6"/>
<path d="M55.7834 40.3085C55.3558 39.3547 55.8491 38.2694 56.8029 37.8418C57.7567 37.4801 58.842 37.9076 59.2696 38.8614C59.6971 39.8152 59.2038 40.9005 58.25 41.328C57.2634 41.7227 56.2109 41.2623 55.7834 40.3085Z" fill="#3B82F6"/>
<path d="M51.9306 59.7791C51.3978 58.7782 51.7712 57.7475 52.6777 57.4253C53.5915 57.1688 54.7239 57.7162 55.2567 58.7171C55.7896 59.718 55.4161 60.7487 54.5096 61.071C53.5666 61.3566 52.4634 60.78 51.9306 59.7791Z" fill="#3B82F6"/>
<path d="M69.813 76.481L68.4975 75.1654C68.037 74.705 67.3135 74.705 66.853 75.1654C66.3926 75.6259 66.3926 76.3494 66.853 76.8099L68.1686 78.1254C68.629 78.5859 69.3526 78.5859 69.813 78.1254C70.2735 77.665 70.2735 76.9414 69.813 76.481Z" fill="#EFF6FF"/>
<path d="M84.2136 36.7106L82.898 35.3951C82.4376 34.9346 81.714 34.9346 81.2536 35.3951C80.7931 35.8555 80.7931 36.5791 81.2536 37.0395L82.5691 38.3551C83.0296 38.8155 83.7531 38.8155 84.2136 38.3551C84.674 37.8946 84.674 37.1711 84.2136 36.7106Z" fill="#EFF6FF"/>
<path d="M61.2043 82.5861L59.231 84.5594C58.7705 85.0199 58.7705 85.7434 59.231 86.2039C59.6914 86.6643 60.415 86.6643 60.8754 86.2039L62.8488 84.2305C63.3092 83.7701 63.3092 83.0465 62.8488 82.5861C62.3883 82.1257 61.6648 82.1257 61.2043 82.5861Z" fill="#EFF6FF"/>
<path d="M53.4723 47.193L50.9728 49.6926C50.5123 50.153 50.5123 50.8766 50.9728 51.337C51.4332 51.7975 52.1568 51.7975 52.6172 51.337L55.1168 48.8375C55.5772 48.377 55.5772 47.6535 55.1168 47.193C54.6563 46.7326 53.9328 46.7326 53.4723 47.193Z" fill="#EFF6FF"/>
</svg>
