<svg width="68" height="101" viewBox="0 0 68 101" fill="none" xmlns="http://www.w3.org/2000/svg">
<path d="M12.0983 23.7447C16.9464 19.1658 18.8318 17.0111 27.1815 15.395C22.6026 22.9366 19.2089 40.4978 14.253 50.4096C9.29709 60.3215 16.7669 80.8454 23.68 91.0804C17.4851 90.0031 8.6983 85.925 5.90337 82.7308C2.13256 78.4213 2.40191 68.2945 2.40191 65.2235C2.40191 59.8366 0.516504 54.1804 0.516504 50.4096C0.516504 46.6388 3.20994 40.4439 4.55665 38.0199C5.90337 35.5958 6.92486 28.6306 12.0983 23.7447Z" fill="#F472B6"/>
<mask id="mask0_2681_223" style="mask-type:alpha" maskUnits="userSpaceOnUse" x="0" y="15" width="28" height="77">
<path d="M12.0983 23.7447C16.9464 19.1658 18.8318 17.0111 27.1815 15.395C22.6026 22.9366 19.2089 40.4978 14.253 50.4096C9.29709 60.3215 16.7669 80.8454 23.68 91.0804C17.4851 90.0031 8.6983 85.925 5.90337 82.7308C2.13256 78.4213 2.40191 68.2945 2.40191 65.2235C2.40191 59.8366 0.516504 54.1804 0.516504 50.4096C0.516504 46.6388 3.20994 40.4439 4.55665 38.0199C5.90337 35.5958 6.92486 28.6306 12.0983 23.7447Z" fill="#F472B6"/>
</mask>
<g mask="url(#mask0_2681_223)">
<path d="M5.90315 55.2577C5.90315 33.0638 18.8316 18.8963 25.0265 14.3175L28.7973 16.7416L15.8688 58.7591C18.9214 74.2015 23.6259 103.093 18.0236 95.1204C11.0207 85.1547 5.90315 83 5.90315 55.2577Z" fill="#EC4899"/>
</g>
<path d="M7.25003 60.4932C7.25003 88.0778 21.6001 101.315 39.3019 101.315C57.0036 101.315 65.4281 88.0778 65.4281 60.4932C65.4281 32.9085 57.0036 10.5468 39.3019 10.5468C21.6001 10.5468 7.25003 32.9085 7.25003 60.4932Z" fill="#F9A8D4"/>
<path d="M41.2776 12.6567C41.418 13.0416 41.2197 13.4674 40.8347 13.6078C40.4498 13.7481 40.024 13.5498 39.8837 13.1649L41.2776 12.6567ZM17.1738 4.7068C16.868 6.87043 14.8662 8.37656 12.7026 8.07083C10.539 7.76509 9.03283 5.76328 9.33856 3.59965C9.64429 1.43601 11.6461 -0.0701128 13.8097 0.235619C15.9734 0.541352 17.4795 2.54317 17.1738 4.7068ZM39.8837 13.1649C38.168 8.45864 33.5202 5.29516 28.2335 3.85066C22.9423 2.40492 17.2427 2.74793 13.6218 4.79873L12.8906 3.50772C16.9574 1.20438 23.0904 0.907304 28.6246 2.41943C34.1634 3.93282 39.334 7.32519 41.2776 12.6567L39.8837 13.1649Z" fill="#EC4899"/>
<path d="M61.9786 27.673L57.5274 31.7047L51.7436 31.4187L48.0975 26.9865" stroke="#EC4899" stroke-width="1.4837" stroke-linecap="round"/>
<g filter="url(#filter0_d_2681_223)">
<path d="M54.0639 24.1889C54.0841 23.7797 54.4323 23.4644 54.8415 23.4846C55.2507 23.5049 55.566 23.853 55.5458 24.2622L54.0639 24.1889ZM55.5458 24.2622L55.2979 29.2749L53.816 29.2016L54.0639 24.1889L55.5458 24.2622Z" fill="#EC4899"/>
</g>
<path d="M54.4938 27.713C51.7165 27.8072 49.0913 30.0905 47.1764 34.1217C45.2796 38.1149 44.1871 43.6312 44.3934 49.7171C44.5996 55.8029 46.0629 61.2327 48.2257 65.0883C50.4091 68.9805 53.1829 71.0809 55.9602 70.987C58.7376 70.8929 61.3636 68.6096 63.2786 64.5782C65.1754 60.5851 66.2668 55.0687 66.0606 48.9829C65.8544 42.8971 64.392 37.4672 62.2293 33.6116C60.0458 29.7192 57.2713 27.6189 54.4938 27.713Z" fill="white" stroke="#EC4899" stroke-width="1.4837"/>
<ellipse cx="3.08847" cy="5.40482" rx="3.08847" ry="5.40482" transform="matrix(-0.999426 0.0338659 0.0338659 0.999426 62.3465 44.8953)" fill="#BE185D"/>
<path d="M24.4751 34.9134C26.9022 33.0272 25.8705 29.9603 23.4642 28.9572C23.1123 28.7928 22.134 28.8241 20.8761 29.5844C18.4862 31.0289 17.3167 33.9068 17.0731 34.6869C16.8296 35.467 15.3139 40.515 15.8122 42.5711C16.1754 44.0695 20.9825 43.1147 20.5204 41.2078C20.0582 39.3008 22.0479 36.7996 24.4751 34.9134Z" fill="#FBCFE8"/>
<circle cx="3.7708" cy="3.7708" r="3.7708" transform="matrix(-1 0 0 1 27.1815 44.484)" fill="white"/>
<circle cx="3.7708" cy="3.7708" r="3.7708" transform="matrix(-1 0 0 1 22.872 67.109)" fill="#FBCFE8"/>
<circle cx="2.69343" cy="2.69343" r="2.69343" transform="matrix(-1 0 0 1 37.9551 19.7042)" fill="#FBCFE8"/>
<circle cx="2.15474" cy="2.15474" r="2.15474" transform="matrix(-0.396683 -0.917955 -0.917955 0.396683 37.406 77.7803)" fill="white"/>
<path d="M32.5682 52.0742C30.1612 57.5158 23.7986 59.9758 18.3571 57.5687" stroke="#FBCFE8" stroke-width="11.8696" stroke-linecap="round"/>
<path d="M35.6601 82.9779C31.7076 82.944 28.5309 79.7124 28.5648 75.7599" stroke="#FCE7F3" stroke-width="4.45109" stroke-linecap="round"/>
<defs>
<filter id="filter0_d_2681_223" x="50.8486" y="23.4838" width="7.66546" height="11.7259" filterUnits="userSpaceOnUse" color-interpolation-filters="sRGB">
<feFlood flood-opacity="0" result="BackgroundImageFix"/>
<feColorMatrix in="SourceAlpha" type="matrix" values="0 0 0 0 0 0 0 0 0 0 0 0 0 0 0 0 0 0 127 0" result="hardAlpha"/>
<feOffset dy="2.96739"/>
<feGaussianBlur stdDeviation="1.4837"/>
<feComposite in2="hardAlpha" operator="out"/>
<feColorMatrix type="matrix" values="0 0 0 0 0 0 0 0 0 0 0 0 0 0 0 0 0 0 0.25 0"/>
<feBlend mode="normal" in2="BackgroundImageFix" result="effect1_dropShadow_2681_223"/>
<feBlend mode="normal" in="SourceGraphic" in2="effect1_dropShadow_2681_223" result="shape"/>
</filter>
</defs>
</svg>
