<svg width="113" height="112" viewBox="0 0 113 112" fill="none" xmlns="http://www.w3.org/2000/svg">
<path fill-rule="evenodd" clip-rule="evenodd" d="M53.7102 0.168096C52.3891 0.5371 53.523 1.90608 53.523 1.90608C53.523 1.90608 56.1727 4.94647 56.6223 7.35178C57.0577 9.68128 55.7937 13.3633 55.7937 13.3633L58.4534 12.8362C58.4534 12.8362 59.7174 9.15415 59.282 6.82466C58.8324 4.41934 56.1827 1.37896 56.1827 1.37896C56.1827 1.37896 55.0198 -0.197702 53.7102 0.168096ZM59.5865 111.528C60.9076 111.159 59.7737 109.79 59.7737 109.79C59.7737 109.79 57.124 106.75 56.6744 104.344C56.239 102.015 57.503 98.3327 57.503 98.3327L54.8433 98.8599C54.8433 98.8599 53.5793 102.542 54.0147 104.871C54.4643 107.277 57.1139 110.317 57.1139 110.317C57.1139 110.317 58.2769 111.894 59.5865 111.528ZM2.70637 58.9734C2.70637 58.9734 1.33739 60.1073 0.968389 58.7862C0.602591 57.4766 2.17925 56.3137 2.17925 56.3137C2.17925 56.3137 5.21964 53.664 7.62495 53.2144C9.95445 52.779 13.6365 54.043 13.6365 54.043L14.1636 56.7027C14.1636 56.7027 10.4816 55.4387 8.15207 55.8741C5.74676 56.3237 2.70637 58.9734 2.70637 58.9734ZM112.328 52.9101C111.959 51.589 110.59 52.7229 110.59 52.7229C110.59 52.7229 107.55 55.3726 105.144 55.8222C102.815 56.2576 99.1329 54.9936 99.1329 54.9936L99.66 57.6533C99.66 57.6533 103.342 58.9173 105.672 58.4819C108.077 58.0323 111.117 55.3826 111.117 55.3826C111.117 55.3826 112.694 54.2197 112.328 52.9101ZM16.2958 19.9152C16.2958 19.9152 14.526 19.749 15.1992 18.554C15.8665 17.3693 17.8038 17.6618 17.8038 17.6618C17.8038 17.6618 21.8272 17.9381 23.846 19.321C25.801 20.6603 27.5109 24.1577 27.5109 24.1577L26.0029 26.4111C26.0029 26.4111 24.2931 22.9138 22.338 21.5744C20.3193 20.1915 16.2958 19.9152 16.2958 19.9152ZM98.0974 93.1417C98.7706 91.9466 97.0008 91.7804 97.0008 91.7804C97.0008 91.7804 92.9773 91.5041 90.9586 90.1212C89.0035 88.7819 87.2937 85.2845 87.2937 85.2845L85.7857 87.538C85.7857 87.538 87.4955 91.0353 89.4506 92.3746C91.4693 93.7576 95.4928 94.0338 95.4928 94.0338C95.4928 94.0338 97.43 94.3264 98.0974 93.1417ZM20.7156 96.2019C20.7156 96.2019 20.5494 97.9717 19.3543 97.2985C18.1696 96.6311 18.4621 94.6939 18.4621 94.6939C18.4621 94.6939 18.7384 90.6704 20.1213 88.6517C21.4607 86.6966 24.958 84.9868 24.958 84.9868L27.2114 86.4948C27.2114 86.4948 23.7141 88.2046 22.3748 90.1597C20.9919 92.1784 20.7156 96.2019 20.7156 96.2019ZM93.9422 14.4002C92.7471 13.727 92.5809 15.4968 92.5809 15.4968C92.5809 15.4968 92.3046 19.5203 90.9217 21.539C89.5824 23.4941 86.085 25.2039 86.085 25.2039L88.3385 26.7119C88.3385 26.7119 91.8358 25.0021 93.1751 23.047C94.5581 21.0283 94.8343 17.0048 94.8343 17.0048C94.8343 17.0048 95.1269 15.0676 93.9422 14.4002ZM26.9705 10.6957C26.9705 10.6957 25.3041 10.0771 26.2636 9.09699C27.2149 8.1254 29.0104 8.90934 29.0104 8.90934C29.0104 8.90934 32.8252 10.2176 34.4172 12.0758C35.9591 13.8755 36.7054 17.6962 36.7054 17.6962L34.6656 19.4826C34.6656 19.4826 33.9193 15.6619 32.3774 13.8622C30.7854 12.0039 26.9705 10.6957 26.9705 10.6957ZM87.0326 102.599C87.9922 101.619 86.3257 101 86.3257 101C86.3257 101 82.5108 99.6923 80.9188 97.834C79.377 96.0343 78.6306 92.2136 78.6306 92.2136L76.5908 93.9999C76.5908 93.9999 77.3372 97.8207 78.879 99.6204C80.471 101.479 84.2859 102.787 84.2859 102.787C84.2859 102.787 86.0814 103.571 87.0326 102.599ZM11.4957 85.5258C11.4957 85.5258 10.8771 87.1923 9.89695 86.2327C8.92537 85.2815 9.70931 83.486 9.70931 83.486C9.70931 83.486 11.0175 79.6711 12.8758 78.0791C14.6755 76.5372 18.4962 75.7909 18.4962 75.7909L20.2826 77.8307C20.2826 77.8307 16.4618 78.5771 14.6622 80.1189C12.8039 81.7109 11.4957 85.5258 11.4957 85.5258ZM103.4 25.4632C102.42 24.5036 101.801 26.1701 101.801 26.1701C101.801 26.1701 100.493 29.985 98.6348 31.577C96.8351 33.1188 93.0144 33.8652 93.0144 33.8652L94.8007 35.905C94.8007 35.905 98.6215 35.1587 100.421 33.6168C102.279 32.0248 103.588 28.2099 103.588 28.2099C103.588 28.2099 104.372 26.4145 103.4 25.4632ZM3.73529 44.9059C3.73529 44.9059 2.11948 45.6469 2.10497 44.2753C2.09058 42.9157 3.91452 42.2004 3.91452 42.2004C3.91452 42.2004 7.53709 40.4279 9.97681 40.6162C12.3396 40.7985 15.569 42.9724 15.569 42.9724L15.3898 45.6779C15.3898 45.6779 12.1604 43.504 9.79759 43.3217C7.35787 43.1334 3.73529 44.9059 3.73529 44.9059ZM111.191 67.4212C111.177 66.0497 109.561 66.7906 109.561 66.7906C109.561 66.7906 105.938 68.5631 103.499 68.3748C101.136 68.1925 97.9063 66.0186 97.9063 66.0186L97.7271 68.7241C97.7271 68.7241 100.957 70.898 103.319 71.0804C105.759 71.2686 109.382 69.4962 109.382 69.4962C109.382 69.4962 111.206 68.7809 111.191 67.4212ZM45.7057 108.761C45.7057 108.761 46.4467 110.377 45.0751 110.391C43.7155 110.406 43.0002 108.582 43.0002 108.582C43.0002 108.582 41.2277 104.959 41.416 102.519C41.5983 100.157 43.7722 96.9272 43.7722 96.9272L46.4777 97.1064C46.4777 97.1064 44.3038 100.336 44.1215 102.699C43.9332 105.138 45.7057 108.761 45.7057 108.761ZM68.221 1.30521C66.8495 1.31972 67.5904 2.93554 67.5904 2.93554C67.5904 2.93554 69.3629 6.55811 69.1746 8.99783C68.9923 11.3606 66.8184 14.5901 66.8184 14.5901L69.5239 14.7693C69.5239 14.7693 71.6978 11.5399 71.8802 9.17705C72.0684 6.73733 70.296 3.11476 70.296 3.11476C70.296 3.11476 69.5807 1.29082 68.221 1.30521ZM8.37059 31.5835C8.37059 31.5835 6.61806 31.8811 6.95903 30.5525C7.29703 29.2354 9.24395 29.0166 9.24395 29.0166C9.24395 29.0166 13.2018 28.2421 15.5097 29.0554C17.7448 29.8431 20.3015 32.7788 20.3015 32.7788L19.4282 35.3457C19.4282 35.3457 16.8714 32.41 14.6363 31.6224C12.3285 30.8091 8.37059 31.5835 8.37059 31.5835ZM106.338 81.1432C106.679 79.8146 104.926 80.1121 104.926 80.1121C104.926 80.1121 100.968 80.8866 98.6603 80.0733C96.4252 79.2856 93.8684 76.35 93.8684 76.35L92.9951 78.9169C92.9951 78.9169 95.5518 81.8526 97.7869 82.6402C100.095 83.4535 104.053 82.6791 104.053 82.6791C104.053 82.6791 106 82.4602 106.338 81.1432ZM32.3839 104.126C32.3839 104.126 32.6814 105.878 31.3529 105.538C30.0358 105.2 29.817 103.253 29.817 103.253C29.817 103.253 29.0425 99.2947 29.8558 96.9869C30.6435 94.7518 33.5791 92.195 33.5791 92.195L36.1461 93.0684C36.1461 93.0684 33.2104 95.6251 32.4227 97.8602C31.6094 100.168 32.3839 104.126 32.3839 104.126ZM81.9436 6.15882C80.615 5.81785 80.9125 7.57038 80.9125 7.57038C80.9125 7.57038 81.687 11.5283 80.8737 13.8361C80.086 16.0712 77.1504 18.628 77.1504 18.628L79.7173 19.5013C79.7173 19.5013 82.653 16.9446 83.4406 14.7095C84.2539 12.4016 83.4794 8.44374 83.4794 8.44374C83.4794 8.44374 83.2606 6.49683 81.9436 6.15882ZM5.35247 72.8294C5.35247 72.8294 4.32361 74.279 3.62526 73.0984C2.93298 71.9281 4.15492 70.3967 4.15492 70.3967C4.15492 70.3967 6.40593 67.0504 8.61292 65.9936C10.7503 64.9701 14.634 65.2381 14.634 65.2381L15.8316 67.6707C15.8316 67.6707 11.9479 67.4028 9.81046 68.4263C7.60347 69.4831 5.35247 72.8294 5.35247 72.8294ZM109.67 38.6001C108.971 37.4195 107.942 38.8691 107.942 38.8691C107.942 38.8691 105.691 42.2154 103.484 43.2722C101.347 44.2957 97.4633 44.0278 97.4633 44.0278L98.6608 46.4604C98.6608 46.4604 102.545 46.7284 104.682 45.7049C106.889 44.6481 109.14 41.3018 109.14 41.3018C109.14 41.3018 110.362 39.7704 109.67 38.6001ZM73.6283 107.143C73.6283 107.143 75.0779 108.172 73.8974 108.87C72.7271 109.563 71.1957 108.341 71.1957 108.341C71.1957 108.341 67.8494 106.09 66.7926 103.883C65.7691 101.745 66.037 97.8615 66.037 97.8615L68.4697 96.664C68.4697 96.664 68.2018 100.548 69.2253 102.685C70.2821 104.892 73.6283 107.143 73.6283 107.143ZM39.3992 2.82615C38.2187 3.5245 39.6683 4.55335 39.6683 4.55335C39.6683 4.55335 43.0145 6.80435 44.0714 9.01135C45.0949 11.1488 44.8269 15.0325 44.8269 15.0325L47.2596 13.8349C47.2596 13.8349 47.5275 9.95122 46.504 7.8138C45.4472 5.60681 42.1009 3.3558 42.1009 3.3558C42.1009 3.3558 40.5695 2.13387 39.3992 2.82615ZM47.5771 5.81351C47.5771 5.81351 46.3617 4.66396 47.5537 4.16859C48.7354 3.67753 50.0016 5.01778 50.0016 5.01778C50.0016 5.01778 52.8235 7.55587 53.5178 9.75159C54.1903 11.8781 53.4294 15.4619 53.4294 15.4619L51.0048 16.2576C51.0048 16.2576 51.7657 12.6738 51.0933 10.5473C50.399 8.3516 47.5771 5.81351 47.5771 5.81351ZM65.7425 107.528C66.9346 107.033 65.7192 105.883 65.7192 105.883C65.7192 105.883 62.8972 103.345 62.2029 101.149C61.5305 99.0226 62.2914 95.4388 62.2914 95.4388L59.8669 96.2346C59.8669 96.2346 59.106 99.8184 59.7784 101.945C60.4727 104.141 63.2946 106.679 63.2946 106.679C63.2946 106.679 64.5609 108.019 65.7425 107.528ZM6.61322 64.9201C6.61322 64.9201 5.46367 66.1355 4.9683 64.9434C4.47724 63.7618 5.81749 62.4955 5.81749 62.4955C5.81749 62.4955 8.35558 59.6736 10.5513 58.9793C12.6778 58.3069 16.2616 59.0678 16.2616 59.0678L17.0573 61.4923C17.0573 61.4923 13.4735 60.7314 11.347 61.4038C9.15131 62.0981 6.61322 64.9201 6.61322 64.9201ZM108.328 46.7549C107.832 45.5629 106.683 46.7783 106.683 46.7783C106.683 46.7783 104.145 49.6003 101.949 50.2946C99.8223 50.967 96.2386 50.2061 96.2386 50.2061L97.0343 52.6306C97.0343 52.6306 100.618 53.3915 102.745 52.7191C104.94 52.0248 107.478 49.2028 107.478 49.2028C107.478 49.2028 108.819 47.9366 108.328 46.7549ZM14.8541 26.8816C14.8541 26.8816 13.1819 26.9282 13.6745 25.735C14.1628 24.5522 16.0059 24.6046 16.0059 24.6046C16.0059 24.6046 19.796 24.4038 21.8395 25.4655C23.8187 26.4937 25.8148 29.5658 25.8148 29.5658L24.663 31.8429C24.663 31.8429 22.6669 28.7708 20.6878 27.7426C18.6443 26.6809 14.8541 26.8816 14.8541 26.8816ZM99.622 85.9594C100.115 84.7663 98.4424 84.8128 98.4424 84.8128C98.4424 84.8128 94.6523 85.0136 92.6087 83.9519C90.6296 82.9237 88.6335 79.8515 88.6335 79.8515L87.4818 82.1286C87.4818 82.1286 89.4779 85.2008 91.457 86.229C93.5005 87.2906 97.2907 87.0899 97.2907 87.0899C97.2907 87.0899 99.1337 87.1422 99.622 85.9594ZM27.6823 97.6416C27.6823 97.6416 27.7288 99.3139 26.5356 98.8213C25.3528 98.3329 25.4052 96.4899 25.4052 96.4899C25.4052 96.4899 25.2045 92.6997 26.2661 90.6562C27.2943 88.6771 30.3665 86.681 30.3665 86.681L32.6435 87.8327C32.6435 87.8327 29.5714 89.8288 28.5432 91.8079C27.4815 93.8515 27.6823 97.6416 27.6823 97.6416ZM86.7602 12.8739C85.5671 12.3812 85.6136 14.0535 85.6136 14.0535C85.6136 14.0535 85.8144 17.8436 84.7527 19.8872C83.7245 21.8663 80.6523 23.8624 80.6523 23.8624L82.9294 25.0141C82.9294 25.0141 86.0016 23.0181 87.0298 21.0389C88.0914 18.9954 87.8907 15.2052 87.8907 15.2052C87.8907 15.2052 87.943 13.3622 86.7602 12.8739ZM23.7751 17.0522C23.7751 17.0522 22.1478 16.6643 22.9324 15.6393C23.7102 14.6232 25.4769 15.1508 25.4769 15.1508C25.4769 15.1508 29.1899 15.9379 30.889 17.4923C32.5346 18.9977 33.6675 22.4818 33.6675 22.4818L31.9657 24.3832C31.9657 24.3832 30.8328 20.8991 29.1872 19.3937C27.4881 17.8393 23.7751 17.0522 23.7751 17.0522ZM90.3641 96.0568C91.1487 95.0318 89.5214 94.644 89.5214 94.644C89.5214 94.644 85.8084 93.8569 84.1093 92.3025C82.4637 90.7971 81.3308 87.313 81.3308 87.313L79.6289 89.2144C79.6289 89.2144 80.7619 92.6985 82.4075 94.2039C84.1066 95.7583 87.8195 96.5453 87.8195 96.5453C87.8195 96.5453 89.5862 97.0729 90.3641 96.0568ZM17.8522 88.7213C17.8522 88.7213 17.4644 90.3486 16.4394 89.564C15.4233 88.7861 15.9509 87.0194 15.9509 87.0194C15.9509 87.0194 16.7379 83.3065 18.2923 81.6074C19.7977 79.9618 23.2818 78.8289 23.2818 78.8289L25.1832 80.5307C25.1832 80.5307 21.6991 81.6636 20.1937 83.3092C18.6393 85.0083 17.8522 88.7213 17.8522 88.7213ZM96.8567 22.1323C95.8317 21.3477 95.4439 22.975 95.4439 22.975C95.4439 22.975 94.6568 26.688 93.1024 28.3871C91.597 30.0327 88.1129 31.1656 88.1129 31.1656L90.0143 32.8675C90.0143 32.8675 93.4984 31.7345 95.0038 30.0889C96.5582 28.3898 97.3452 24.6769 97.3452 24.6769C97.3452 24.6769 97.8728 22.9102 96.8567 22.1323ZM5.97056 51.6596C5.97056 51.6596 4.54561 52.536 4.37564 51.2564C4.20715 49.9879 5.82945 49.1117 5.82945 49.1117C5.82945 49.1117 9.01144 47.0428 11.312 46.9405C13.5401 46.8413 16.8049 48.5039 16.8049 48.5039L16.946 51.0517C16.946 51.0517 13.6812 49.3892 11.4531 49.4883C9.15254 49.5907 5.97056 51.6596 5.97056 51.6596ZM108.921 60.439C108.751 59.1593 107.326 60.0358 107.326 60.0358C107.326 60.0358 104.144 62.1047 101.843 62.207C99.615 62.3062 96.3503 60.6436 96.3503 60.6436L96.4914 63.1915C96.4914 63.1915 99.7561 64.854 101.984 64.7549C104.285 64.6526 107.467 62.5837 107.467 62.5837C107.467 62.5837 109.089 61.7075 108.921 60.439ZM52.4602 106.526C52.4602 106.526 53.3366 107.951 52.057 108.121C50.7885 108.289 49.9123 106.667 49.9123 106.667C49.9123 106.667 47.8434 103.485 47.7411 101.184C47.6419 98.9561 49.3045 95.6914 49.3045 95.6914L51.8523 95.5503C51.8523 95.5503 50.1898 98.815 50.2889 101.043C50.3913 103.344 52.4602 106.526 52.4602 106.526ZM61.2394 3.5755C59.9598 3.74547 60.8362 5.17042 60.8362 5.17042C60.8362 5.17042 62.9051 8.35241 63.0075 10.653C63.1066 12.8811 61.4441 16.1458 61.4441 16.1458L63.992 16.0047C63.992 16.0047 65.6545 12.74 65.5554 10.5119C65.453 8.2113 63.3841 5.02932 63.3841 5.02932C63.3841 5.02932 62.5079 3.40701 61.2394 3.5755ZM8.78128 38.6865C8.78128 38.6865 7.17804 39.1643 7.34505 37.8843C7.51061 36.6154 9.30441 36.1889 9.30441 36.1889C9.30441 36.1889 12.9134 35.0141 15.1621 35.5107C17.3399 35.9916 20.0632 38.4424 20.0632 38.4424L19.54 40.94C19.54 40.94 16.8168 38.4892 14.639 38.0082C12.3903 37.5116 8.78128 38.6865 8.78128 38.6865ZM105.951 73.8119C106.118 72.5319 104.515 73.0097 104.515 73.0097C104.515 73.0097 100.906 74.1845 98.6573 73.6879C96.4795 73.207 93.7562 70.7562 93.7562 70.7562L93.2331 73.2537C93.2331 73.2537 95.9563 75.7046 98.1341 76.1855C100.383 76.6821 103.992 75.5072 103.992 75.5072C103.992 75.5072 105.786 75.0808 105.951 73.8119ZM39.4866 103.715C39.4866 103.715 39.9644 105.318 38.6844 105.151C37.4155 104.985 36.9891 103.192 36.9891 103.192C36.9891 103.192 35.8142 99.5826 36.3108 97.3339C36.7917 95.1561 39.2426 92.4329 39.2426 92.4329L41.7401 92.956C41.7401 92.956 39.2893 95.6793 38.8084 97.8571C38.3118 100.106 39.4866 103.715 39.4866 103.715ZM74.6122 6.54469C73.3322 6.37768 73.81 7.98092 73.81 7.98092C73.81 7.98092 74.9848 11.59 74.4882 13.8386C74.0073 16.0165 71.5565 18.7397 71.5565 18.7397L74.054 19.2628C74.054 19.2628 76.5049 16.5396 76.9858 14.3618C77.4824 12.1131 76.3075 8.50405 76.3075 8.50405C76.3075 8.50405 75.8811 6.71025 74.6122 6.54469ZM10.6662 77.5598C10.6662 77.5598 9.87039 79.0313 9.08338 78.0081C8.30321 76.9938 9.27007 75.4238 9.27007 75.4238C9.27007 75.4238 10.9913 72.0411 12.9325 70.8022C14.8125 69.6023 18.4711 69.4097 18.4711 69.4097L19.8673 71.5457C19.8673 71.5457 16.2086 71.7382 14.3286 72.9381C12.3874 74.177 10.6662 77.5598 10.6662 77.5598ZM104.213 33.6877C103.426 32.6645 102.63 34.136 102.63 34.136C102.63 34.136 100.909 37.5187 98.9679 38.7577C97.0879 39.9576 93.4293 40.1501 93.4293 40.1501L94.8254 42.2861C94.8254 42.2861 98.4841 42.0935 100.364 40.8936C102.305 39.6547 104.026 36.272 104.026 36.272C104.026 36.272 104.993 34.702 104.213 33.6877ZM78.3602 101.83C78.3602 101.83 79.8317 102.626 78.8085 103.413C77.7942 104.193 76.2243 103.226 76.2243 103.226C76.2243 103.226 72.8415 101.505 71.6026 99.5637C70.4027 97.6837 70.2102 94.0251 70.2102 94.0251L72.3461 92.629C72.3461 92.629 72.5387 96.2876 73.7386 98.1676C74.9775 100.109 78.3602 101.83 78.3602 101.83ZM34.488 8.28288C33.4648 9.06989 34.9363 9.86571 34.9363 9.86571C34.9363 9.86571 38.319 11.5869 39.558 13.5281C40.7578 15.4081 40.9504 19.0668 40.9504 19.0668L43.0864 17.6706C43.0864 17.6706 42.8938 14.012 41.6939 12.132C40.455 10.1908 37.0723 8.46958 37.0723 8.46958C37.0723 8.46958 35.5023 7.50272 34.488 8.28288Z" fill="#3F6212"/>
<circle cx="57.193" cy="56.1173" r="46.3051" fill="#3F6212"/>
<circle cx="57.193" cy="56.1174" r="37.3709" fill="#65A30D"/>
<circle cx="24.2892" cy="73.7679" r="5.99242" fill="#3F6212"/>
<circle cx="40.4141" cy="67.6669" r="5.99242" fill="#4D7C0F"/>
<circle cx="52.399" cy="35.6341" r="5.99242" fill="#84CC16"/>
<circle cx="43.247" cy="82.0484" r="2.28802" fill="#84CC16"/>
<circle cx="80.9448" cy="73.7682" r="4.03127" fill="#84CC16"/>
<circle cx="72.8822" cy="58.0787" r="7.08195" fill="#4D7C0F"/>
<circle cx="53.4886" cy="56.9891" r="3.37755" fill="#A3E635"/>
<circle cx="31.9158" cy="50.234" r="3.37755" fill="#A3E635"/>
<circle cx="79.6373" cy="39.1207" r="1.41639" fill="#A3E635"/>
<circle cx="62.8585" cy="31.7118" r="2.07011" fill="#4D7C0F"/>
<circle cx="38.8889" cy="25.1747" r="8.6073" fill="#3F6212"/>
<circle cx="65.9093" cy="86.8427" r="11.2222" fill="#3F6212"/>
<circle cx="83.1238" cy="28.8792" r="4.90289" fill="#3F6212"/>
<path d="M89.135 41.0228C91.2552 41.0229 93.4391 42.7463 95.1536 46.1351C96.8393 49.467 97.9114 54.1405 97.9114 59.3578C97.9114 64.575 96.8392 69.2487 95.1536 72.5804C93.4391 75.9689 91.2551 77.6917 89.135 77.6918C87.0149 77.6918 84.83 75.9692 83.1155 72.5804C81.4299 69.2487 80.3577 64.575 80.3577 59.3578C80.3577 54.1406 81.4299 49.4669 83.1155 46.1351C84.8301 42.7462 87.0149 41.0228 89.135 41.0228Z" fill="#ECFCCB" stroke="#3F6212" stroke-width="2.02"/>
<path d="M72.4613 38.1569C74.9817 38.1571 77.5285 40.2009 79.5053 44.108C81.4533 47.9584 82.6879 53.3484 82.6879 59.3571C82.6879 65.3657 81.4533 70.7556 79.5053 74.6061C77.5285 78.5134 74.9818 80.557 72.4613 80.5573C69.9408 80.5573 67.3934 78.5136 65.4164 74.6061C63.4684 70.7556 62.2338 65.3656 62.2338 59.3571C62.2338 53.3484 63.4684 47.9584 65.4164 44.108C67.3933 40.2006 69.9408 38.1569 72.4613 38.1569Z" fill="#ECFCCB" stroke="#3F6212" stroke-width="2.02"/>
<ellipse cx="75.3676" cy="59.9941" rx="3.08101" ry="6.92565" fill="#3F6212"/>
<ellipse cx="92.4043" cy="59.9944" rx="2.35607" ry="5.73157" fill="#3F6212"/>
</svg>
