<svg width="160" height="64" viewBox="0 0 160 64" fill="none" xmlns="http://www.w3.org/2000/svg">
<g clip-path="url(#clip0_1754_113104)">
<path d="M0 0.974854H160V63.026H0V0.974854Z" fill="black"/>
<path d="M93.6537 22.855C91.6416 22.855 90.0612 23.2867 88.4799 24.1483C88.4799 19.5489 88.4799 15.3812 88.6243 13.9443L78.9931 15.6684V16.5308L79.9992 16.6744C81.2916 16.9616 81.7249 17.6796 82.0096 19.4053C82.2993 22.855 82.154 41.2533 82.0096 44.2723C84.5969 44.8475 87.3286 45.2791 90.0603 45.2791C97.6786 45.2791 102.278 40.5353 102.278 33.0606C102.278 27.168 98.5411 22.855 93.6537 22.855ZM90.3475 43.697C89.7723 43.697 89.0526 43.697 88.6227 43.5543C88.4782 41.5422 88.3355 33.0606 88.4782 25.5868C89.3407 25.2987 89.9151 25.1551 90.6347 25.1551C93.7989 25.1551 95.5238 28.8921 95.5238 33.4906C95.523 39.2421 93.3665 43.697 90.3475 43.697ZM42.7693 14.5187H17.4707V15.812L18.9084 15.9556C20.776 16.2428 21.4957 17.3924 21.782 20.1233C22.2145 25.2979 22.0701 34.6419 21.782 39.096C21.4948 41.8277 20.7768 43.1218 18.9084 43.2637L17.4707 43.5526V44.7022H33.7133V43.5526L31.9885 43.2637C30.12 43.121 29.4012 41.8277 29.114 39.096C28.9695 37.2267 28.8259 34.2078 28.8259 30.4717L32.2757 30.6153C34.4322 30.6153 35.4374 32.3401 35.869 34.783H37.1631V24.5807H35.869C35.4365 27.0244 34.4322 28.7485 32.2757 28.7485L28.8268 28.8929C28.8268 24.0055 28.9704 19.4061 29.1148 16.6752H34.145C38.0272 16.6752 40.0392 19.1181 41.4761 23.4311L42.9137 22.9995L42.7693 14.5187Z" fill="white"/>
<path d="M50.9636 22.5678C58.1511 22.5678 61.7444 27.4552 61.7444 33.923C61.7444 40.1037 57.7194 45.2799 50.532 45.2799C43.3453 45.2799 39.752 40.3917 39.752 33.923C39.752 27.7424 43.7761 22.5678 50.9636 22.5678ZM50.532 24.0055C47.3694 24.0055 46.507 28.3176 46.507 33.923C46.507 39.3848 47.9447 43.8406 50.82 43.8406C54.1236 43.8406 54.9877 39.5284 54.9877 33.923C54.9877 28.4612 53.5517 24.0055 50.532 24.0055ZM104.146 34.0675C104.146 28.174 107.883 22.5678 115.214 22.5678C121.25 22.5678 124.126 27.0244 124.126 32.917H110.758C110.613 38.2352 113.201 42.1166 118.376 42.1166C120.676 42.1166 121.826 41.543 123.264 40.5361L123.838 41.2541C122.4 43.2662 119.239 45.2799 115.214 45.2799C108.746 45.2791 104.146 40.6797 104.146 34.0675ZM110.758 31.3366L117.514 31.1921C117.514 28.3176 117.082 24.0055 114.639 24.0055C112.196 24.0055 110.901 28.0296 110.758 31.3366ZM141.234 23.7183C139.509 22.9986 137.209 22.5678 134.622 22.5678C129.305 22.5678 125.997 25.7295 125.997 29.4673C125.997 33.205 128.438 34.7855 131.892 35.9359C135.485 37.2283 136.491 38.2352 136.491 39.9601C136.491 41.6849 135.197 43.2654 132.897 43.2654C130.167 43.2654 128.153 41.6849 126.573 37.3719L125.566 37.6608L125.711 43.985C127.435 44.703 130.597 45.2791 133.329 45.2791C138.935 45.2791 142.529 42.4029 142.529 37.948C142.529 34.9291 140.947 33.205 137.21 31.7665C133.184 30.1861 131.748 29.1801 131.748 27.3108C131.748 25.4423 133.044 24.1482 134.769 24.1482C137.355 24.1482 139.079 25.7295 140.375 29.6109L141.38 29.3237L141.234 23.7183ZM80.4299 23.143C77.987 21.707 73.674 22.4242 71.3748 27.5996L71.5175 22.5686L61.888 24.4371V25.2995L62.894 25.4431C64.1889 25.5876 64.7625 26.3056 64.9069 28.1749C65.1941 31.6246 65.0505 37.6625 64.9069 40.6806C64.7625 42.4038 64.1889 43.2662 62.894 43.4106L61.888 43.5551V44.7047H75.2553V43.5551L73.5304 43.4106C72.0936 43.2662 71.662 42.4038 71.5175 40.6806C71.2303 37.9488 71.2303 32.487 71.3748 29.0373C72.0928 28.0304 75.2553 27.1688 78.1298 29.0373L80.4299 23.143Z" fill="white"/>
</g>
<defs>
<clipPath id="clip0_1754_113104">
<rect width="160" height="62.08" fill="white" transform="translate(0 0.959961)"/>
</clipPath>
</defs>
</svg>
