<svg width="180" height="31" viewBox="0 0 180 31" fill="none" xmlns="http://www.w3.org/2000/svg">
<g clip-path="url(#clip0_1754_113109)">
<path d="M37.7031 10.9751V16.1466C37.7031 17.5688 39.3839 18.7324 41.5817 18.7324H49.339C50.7611 18.7324 51.9247 18.9909 51.9247 19.3788V23.2574C51.9247 23.6453 50.7611 23.9038 49.339 23.9038H37.7031V26.4896H51.9247C54.1226 26.4896 55.8033 25.326 55.8033 23.9038V18.7324C55.8033 17.3102 54.1226 16.1466 51.9247 16.1466H44.1675C42.7453 16.1466 41.5817 15.888 41.5817 15.5002V11.6216C41.5817 11.2337 42.7453 10.9751 44.1675 10.9751H55.8033V8.3894H41.5817C39.3839 8.3894 37.7031 9.55299 37.7031 10.9751ZM141.133 10.9751V16.1466C141.133 17.5688 142.813 18.7324 145.011 18.7324H152.769C154.191 18.7324 155.354 18.9909 155.354 19.3788V23.2574C155.354 23.6453 154.191 23.9038 152.769 23.9038H141.133V26.4896H155.354C157.552 26.4896 159.233 25.326 159.233 23.9038V18.7324C159.233 17.3102 157.552 16.1466 155.354 16.1466H147.597C146.175 16.1466 145.011 15.888 145.011 15.5002V11.6216C145.011 11.2337 146.175 10.9751 147.597 10.9751H159.233V8.3894H145.011C142.813 8.3894 141.133 9.55299 141.133 10.9751ZM168.283 10.9751H179.919V8.3894H165.697C163.499 8.3894 161.819 9.55299 161.819 10.9751V16.1466C161.819 17.5688 163.499 18.7324 165.697 18.7324H173.454C174.877 18.7324 176.04 18.9909 176.04 19.3788V23.2574C176.04 23.6453 174.877 23.9038 173.454 23.9038H161.819V26.4896H176.04C178.238 26.4896 179.919 25.326 179.919 23.9038V18.7324C179.919 17.3102 178.238 16.1466 176.04 16.1466H168.283C166.861 16.1466 165.697 15.888 165.697 15.5002V11.6216C165.697 11.2337 166.861 10.9751 168.283 10.9751ZM72.6106 23.2574C72.6106 23.6453 71.447 23.9038 70.0249 23.9038H64.8534C63.4312 23.9038 62.2676 23.6453 62.2676 23.2574V8.3894H58.389V23.9038C58.389 25.326 60.0698 26.4896 62.2676 26.4896H72.6106C74.8085 26.4896 76.4892 25.326 76.4892 23.9038V8.3894H72.6106V23.2574ZM79.075 10.9751V23.9038C79.075 25.326 80.7557 26.4896 82.9536 26.4896H97.1751V23.9038H85.5393C84.1171 23.9038 82.9536 23.6453 82.9536 23.2574V11.6216C82.9536 11.2337 84.1171 10.9751 85.5393 10.9751H97.1751V8.3894H82.9536C80.7557 8.3894 79.075 9.55299 79.075 10.9751ZM99.7609 10.9751V23.9038C99.7609 25.326 101.442 26.4896 103.639 26.4896H117.861V23.9038H106.225C104.803 23.9038 103.639 23.6453 103.639 23.2574V11.6216C103.639 11.2337 104.803 10.9751 106.225 10.9751H117.861V8.3894H103.639C101.442 8.3894 99.7609 9.55299 99.7609 10.9751ZM120.447 10.9751V23.9038C120.447 25.326 122.128 26.4896 124.325 26.4896H138.547V23.9038H126.911C125.489 23.9038 124.325 23.6453 124.325 23.2574V11.6216C124.325 11.2337 125.489 10.9751 126.911 10.9751H138.547V8.3894H124.325C122.128 8.3894 120.447 9.55299 120.447 10.9751Z" fill="black"/>
<path d="M128.204 16.1467H137.254V18.7325H128.204V16.1467Z" fill="black"/>
<path d="M33.8244 0.632324H9.25989C8.48417 0.632324 7.70845 1.14947 7.57916 1.92519L3.70055 16.1468C3.57127 16.9225 3.95913 17.4396 4.60556 17.4396H13.6556C14.4314 17.4396 15.0778 16.9225 15.3364 16.1468L17.0171 9.68241C17.1464 8.90669 17.9221 8.38954 18.6978 8.38954H31.6265C32.4023 8.38954 33.0487 7.87239 33.3073 7.09667L34.7294 1.92519C34.8587 1.14947 34.4708 0.632324 33.8244 0.632324Z" fill="black"/>
<path d="M30.3342 13.561H19.9912C19.2155 13.561 18.5691 14.0782 18.3105 14.8539L16.6298 21.3183C16.5005 22.094 15.7248 22.6111 14.949 22.6111H3.31321C2.53748 22.6111 1.89105 23.1283 1.63248 23.904L0.210318 29.0755C0.0810315 29.8512 0.468892 30.3683 1.11533 30.3683H26.9727L31.1099 14.8539C31.4978 14.0782 30.9806 13.561 30.3342 13.561Z" fill="black"/>
</g>
<defs>
<clipPath id="clip0_1754_113109">
<rect width="180" height="29.736" fill="white" transform="translate(0 0.63208)"/>
</clipPath>
</defs>
</svg>
