<svg width="161" height="80" viewBox="0 0 161 80" fill="none" xmlns="http://www.w3.org/2000/svg">
<path fill-rule="evenodd" clip-rule="evenodd" d="M26.5285 0.147343C25.3244 0.333782 24.1528 0.918733 23.551 1.63386C21.889 3.60907 22.8242 6.92037 25.2785 7.75071C25.9078 7.96369 25.967 7.77765 25.4222 7.29824C24.5674 6.5457 24.6446 5.36213 25.5802 4.87833C26.1575 4.57977 26.7327 4.6869 30.8946 5.86838C35.4342 7.15708 35.5271 7.18172 36.176 7.2709L36.6498 7.33604V14.258V21.1801L36.2758 21.2855C34.9102 21.6702 33.3442 21.6575 31.7366 21.2487C30.7301 20.9927 29.5351 20.4386 29.5958 20.2561C29.615 20.1989 30.3667 19.68 31.2665 19.103C33.1007 17.9267 33.8873 17.2144 34.3162 16.3408L34.6049 15.7529L34.6349 11.6381C34.6515 9.37489 34.6425 7.52328 34.615 7.52328C34.5874 7.52328 32.9358 8.55692 30.9448 9.82019C28.9537 11.0835 27.31 12.0729 27.292 12.019C27.2741 11.9652 27.3298 11.6458 27.416 11.3094C27.9251 9.32192 29.049 7.54233 30.2989 6.74421C30.5651 6.57413 30.7071 6.41552 30.6864 6.31108C30.6571 6.16305 30.5711 6.17162 29.8422 6.39547C26.8769 7.30612 24.5495 9.15284 23.2342 11.6388C22.4208 13.1759 22.0746 14.5722 22.0762 16.3099C22.0786 18.9311 22.9569 21.2874 24.5738 23.0104C26.2658 24.8136 28.2989 25.6673 31.3118 25.8401C35.9351 26.1053 39.4737 23.2582 40.7947 18.2109C41.0986 17.0492 41.1066 16.8003 40.8395 16.8003C40.7297 16.8003 40.64 16.8517 40.64 16.9145C40.64 16.9774 40.4822 17.3567 40.2894 17.7576C39.6845 19.0152 38.589 20.1997 37.5227 20.7491L37.0489 20.9933V14.1743V7.35519L37.859 7.19559C39.3959 6.89284 40.4787 6.13332 41.0608 4.94965C41.3515 4.35881 41.3873 4.19462 41.3811 3.48308C41.369 2.09931 40.6992 1.00831 39.5117 0.438024C38.774 0.0839005 37.9965 -0.00557803 36.9657 0.145149C35.9907 0.287696 35.8755 0.480718 36.7071 0.578476C38.0188 0.732594 38.7122 1.35176 38.3439 2.04006C38.2882 2.1443 38.0646 2.27747 37.8473 2.33602C37.3831 2.46101 37.5134 2.49104 33.3511 1.30019C31.7288 0.836038 30.0679 0.388646 29.6602 0.305851C28.6723 0.105248 27.2614 0.0339243 26.5285 0.147343ZM49.3185 0.548949C45.8679 0.841125 44.053 1.96993 43.1749 4.36989C42.9964 4.85758 42.9376 4.93968 42.8808 4.78007C42.725 4.34265 42.3497 3.57196 42.2007 3.38353C42.0477 3.19011 42.0428 3.1935 42.0397 3.49256C42.0379 3.66234 42.1219 4.04928 42.2261 4.35243C42.7044 5.74249 42.7348 6.30539 42.7348 13.7786C42.7348 21.4595 42.7448 21.3236 42.1546 21.6288C41.9914 21.7132 41.6715 21.8121 41.4438 21.8485C40.8576 21.9422 40.9542 22.143 41.7457 22.4763C42.7482 22.8986 43.4945 23.4308 44.4867 24.4314L45.3908 25.3431L46.1327 24.6458C46.8845 23.9391 48.3787 22.7818 49.2435 22.2363C49.514 22.0658 49.7172 21.8627 49.7173 21.763C49.7175 21.5541 49.6479 21.5497 49.3185 21.7381C48.9759 21.9339 48.4859 21.9227 48.2273 21.7131C48.1088 21.6172 47.9702 21.359 47.9194 21.1396C47.8686 20.9201 47.8259 18.645 47.8246 16.084L47.8222 11.4273L48.5828 10.8719C49.6595 10.0855 50.2141 10.1037 50.5783 10.9369C50.7521 11.3344 50.7671 11.7541 50.7963 17.0497C50.8301 23.1623 50.7453 25.3579 50.4121 26.9931C49.9119 29.4474 48.8168 30.9663 46.7863 32.0219C45.9215 32.4715 45.9954 32.4057 46.0747 32.6552C46.1374 32.853 46.2079 32.8286 47.4055 32.1957C52.673 29.4118 54.528 27.4857 55.403 23.8918C55.8009 22.2576 55.8487 21.4245 55.8506 16.102C55.8525 10.5126 55.8407 10.3765 55.2572 9.22616C54.9985 8.71642 54.0062 7.29255 53.674 6.95469L53.4582 6.73513L50.6651 8.77977L47.872 10.8243L47.8431 8.00169C47.799 3.70922 47.9864 2.56236 48.8638 1.75357C49.3908 1.26777 50.0845 1.03933 51.0324 1.03933H51.7125V0.740076V0.440817L50.9893 0.454782C50.5916 0.462463 49.8397 0.504858 49.3185 0.548949ZM63.1811 8.05466C61.5061 8.77737 59.9037 9.51774 59.6203 9.69989C58.5788 10.3691 58.0292 11.2334 57.7276 12.6761C57.5999 13.2872 57.563 14.0594 57.559 16.2018C57.5543 18.7216 57.5714 19.0075 57.7699 19.7128C58.475 22.2173 59.9576 23.7045 63.0283 24.9875L63.9982 25.3928L64.5138 24.9067C65.2348 24.2273 66.2487 23.4347 68.5739 21.7334C70.3208 20.4551 70.5628 20.2458 70.4378 20.1208C70.3128 19.9959 70.2202 20.0245 69.7247 20.3415C69.4115 20.5418 68.8778 20.837 68.5389 20.9974C66.6588 21.8868 64.0454 20.742 62.9933 18.5683C62.4219 17.3876 62.0737 17.7542 66.3204 15.0657C68.3811 13.7611 70.0643 12.6638 70.0608 12.6272C70.047 12.4827 66.4196 6.7891 66.3263 6.76565C66.2715 6.75189 64.8561 7.33195 63.1811 8.05466ZM64.2312 11.8667C65.1102 13.4604 65.7653 14.7548 65.7162 14.8004C65.6677 14.8451 64.9245 15.3323 64.0647 15.8831C62.8603 16.6544 62.488 16.8499 62.4437 16.7344C62.2862 16.324 62.424 8.86984 62.5872 8.97069C62.6263 8.99483 63.3661 10.2981 64.2312 11.8667ZM29.6932 19.6557C29.2867 19.9699 29.0605 19.9417 28.7049 19.5326C28.154 18.8991 27.4842 17.4313 27.2681 16.3838C27.0734 15.44 26.9932 12.9791 27.1499 12.7555C27.1902 12.6981 27.8067 12.2806 28.52 11.8279L29.8168 11.0049L29.8428 15.2624C29.867 19.2272 29.8568 19.5292 29.6932 19.6557ZM5.41738 26.2428C4.86335 26.8149 2.85204 28.5915 1.27464 29.902C0.234318 30.7662 0.0800997 30.9315 0.173668 31.0814C0.274818 31.2433 0.305841 31.238 0.612082 31.0044C0.793333 30.8662 1.14466 30.6632 1.39275 30.5534C1.76712 30.3879 1.90029 30.3724 2.17451 30.463C2.59966 30.6032 2.88246 30.9092 3.10271 31.4668C3.26362 31.8741 3.28107 32.4639 3.30422 38.2472L3.32945 44.5815L2.71378 44.8808C1.14626 45.6427 0.325592 47.1481 0.556719 48.8379C0.668343 49.6542 0.9685 50.2562 1.55834 50.8467C2.04035 51.3291 2.9885 51.8399 3.60667 51.9503C3.8747 51.9981 3.93086 51.9767 3.93086 51.8269C3.93086 51.7023 3.80787 51.6088 3.53724 51.5277C2.79398 51.3051 2.47547 50.5619 2.78071 49.7627C3.08356 48.9694 3.97565 48.5001 5.17778 48.5013C6.46439 48.5026 7.6296 49.1716 8.57905 50.4546L9.06156 51.1063L10.1123 50.037C10.6901 49.4489 11.6244 48.5511 12.1885 48.0418L13.214 47.1159L15.0814 48.384C16.1083 49.0815 17.4111 49.9849 17.9763 50.3917L19.0039 51.1314L20.0764 50.1008C20.9559 49.2558 21.4171 48.9101 22.6398 48.1796C25.6305 46.3928 26.791 45.4967 27.3534 44.5399L27.6222 44.0827L27.6721 38.1474L27.7219 32.2121L27.9713 31.7185C28.3 31.0678 28.8235 30.6579 29.4103 30.5918C30.0977 30.5142 30.0134 30.2971 29.0142 29.5712C27.6752 28.5983 26.3814 27.3117 25.3051 25.8828C25.2866 25.8582 24.7903 26.3167 24.2024 26.902C23.6144 27.4871 22.4151 28.5273 21.5373 29.2133L19.9412 30.4606L19.9145 28.1692C19.8886 25.9623 19.8804 25.8778 19.6904 25.8778C19.4955 25.8778 19.493 25.9918 19.4679 35.8082L19.4424 45.7386L18.8214 45.2099L18.2004 44.6813L18.1968 37.1499C18.1928 28.9677 18.2032 29.1341 17.6278 27.9905C17.3403 27.4188 16.2463 26.2357 15.7768 25.9888C15.5182 25.8526 15.4953 25.8684 14.458 26.9059C13.4852 27.8786 10.6238 30.3667 10.478 30.3667C10.4432 30.3667 10.4148 29.3343 10.4148 28.0724C10.4148 25.8446 10.409 25.7781 10.2153 25.7781C10.0172 25.7781 10.0158 25.8446 10.0158 35.493V45.2081L9.3689 44.9446L8.7221 44.6813L8.71931 37.1998C8.71641 29.0716 8.72659 29.2347 8.15131 28.0892C7.84088 27.471 7.01952 26.582 6.31516 26.102L5.85659 25.7894L5.41738 26.2428ZM67.64 26.2859C64.9672 26.5063 62.9292 27.2833 61.8053 28.5105C61.3307 29.0287 60.9227 29.8131 60.8267 30.3916C60.7925 30.5974 60.7366 30.765 60.7025 30.7642C60.6684 30.7634 60.5341 30.4829 60.4042 30.1408C60.146 29.461 59.6651 28.6153 59.2143 28.048C58.9499 27.7154 58.9125 27.6984 58.7664 27.8446C58.6201 27.9907 58.635 28.0369 58.9431 28.397C59.5816 29.1428 60.2734 30.7997 60.5502 32.2459C60.7384 33.2288 60.7471 46.2826 60.56 46.8166C60.4032 47.2641 60.0211 47.5342 59.4548 47.598C58.7883 47.6731 58.833 47.9196 59.5681 48.223C60.6235 48.6586 61.3314 49.1472 62.3249 50.1254L63.311 51.0965L64.1904 50.3203C65.1748 49.4515 66.241 48.6319 67.0994 48.0837C67.415 47.8823 67.673 47.6516 67.673 47.571C67.673 47.3905 67.6286 47.3906 67.1062 47.5727C66.7958 47.6809 66.6142 47.692 66.3968 47.6162C65.8304 47.4188 65.8302 47.4164 65.7992 42.082L65.7706 37.1883L66.4913 36.6675C67.2892 36.091 67.5796 35.9807 67.9511 36.1131C68.3387 36.2512 68.5718 36.652 68.6733 37.3547C68.7967 38.2082 68.7939 48.3816 68.6698 50.1988C68.3896 54.3034 67.241 56.4147 64.5226 57.822C63.7467 58.2237 63.692 58.2719 63.8169 58.4426C63.945 58.6179 64.0201 58.5919 65.239 57.9479C70.2318 55.31 72.1321 53.424 73.1929 50.0538C73.7376 48.3236 73.8033 47.4474 73.8056 41.8882C73.808 36.3092 73.8042 36.2654 73.2042 35.0052C72.8468 34.2546 71.5633 32.4928 71.4082 32.54C71.3564 32.5558 70.1056 33.4536 68.6286 34.5351C67.1518 35.6166 65.9061 36.5165 65.8605 36.5347C65.7383 36.5838 65.7598 30.61 65.885 29.7089C66.1725 27.6419 67.089 26.7756 68.988 26.7756H69.6681V26.4763C69.6681 26.1801 69.6629 26.1772 69.1444 26.1911C68.8563 26.1987 68.1794 26.2414 67.64 26.2859ZM78.3797 26.3567C77.2556 26.7561 76.694 27.5217 76.7686 28.5532C76.7912 28.8664 76.9075 29.324 77.027 29.5701C77.2723 30.0751 78.0347 31.017 78.5201 31.4146L78.8432 31.6794L79.3987 31.3615C80.1257 30.9456 81.0976 30.0393 81.3661 29.527C81.803 28.6935 81.5896 27.5345 80.8745 26.8557C80.2579 26.2706 79.2115 26.0613 78.3797 26.3567ZM123.224 28.9452C122.408 31.3436 121.083 33.6651 119.938 34.699C119.346 35.2343 118.413 35.8152 117.842 36.0048C117.48 36.1251 117.35 36.219 117.35 36.3599C117.35 36.5346 117.429 36.5514 118.252 36.5514H119.154L119.125 41.5976L119.096 46.6439L118.803 46.8952C118.547 47.116 118.44 47.1415 117.931 47.1046C117.397 47.066 117.35 47.0792 117.351 47.2685C117.351 47.4324 117.473 47.5121 117.946 47.6596C119.163 48.0388 120.984 49.4283 122.005 50.7568L122.305 51.1465L125.109 48.662C127.384 46.6468 127.889 46.1533 127.787 46.0494C127.684 45.9451 127.55 45.9873 127.073 46.2749C125.722 47.0885 124.906 47.0039 124.469 46.0049C124.298 45.6135 124.28 45.2137 124.253 41.0652L124.223 36.5514H125.974H127.724V35.6536V34.7558H125.979H124.233V31.2146V27.6734H123.945C123.664 27.6734 123.644 27.7089 123.224 28.9452ZM12.3519 30.5912C12.6854 30.8876 12.8072 31.6744 12.8081 33.5389C12.809 35.1247 12.7227 35.4385 12.2137 35.7018C11.6139 36.0119 10.8485 35.804 10.564 35.2538C10.4381 35.0104 10.4154 34.6037 10.4376 32.9911L10.4647 31.0251L10.8964 30.6959C11.4306 30.2886 11.9681 30.2499 12.3519 30.5912ZM21.8313 30.5912C22.1809 30.8985 22.2854 31.5516 22.2854 33.4277C22.2854 35.1332 22.2065 35.4349 21.6902 35.7018C21.0924 36.0109 20.3252 35.8041 20.0427 35.2579C19.9229 35.0262 19.8913 34.5674 19.8913 33.0551V31.145L20.2137 30.8438C20.7857 30.3095 21.4016 30.2133 21.8313 30.5912ZM58.0635 31.73C58.0269 31.7665 57.997 31.9591 57.997 32.1578C57.997 32.6755 57.6153 33.3605 57.1491 33.6797C56.6325 34.0334 55.7426 34.2571 54.8519 34.2571C53.608 34.2571 52.6103 33.8462 51.6493 32.9382L51.1372 32.4544L50.868 32.9137C50.4317 33.6582 49.4105 34.6604 47.8438 35.8817C45.5961 37.6337 44.8432 38.5069 44.4755 39.7884C44.2408 40.6059 44.3204 41.7296 44.6667 42.4858C44.9831 43.177 45.8663 44.0752 46.675 44.5281C47.0042 44.7126 47.29 44.8763 47.31 44.892C47.4427 44.9957 45.3458 48.4507 44.3425 49.7815C44.0674 50.1465 44.0496 50.2081 44.1866 50.3218C44.3177 50.4306 44.3869 50.3945 44.6442 50.0823C45.0818 49.5515 45.4026 49.4192 46.2461 49.4217C47.5799 49.4256 49.8401 50.0595 51.5933 50.9212C52.1252 51.1827 52.5622 51.3894 52.5644 51.3807C52.5666 51.3719 52.8322 51.0056 53.1546 50.5667C53.7285 49.7853 55.2961 48.1676 57.2143 46.3771C58.7781 44.9174 59.2517 43.9097 59.177 42.2005C59.1273 41.0642 58.8186 40.3544 58.0321 39.5667C57.5267 39.0608 56.4551 38.4469 56.0767 38.4468C55.6589 38.4466 56.0022 37.7643 56.9301 36.7509C58.1338 35.4365 58.5806 34.2756 58.4641 32.7653C58.3879 31.7764 58.2844 31.5091 58.0635 31.73ZM37.398 32.9292C36.064 33.908 33.9577 35.0235 31.8907 35.8457C30.4525 36.4179 29.649 37.174 29.5164 38.0802C29.4829 38.3092 29.4694 40.6512 29.4865 43.2847L29.5175 48.0729L29.7969 48.6418C30.257 49.5787 32.3518 51.3187 32.7067 51.0587C32.7765 51.0076 33.2478 50.6066 33.7537 50.1677C34.6896 49.3559 37.3365 47.3247 37.4584 47.3247C37.4952 47.3247 37.5566 47.491 37.5947 47.6941C37.7555 48.5513 38.4642 49.5003 39.6548 50.4529C40.1102 50.8173 40.5069 51.115 40.5364 51.1147C40.5659 51.1144 41.039 50.703 41.5876 50.2006C42.4835 49.38 44.0151 48.1109 44.7606 47.5714C44.9524 47.4325 45.0196 47.3163 44.9751 47.2004C44.9165 47.0474 44.8651 47.0547 44.4244 47.2779C43.9133 47.5369 43.4443 47.5907 43.1359 47.4256C43.0345 47.3714 42.8691 47.1132 42.7684 46.852C42.6005 46.417 42.5851 46.0083 42.5851 41.9835C42.5851 37.9169 42.5985 37.5697 42.7651 37.3154C43.0064 36.9471 43.4593 36.6849 43.992 36.605C44.3368 36.5532 44.4306 36.4978 44.4306 36.3458C44.4306 36.2251 44.3621 36.1524 44.2485 36.1524C43.9524 36.1524 42.6594 35.6826 41.794 35.2608C40.6628 34.7092 39.5251 33.935 38.7012 33.1561L37.9965 32.49L37.398 32.9292ZM76.9562 34.3197C74.3009 36.491 74.4848 36.3207 74.6348 36.4706C74.7265 36.5624 74.8444 36.5381 75.154 36.3642C75.6258 36.099 76.1037 36.0613 76.315 36.2726C76.398 36.3557 76.5064 36.5982 76.556 36.8116C76.6055 37.0251 76.6471 39.4909 76.6484 42.2912C76.651 47.8307 76.6719 48.0761 77.2218 49.0205C77.5509 49.586 78.6451 50.7306 79.0808 50.9652L79.4109 51.143L81.6469 49.2687C84.4206 46.9437 84.3015 47.0551 84.1631 46.9166C84.0815 46.835 83.9506 46.8744 83.6699 47.0652C83.128 47.4333 82.5482 47.4217 82.1139 47.0337L81.7881 46.7427L81.7576 42.1209C81.7373 39.0349 81.7627 37.3771 81.8342 37.1324C81.9823 36.6251 82.4173 36.2872 83.0308 36.2029C83.7302 36.1066 83.7069 35.8796 82.9602 35.5146C82.0984 35.0934 81.1963 34.4171 80.1421 33.4021L79.1945 32.4896L76.9562 34.3197ZM86.0774 34.4732C84.8704 35.5747 83.8724 36.504 83.8595 36.5385C83.8468 36.573 83.8751 36.6626 83.9225 36.7376C83.992 36.8474 84.0838 36.823 84.3929 36.6129C84.8045 36.3333 85.3843 36.2675 85.7434 36.4597C85.8541 36.519 86.0298 36.7547 86.1336 36.9834C86.3099 37.3716 86.3225 37.6989 86.324 41.8882C86.3251 44.664 86.2865 46.5181 86.2231 46.7466C86.0736 47.2847 85.7174 47.5242 85.0664 47.5242C84.6131 47.5242 84.5313 47.5523 84.5313 47.708C84.5313 47.8379 84.6553 47.9283 84.9552 48.0169C86.1105 48.3583 87.3894 49.2861 88.4324 50.5394L88.915 51.1192L89.1591 50.6375C89.7323 49.5065 90.8761 48.4361 91.9078 48.065C92.2598 47.9385 92.4118 47.8296 92.4118 47.704C92.4118 47.5924 92.3381 47.5242 92.2178 47.5242C92.1111 47.5242 91.8979 47.4159 91.744 47.2835L91.4641 47.0428L91.4365 42.0629L91.4089 37.083L92.1208 36.6096C93.0178 36.0132 93.3706 35.9431 93.7659 36.2831L94.0577 36.5338L94.1158 42.054C94.1588 46.1258 94.2075 47.6787 94.3017 47.9731C94.4962 48.5808 94.848 49.2291 95.2795 49.7745C95.7457 50.3638 96.745 51.1581 96.9307 51.0869C97.0311 51.0483 101.222 47.5804 101.734 47.1121C101.793 47.0578 101.787 46.9845 101.718 46.9155C101.638 46.8353 101.505 46.876 101.226 47.0652C100.681 47.4359 100.029 47.4277 99.6628 47.0452C99.2253 46.5885 99.1801 46.0256 99.2139 41.4594C99.2409 37.8291 99.2661 37.2528 99.4115 36.9321C99.6032 36.5095 99.9467 36.3012 100.618 36.2006C101.194 36.1142 101.266 35.8569 100.764 35.6757C99.8764 35.3546 98.0247 33.8112 97.2455 32.7425L97.0503 32.4749L94.2572 34.5226L91.4641 36.5704L91.3879 36.0464C91.2045 34.7871 90.3631 33.6851 88.936 32.8356C88.5904 32.6299 88.2995 32.4636 88.2898 32.4661C88.28 32.4686 87.2844 33.3718 86.0774 34.4732ZM110.058 32.8245C109.265 33.6505 107.578 34.6177 104.935 35.7623C103.574 36.3517 102.805 36.8864 102.511 37.4492L102.277 37.8981L102.311 42.8857C102.349 48.4484 102.332 48.3012 103.061 49.2627C103.431 49.7501 104.501 50.6336 105.133 50.9742L105.462 51.1511L106.643 50.1513C107.79 49.1797 109.821 47.6101 110.177 47.4196C110.333 47.336 110.36 47.3904 110.416 47.8986C110.586 49.4497 110.86 50.1868 111.788 51.5922C112.83 53.1702 113.003 53.5929 113.005 54.5568C113.007 55.1811 112.956 55.468 112.774 55.8749C112.122 57.328 110.179 58.1992 107.874 58.0721C106.706 58.0078 106.178 57.8168 106.178 57.4586C106.178 57.2431 106.25 57.1866 106.693 57.0548C107.591 56.7884 107.988 56.432 108.166 55.7346C108.324 55.1127 108.297 54.7195 108.06 54.2302C107.355 52.7753 104.517 52.4392 103.371 53.6748C102.881 54.2029 102.758 54.5733 102.808 55.3624C102.931 57.2713 104.529 58.2891 107.888 58.5982C109.95 58.7878 111.784 58.5093 113.406 57.7603C115.906 56.6052 117.271 54.7354 117.275 52.462C117.277 51.4006 117.064 50.7399 116.452 49.9079C116.234 49.6119 115.92 49.17 115.755 48.9261L115.455 48.4826L115.455 42.9908C115.455 37.7289 115.464 37.4858 115.649 37.1812C115.879 36.8045 116.059 36.6981 116.627 36.6041C116.949 36.5507 117.051 36.4892 117.051 36.3476C117.051 36.211 116.951 36.1432 116.677 36.0932C115.012 35.7899 112.613 34.4924 111.005 33.0265L110.397 32.4715L110.058 32.8245ZM138.336 32.6739C137.981 33.0669 136.51 33.9706 135.683 34.304C134.099 34.9428 132.575 35.2425 130.492 35.325L129.021 35.3834L129.02 40.4313C129.02 43.4649 128.98 45.6215 128.921 45.8358C128.804 46.257 128.462 46.6066 128.062 46.7135C127.877 46.7629 127.774 46.8561 127.774 46.9737C127.774 47.1138 127.962 47.2202 128.572 47.4259C130.202 47.9752 132.052 49.0461 133.742 50.4178C134.227 50.811 134.633 51.1176 134.646 51.0991C134.659 51.0806 134.815 50.8332 134.993 50.5494C135.544 49.6703 136.478 48.9335 137.503 48.5693C137.748 48.4823 138.373 48.2978 138.891 48.1594C141.222 47.5365 141.727 46.8545 141.999 43.9591C142.156 42.2852 142.059 37.7497 141.846 36.8008C141.586 35.6466 141.065 34.7165 140.2 33.8603C139.783 33.4476 139.235 32.9654 138.982 32.7887L138.523 32.4675L138.336 32.6739ZM144.491 34.4669C143.28 35.5687 142.288 36.5073 142.288 36.5526C142.288 36.5978 142.316 36.7061 142.349 36.7933C142.4 36.9255 142.467 36.9019 142.752 36.6518C143.366 36.1126 144.241 36.2877 144.543 37.0102C144.76 37.5303 144.747 46.5104 144.528 46.9716C144.342 47.3642 144.024 47.5242 143.431 47.5242C143.07 47.5242 142.986 47.5578 142.986 47.7031C142.986 47.8316 143.147 47.9364 143.555 48.0753C144.614 48.4351 145.807 49.3208 146.736 50.4365L147.31 51.1253L147.652 50.4784C148.142 49.5503 149.043 48.6868 149.991 48.2381C150.836 47.8382 150.99 47.5891 150.465 47.4736C149.813 47.3304 149.822 47.4084 149.795 41.9924L149.77 37.1L150.411 36.6702C151.527 35.9214 152.006 35.8736 152.337 36.478C152.497 36.7722 152.517 37.286 152.563 42.2872C152.611 47.5916 152.62 47.7924 152.827 48.339C153.114 49.0972 153.521 49.668 154.267 50.3591C155.3 51.3152 154.996 51.4239 157.74 49.1163C159.829 47.3596 160.382 46.8161 160.069 46.829C160.028 46.8307 159.815 46.9428 159.595 47.0779C159.127 47.3663 158.504 47.4028 158.161 47.162C157.665 46.8148 157.65 46.6626 157.65 41.848C157.65 38.9128 157.687 37.2653 157.757 37.0816C157.941 36.5945 158.247 36.3601 158.864 36.2326C159.659 36.0684 159.625 35.8959 158.707 35.4243C157.821 34.9698 156.814 34.1437 156.068 33.2595C155.767 32.9029 155.484 32.5963 155.439 32.578C155.394 32.5599 154.127 33.4464 152.624 34.5482C151.121 35.6499 149.864 36.5514 149.83 36.5514C149.797 36.5514 149.77 36.3735 149.77 36.1562C149.77 35.6052 149.426 34.7434 148.981 34.1811C148.653 33.7661 147.549 32.9108 146.91 32.5765C146.713 32.4733 146.503 32.6377 144.491 34.4669ZM135.614 35.9077C135.866 36.0353 136.212 36.2989 136.383 36.4937C136.98 37.174 137.001 37.3856 137.001 42.6046C137.001 45.2007 136.978 47.3247 136.951 47.3247C136.923 47.3247 136.576 47.0524 136.179 46.7195C135.783 46.3866 135.156 45.9266 134.788 45.697L134.117 45.2798L134.113 40.3225L134.108 35.3651L134.632 35.5204C134.92 35.6059 135.362 35.7802 135.614 35.9077ZM35.6557 36.3671C36.0141 36.6665 36.5628 37.0661 36.8748 37.2551L37.4422 37.5988L37.4451 42.1586L37.4479 46.7183L36.69 47.2787C35.8941 47.8674 35.4281 48.0238 35.059 47.8263C34.563 47.5608 34.555 47.4562 34.555 41.2256V35.4193L34.7795 35.621C34.903 35.7318 35.2972 36.0676 35.6557 36.3671ZM10.9109 36.0822C11.3852 36.4091 12.4378 36.2305 12.7011 35.7783C12.7738 35.6536 12.8037 36.0019 12.8059 36.9976C12.8087 38.2886 12.7974 38.375 12.6532 38.1691C12.4472 37.8749 11.9945 37.6487 11.6118 37.6487C11.2292 37.6487 10.7765 37.8749 10.5705 38.1691C10.4263 38.375 10.415 38.2885 10.418 36.9976C10.4205 35.8836 10.4455 35.6347 10.5427 35.758C10.6095 35.8427 10.7752 35.9887 10.9109 36.0822ZM20.3874 36.0822C20.8617 36.4091 21.9143 36.2305 22.1777 35.7783C22.2503 35.6536 22.2802 36.0019 22.2824 36.9976C22.2852 38.2886 22.2739 38.375 22.1297 38.1691C21.9237 37.8749 21.471 37.6487 21.0884 37.6487C20.7057 37.6487 20.253 37.8749 20.0471 38.1691C19.9028 38.375 19.8915 38.2885 19.8945 36.9976C19.897 35.8836 19.9221 35.6347 20.0192 35.758C20.0861 35.8427 20.2517 35.9887 20.3874 36.0822ZM48.8325 36.2195C48.9077 36.3114 49.306 36.6555 49.7175 36.9843C50.5902 37.6818 51.7995 38.2789 52.6901 38.4521C53.4749 38.6048 54.5051 38.5171 55.0405 38.2523C55.2616 38.143 55.4606 38.0715 55.4827 38.0937C55.5978 38.2089 54.8672 39.2827 54.2531 39.9011C52.1431 42.0256 49.679 41.7593 48.4506 39.2739C48.1197 38.6043 48.076 38.4255 48.0448 37.6123C48.0148 36.829 48.0385 36.6555 48.2138 36.3768C48.4404 36.0165 48.627 35.969 48.8325 36.2195ZM108.459 36.6973C108.992 37.052 109.639 37.4356 109.897 37.5499L110.367 37.7578V42.2197V46.6815L109.649 47.2187C109.255 47.514 108.807 47.8027 108.656 47.86C108.234 48.0193 107.859 47.8427 107.624 47.3741C107.433 46.9924 107.423 46.7441 107.395 41.5141C107.379 38.5102 107.393 36.0526 107.428 36.0526C107.462 36.0526 107.927 36.3428 108.459 36.6973ZM12.4858 38.4902L12.8111 38.8452L12.785 42.8997L12.759 46.9541L12.4729 47.1643C12.1878 47.3738 12.1863 47.3738 12.0747 47.1751C12.013 47.0654 11.6143 46.628 11.1887 46.2033L10.4148 45.4309L10.4163 42.2132C10.4179 38.6856 10.4202 38.6701 11.0148 38.2665C11.5102 37.9303 12.0475 38.0119 12.4858 38.4902ZM21.9611 38.489L22.2854 38.8428V43.4827C22.2854 46.0347 22.2517 48.1211 22.2106 48.119C22.1695 48.1171 21.642 47.6768 21.0385 47.1407L19.9412 46.166L19.9171 42.5807C19.8905 38.6448 19.8863 38.6773 20.4914 38.2665C20.9862 37.9306 21.524 38.012 21.9611 38.489ZM53.6667 42.2637C53.946 42.4068 54.3229 42.6929 54.5043 42.8995C55.2285 43.7243 55.6904 45.2815 55.5501 46.4251C55.4735 47.049 55.2303 47.7237 55.082 47.7237C55.0269 47.7237 54.5874 47.5014 54.1053 47.2296C52.2105 46.1615 50.1799 45.4786 48.5454 45.3598C48.0449 45.3235 47.7224 45.2566 47.7224 45.1893C47.7224 44.9475 48.5582 43.8199 49.1295 43.291C50.1739 42.324 51.1551 41.9234 52.3609 41.9718C52.9816 41.9966 53.2718 42.0616 53.6667 42.2637ZM90.4666 54.1756C90.302 54.1937 89.9317 54.2339 89.6436 54.2651C88.959 54.3392 88.9299 54.5688 89.5937 54.6586C90.6204 54.7973 91.1255 55.0483 91.3192 55.5156C91.4281 55.7787 91.4187 55.8501 91.2448 56.0844C90.8223 56.6537 90.648 56.6333 86.898 55.5732C85.0203 55.0424 83.2145 54.5359 82.8853 54.4475C82.101 54.237 79.7687 54.1468 79.0373 54.2986C77.7078 54.5747 76.3829 55.5315 75.9455 56.5317C75.6635 57.1766 75.566 58.5772 75.7559 59.2557C76.0522 60.3135 77.1323 61.4808 78.1463 61.8385C78.7688 62.0581 78.9021 61.8804 78.4156 61.4794C77.9497 61.0954 77.7481 60.7128 77.7481 60.2126C77.7481 59.4373 78.4595 58.7968 79.321 58.7965C79.5671 58.7964 81.5759 59.3193 84.0823 60.0358C86.4668 60.7175 88.6658 61.3063 88.969 61.3442L89.5203 61.413L89.4947 68.3527L89.469 75.2924L88.9703 75.4381C88.6424 75.5338 87.976 75.5865 87.0251 75.592C85.4517 75.601 84.5062 75.4218 83.3146 74.8888C82.2349 74.4057 82.2359 74.4026 83.8032 73.4076C85.5361 72.3075 86.1593 71.8077 86.7317 71.0586C87.5376 70.0042 87.5297 70.0604 87.5001 65.5511L87.474 61.5831L83.8459 63.8851C81.8504 65.1512 80.2002 66.1695 80.1787 66.1481C80.0924 66.0618 80.6716 64.2825 81.0295 63.5346C81.5608 62.4242 82.2307 61.5618 82.9885 61.0121C83.3432 60.7549 83.6335 60.4689 83.6335 60.3767C83.6335 60.2263 83.5488 60.2347 82.8105 60.4589C78.9834 61.6211 76.2443 64.3389 75.287 67.9237C75.0536 68.7974 75.0209 69.1069 75.023 70.4175C75.0251 71.7012 75.0615 72.0484 75.2794 72.8615C75.8247 74.8962 76.4599 76.0684 77.6854 77.3018C79.3289 78.9557 81.4134 79.7806 84.2819 79.9125C86.9602 80.0357 89.1012 79.2647 90.8188 77.5588C92.2674 76.1201 93.2486 74.2713 93.8148 71.9138C94.0503 70.933 94.0515 70.8658 93.8332 70.8687C93.7113 70.8703 93.5101 71.1783 93.1666 71.889C92.7513 72.7483 92.5491 73.0322 91.8698 73.7105C91.4272 74.1524 90.8295 74.6388 90.5414 74.7912L90.0177 75.0685V68.2405V61.4125L90.4915 61.3461C92.256 61.0988 93.6992 60.037 94.1771 58.6344C94.4026 57.9724 94.3162 56.8056 93.9894 56.101C93.5453 55.1434 92.5629 54.3848 91.5971 54.2538C91.3594 54.2215 91.0751 54.1833 90.9653 54.1691C90.8556 54.1547 90.6312 54.1577 90.4666 54.1756ZM96.9505 54.745C95.141 55.602 95.1384 57.3915 96.9439 59.2743L97.6488 60.0094L98.4161 59.5084C100.05 58.4417 100.636 57.486 100.383 56.3041C100.068 54.8354 98.3794 54.0684 96.9505 54.745ZM154.982 59.9664C154.91 59.9913 154.857 60.1785 154.857 60.4038C154.857 62.2657 151.988 63.194 149.702 62.0714C149.363 61.9049 148.835 61.5352 148.529 61.2498L147.971 60.7309L147.67 61.2635C147.254 62.0012 146.26 62.972 144.732 64.1337C141.959 66.2424 141.079 67.5759 141.214 69.4654C141.306 70.7605 142.144 71.9721 143.508 72.7819L144.181 73.1822L143.683 74.1522C143.187 75.118 141.898 77.158 141.239 78.0221C140.922 78.4365 140.907 78.4865 141.061 78.5994C141.206 78.7054 141.268 78.6702 141.5 78.3508C141.805 77.9292 142.393 77.6496 142.975 77.6496C144.173 77.6496 146.818 78.3955 148.468 79.1986C148.982 79.4487 149.432 79.6176 149.468 79.5742C149.505 79.5307 149.846 79.091 150.225 78.5973C150.986 77.6075 151.894 76.6693 153.722 74.9834C155.648 73.2072 156.101 72.3305 156.031 70.5173C155.997 69.64 155.955 69.4471 155.683 68.9171C155.175 67.9268 154.128 67.0451 153.136 66.7721C152.931 66.7154 152.762 66.6241 152.762 66.5693C152.762 66.3277 153.205 65.6692 153.865 64.9311C155.04 63.616 155.424 62.6007 155.325 61.0688C155.266 60.1516 155.186 59.8949 154.982 59.9664ZM120.991 62.7995L118.198 64.8642L118.079 64.2221C117.847 62.9668 117.264 62.1846 115.896 61.2912C115.474 61.0163 115.101 60.7914 115.066 60.7914C115.03 60.7914 113.972 61.6875 112.713 62.7829C111.159 64.1356 110.4 64.7356 110.348 64.6533C110.305 64.5867 110.27 64.4103 110.269 64.2616C110.267 63.8434 109.896 62.9483 109.541 62.5037C109.023 61.8555 107.439 60.7168 107.182 60.8075C107.129 60.8261 106.1 61.7347 104.895 62.8268C103.017 64.5282 102.719 64.837 102.812 64.9849C102.911 65.1435 102.952 65.1341 103.317 64.8697C104.007 64.3698 104.827 64.5903 105.095 65.3474C105.289 65.897 105.292 74.5326 105.098 75.0807C104.919 75.5849 104.646 75.7543 104.011 75.7543C103.559 75.7543 103.484 75.7814 103.484 75.9444C103.484 76.0813 103.613 76.1785 103.945 76.2915C105.094 76.6829 106.798 77.9851 107.488 78.9984C107.618 79.1885 107.746 79.3438 107.774 79.3435C107.801 79.3433 107.977 79.063 108.163 78.7208C108.742 77.6617 109.861 76.6884 110.991 76.2619C111.326 76.1355 111.378 75.7543 111.061 75.7543C110.949 75.7543 110.747 75.6441 110.612 75.5094L110.367 75.2646V70.2816V65.2986L111.083 64.8405C111.969 64.2736 112.516 64.2152 112.858 64.6507C113.067 64.917 113.069 64.9566 113.04 69.9626C113.012 74.8389 113.004 75.0177 112.806 75.3553C112.631 75.6545 112.542 75.7088 112.183 75.7351C111.532 75.7827 111.612 76.0635 112.387 76.4564C113.244 76.8905 114.241 77.7169 114.982 78.6074C115.513 79.2456 115.619 79.3301 115.704 79.1851C116.611 77.6413 117.376 76.88 118.522 76.3806C118.951 76.1936 119.146 76.0537 119.146 75.9316C119.146 75.8233 119.071 75.7543 118.954 75.7543C118.629 75.7543 118.446 75.6417 118.294 75.3481C118.172 75.1118 118.148 74.2781 118.148 70.2209V65.376L118.909 64.8792C119.8 64.2978 120.176 64.2428 120.55 64.6397L120.791 64.897L120.848 70.4005C120.908 76.233 120.905 76.1909 121.413 77.1953C121.697 77.7568 122.586 78.7313 123.202 79.1564L123.617 79.4431L126.063 77.3883C128.53 75.3151 129.033 74.7448 127.842 75.3729C127.415 75.598 127.192 75.6581 126.937 75.6171C126.505 75.5477 126.155 75.2188 126.029 74.7642C125.893 74.2739 125.897 66.2359 126.034 65.598C126.185 64.8953 126.562 64.5622 127.273 64.5032C127.735 64.465 127.824 64.4264 127.824 64.2653C127.824 64.1374 127.699 64.0208 127.45 63.9169C126.43 63.4915 124.81 62.1573 124.074 61.1372L123.784 60.7349L120.991 62.7995ZM134.204 62.0338C130.862 63.4613 130.186 63.8194 129.613 64.4661C128.863 65.3135 128.579 66.2209 128.425 68.2728C128.163 71.753 128.439 74.0011 129.316 75.5207C129.713 76.2077 130.614 77.1678 131.358 77.6957C132.007 78.156 133.178 78.7692 134.202 79.1853L134.833 79.4421L135.493 78.8635C136.47 78.0073 137.34 77.3308 139.416 75.8145C140.443 75.0645 141.312 74.4037 141.348 74.3458C141.384 74.2879 141.368 74.1959 141.313 74.141C141.247 74.0748 140.914 74.2224 140.317 74.5823C139.193 75.2596 138.726 75.3941 137.703 75.335C136.64 75.2734 135.634 74.7911 134.797 73.9412C134.268 73.404 133.645 72.3597 133.468 71.7143C133.414 71.5167 133.984 71.137 140.468 67.0503L140.992 66.72L139.121 63.7263L137.251 60.7326L134.204 62.0338ZM95.6255 62.7137C93.5935 64.3798 93.321 64.6362 93.4479 64.7631C93.5748 64.89 93.6264 64.8818 93.8604 64.6978C94.1687 64.4553 94.6925 64.3331 95.0023 64.4314C95.4295 64.5669 95.4457 64.769 95.5011 70.617L95.554 76.2032L95.9158 76.9513C96.3388 77.8263 96.7906 78.3743 97.6057 79.0015L98.1947 79.4548L100.64 77.3963C101.985 76.2642 103.085 75.3044 103.085 75.2635C103.085 75.0661 102.92 75.091 102.443 75.3608C101.855 75.6926 101.607 75.7207 101.187 75.5032C100.589 75.1944 100.591 75.2128 100.591 70.1699C100.591 65.0912 100.595 65.0585 101.209 64.6843C101.403 64.566 101.714 64.4828 101.963 64.4826C102.319 64.4823 102.387 64.4506 102.387 64.2841C102.387 64.1409 102.214 63.9999 101.764 63.7747C100.915 63.3508 99.8923 62.5707 98.9134 61.6009C98.4639 61.1557 98.0629 60.7955 98.0222 60.8003C97.9814 60.8053 96.9028 61.6663 95.6255 62.7137ZM135.147 65.9767C136.008 67.5395 136.677 68.8307 136.633 68.8462C136.588 68.8618 135.834 69.3431 134.956 69.9159L133.36 70.9573L133.287 70.5876C133.246 70.3843 133.241 68.565 133.276 66.5446C133.325 63.6404 133.364 62.8988 133.46 63.0034C133.527 63.0761 134.287 64.4141 135.147 65.9767ZM146.177 64.9062C146.936 65.6053 147.668 66.0753 148.595 66.4568C149.485 66.8237 150.98 66.8862 151.759 66.5892C152.057 66.4754 152.322 66.4024 152.346 66.427C152.461 66.5413 151.643 67.6624 150.995 68.279C150.201 69.0349 149.594 69.3872 148.791 69.5575C146.71 69.999 144.759 67.9624 144.898 65.4954C144.93 64.9229 144.982 64.7437 145.176 64.537C145.308 64.3971 145.435 64.2827 145.458 64.2827C145.481 64.2827 145.805 64.5633 146.177 64.9062ZM82.8355 69.3187V73.5569L82.4614 73.8028L82.0873 74.0487L81.6553 73.5861C81.1539 73.0493 80.6543 72.1059 80.3513 71.1243C80.0622 70.1874 79.8848 68.3162 80.0012 67.4314L80.0923 66.7396L81.389 65.9121C82.1023 65.457 82.7195 65.0837 82.7607 65.0826C82.8018 65.0816 82.8355 66.9878 82.8355 69.3187ZM149.909 70.3193C151.454 70.7218 152.398 72.1922 152.405 74.2081C152.408 75.1195 152.268 75.7431 152.013 75.9551C151.902 76.0467 151.811 76.0302 151.594 75.8796C149.998 74.7731 147.286 73.7932 145.306 73.6073C144.908 73.57 144.583 73.5104 144.583 73.4749C144.584 73.4392 144.723 73.1694 144.891 72.8751C145.543 71.7394 147.021 70.5999 148.224 70.3067C148.906 70.1403 149.231 70.1428 149.909 70.3193Z" fill="black"/>
</svg>
