<svg width="48" height="48" viewBox="0 0 48 48" fill="none" xmlns="http://www.w3.org/2000/svg">
<path opacity="0.2" d="M36.75 21.75L19.9387 38.5613C19.6577 38.842 19.2767 38.9998 18.8794 39H9V29.1206C9.00018 28.7233 9.15798 28.3423 9.43875 28.0613L26.25 11.25L36.75 21.75Z" fill="#6A31CE"/>
<path d="M44.5611 12.4386L35.5611 3.43861C35.4217 3.29924 35.2563 3.18869 35.0742 3.11327C34.8921 3.03784 34.697 2.99902 34.4999 2.99902C34.3028 2.99902 34.1076 3.03784 33.9255 3.11327C33.7434 3.18869 33.578 3.29924 33.4386 3.43861C33.2992 3.57797 33.1887 3.74342 33.1133 3.92551C33.0378 4.1076 32.999 4.30277 32.999 4.49986C32.999 4.69695 33.0378 4.89211 33.1133 5.0742C33.1887 5.25629 33.2992 5.42174 33.4386 5.56111L36.8792 8.99986L31.4999 14.3792L25.0611 7.93861C24.7796 7.65715 24.3979 7.49902 23.9999 7.49902C23.6018 7.49902 23.2201 7.65715 22.9386 7.93861C22.6571 8.22007 22.499 8.60181 22.499 8.99986C22.499 9.3979 22.6571 9.77965 22.9386 10.0611L24.1292 11.2499L8.37923 26.9999C8.09944 27.2774 7.87762 27.6078 7.72666 27.9719C7.57569 28.3359 7.4986 28.7264 7.49986 29.1205V38.3792L3.43861 42.4386C3.29924 42.578 3.18869 42.7434 3.11327 42.9255C3.03784 43.1076 2.99902 43.3028 2.99902 43.4999C2.99902 43.697 3.03784 43.8921 3.11327 44.0742C3.18869 44.2563 3.29924 44.4217 3.43861 44.5611C3.72007 44.8426 4.10181 45.0007 4.49986 45.0007C4.69695 45.0007 4.89211 44.9619 5.0742 44.8864C5.25629 44.811 5.42174 44.7005 5.56111 44.5611L9.62048 40.4999H18.8792C19.2733 40.5011 19.6638 40.424 20.0278 40.2731C20.3919 40.1221 20.7223 39.9003 20.9999 39.6205L36.7499 23.8705L37.9386 25.0611C38.078 25.2005 38.2434 25.311 38.4255 25.3864C38.6076 25.4619 38.8028 25.5007 38.9999 25.5007C39.197 25.5007 39.3921 25.4619 39.5742 25.3864C39.7563 25.311 39.9217 25.2005 40.0611 25.0611C40.2005 24.9217 40.311 24.7563 40.3864 24.5742C40.4619 24.3921 40.5007 24.1969 40.5007 23.9999C40.5007 23.8028 40.4619 23.6076 40.3864 23.4255C40.311 23.2434 40.2005 23.078 40.0611 22.9386L33.6205 16.4999L38.9999 11.1205L42.4386 14.5611C42.7201 14.8426 43.1018 15.0007 43.4999 15.0007C43.8979 15.0007 44.2796 14.8426 44.5611 14.5611C44.8426 14.2796 45.0007 13.8979 45.0007 13.4999C45.0007 13.1018 44.8426 12.7201 44.5611 12.4386ZM18.8792 37.4999H10.4999V29.1205L13.8749 25.7455L17.6886 29.5611C17.828 29.7005 17.9934 29.811 18.1755 29.8864C18.3576 29.9619 18.5528 30.0007 18.7499 30.0007C18.9469 30.0007 19.1421 29.9619 19.3242 29.8864C19.5063 29.811 19.6717 29.7005 19.8111 29.5611C19.9505 29.4217 20.061 29.2563 20.1364 29.0742C20.2119 28.8921 20.2507 28.697 20.2507 28.4999C20.2507 28.3028 20.2119 28.1076 20.1364 27.9255C20.061 27.7434 19.9505 27.578 19.8111 27.4386L15.9955 23.6249L18.3749 21.2455L22.1886 25.0611C22.4701 25.3426 22.8518 25.5007 23.2499 25.5007C23.6479 25.5007 24.0296 25.3426 24.3111 25.0611C24.5926 24.7796 24.7507 24.3979 24.7507 23.9999C24.7507 23.6018 24.5926 23.2201 24.3111 22.9386L20.4955 19.1249L26.2499 13.3705L34.6292 21.7499L18.8792 37.4999Z" fill="#6A31CE"/>
</svg>
