<svg width="48" height="48" viewBox="0 0 48 48" fill="none" xmlns="http://www.w3.org/2000/svg">
<path opacity="0.2" d="M30 24C30 25.1867 29.6481 26.3467 28.9888 27.3334C28.3295 28.3201 27.3925 29.0892 26.2961 29.5433C25.1997 29.9974 23.9933 30.1162 22.8295 29.8847C21.6656 29.6532 20.5965 29.0818 19.7574 28.2426C18.9182 27.4035 18.3468 26.3344 18.1153 25.1705C17.8838 24.0067 18.0026 22.8003 18.4567 21.7039C18.9108 20.6075 19.6799 19.6705 20.6666 19.0112C21.6533 18.3519 22.8133 18 24 18C25.5913 18 27.1174 18.6321 28.2426 19.7574C29.3679 20.8826 30 22.4087 30 24ZM37.5 12C37.8176 13.8737 38.7101 15.6023 40.0539 16.9461C41.3977 18.2899 43.1263 19.1824 45 19.5V12H37.5ZM37.5 36H45V28.5C43.1263 28.8176 41.3977 29.7101 40.0539 31.0539C38.7101 32.3977 37.8176 34.1263 37.5 36ZM3 28.5V36H10.5C10.1824 34.1263 9.28989 32.3977 7.94607 31.0539C6.60226 29.7101 4.87372 28.8176 3 28.5ZM3 19.5C4.87372 19.1824 6.60226 18.2899 7.94607 16.9461C9.28989 15.6023 10.1824 13.8737 10.5 12H3V19.5Z" fill="#6A31CE"/>
<path d="M24 16.5C22.5166 16.5 21.0666 16.9399 19.8332 17.764C18.5999 18.5881 17.6386 19.7594 17.0709 21.1299C16.5032 22.5003 16.3547 24.0083 16.6441 25.4632C16.9335 26.918 17.6478 28.2544 18.6967 29.3033C19.7456 30.3522 21.082 31.0665 22.5368 31.3559C23.9917 31.6453 25.4997 31.4968 26.8701 30.9291C28.2406 30.3614 29.4119 29.4001 30.236 28.1668C31.0601 26.9334 31.5 25.4834 31.5 24C31.5 22.0109 30.7098 20.1032 29.3033 18.6967C27.8968 17.2902 25.9891 16.5 24 16.5ZM24 28.5C23.11 28.5 22.24 28.2361 21.4999 27.7416C20.7599 27.2471 20.1831 26.5443 19.8425 25.7221C19.5019 24.8998 19.4128 23.995 19.5865 23.1221C19.7601 22.2492 20.1887 21.4474 20.818 20.818C21.4474 20.1887 22.2492 19.7601 23.1221 19.5865C23.995 19.4128 24.8998 19.5019 25.7221 19.8425C26.5443 20.1831 27.2471 20.7599 27.7416 21.4999C28.2361 22.24 28.5 23.11 28.5 24C28.5 25.1935 28.0259 26.3381 27.182 27.182C26.3381 28.0259 25.1935 28.5 24 28.5ZM45 10.5H3C2.60218 10.5 2.22064 10.658 1.93934 10.9393C1.65804 11.2206 1.5 11.6022 1.5 12V36C1.5 36.3978 1.65804 36.7794 1.93934 37.0607C2.22064 37.342 2.60218 37.5 3 37.5H45C45.3978 37.5 45.7794 37.342 46.0607 37.0607C46.342 36.7794 46.5 36.3978 46.5 36V12C46.5 11.6022 46.342 11.2206 46.0607 10.9393C45.7794 10.658 45.3978 10.5 45 10.5ZM4.5 13.5H8.50688C7.73324 15.2992 6.29918 16.7332 4.5 17.5069V13.5ZM4.5 34.5V30.4931C6.29918 31.2668 7.73324 32.7008 8.50688 34.5H4.5ZM43.5 34.5H39.4931C40.2668 32.7008 41.7008 31.2668 43.5 30.4931V34.5ZM43.5 27.3094C41.7968 27.813 40.2466 28.7347 38.9907 29.9907C37.7347 31.2466 36.813 32.7968 36.3094 34.5H11.6906C11.187 32.7968 10.2653 31.2466 9.00934 29.9907C7.75342 28.7347 6.20324 27.813 4.5 27.3094V20.6906C6.20324 20.187 7.75342 19.2653 9.00934 18.0093C10.2653 16.7534 11.187 15.2032 11.6906 13.5H36.3094C36.813 15.2032 37.7347 16.7534 38.9907 18.0093C40.2466 19.2653 41.7968 20.187 43.5 20.6906V27.3094ZM43.5 17.5069C41.7008 16.7332 40.2668 15.2992 39.4931 13.5H43.5V17.5069Z" fill="#6A31CE"/>
</svg>
