<svg width="48" height="48" viewBox="0 0 48 48" fill="none" xmlns="http://www.w3.org/2000/svg">
<path opacity="0.2" d="M39 7.5H9C8.60218 7.5 8.22064 7.65804 7.93934 7.93934C7.65804 8.22064 7.5 8.60218 7.5 9V39C7.5 39.3978 7.65804 39.7794 7.93934 40.0607C8.22064 40.342 8.60218 40.5 9 40.5H39C39.3978 40.5 39.7794 40.342 40.0607 40.0607C40.342 39.7794 40.5 39.3978 40.5 39V9C40.5 8.60218 40.342 8.22064 40.0607 7.93934C39.7794 7.65804 39.3978 7.5 39 7.5ZM16.5 34.5C15.9067 34.5 15.3266 34.3241 14.8333 33.9944C14.3399 33.6648 13.9554 33.1962 13.7284 32.6481C13.5013 32.0999 13.4419 31.4967 13.5576 30.9147C13.6734 30.3328 13.9591 29.7982 14.3787 29.3787C14.7982 28.9591 15.3328 28.6734 15.9147 28.5576C16.4967 28.4419 17.0999 28.5013 17.6481 28.7284C18.1962 28.9554 18.6648 29.3399 18.9944 29.8333C19.3241 30.3266 19.5 30.9067 19.5 31.5C19.5 32.2956 19.1839 33.0587 18.6213 33.6213C18.0587 34.1839 17.2956 34.5 16.5 34.5ZM31.5 22.5C30.9067 22.5 30.3266 22.3241 29.8333 21.9944C29.3399 21.6648 28.9554 21.1962 28.7284 20.6481C28.5013 20.0999 28.4419 19.4967 28.5576 18.9147C28.6734 18.3328 28.9591 17.7982 29.3787 17.3787C29.7982 16.9591 30.3328 16.6734 30.9147 16.5576C31.4967 16.4419 32.0999 16.5013 32.6481 16.7284C33.1962 16.9554 33.6648 17.3399 33.9944 17.8333C34.3241 18.3266 34.5 18.9067 34.5 19.5C34.5 20.2956 34.1839 21.0587 33.6213 21.6213C33.0587 22.1839 32.2956 22.5 31.5 22.5Z" fill="#6A31CE"/>
<path d="M39 6H9C8.20435 6 7.44129 6.31607 6.87868 6.87868C6.31607 7.44129 6 8.20435 6 9V39C6 39.7957 6.31607 40.5587 6.87868 41.1213C7.44129 41.6839 8.20435 42 9 42H39C39.7957 42 40.5587 41.6839 41.1213 41.1213C41.6839 40.5587 42 39.7957 42 39V9C42 8.20435 41.6839 7.44129 41.1213 6.87868C40.5587 6.31607 39.7957 6 39 6ZM16.5 30C16.7967 30 17.0867 30.088 17.3334 30.2528C17.58 30.4176 17.7723 30.6519 17.8858 30.926C17.9994 31.2001 18.0291 31.5017 17.9712 31.7926C17.9133 32.0836 17.7704 32.3509 17.5607 32.5607C17.3509 32.7704 17.0836 32.9133 16.7926 32.9712C16.5017 33.0291 16.2001 32.9994 15.926 32.8858C15.6519 32.7723 15.4176 32.58 15.2528 32.3334C15.088 32.0867 15 31.7967 15 31.5C15 31.1022 15.158 30.7206 15.4393 30.4393C15.7206 30.158 16.1022 30 16.5 30ZM9 9H15V27.2588C13.9992 27.6126 13.1557 28.3089 12.6186 29.2245C12.0814 30.1401 11.8853 31.2161 12.0648 32.2623C12.2443 33.3086 12.7879 34.2577 13.5995 34.9419C14.4111 35.6261 15.4385 36.0014 16.5 36.0014C17.5615 36.0014 18.5889 35.6261 19.4005 34.9419C20.2121 34.2577 20.7557 33.3086 20.9352 32.2623C21.1147 31.2161 20.9186 30.1401 20.3814 29.2245C19.8443 28.3089 19.0008 27.6126 18 27.2588V21.6206L27 30.6206V39H9V9ZM39 39H30V30C30.0002 29.803 29.9615 29.6078 29.8862 29.4257C29.8109 29.2436 29.7005 29.0782 29.5613 28.9387L18 17.3794V9H24V13.5C23.9998 13.697 24.0385 13.8922 24.1138 14.0743C24.1891 14.2564 24.2995 14.4218 24.4387 14.5613L27.4387 17.5613C27.1482 18.1662 26.9982 18.8289 27 19.5C27 20.39 27.2639 21.26 27.7584 22.0001C28.2529 22.7401 28.9557 23.3169 29.7779 23.6575C30.6002 23.9981 31.505 24.0872 32.3779 23.9135C33.2508 23.7399 34.0526 23.3113 34.682 22.682C35.3113 22.0526 35.7399 21.2508 35.9135 20.3779C36.0872 19.505 35.9981 18.6002 35.6575 17.7779C35.3169 16.9557 34.7401 16.2529 34.0001 15.7584C33.26 15.2639 32.39 15 31.5 15C30.8288 14.9988 30.166 15.1495 29.5613 15.4406L27 12.8794V9H39V39ZM31.5 18C31.7967 18 32.0867 18.088 32.3334 18.2528C32.58 18.4176 32.7723 18.6519 32.8858 18.926C32.9994 19.2001 33.0291 19.5017 32.9712 19.7926C32.9133 20.0836 32.7704 20.3509 32.5607 20.5607C32.3509 20.7704 32.0836 20.9133 31.7926 20.9712C31.5017 21.0291 31.2001 20.9994 30.926 20.8858C30.6519 20.7723 30.4176 20.58 30.2528 20.3334C30.088 20.0867 30 19.7967 30 19.5C30 19.1022 30.158 18.7206 30.4393 18.4393C30.7206 18.158 31.1022 18 31.5 18Z" fill="#6A31CE"/>
</svg>
