<svg width="44" height="44" viewBox="0 0 44 44" fill="none" xmlns="http://www.w3.org/2000/svg">
<rect width="44" height="44" rx="22" fill="url(#paint0_linear_2059_39555)"/>
<path d="M22 10C23.8073 10 25.5214 10.3996 27.0586 11.1152C26.8457 11.5051 26.6532 11.9093 26.4925 12.3227C25.1271 11.6878 23.605 11.3333 22 11.3333C16.1089 11.3333 11.3333 16.1089 11.3333 22C11.3333 27.8911 16.1089 32.6667 22 32.6667C27.8911 32.6667 32.6667 27.8911 32.6667 22C32.6667 20.98 32.5235 19.9934 32.2561 19.0593C32.6899 18.9042 33.0938 18.6874 33.4568 18.4197C33.8098 19.5505 34 20.753 34 22C34 28.6274 28.6274 34 22 34C15.3726 34 10 28.6274 10 22C10 15.3726 15.3726 10 22 10Z" fill="black"/>
<path d="M33.3333 14.6667C33.3333 16.1394 32.1394 17.3333 30.6667 17.3333C29.1939 17.3333 28 16.1394 28 14.6667C28 12.3333 30.6667 10 30.6667 10C30.6667 10 33.3333 12.3333 33.3333 14.6667Z" fill="black"/>
<path d="M17.0617 27.9999C17.2112 27.6129 17.3859 27.2457 17.5831 26.9022L16.4425 25.9245C16.3039 25.9733 16.1547 25.9999 15.9993 25.9999C15.2629 25.9999 14.666 25.403 14.666 24.6666C14.666 23.9302 15.2629 23.3333 15.9993 23.3333C16.7357 23.3333 17.3327 23.9302 17.3327 24.6666C17.3327 24.7505 17.3249 24.8325 17.3101 24.9121L18.3553 25.808C19.3295 24.6821 20.6042 23.9999 21.9993 23.9999C24.1529 23.9999 26.0197 25.6255 26.937 27.9999C27.1953 28.6685 26.6571 29.3333 25.9404 29.3333H22.288L18.8191 26.3293L17.9463 27.3372L20.2512 29.3333H18.0582C17.3415 29.3333 16.8034 28.6685 17.0617 27.9999Z" fill="black"/>
<path d="M15.7976 20.5051C15.3422 20.2134 15.0085 19.7417 15.0879 19.2499C15.1038 19.1515 15.163 19.0653 15.2492 19.0151C15.3353 18.9648 15.4395 18.9559 15.533 18.9905C16.7452 19.4406 18.0972 19.1615 19.2944 18.0249C19.377 17.9465 19.4938 17.9157 19.6042 17.9432C19.7147 17.9706 19.8036 18.0525 19.8398 18.1604C19.9943 18.6196 19.8559 19.2393 19.5197 19.7482C19.1717 20.275 18.5813 20.7359 17.7507 20.8585C16.9518 20.9764 16.2734 20.8098 15.7976 20.5051Z" fill="black"/>
<path d="M27.7616 20.5051C28.2169 20.2134 28.5506 19.7417 28.4712 19.2499C28.4553 19.1515 28.3961 19.0653 28.3099 19.0151C28.2238 18.9648 28.1196 18.9559 28.0261 18.9905C26.8139 19.4406 25.462 19.1615 24.2647 18.0249C24.1821 17.9465 24.0653 17.9157 23.9548 17.9432C23.8444 17.9706 23.7556 18.0525 23.7192 18.1604C23.5648 18.6196 23.7032 19.2393 24.0394 19.7482C24.3874 20.275 24.9778 20.7359 25.8084 20.8585C26.6073 20.9764 27.2857 20.8098 27.7616 20.5051Z" fill="black"/>
<defs>
<linearGradient id="paint0_linear_2059_39555" x1="-0.786047" y1="-7.26921" x2="49.1333" y2="63.4333" gradientUnits="userSpaceOnUse">
<stop stop-color="white"/>
<stop offset="1" stop-color="#999999"/>
</linearGradient>
</defs>
</svg>
