<svg width="80" height="80" viewBox="0 0 80 80" fill="none" xmlns="http://www.w3.org/2000/svg">
<path fill-rule="evenodd" clip-rule="evenodd" d="M58.3337 15.3828V10H55.0003V15H25.0003V10H21.667V15.3828C21.667 24.4207 25.9828 32.7443 33.0065 37.9792C34.0462 37.3222 35.1307 36.7223 36.2563 36.1845C33.1388 34.1485 30.5487 31.4545 28.6422 28.3333H51.3585C48.7328 32.6315 44.8108 36.1198 40.0003 38.1953C39.9915 38.199 39.9827 38.2028 39.9738 38.2067C39.7778 38.291 39.5803 38.373 39.3813 38.4525C38.2555 38.9028 37.1703 39.4207 36.1298 40C28.1358 44.4513 22.779 52.5408 21.8212 61.6667H21.667V64.6172V65V70H25.0003V65H55.0003V70H58.3337V65V64.6172V61.6667H58.1795C57.3525 53.7872 53.246 46.6803 46.9942 42.0208C45.9545 42.6778 44.87 43.2777 43.7443 43.8155C46.8618 45.8515 49.452 48.5455 51.3585 51.6667H28.6422C31.2678 47.3685 35.1898 43.8802 40.0003 41.8047C40.0092 41.801 40.018 41.7972 40.0268 41.7933C40.2228 41.709 40.4203 41.627 40.6193 41.5475C41.7452 41.0972 42.8303 40.5793 43.8708 40C52.717 35.0742 58.3337 25.6932 58.3337 15.3828ZM53.0645 55H26.9362C26.0517 57.106 25.4522 59.3467 25.1755 61.6667H54.8252C54.5485 59.3467 53.949 57.106 53.0645 55ZM26.9362 25H53.0645C53.949 22.894 54.5485 20.6533 54.8252 18.3333H25.1755C25.4522 20.6533 26.0517 22.894 26.9362 25Z" fill="#7C3AED"/>
</svg>
