<svg width="80" height="80" viewBox="0 0 80 80" fill="none" xmlns="http://www.w3.org/2000/svg">
<path d="M51.6667 46.6667C51.6667 48.5077 50.1743 50 48.3333 50C46.4923 50 45 48.5077 45 46.6667C45 44.8257 46.4923 43.3334 48.3333 43.3334C50.1743 43.3334 51.6667 44.8257 51.6667 46.6667Z" fill="#7C3AED"/>
<path fill-rule="evenodd" clip-rule="evenodd" d="M48.3337 58.3333C54.777 58.3333 60.0003 53.11 60.0003 46.6667C60.0003 40.2233 54.777 35 48.3337 35C41.8903 35 36.667 40.2233 36.667 46.6667C36.667 53.11 41.8903 58.3333 48.3337 58.3333ZM55.0003 46.6667C55.0003 50.3485 52.0155 53.3333 48.3337 53.3333C44.6518 53.3333 41.667 50.3485 41.667 46.6667C41.667 42.9848 44.6518 40 48.3337 40C52.0155 40 55.0003 42.9848 55.0003 46.6667Z" fill="#7C3AED"/>
<path d="M23.3333 44.1666C22.1827 44.1666 21.25 45.0993 21.25 46.25V52.5C21.25 53.6506 22.1827 54.5833 23.3333 54.5833C24.484 54.5833 25.4167 53.6506 25.4167 52.5V46.25C25.4167 45.0993 24.484 44.1666 23.3333 44.1666Z" fill="#7C3AED"/>
<path fill-rule="evenodd" clip-rule="evenodd" d="M40.0003 73.3333C58.4098 73.3333 73.3337 58.4095 73.3337 40C73.3337 21.5905 58.4098 6.66663 40.0003 6.66663C21.5908 6.66663 6.66699 21.5905 6.66699 40C6.66699 58.4095 21.5908 73.3333 40.0003 73.3333ZM37.9713 17.0836C35.0622 17.0761 32.3023 17.7163 29.8285 18.8683L31.7935 21.4881C35.3188 19.8388 39.4393 19.4265 43.4628 20.6258C44.3448 20.8888 44.8468 21.817 44.5838 22.6991C44.321 23.5813 43.3927 24.0831 42.5105 23.8203C35.5652 21.75 28.2565 25.702 26.186 32.6473C25.9232 33.5295 24.9948 34.0313 24.1127 33.7685C23.2307 33.5055 22.7287 32.5773 22.9917 31.6951C24.0438 28.1655 26.1748 25.2523 28.917 23.2085L26.9208 20.547C21.98 24.0085 18.7433 29.7391 18.7267 36.2303C18.7243 37.1508 17.9763 37.8951 17.0558 37.8928C16.1353 37.8905 15.3911 37.1423 15.3934 36.222C15.4251 23.7795 25.5375 13.7185 37.9798 13.7502C38.9003 13.7526 39.6447 14.5007 39.6423 15.4212C39.64 16.3416 38.8918 17.086 37.9713 17.0836ZM48.3337 61.6666C56.618 61.6666 63.3337 54.951 63.3337 46.6666C63.3337 38.3823 56.618 31.6666 48.3337 31.6666C40.0493 31.6666 33.3337 38.3823 33.3337 46.6666C33.3337 54.951 40.0493 61.6666 48.3337 61.6666ZM28.7503 46.25V52.5C28.7503 55.4915 26.3252 57.9166 23.3337 57.9166C20.3422 57.9166 17.917 55.4915 17.917 52.5V46.25C17.917 43.2585 20.3422 40.8333 23.3337 40.8333C26.3252 40.8333 28.7503 43.2585 28.7503 46.25Z" fill="#7C3AED"/>
</svg>
