<svg width="33" height="33" viewBox="0 0 33 33" fill="none" xmlns="http://www.w3.org/2000/svg">
<path d="M16.75 3.94141C14.1788 3.94141 11.6654 4.70384 9.52759 6.1323C7.38975 7.56076 5.72351 9.59108 4.73957 11.9665C3.75563 14.342 3.49819 16.9558 3.9998 19.4776C4.50141 21.9993 5.73953 24.3157 7.55762 26.1338C9.3757 27.9519 11.6921 29.19 14.2138 29.6916C16.7356 30.1932 19.3495 29.9358 21.7249 28.9518C24.1003 27.9679 26.1307 26.3017 27.5591 24.1638C28.9876 22.026 29.75 19.5126 29.75 16.9414C29.7464 13.4947 28.3756 10.1902 25.9384 7.75304C23.5012 5.31585 20.1967 3.94505 16.75 3.94141ZM22.4575 14.6489L15.4575 21.6489C15.3646 21.7419 15.2543 21.8156 15.1329 21.866C15.0115 21.9163 14.8814 21.9422 14.75 21.9422C14.6186 21.9422 14.4885 21.9163 14.3671 21.866C14.2457 21.8156 14.1354 21.7419 14.0425 21.6489L11.0425 18.6489C10.8549 18.4613 10.7494 18.2068 10.7494 17.9414C10.7494 17.676 10.8549 17.4215 11.0425 17.2339C11.2301 17.0463 11.4846 16.9409 11.75 16.9409C12.0154 16.9409 12.2699 17.0463 12.4575 17.2339L14.75 19.5277L21.0425 13.2339C21.1354 13.141 21.2457 13.0673 21.3671 13.017C21.4885 12.9667 21.6186 12.9409 21.75 12.9409C21.8814 12.9409 22.0115 12.9667 22.1329 13.017C22.2543 13.0673 22.3646 13.141 22.4575 13.2339C22.5504 13.3268 22.6241 13.4371 22.6744 13.5585C22.7247 13.6799 22.7506 13.81 22.7506 13.9414C22.7506 14.0728 22.7247 14.2029 22.6744 14.3243C22.6241 14.4457 22.5504 14.556 22.4575 14.6489Z" fill="#6A31CE"/>
</svg>
