<svg width="33" height="33" viewBox="0 0 33 33" fill="none" xmlns="http://www.w3.org/2000/svg">
<path d="M16.25 3.94141C13.6788 3.94141 11.1654 4.70384 9.02759 6.1323C6.88975 7.56076 5.22351 9.59108 4.23957 11.9665C3.25563 14.342 2.99819 16.9558 3.4998 19.4776C4.00141 21.9993 5.23953 24.3157 7.05762 26.1338C8.8757 27.9519 11.1921 29.19 13.7138 29.6916C16.2356 30.1932 18.8495 29.9358 21.2249 28.9518C23.6003 27.9679 25.6307 26.3017 27.0591 24.1638C28.4876 22.026 29.25 19.5126 29.25 16.9414C29.2464 13.4947 27.8756 10.1902 25.4384 7.75304C23.0012 5.31585 19.6967 3.94505 16.25 3.94141ZM20.9575 20.2339C21.0504 20.3268 21.1241 20.4371 21.1744 20.5585C21.2247 20.6799 21.2506 20.81 21.2506 20.9414C21.2506 21.0728 21.2247 21.2029 21.1744 21.3243C21.1241 21.4457 21.0504 21.556 20.9575 21.6489C20.8646 21.7418 20.7543 21.8155 20.6329 21.8658C20.5115 21.9161 20.3814 21.942 20.25 21.942C20.1186 21.942 19.9885 21.9161 19.8671 21.8658C19.7457 21.8155 19.6354 21.7418 19.5425 21.6489L16.25 18.3552L12.9575 21.6489C12.8646 21.7418 12.7543 21.8155 12.6329 21.8658C12.5115 21.9161 12.3814 21.942 12.25 21.942C12.1186 21.942 11.9885 21.9161 11.8671 21.8658C11.7457 21.8155 11.6354 21.7418 11.5425 21.6489C11.4496 21.556 11.3759 21.4457 11.3256 21.3243C11.2753 21.2029 11.2494 21.0728 11.2494 20.9414C11.2494 20.81 11.2753 20.6799 11.3256 20.5585C11.3759 20.4371 11.4496 20.3268 11.5425 20.2339L14.8363 16.9414L11.5425 13.6489C11.3549 13.4613 11.2494 13.2068 11.2494 12.9414C11.2494 12.676 11.3549 12.4215 11.5425 12.2339C11.7301 12.0463 11.9846 11.9409 12.25 11.9409C12.5154 11.9409 12.7699 12.0463 12.9575 12.2339L16.25 15.5277L19.5425 12.2339C19.6354 12.141 19.7457 12.0673 19.8671 12.017C19.9885 11.9667 20.1186 11.9409 20.25 11.9409C20.3814 11.9409 20.5115 11.9667 20.6329 12.017C20.7543 12.0673 20.8646 12.141 20.9575 12.2339C21.0504 12.3268 21.1241 12.4371 21.1744 12.5585C21.2247 12.6799 21.2506 12.81 21.2506 12.9414C21.2506 13.0728 21.2247 13.2029 21.1744 13.3243C21.1241 13.4457 21.0504 13.556 20.9575 13.6489L17.6638 16.9414L20.9575 20.2339Z" fill="#FF2323"/>
</svg>
