<svg width="88" height="31" viewBox="0 0 88 31" fill="none" xmlns="http://www.w3.org/2000/svg">
<mask id="path-1-outside-1_1754_113149" maskUnits="userSpaceOnUse" x="0.5" y="0" width="87" height="31" fill="black">
<rect fill="white" x="0.5" width="87" height="31"/>
<path d="M4.70369 28C4.12769 28 3.65969 27.832 3.29969 27.496C2.96369 27.136 2.79569 26.692 2.79569 26.164V4.636C2.79569 4.108 2.97569 3.676 3.33569 3.34C3.69569 2.98 4.12769 2.8 4.63169 2.8H16.7997C17.3277 2.8 17.7597 2.968 18.0957 3.304C18.4557 3.64 18.6357 4.06 18.6357 4.564C18.6357 5.02 18.4557 5.416 18.0957 5.752C17.7597 6.088 17.3277 6.256 16.7997 6.256H6.28769L6.53969 5.896V13.924L6.32369 13.492H15.1797C15.7077 13.492 16.1397 13.66 16.4757 13.996C16.8357 14.332 17.0157 14.752 17.0157 15.256C17.0157 15.712 16.8357 16.108 16.4757 16.444C16.1397 16.78 15.7077 16.948 15.1797 16.948H6.25169L6.53969 16.66V26.164C6.53969 26.692 6.35969 27.136 5.99969 27.496C5.63969 27.832 5.20769 28 4.70369 28ZM27.0768 14.032C26.7888 14.032 26.5488 13.924 26.3568 13.708C26.1648 13.492 26.0808 13.216 26.1048 12.88L26.3928 9.892C26.4168 9.82 26.4048 9.772 26.3568 9.748C26.3088 9.7 26.2608 9.7 26.2128 9.748L23.6928 11.548C23.4528 11.74 23.1888 11.812 22.9008 11.764C22.6128 11.692 22.3848 11.512 22.2168 11.224C22.0248 10.888 21.9768 10.588 22.0728 10.324C22.1928 10.06 22.3968 9.868 22.6848 9.748L25.4928 8.488C25.5648 8.464 25.6008 8.428 25.6008 8.38C25.6008 8.332 25.5648 8.296 25.4928 8.272L22.6848 6.976C22.3968 6.856 22.2048 6.652 22.1088 6.364C22.0128 6.076 22.0488 5.788 22.2168 5.5C22.3848 5.212 22.6128 5.044 22.9008 4.996C23.1888 4.948 23.4528 5.008 23.6928 5.176L26.2128 6.976C26.2608 7.024 26.3088 7.036 26.3568 7.012C26.4048 6.988 26.4168 6.94 26.3928 6.868L26.1048 3.88C26.0808 3.544 26.1648 3.268 26.3568 3.052C26.5728 2.836 26.8368 2.728 27.1488 2.728C27.4608 2.728 27.7128 2.836 27.9048 3.052C28.0968 3.268 28.1688 3.544 28.1208 3.88L27.8328 6.868C27.8088 6.94 27.8208 6.988 27.8688 7.012C27.9168 7.036 27.9768 7.024 28.0488 6.976L30.5328 5.212C30.7968 5.02 31.0728 4.96 31.3608 5.032C31.6488 5.08 31.8768 5.248 32.0448 5.536C32.2368 5.848 32.2728 6.136 32.1528 6.4C32.0328 6.664 31.8288 6.856 31.5408 6.976L28.7688 8.272C28.6968 8.296 28.6608 8.332 28.6608 8.38C28.6608 8.428 28.6968 8.464 28.7688 8.488L31.5408 9.748C31.8528 9.892 32.0568 10.108 32.1528 10.396C32.2488 10.66 32.2128 10.936 32.0448 11.224C31.8768 11.512 31.6488 11.692 31.3608 11.764C31.0728 11.812 30.7968 11.74 30.5328 11.548L28.0488 9.748C27.9768 9.7 27.9168 9.7 27.8688 9.748C27.8208 9.772 27.8088 9.82 27.8328 9.892L28.1208 12.88C28.1688 13.216 28.0848 13.492 27.8688 13.708C27.6768 13.924 27.4128 14.032 27.0768 14.032ZM44.671 28.36C42.943 28.36 41.407 28.12 40.063 27.64C38.719 27.16 37.435 26.368 36.211 25.264C35.947 25.072 35.743 24.844 35.599 24.58C35.479 24.292 35.419 24.004 35.419 23.716C35.419 23.26 35.587 22.852 35.923 22.492C36.259 22.132 36.679 21.952 37.183 21.952C37.567 21.952 37.927 22.084 38.263 22.348C39.175 23.188 40.123 23.824 41.107 24.256C42.115 24.688 43.291 24.904 44.635 24.904C45.595 24.904 46.471 24.748 47.263 24.436C48.079 24.124 48.727 23.704 49.207 23.176C49.687 22.648 49.927 22.036 49.927 21.34C49.927 20.476 49.675 19.768 49.171 19.216C48.691 18.64 47.983 18.172 47.047 17.812C46.135 17.428 45.031 17.104 43.735 16.84C42.535 16.624 41.455 16.324 40.495 15.94C39.559 15.556 38.755 15.076 38.083 14.5C37.411 13.9 36.895 13.192 36.535 12.376C36.175 11.56 35.995 10.612 35.995 9.532C35.995 8.068 36.379 6.808 37.147 5.752C37.915 4.696 38.959 3.88 40.279 3.304C41.599 2.728 43.087 2.44 44.743 2.44C46.255 2.44 47.671 2.68 48.991 3.16C50.311 3.616 51.379 4.24 52.195 5.032C52.771 5.536 53.059 6.076 53.059 6.652C53.059 7.084 52.879 7.492 52.519 7.876C52.183 8.236 51.787 8.416 51.331 8.416C50.995 8.416 50.707 8.32 50.467 8.128C50.083 7.72 49.567 7.36 48.919 7.048C48.271 6.712 47.575 6.436 46.831 6.22C46.111 6.004 45.415 5.896 44.743 5.896C43.663 5.896 42.739 6.052 41.971 6.364C41.203 6.652 40.615 7.06 40.207 7.588C39.799 8.092 39.595 8.692 39.595 9.388C39.595 10.204 39.823 10.876 40.279 11.404C40.759 11.932 41.419 12.364 42.259 12.7C43.099 13.012 44.059 13.3 45.139 13.564C46.459 13.852 47.635 14.176 48.667 14.536C49.723 14.896 50.611 15.364 51.331 15.94C52.051 16.492 52.603 17.188 52.987 18.028C53.371 18.868 53.563 19.912 53.563 21.16C53.563 22.6 53.155 23.86 52.339 24.94C51.523 26.02 50.443 26.86 49.099 27.46C47.779 28.06 46.303 28.36 44.671 28.36ZM66.9176 28C66.3416 28 65.8736 27.832 65.5136 27.496C65.1776 27.136 65.0096 26.692 65.0096 26.164V4.6H68.8616V26.164C68.8616 26.692 68.6696 27.136 68.2856 27.496C67.9256 27.832 67.4696 28 66.9176 28ZM58.7456 6.256C58.2416 6.256 57.8096 6.1 57.4496 5.788C57.0896 5.452 56.9096 5.02 56.9096 4.492C56.9096 3.988 57.0896 3.58 57.4496 3.268C57.8096 2.956 58.2416 2.8 58.7456 2.8H75.1256C75.6296 2.8 76.0496 2.968 76.3856 3.304C76.7456 3.616 76.9256 4.024 76.9256 4.528C76.9256 5.056 76.7456 5.476 76.3856 5.788C76.0496 6.1 75.6296 6.256 75.1256 6.256H58.7456ZM85.4987 26.164C85.4747 26.692 85.2707 27.136 84.8867 27.496C84.5267 27.832 84.0947 28 83.5907 28C83.0387 28 82.5827 27.832 82.2227 27.496C81.8867 27.136 81.7187 26.692 81.7187 26.164V4.636C81.7187 4.108 81.8987 3.676 82.2587 3.34C82.6187 2.98 83.0867 2.8 83.6627 2.8C84.1427 2.8 84.5627 2.98 84.9227 3.34C85.3067 3.676 85.4987 4.108 85.4987 4.636V26.164Z"/>
</mask>
<path d="M3.29969 27.496L1.83758 28.8606C1.86894 28.8942 1.90145 28.9268 1.93505 28.9581L3.29969 27.496ZM3.33569 3.34L4.70033 4.80211C4.71713 4.78643 4.73365 4.77046 4.7499 4.75421L3.33569 3.34ZM18.0957 3.304L16.6815 4.71821C16.6977 4.73446 16.7143 4.75043 16.7311 4.76611L18.0957 3.304ZM18.0957 5.752L16.7311 4.28989C16.7143 4.30557 16.6977 4.32154 16.6815 4.33778L18.0957 5.752ZM6.28769 6.256L4.64922 5.10907C4.22156 5.72002 4.16934 6.51815 4.51373 7.17962C4.85813 7.84109 5.54194 8.256 6.28769 8.256V6.256ZM6.53969 5.896H8.53969C8.53969 5.02306 7.97352 4.25096 7.14097 3.98852C6.30841 3.72608 5.40182 4.03393 4.90123 4.74907L6.53969 5.896ZM6.53969 13.924L4.75083 14.8184C5.16565 15.6481 6.09645 16.0836 6.99919 15.8705C7.90194 15.6574 8.53969 14.8516 8.53969 13.924H6.53969ZM6.32369 13.492V11.492C5.63053 11.492 4.9868 11.8509 4.62239 12.4405C4.25797 13.0302 4.22485 13.7664 4.53483 14.3864L6.32369 13.492ZM16.4757 13.996L15.0615 15.4102C15.0777 15.4265 15.0943 15.4424 15.1111 15.4581L16.4757 13.996ZM16.4757 16.444L15.1111 14.9819C15.0943 14.9976 15.0777 15.0135 15.0615 15.0298L16.4757 16.444ZM6.25169 16.948L4.83747 15.5338C4.26548 16.1058 4.09437 16.966 4.40393 17.7134C4.71349 18.4607 5.44276 18.948 6.25169 18.948V16.948ZM6.53969 16.66H8.53969C8.53969 15.8511 8.0524 15.1218 7.30505 14.8122C6.5577 14.5027 5.69747 14.6738 5.12547 15.2458L6.53969 16.66ZM5.99969 27.496L7.36433 28.9581C7.38112 28.9424 7.39765 28.9265 7.4139 28.9102L5.99969 27.496ZM4.70369 26C4.61019 26 4.58228 25.9865 4.59642 25.9916C4.60307 25.994 4.61517 25.9992 4.62983 26.0081C4.64454 26.0171 4.65635 26.0264 4.66432 26.0339L1.93505 28.9581C2.72744 29.6977 3.71288 30 4.70369 30V26ZM4.7618 26.1314C4.76146 26.131 4.76657 26.1365 4.77376 26.148C4.78104 26.1596 4.78749 26.1726 4.79226 26.1852C4.79697 26.1977 4.79815 26.2047 4.79797 26.2036C4.79772 26.2022 4.79569 26.1898 4.79569 26.164H0.795688C0.795688 27.1585 1.12953 28.102 1.83758 28.8606L4.7618 26.1314ZM4.79569 26.164V4.636H0.795688V26.164H4.79569ZM4.79569 4.636C4.79569 4.6023 4.80062 4.62816 4.77684 4.68523C4.76571 4.71194 4.75143 4.73769 4.7355 4.76035C4.71975 4.78275 4.70639 4.79644 4.70033 4.80211L1.97105 1.87789C1.17416 2.62166 0.795688 3.59843 0.795688 4.636H4.79569ZM4.7499 4.75421C4.75713 4.74698 4.7561 4.74923 4.74586 4.7562C4.73531 4.76339 4.71933 4.77265 4.69892 4.78115C4.67848 4.78967 4.65961 4.79493 4.64488 4.79776C4.6305 4.80053 4.6252 4.8 4.63169 4.8V0.799998C3.59123 0.799998 2.65227 1.19499 1.92148 1.92578L4.7499 4.75421ZM4.63169 4.8H16.7997V0.799998H4.63169V4.8ZM16.7997 4.8C16.8499 4.8 16.8398 4.80749 16.7948 4.79001C16.7735 4.78172 16.7505 4.77013 16.7284 4.75559C16.7063 4.74113 16.6907 4.72743 16.6815 4.71821L19.5099 1.88978C18.7555 1.13538 17.7935 0.799998 16.7997 0.799998V4.8ZM16.7311 4.76611C16.724 4.75957 16.6901 4.72338 16.6624 4.65884C16.6352 4.59535 16.6357 4.55482 16.6357 4.564H20.6357C20.6357 3.52038 20.2363 2.56609 19.4603 1.84189L16.7311 4.76611ZM16.6357 4.564C16.6357 4.5206 16.6461 4.44984 16.68 4.37539C16.7122 4.30437 16.7441 4.27775 16.7311 4.28989L19.4603 7.21411C20.1894 6.53361 20.6357 5.62197 20.6357 4.564H16.6357ZM16.6815 4.33778C16.6907 4.32856 16.7063 4.31486 16.7284 4.3004C16.7505 4.28586 16.7735 4.27428 16.7948 4.26599C16.8398 4.24851 16.8499 4.256 16.7997 4.256V8.256C17.7935 8.256 18.7555 7.92062 19.5099 7.16621L16.6815 4.33778ZM16.7997 4.256H6.28769V8.256H16.7997V4.256ZM7.92615 7.40292L8.17815 7.04292L4.90123 4.74907L4.64922 5.10907L7.92615 7.40292ZM4.53969 5.896V13.924H8.53969V5.896H4.53969ZM8.32854 13.0296L8.11254 12.5976L4.53483 14.3864L4.75083 14.8184L8.32854 13.0296ZM6.32369 15.492H15.1797V11.492H6.32369V15.492ZM15.1797 15.492C15.2299 15.492 15.2198 15.4995 15.1748 15.482C15.1535 15.4737 15.1305 15.4621 15.1084 15.4476C15.0863 15.4331 15.0707 15.4194 15.0615 15.4102L17.8899 12.5818C17.1355 11.8274 16.1735 11.492 15.1797 11.492V15.492ZM15.1111 15.4581C15.104 15.4516 15.0701 15.4154 15.0424 15.3508C15.0152 15.2874 15.0157 15.2468 15.0157 15.256H19.0157C19.0157 14.2124 18.6163 13.2581 17.8403 12.5339L15.1111 15.4581ZM15.0157 15.256C15.0157 15.2126 15.0261 15.1418 15.06 15.0674C15.0922 14.9964 15.1241 14.9697 15.1111 14.9819L17.8403 17.9061C18.5694 17.2256 19.0157 16.314 19.0157 15.256H15.0157ZM15.0615 15.0298C15.0707 15.0206 15.0863 15.0069 15.1084 14.9924C15.1305 14.9779 15.1535 14.9663 15.1748 14.958C15.2198 14.9405 15.2299 14.948 15.1797 14.948V18.948C16.1735 18.948 17.1355 18.6126 17.8899 17.8582L15.0615 15.0298ZM15.1797 14.948H6.25169V18.948H15.1797V14.948ZM7.6659 18.3622L7.9539 18.0742L5.12547 15.2458L4.83747 15.5338L7.6659 18.3622ZM4.53969 16.66V26.164H8.53969V16.66H4.53969ZM4.53969 26.164C4.53969 26.1821 4.53818 26.1865 4.53937 26.1801C4.54065 26.1732 4.54398 26.1594 4.55121 26.1416C4.55848 26.1237 4.56725 26.1077 4.57566 26.0951C4.5839 26.0829 4.58864 26.0786 4.58547 26.0818L7.4139 28.9102C8.16423 28.1599 8.53969 27.2005 8.53969 26.164H4.53969ZM4.63505 26.0339C4.6305 26.0381 4.63282 26.0353 4.64244 26.0292C4.65227 26.0229 4.66548 26.0159 4.6808 26.01C4.69605 26.0041 4.7082 26.0012 4.71486 26C4.7212 25.9988 4.71825 26 4.70369 26V30C5.70109 30 6.62446 29.6487 7.36433 28.9581L4.63505 26.0339ZM26.1048 12.88L24.1141 12.6881C24.1125 12.7046 24.1111 12.721 24.1099 12.7375L26.1048 12.88ZM26.3928 9.892L24.4955 9.25955C24.4479 9.40242 24.4165 9.55021 24.4021 9.70012L26.3928 9.892ZM26.3568 9.748L24.9426 11.1622C25.0946 11.3142 25.2702 11.4407 25.4624 11.5369L26.3568 9.748ZM26.2128 9.748L27.3753 11.3755C27.465 11.3114 27.5492 11.2401 27.627 11.1622L26.2128 9.748ZM23.6928 11.548L22.5304 9.92053C22.5008 9.94165 22.4718 9.96357 22.4435 9.98626L23.6928 11.548ZM22.9008 11.764L22.4158 13.7043C22.4674 13.7172 22.5195 13.728 22.572 13.7368L22.9008 11.764ZM22.2168 11.224L20.4804 12.2163C20.4833 12.2214 20.4863 12.2266 20.4893 12.2317L22.2168 11.224ZM22.0728 10.324L20.2521 9.49639C20.2306 9.54365 20.211 9.59173 20.1933 9.64051L22.0728 10.324ZM22.6848 9.748L23.4541 11.5942C23.4707 11.5872 23.4872 11.5801 23.5036 11.5727L22.6848 9.748ZM25.4928 8.488L24.8604 6.59063C24.7971 6.61172 24.7349 6.63597 24.6741 6.66328L25.4928 8.488ZM25.4928 8.272L24.6547 10.0879C24.7217 10.1188 24.7904 10.146 24.8604 10.1694L25.4928 8.272ZM22.6848 6.976L23.523 5.16008C23.5002 5.14957 23.4772 5.13949 23.4541 5.12984L22.6848 6.976ZM22.1088 6.364L20.2115 6.99645V6.99646L22.1088 6.364ZM22.2168 5.5L23.9444 6.50774L23.9444 6.50774L22.2168 5.5ZM22.9008 4.996L22.5721 3.02321L22.572 3.02321L22.9008 4.996ZM23.6928 5.176L24.8553 3.54853C24.8502 3.54484 24.845 3.54118 24.8398 3.53754L23.6928 5.176ZM26.2128 6.976L27.6271 5.5618C27.5492 5.48389 27.465 5.41256 27.3753 5.34853L26.2128 6.976ZM26.3568 7.012L27.2513 8.80086L27.2513 8.80084L26.3568 7.012ZM26.3928 6.868L24.4021 7.05988C24.4165 7.20979 24.4479 7.35759 24.4955 7.50046L26.3928 6.868ZM26.1048 3.88L24.1099 4.02249C24.1111 4.03897 24.1125 4.05544 24.1141 4.07188L26.1048 3.88ZM26.3568 3.052L24.9426 1.63779C24.9149 1.66549 24.8881 1.69399 24.862 1.72327L26.3568 3.052ZM28.1208 3.88L26.1409 3.59716C26.1366 3.62739 26.133 3.65772 26.1301 3.68812L28.1208 3.88ZM27.8328 6.868L29.7302 7.50046C29.7778 7.35759 29.8092 7.20979 29.8236 7.05988L27.8328 6.868ZM27.8688 7.012L26.9744 8.80084L26.9744 8.80086L27.8688 7.012ZM28.0488 6.976L29.1583 8.64009C29.1746 8.62918 29.1908 8.61804 29.2068 8.60665L28.0488 6.976ZM30.5328 5.212L31.6908 6.84265C31.697 6.83829 31.7031 6.8339 31.7092 6.82947L30.5328 5.212ZM31.3608 5.032L30.8758 6.97228C30.9274 6.98519 30.9795 6.99604 31.0321 7.00479L31.3608 5.032ZM32.0448 5.536L30.3173 6.54374C30.3252 6.55732 30.3333 6.57081 30.3415 6.5842L32.0448 5.536ZM31.5408 6.976L30.7716 5.12984C30.7454 5.14075 30.7195 5.15222 30.6938 5.16423L31.5408 6.976ZM28.7688 8.272L29.4013 10.1694C29.4744 10.145 29.5461 10.1164 29.6159 10.0838L28.7688 8.272ZM28.7688 8.488L29.5965 6.66726C29.5328 6.63832 29.4676 6.61274 29.4013 6.59063L28.7688 8.488ZM31.5408 9.748L32.379 7.93205L32.3685 7.92727L31.5408 9.748ZM32.1528 10.396L30.2555 11.0285C30.2612 11.0455 30.2671 11.0626 30.2733 11.0795L32.1528 10.396ZM31.3608 11.764L31.6896 13.7368C31.7421 13.728 31.7943 13.7172 31.8459 13.7043L31.3608 11.764ZM30.5328 11.548L31.7092 9.93052L31.7064 9.9285L30.5328 11.548ZM28.0488 9.748L29.2224 8.1285C29.2013 8.11321 29.1799 8.09834 29.1582 8.08389L28.0488 9.748ZM27.8688 9.748L28.7633 11.5369C28.9555 11.4407 29.131 11.3142 29.283 11.1622L27.8688 9.748ZM27.8328 9.892L29.8236 9.70012C29.8092 9.55021 29.7778 9.40242 29.7302 9.25955L27.8328 9.892ZM28.1208 12.88L26.1301 13.0719C26.133 13.1023 26.1366 13.1326 26.1409 13.1628L28.1208 12.88ZM27.8688 13.708L26.4546 12.2938C26.4269 12.3215 26.4001 12.35 26.374 12.3793L27.8688 13.708ZM27.0768 12.032C27.1889 12.032 27.34 12.0545 27.5016 12.1272C27.6629 12.1998 27.7789 12.2974 27.8517 12.3793L24.862 15.0367C25.4321 15.678 26.2153 16.032 27.0768 16.032V12.032ZM27.8517 12.3793C27.947 12.4866 28.021 12.6181 28.0632 12.7567C28.1035 12.889 28.1024 12.9862 28.0998 13.0225L24.1099 12.7375C24.0544 13.5147 24.2523 14.3507 24.862 15.0367L27.8517 12.3793ZM28.0956 13.0719L28.3836 10.0839L24.4021 9.70012L24.1141 12.6881L28.0956 13.0719ZM28.2902 10.5245C28.363 10.306 28.4773 9.85759 28.3421 9.31693C28.1815 8.67441 27.7475 8.20724 27.2513 7.95914L25.4624 11.5369C25.0142 11.3128 24.6102 10.8816 24.4616 10.2871C24.3384 9.7944 24.4466 9.40603 24.4955 9.25955L28.2902 10.5245ZM27.771 8.33377C27.5291 8.09178 27.0263 7.712 26.2848 7.712C25.5433 7.712 25.0406 8.09178 24.7986 8.33377L27.627 11.1622C27.4331 11.3562 26.9783 11.712 26.2848 11.712C25.5913 11.712 25.1366 11.3562 24.9426 11.1622L27.771 8.33377ZM25.0504 8.12053L22.5304 9.92053L24.8553 13.1755L27.3753 11.3755L25.0504 8.12053ZM22.4435 9.98626C22.5106 9.93258 22.6263 9.86073 22.7886 9.81647C22.9536 9.77149 23.1083 9.77098 23.2296 9.79121L22.572 13.7368C23.4532 13.8836 24.2849 13.6356 24.9422 13.1097L22.4435 9.98626ZM23.3859 9.82371C23.5105 9.85486 23.6398 9.91579 23.7531 10.0052C23.8624 10.0915 23.9207 10.1756 23.9444 10.2163L20.4893 12.2317C20.8922 12.9225 21.5383 13.4849 22.4158 13.7043L23.3859 9.82371ZM23.9533 10.2317C23.9456 10.2182 23.9888 10.2879 24.0117 10.431C24.037 10.5887 24.03 10.7941 23.9524 11.0075L20.1933 9.64051C19.8285 10.6437 20.1122 11.572 20.4804 12.2163L23.9533 10.2317ZM23.8936 11.1516C23.8498 11.248 23.7807 11.3498 23.6866 11.4384C23.5944 11.5252 23.5072 11.572 23.4541 11.5942L21.9156 7.90184C21.1997 8.20014 20.598 8.73538 20.2521 9.49639L23.8936 11.1516ZM23.5036 11.5727L26.3116 10.3127L24.6741 6.66328L21.8661 7.92328L23.5036 11.5727ZM26.1253 10.3854C26.4586 10.2743 27.6008 9.75653 27.6008 8.38H23.6008C23.6008 7.83888 23.8278 7.36059 24.1596 7.02877C24.4423 6.74608 24.7345 6.6326 24.8604 6.59063L26.1253 10.3854ZM27.6008 8.38C27.6008 7.00349 26.4586 6.48573 26.1253 6.37463L24.8604 10.1694C24.7345 10.1274 24.4423 10.0139 24.1596 9.73121C23.8278 9.39938 23.6008 8.9211 23.6008 8.38H27.6008ZM26.331 6.45608L23.523 5.16008L21.8467 8.79192L24.6547 10.0879L26.331 6.45608ZM23.4541 5.12984C23.5403 5.16579 23.6633 5.23697 23.7812 5.36227C23.9002 5.48869 23.9703 5.62374 24.0062 5.73154L20.2115 6.99646C20.4961 7.85029 21.1107 8.48679 21.9156 8.82215L23.4541 5.12984ZM24.0062 5.73155C24.0482 5.8575 24.0692 6.01406 24.0484 6.18007C24.0283 6.34099 23.9764 6.45293 23.9444 6.50774L20.4893 4.49226C20.0634 5.2223 19.9144 6.10528 20.2115 6.99645L24.0062 5.73155ZM23.9444 6.50774C23.915 6.55813 23.8412 6.66424 23.7002 6.76811C23.5529 6.87667 23.3861 6.9427 23.2296 6.96879L22.572 3.02321C21.6102 3.18352 20.9092 3.77236 20.4893 4.49226L23.9444 6.50774ZM23.2296 6.96879C23.1376 6.98413 23.0124 6.98725 22.8716 6.95526C22.731 6.9233 22.6205 6.86669 22.5459 6.81446L24.8398 3.53754C24.1723 3.07027 23.3787 2.88877 22.5721 3.02321L23.2296 6.96879ZM22.5304 6.80347L25.0504 8.60347L27.3753 5.34853L24.8553 3.54853L22.5304 6.80347ZM24.7986 8.3902C24.9874 8.57895 25.3167 8.84052 25.7998 8.96128C26.3275 9.09322 26.8392 9.00688 27.2513 8.80086L25.4624 5.22314C25.8265 5.04112 26.2902 4.96077 26.7699 5.08072C27.205 5.18948 27.4863 5.42105 27.6271 5.5618L24.7986 8.3902ZM27.2513 8.80084C27.7475 8.55274 28.1815 8.08558 28.3421 7.44307C28.4773 6.90241 28.363 6.45403 28.2902 6.23554L24.4955 7.50046C24.4466 7.35397 24.3384 6.96559 24.4616 6.47293C24.6102 5.87842 25.0142 5.44726 25.4624 5.22316L27.2513 8.80084ZM28.3836 6.67612L28.0956 3.68812L24.1141 4.07188L24.4021 7.05988L28.3836 6.67612ZM28.0998 3.7375C28.1024 3.77378 28.1035 3.87099 28.0632 4.00332C28.021 4.1419 27.947 4.27342 27.8517 4.38073L24.862 1.72327C24.2523 2.40926 24.0544 3.24529 24.1099 4.02249L28.0998 3.7375ZM27.7711 4.46621C27.7047 4.53253 27.605 4.60655 27.4741 4.66009C27.3441 4.71329 27.2281 4.728 27.1488 4.728V0.727999C26.3191 0.727999 25.5426 1.03782 24.9426 1.63779L27.7711 4.46621ZM27.1488 4.728C27.0712 4.728 26.939 4.71373 26.784 4.64729C26.6252 4.57922 26.4986 4.48032 26.41 4.38073L29.3997 1.72327C28.7954 1.04347 27.9809 0.727999 27.1488 0.727999V4.728ZM26.41 4.38073C26.2991 4.25595 26.2124 4.09755 26.1676 3.92584C26.1251 3.76292 26.1344 3.64306 26.1409 3.59716L30.1007 4.16284C30.2159 3.35699 30.0522 2.45739 29.3997 1.72327L26.41 4.38073ZM26.1301 3.68812L25.8421 6.67612L29.8236 7.05988L30.1116 4.07188L26.1301 3.68812ZM25.9355 6.23554C25.8626 6.45403 25.7484 6.90241 25.8836 7.44307C26.0442 8.08558 26.4782 8.55274 26.9744 8.80084L28.7633 5.22316C29.2115 5.44726 29.6155 5.87842 29.7641 6.47293C29.8873 6.96559 29.779 7.35397 29.7302 7.50046L25.9355 6.23554ZM26.9744 8.80086C27.9928 9.31001 28.8753 8.82875 29.1583 8.64009L26.9394 5.3119C27.0784 5.21924 27.8409 4.76198 28.7633 5.22314L26.9744 8.80086ZM29.2068 8.60665L31.6908 6.84265L29.3748 3.58134L26.8908 5.34534L29.2068 8.60665ZM31.7092 6.82947C31.6515 6.87144 31.5349 6.93993 31.3627 6.97735C31.185 7.01599 31.0143 7.00692 30.8758 6.97228L31.8459 3.09172C30.9219 2.86071 30.0453 3.0936 29.3565 3.59453L31.7092 6.82947ZM31.0321 7.00479C30.8756 6.97871 30.7088 6.91268 30.5614 6.80411C30.4205 6.70024 30.3467 6.59413 30.3173 6.54374L33.7724 4.52826C33.3525 3.80836 32.6515 3.21952 31.6896 3.05921L31.0321 7.00479ZM30.3415 6.5842C30.3257 6.55847 30.2568 6.43794 30.2313 6.23407C30.2035 6.01159 30.239 5.77723 30.3321 5.57239L33.9736 7.22761C34.4417 6.19766 34.1854 5.19835 33.7482 4.4878L30.3415 6.5842ZM30.3321 5.57239C30.3759 5.47601 30.445 5.37421 30.5391 5.2856C30.6313 5.19881 30.7185 5.15199 30.7716 5.12984L32.3101 8.82215C33.026 8.52386 33.6277 7.98862 33.9736 7.22761L30.3321 5.57239ZM30.6938 5.16423L27.9218 6.46023L29.6159 10.0838L32.3879 8.78776L30.6938 5.16423ZM28.1364 6.37463C27.8031 6.48573 26.6608 7.00349 26.6608 8.38H30.6608C30.6608 8.9211 30.4339 9.39938 30.1021 9.73121C29.8194 10.0139 29.5272 10.1274 29.4013 10.1694L28.1364 6.37463ZM26.6608 8.38C26.6608 9.75653 27.8031 10.2743 28.1364 10.3854L29.4013 6.59063C29.5272 6.6326 29.8193 6.74608 30.102 7.02877C30.4339 7.36059 30.6608 7.83888 30.6608 8.38H26.6608ZM27.9412 10.3087L30.7132 11.5687L32.3685 7.92727L29.5965 6.66726L27.9412 10.3087ZM30.7027 11.5639C30.6629 11.5455 30.5722 11.4954 30.4738 11.3912C30.3714 11.2828 30.2975 11.1545 30.2555 11.0285L34.0502 9.76354C33.7558 8.88027 33.1195 8.27386 32.379 7.93208L30.7027 11.5639ZM30.2733 11.0795C30.2128 10.9132 30.1908 10.7252 30.2146 10.5423C30.2372 10.3693 30.2931 10.2578 30.3173 10.2163L33.7724 12.2317C34.1778 11.5368 34.37 10.6409 34.0324 9.71252L30.2733 11.0795ZM30.3173 10.2163C30.341 10.1756 30.3992 10.0915 30.5086 10.0052C30.6219 9.91579 30.7512 9.85486 30.8758 9.82371L31.8459 13.7043C32.7234 13.4849 33.3695 12.9225 33.7724 12.2317L30.3173 10.2163ZM31.032 9.79121C31.1587 9.7701 31.302 9.77407 31.4427 9.81076C31.5787 9.84625 31.668 9.9006 31.7092 9.93053L29.3565 13.1655C29.9981 13.6321 30.8078 13.8838 31.6896 13.7368L31.032 9.79121ZM31.7064 9.9285L29.2224 8.1285L26.8753 11.3675L29.3593 13.1675L31.7064 9.9285ZM29.1582 8.08389C28.9321 7.93313 28.5134 7.712 27.9498 7.712C27.318 7.712 26.8 7.9884 26.4546 8.33377L29.283 11.1622C28.9857 11.4596 28.5217 11.712 27.9498 11.712C27.4463 11.712 27.0936 11.5149 26.9395 11.4121L29.1582 8.08389ZM26.9744 7.95914C26.4782 8.20724 26.0442 8.67441 25.8836 9.31693C25.7484 9.85759 25.8626 10.306 25.9355 10.5245L29.7302 9.25955C29.779 9.40603 29.8873 9.7944 29.7641 10.2871C29.6155 10.8816 29.2115 11.3128 28.7633 11.5369L26.9744 7.95914ZM25.8421 10.0839L26.1301 13.0719L30.1116 12.6881L29.8236 9.70012L25.8421 10.0839ZM26.1409 13.1628C26.1308 13.0918 26.1235 12.9439 26.1805 12.7567C26.2397 12.5621 26.3446 12.4038 26.4546 12.2938L29.2831 15.1222C29.9982 14.4071 30.2264 13.4767 30.1007 12.5972L26.1409 13.1628ZM26.374 12.3793C26.478 12.2623 26.6153 12.163 26.7696 12.0999C26.9167 12.0397 27.0306 12.032 27.0768 12.032V16.032C27.8817 16.032 28.729 15.7507 29.3637 15.0367L26.374 12.3793ZM40.063 27.64L40.7357 25.7565L40.063 27.64ZM36.211 25.264L37.5505 23.7789C37.4985 23.7319 37.444 23.6877 37.3873 23.6465L36.211 25.264ZM35.599 24.58L33.7528 25.3492C33.7797 25.4136 33.8098 25.4765 33.8432 25.5377L35.599 24.58ZM35.923 22.492L37.3851 23.8566L35.923 22.492ZM38.263 22.348L39.618 20.8769C39.5795 20.8415 39.5397 20.8076 39.4986 20.7754L38.263 22.348ZM41.107 24.256L40.303 26.0873C40.3084 26.0896 40.3138 26.092 40.3192 26.0943L41.107 24.256ZM47.263 24.436L46.5487 22.5679C46.5425 22.5703 46.5362 22.5727 46.53 22.5752L47.263 24.436ZM49.171 19.216L47.6346 20.4964C47.6539 20.5195 47.6737 20.5423 47.694 20.5645L49.171 19.216ZM47.047 17.812L46.2709 19.6553C46.2901 19.6634 46.3095 19.6712 46.329 19.6787L47.047 17.812ZM43.735 16.84L44.1342 14.8802C44.1193 14.8772 44.1043 14.8743 44.0893 14.8716L43.735 16.84ZM40.495 15.94L39.7359 17.7903C39.7413 17.7926 39.7468 17.7948 39.7522 17.797L40.495 15.94ZM38.083 14.5L36.751 15.9919C36.761 16.0009 36.7712 16.0097 36.7814 16.0185L38.083 14.5ZM36.535 12.376L34.7052 13.1833L36.535 12.376ZM37.147 5.752L38.7645 6.92834L37.147 5.752ZM48.991 3.16L48.3075 5.03959C48.3176 5.04326 48.3278 5.04686 48.338 5.05038L48.991 3.16ZM52.195 5.032L50.802 6.46716C50.8268 6.49114 50.8521 6.51448 50.878 6.53716L52.195 5.032ZM52.519 7.876L51.0599 6.50811L51.0569 6.51136L52.519 7.876ZM50.467 8.128L49.0106 9.49873C49.075 9.56718 49.1442 9.63101 49.2176 9.68973L50.467 8.128ZM48.919 7.048L47.9984 8.82351C48.0159 8.8326 48.0336 8.84143 48.0514 8.85L48.919 7.048ZM46.831 6.22L46.2563 8.13565C46.262 8.13736 46.2677 8.13904 46.2734 8.14069L46.831 6.22ZM41.971 6.364L42.6732 8.23666C42.6902 8.23031 42.707 8.22374 42.7238 8.21693L41.971 6.364ZM40.207 7.588L41.7615 8.84639C41.771 8.83467 41.7803 8.82283 41.7896 8.81089L40.207 7.588ZM40.279 11.404L38.7654 12.7112C38.7764 12.7241 38.7877 12.7368 38.7991 12.7493L40.279 11.404ZM42.259 12.7L41.5162 14.557C41.5316 14.5631 41.5471 14.5691 41.5626 14.5749L42.259 12.7ZM45.139 13.564L44.6641 15.5068C44.6802 15.5107 44.6964 15.5145 44.7127 15.518L45.139 13.564ZM48.667 14.536L48.0083 16.4244C48.0127 16.426 48.0172 16.4275 48.0217 16.429L48.667 14.536ZM51.331 15.94L50.0816 17.5017C50.0924 17.5103 50.1032 17.5188 50.1141 17.5272L51.331 15.94ZM52.987 18.028L51.168 18.8595L51.1681 18.8595L52.987 18.028ZM52.339 24.94L50.7433 23.7343H50.7433L52.339 24.94ZM49.099 27.46L48.2837 25.6337L48.2714 25.6393L49.099 27.46ZM44.671 26.36C43.1254 26.36 41.8237 26.1451 40.7357 25.7565L39.3903 29.5235C40.9903 30.0949 42.7606 30.36 44.671 30.36V26.36ZM40.7357 25.7565C39.673 25.377 38.6102 24.7346 37.5505 23.7789L34.8715 26.7491C36.2598 28.0014 37.765 28.943 39.3903 29.5235L40.7357 25.7565ZM37.3873 23.6465C37.3622 23.6282 37.352 23.6171 37.3505 23.6154C37.3493 23.6141 37.3518 23.6169 37.3548 23.6223L33.8432 25.5377C34.1409 26.0835 34.5518 26.5303 35.0347 26.8815L37.3873 23.6465ZM37.4452 23.8108C37.4182 23.746 37.419 23.7186 37.419 23.716H33.419C33.419 24.2894 33.5398 24.838 33.7528 25.3492L37.4452 23.8108ZM37.419 23.716C37.419 23.7255 37.4181 23.7425 37.4137 23.7647C37.4094 23.7871 37.4027 23.8093 37.3944 23.8295C37.3766 23.8726 37.3625 23.8809 37.3851 23.8566L34.4609 21.1274C33.8094 21.8254 33.419 22.7108 33.419 23.716H37.419ZM37.3851 23.8566C37.3786 23.8636 37.3424 23.8976 37.2778 23.9253C37.2144 23.9525 37.1738 23.952 37.183 23.952V19.952C36.1394 19.952 35.1851 20.3514 34.4609 21.1274L37.3851 23.8566ZM37.183 23.952C37.1404 23.952 37.0934 23.9437 37.0525 23.9288C37.0141 23.9147 37.0059 23.9038 37.0274 23.9206L39.4986 20.7754C38.8523 20.2675 38.0658 19.952 37.183 19.952V23.952ZM36.908 23.8191C37.958 24.7862 39.0883 25.554 40.303 26.0873L41.911 22.4247C41.1577 22.094 40.392 21.5898 39.618 20.8769L36.908 23.8191ZM40.3192 26.0943C41.6255 26.6542 43.0796 26.904 44.635 26.904V22.904C43.5024 22.904 42.6045 22.7218 41.8948 22.4177L40.3192 26.0943ZM44.635 26.904C45.814 26.904 46.9427 26.7118 47.996 26.2968L46.53 22.5752C45.9993 22.7842 45.376 22.904 44.635 22.904V26.904ZM47.9773 26.3041C49.0213 25.9049 49.9541 25.3274 50.6869 24.5213L47.7271 21.8307C47.4999 22.0806 47.1367 22.3431 46.5487 22.5679L47.9773 26.3041ZM50.6869 24.5213C51.4922 23.6355 51.927 22.5472 51.927 21.34H47.927C47.927 21.5248 47.8818 21.6605 47.7271 21.8307L50.6869 24.5213ZM51.927 21.34C51.927 20.0601 51.5406 18.8451 50.648 17.8675L47.694 20.5645C47.8094 20.6909 47.927 20.8919 47.927 21.34H51.927ZM50.7074 17.9356C49.9477 17.0239 48.9159 16.388 47.765 15.9453L46.329 19.6787C47.0502 19.956 47.4343 20.2561 47.6346 20.4964L50.7074 17.9356ZM47.8231 15.9687C46.7569 15.5198 45.5192 15.1624 44.1342 14.8802L43.3358 18.7998C44.5428 19.0456 45.5131 19.3362 46.2709 19.6553L47.8231 15.9687ZM44.0893 14.8716C42.9993 14.6754 42.0525 14.4089 41.2378 14.083L39.7522 17.797C40.8575 18.2391 42.0707 18.5726 43.3807 18.8084L44.0893 14.8716ZM41.2541 14.0897C40.4877 13.7752 39.8733 13.4004 39.3846 12.9815L36.7814 16.0185C37.6367 16.7516 38.6303 17.3368 39.7359 17.7903L41.2541 14.0897ZM39.415 13.0081C38.9537 12.5962 38.6084 12.1209 38.3648 11.5687L34.7052 13.1833C35.1815 14.2631 35.8683 15.2038 36.751 15.9919L39.415 13.0081ZM38.3648 11.5687C38.1381 11.0548 37.995 10.3914 37.995 9.532H33.995C33.995 10.8326 34.2119 12.0652 34.7052 13.1833L38.3648 11.5687ZM37.995 9.532C37.995 8.4371 38.2748 7.60158 38.7645 6.92834L35.5295 4.57566C34.4832 6.01442 33.995 7.6989 33.995 9.532H37.995ZM38.7645 6.92834C39.3021 6.18908 40.0505 5.58584 41.0789 5.13708L39.4791 1.47092C37.8675 2.17415 36.5279 3.20292 35.5295 4.57566L38.7645 6.92834ZM41.0789 5.13708C42.1115 4.68647 43.3213 4.44 44.743 4.44V0.439999C42.8527 0.439999 41.0865 0.769532 39.4791 1.47092L41.0789 5.13708ZM44.743 4.44C46.0398 4.44 47.2228 4.64514 48.3075 5.03959L49.6745 1.28041C48.1192 0.714855 46.4702 0.439999 44.743 0.439999V4.44ZM48.338 5.05038C49.4428 5.43204 50.2387 5.92039 50.802 6.46716L53.588 3.59684C52.5193 2.55961 51.1792 1.79996 49.644 1.26962L48.338 5.05038ZM50.878 6.53716C51.0277 6.66819 51.0727 6.74573 51.0783 6.75618C51.0803 6.75999 51.0744 6.74962 51.0684 6.72651C51.0623 6.70284 51.059 6.67668 51.059 6.652H55.059C55.059 5.32526 54.3712 4.27865 53.512 3.52684L50.878 6.53716ZM51.059 6.652C51.059 6.61995 51.0625 6.58597 51.0696 6.55244C51.0768 6.51909 51.0862 6.49274 51.0942 6.47472C51.11 6.43883 51.1128 6.45176 51.0599 6.50812L53.9781 9.24388C54.6055 8.57459 55.059 7.6982 55.059 6.652H51.059ZM51.0569 6.51136C51.0447 6.52437 51.0714 6.49255 51.1424 6.46027C51.2168 6.42643 51.2876 6.416 51.331 6.416V10.416C52.389 10.416 53.3006 9.96974 53.9811 9.24064L51.0569 6.51136ZM51.331 6.416C51.3552 6.416 51.415 6.41981 51.4955 6.44663C51.5781 6.47418 51.6545 6.51674 51.7164 6.56626L49.2176 9.68973C49.8459 10.1924 50.586 10.416 51.331 10.416V6.416ZM51.9234 6.75727C51.3311 6.12793 50.5959 5.63563 49.7866 5.246L48.0514 8.85C48.5381 9.08437 48.8349 9.31207 49.0106 9.49873L51.9234 6.75727ZM49.8396 5.27249C49.0688 4.8728 48.2504 4.54951 47.3886 4.29931L46.2734 8.14069C46.8996 8.32248 47.4732 8.5512 47.9984 8.82351L49.8396 5.27249ZM47.4057 4.30435C46.5211 4.03896 45.6312 3.896 44.743 3.896V7.896C45.1988 7.896 45.7009 7.96904 46.2563 8.13565L47.4057 4.30435ZM44.743 3.896C43.4793 3.896 42.2857 4.0774 41.2182 4.51107L42.7238 8.21693C43.1923 8.0266 43.8467 7.896 44.743 7.896V3.896ZM41.2688 4.49134C40.2324 4.87997 39.3068 5.48207 38.6244 6.3651L41.7896 8.81089C41.9232 8.63793 42.1736 8.42402 42.6732 8.23666L41.2688 4.49134ZM38.6525 6.3296C37.9344 7.21671 37.595 8.26994 37.595 9.388H41.595C41.595 9.11406 41.6636 8.96729 41.7615 8.84639L38.6525 6.3296ZM37.595 9.388C37.595 10.598 37.9437 11.7598 38.7654 12.7112L41.7926 10.0968C41.7023 9.99219 41.595 9.80997 41.595 9.388H37.595ZM38.7991 12.7493C39.53 13.5533 40.4681 14.1377 41.5162 14.557L43.0018 10.843C42.3699 10.5903 41.988 10.3107 41.7589 10.0587L38.7991 12.7493ZM41.5626 14.5749C42.4898 14.9192 43.5261 15.2286 44.6641 15.5068L45.6139 11.6212C44.5919 11.3714 43.7082 11.1048 42.9554 10.8251L41.5626 14.5749ZM44.7127 15.518C45.9715 15.7927 47.0676 16.0963 48.0083 16.4244L49.3257 12.6476C48.2024 12.2557 46.9465 11.9113 45.5653 11.61L44.7127 15.518ZM48.0217 16.429C48.9032 16.7296 49.5757 17.097 50.0816 17.5017L52.5804 14.3783C51.6463 13.631 50.5428 13.0624 49.3123 12.643L48.0217 16.429ZM50.1141 17.5272C50.5699 17.8766 50.9174 18.3113 51.168 18.8595L54.806 17.1965C54.2886 16.0647 53.5321 15.1074 52.5479 14.3528L50.1141 17.5272ZM51.1681 18.8595C51.3986 19.3639 51.563 20.1036 51.563 21.16H55.563C55.563 19.7204 55.3434 18.3721 54.8059 17.1965L51.1681 18.8595ZM51.563 21.16C51.563 22.1944 51.2796 23.0244 50.7433 23.7343L53.9347 26.1457C55.0304 24.6956 55.563 23.0056 55.563 21.16H51.563ZM50.7433 23.7343C50.1483 24.5217 49.347 25.159 48.2837 25.6337L49.9143 29.2863C51.539 28.561 52.8977 27.5183 53.9347 26.1457L50.7433 23.7343ZM48.2714 25.6393C47.2421 26.1071 46.0534 26.36 44.671 26.36V30.36C46.5526 30.36 48.3159 30.0129 49.9266 29.2807L48.2714 25.6393ZM65.5136 27.496L64.0515 28.8606C64.0828 28.8942 64.1154 28.9268 64.149 28.9581L65.5136 27.496ZM65.0096 4.6V2.6C63.905 2.6 63.0096 3.49543 63.0096 4.6H65.0096ZM68.8616 4.6H70.8616C70.8616 3.49543 69.9662 2.6 68.8616 2.6V4.6ZM68.2856 27.496L69.6502 28.9581L69.6535 28.9551L68.2856 27.496ZM57.4496 5.788L56.085 7.25011C56.1029 7.26687 56.1212 7.28329 56.1397 7.29938L57.4496 5.788ZM57.4496 3.268L58.7595 4.77938L57.4496 3.268ZM76.3856 3.304L74.9714 4.71821C75.005 4.75183 75.0398 4.78424 75.0757 4.81538L76.3856 3.304ZM76.3856 5.788L75.0757 4.27662C75.0585 4.29159 75.0414 4.30686 75.0247 4.32241L76.3856 5.788ZM66.9176 26C66.8241 26 66.7962 25.9865 66.8103 25.9916C66.817 25.994 66.8291 25.9992 66.8437 26.0081C66.8585 26.0171 66.8703 26.0264 66.8782 26.0339L64.149 28.9581C64.9413 29.6977 65.9268 30 66.9176 30V26ZM66.9757 26.1314C66.9754 26.131 66.9805 26.1365 66.9877 26.148C66.9949 26.1596 67.0014 26.1726 67.0062 26.1852C67.0109 26.1977 67.0121 26.2047 67.0119 26.2036C67.0116 26.2022 67.0096 26.1898 67.0096 26.164H63.0096C63.0096 27.1585 63.3434 28.102 64.0515 28.8606L66.9757 26.1314ZM67.0096 26.164V4.6H63.0096V26.164H67.0096ZM65.0096 6.6H68.8616V2.6H65.0096V6.6ZM66.8616 4.6V26.164H70.8616V4.6H66.8616ZM66.8616 26.164C66.8616 26.1744 66.8607 26.1709 66.8635 26.1567C66.8664 26.142 66.8721 26.1218 66.8819 26.0992C66.8917 26.0765 66.9026 26.0582 66.9118 26.0455C66.9206 26.0331 66.9244 26.0307 66.9177 26.0369L69.6535 28.9551C70.4422 28.2156 70.8616 27.2429 70.8616 26.164H66.8616ZM66.921 26.0339C66.9248 26.0303 66.9334 26.023 66.9466 26.0149C66.9598 26.0067 66.9725 26.0009 66.9822 25.9973C66.9916 25.9938 66.9935 25.9943 66.9848 25.9957C66.9757 25.9972 66.9541 26 66.9176 26V30C67.9099 30 68.8741 29.6825 69.6502 28.9581L66.921 26.0339ZM58.7456 4.256C58.723 4.256 58.7117 4.25427 58.7099 4.25396C58.7083 4.2537 58.7134 4.25446 58.7229 4.25789C58.7325 4.26136 58.7422 4.26596 58.7506 4.2709C58.7588 4.27576 58.7618 4.27861 58.7595 4.27662L56.1397 7.29938C56.8856 7.94583 57.7907 8.256 58.7456 8.256V4.256ZM58.8142 4.32589C58.8203 4.33155 58.8337 4.34524 58.8494 4.36765C58.8653 4.3903 58.8796 4.41605 58.8907 4.44277C58.9145 4.49984 58.9096 4.5257 58.9096 4.492H54.9096C54.9096 5.52957 55.2881 6.50634 56.085 7.25011L58.8142 4.32589ZM58.9096 4.492C58.9096 4.48182 58.9104 4.5338 58.8744 4.61528C58.8372 4.6997 58.7871 4.75542 58.7595 4.77938L56.1397 1.75662C55.3133 2.47285 54.9096 3.4462 54.9096 4.492H58.9096ZM58.7595 4.77938C58.7618 4.77738 58.7588 4.78024 58.7506 4.7851C58.7422 4.79003 58.7325 4.79463 58.7229 4.79811C58.7134 4.80154 58.7083 4.8023 58.7099 4.80204C58.7117 4.80173 58.723 4.8 58.7456 4.8V0.799998C57.7907 0.799998 56.8856 1.11017 56.1397 1.75662L58.7595 4.77938ZM58.7456 4.8H75.1256V0.799998H58.7456V4.8ZM75.1256 4.8C75.1522 4.8 75.1276 4.80365 75.0758 4.78295C75.0517 4.77331 75.0286 4.76107 75.0084 4.7476C74.9885 4.73427 74.9762 4.72308 74.9714 4.71821L77.7998 1.88978C77.0642 1.15419 76.1243 0.799998 75.1256 0.799998V4.8ZM75.0757 4.81538C75.0481 4.79141 74.998 4.73569 74.9608 4.65128C74.9248 4.5698 74.9256 4.51781 74.9256 4.528H78.9256C78.9256 3.4822 78.5219 2.50885 77.6955 1.79262L75.0757 4.81538ZM74.9256 4.528C74.9256 4.5629 74.9203 4.52582 74.9523 4.45116C74.9866 4.37121 75.0371 4.31007 75.0757 4.27662L77.6955 7.29938C78.5444 6.56361 78.9256 5.5655 78.9256 4.528H74.9256ZM75.0247 4.32241C75.0326 4.31507 75.0461 4.30398 75.0651 4.29222C75.0842 4.2804 75.1039 4.27094 75.1222 4.26415C75.1611 4.24971 75.1693 4.256 75.1256 4.256V8.256C76.08 8.256 77.0025 7.9444 77.7465 7.25358L75.0247 4.32241ZM75.1256 4.256H58.7456V8.256H75.1256V4.256ZM85.4987 26.164L87.4966 26.2548C87.498 26.2246 87.4987 26.1943 87.4987 26.164H85.4987ZM84.8867 27.496L86.2513 28.9581L86.2545 28.9551L84.8867 27.496ZM82.2227 27.496L80.7606 28.8606C80.7919 28.8942 80.8244 28.9268 80.858 28.9581L82.2227 27.496ZM82.2587 3.34L83.6233 4.80211C83.6401 4.78643 83.6566 4.77046 83.6729 4.75421L82.2587 3.34ZM84.9227 3.34L83.5084 4.75421C83.5398 4.78559 83.5722 4.81592 83.6056 4.84515L84.9227 3.34ZM83.5007 26.0732C83.5 26.0891 83.4985 26.093 83.4998 26.0875C83.5011 26.0817 83.5043 26.071 83.5103 26.058C83.5163 26.045 83.5225 26.0351 83.5266 26.0296C83.5304 26.0243 83.5293 26.0271 83.5188 26.0369L86.2545 28.9551C87.0206 28.2369 87.449 27.3012 87.4966 26.2548L83.5007 26.0732ZM83.522 26.0339C83.5175 26.0381 83.5198 26.0353 83.5294 26.0292C83.5392 26.0229 83.5525 26.0159 83.5678 26.01C83.583 26.0041 83.5952 26.0012 83.6018 26C83.6082 25.9988 83.6052 26 83.5907 26V30C84.5881 30 85.5114 29.6487 86.2513 28.9581L83.522 26.0339ZM83.5907 26C83.5541 26 83.5325 25.9972 83.5235 25.9957C83.5148 25.9943 83.5166 25.9938 83.5261 25.9973C83.5358 26.0009 83.5484 26.0067 83.5616 26.0149C83.5748 26.023 83.5835 26.0303 83.5873 26.0339L80.858 28.9581C81.6341 29.6825 82.5983 30 83.5907 30V26ZM83.6848 26.1314C83.6844 26.131 83.6895 26.1365 83.6967 26.148C83.704 26.1596 83.7105 26.1726 83.7152 26.1852C83.7199 26.1977 83.7211 26.2047 83.7209 26.2036C83.7207 26.2022 83.7187 26.1898 83.7187 26.164H79.7187C79.7187 27.1585 80.0525 28.102 80.7606 28.8606L83.6848 26.1314ZM83.7187 26.164V4.636H79.7187V26.164H83.7187ZM83.7187 4.636C83.7187 4.6023 83.7236 4.62816 83.6998 4.68523C83.6887 4.71194 83.6744 4.73769 83.6585 4.76035C83.6427 4.78275 83.6294 4.79644 83.6233 4.80211L80.894 1.87789C80.0971 2.62166 79.7187 3.59843 79.7187 4.636H83.7187ZM83.6729 4.75421C83.6679 4.75917 83.6573 4.7686 83.6414 4.77897C83.6255 4.78939 83.6099 4.79695 83.5976 4.80169C83.5856 4.8063 83.5821 4.80615 83.5907 4.80467C83.5997 4.80311 83.6228 4.8 83.6627 4.8V0.799998C82.6322 0.799998 81.63 1.14023 80.8444 1.92578L83.6729 4.75421ZM83.6627 4.8C83.657 4.8 83.6416 4.79939 83.6192 4.79491C83.5965 4.79037 83.5726 4.78306 83.5498 4.77329C83.5007 4.75224 83.4879 4.73362 83.5084 4.75421L86.3369 1.92578C85.6271 1.21596 84.7078 0.799998 83.6627 0.799998V4.8ZM83.6056 4.84515C83.5968 4.83739 83.5581 4.79813 83.527 4.72828C83.4968 4.66018 83.4987 4.61901 83.4987 4.636H87.4987C87.4987 3.55419 87.0746 2.56546 86.2397 1.83485L83.6056 4.84515ZM83.4987 4.636V26.164H87.4987V4.636H83.4987Z" fill="url(#paint0_linear_1754_113149)" mask="url(#path-1-outside-1_1754_113149)"/>
<defs>
<linearGradient id="paint0_linear_1754_113149" x1="-50.1552" y1="2.5" x2="94.426" y2="20.4358" gradientUnits="userSpaceOnUse">
<stop stop-color="#1340BE"/>
<stop offset="0.468518" stop-color="#1597C8"/>
<stop offset="1" stop-color="#B3D91D"/>
</linearGradient>
</defs>
</svg>
