<svg width="48" height="48" viewBox="0 0 48 48" fill="none" xmlns="http://www.w3.org/2000/svg">
<path opacity="0.2" d="M40.3128 31.6334C39.019 34.3915 37.0493 36.7778 34.5865 38.5709L32.8315 36.8141C32.6435 36.6253 32.4086 36.4901 32.1509 36.4222L28.1253 35.3609C27.7684 35.2671 27.4587 35.045 27.2553 34.7371C27.0519 34.4293 26.9691 34.0573 27.0228 33.6922L27.469 30.6547C27.5068 30.3985 27.6102 30.1564 27.7692 29.9521C27.9282 29.7477 28.1375 29.588 28.3765 29.4884L34.0878 27.1147C34.3516 27.0052 34.6412 26.9733 34.9226 27.0228C35.2039 27.0723 35.4653 27.2011 35.6759 27.3941L40.3128 31.6334ZM29.9797 19.6878L34.1365 14.8503C34.3702 14.5791 34.4993 14.2333 34.5003 13.8753V9.37532C31.0223 6.87386 26.7661 5.69491 22.4967 6.05038C18.2274 6.40584 14.2248 8.27242 11.2083 11.3146C8.19191 14.3568 6.35943 18.3751 6.04028 22.6474C5.72112 26.9196 6.93621 31.1656 9.46716 34.6222L11.3272 33.3997C11.5332 33.2636 11.7024 33.0788 11.8198 32.8616C11.9372 32.6444 11.9992 32.4016 12.0003 32.1547L12.0397 25.3616C12.0417 25.0672 12.1297 24.7798 12.2928 24.5347L16.219 18.6659C16.3316 18.4988 16.4767 18.3561 16.6457 18.2463C16.8147 18.1365 17.0041 18.0619 17.2025 18.0269C17.401 17.9919 17.6044 17.9972 17.8008 18.0426C17.9971 18.088 18.1823 18.1724 18.3453 18.2909L22.0597 20.7284C22.3724 20.9537 22.7594 21.051 23.1415 21.0003L29.0403 20.2016C29.4059 20.1517 29.7404 19.9688 29.9797 19.6878Z" fill="#6A31CE"/>
<path d="M24 4.5C20.1433 4.5 16.3731 5.64366 13.1664 7.78634C9.95963 9.92903 7.46027 12.9745 5.98436 16.5377C4.50845 20.1008 4.12228 24.0216 4.8747 27.8043C5.62711 31.5869 7.4843 35.0615 10.2114 37.7886C12.9386 40.5157 16.4131 42.3729 20.1957 43.1253C23.9784 43.8777 27.8992 43.4916 31.4623 42.0156C35.0255 40.5397 38.071 38.0404 40.2137 34.8336C42.3564 31.6269 43.5 27.8567 43.5 24C43.4945 18.83 41.4383 13.8732 37.7826 10.2174C34.1268 6.56167 29.1701 4.50546 24 4.5ZM24 7.5C27.1968 7.49661 30.3249 8.42723 33 10.1775V13.875L28.8431 18.7013L22.9425 19.5L22.8844 19.4587L19.1963 17.0475C18.8693 16.8172 18.4995 16.6545 18.1088 16.5692C17.718 16.4838 17.3141 16.4775 16.9209 16.5505C16.5276 16.6235 16.153 16.7745 15.8189 16.9944C15.4848 17.2144 15.1981 17.4989 14.9756 17.8312L11.0494 23.7C10.7223 24.1891 10.5462 24.7635 10.5431 25.3519L10.5 32.145L9.88688 32.5481C8.37116 30.0456 7.54809 27.1851 7.50203 24.2598C7.45597 21.3344 8.18858 18.4494 9.62477 15.9004C11.061 13.3515 13.1491 11.2302 15.6751 9.75406C18.2012 8.27793 21.0743 7.5 24 7.5ZM11.6794 34.9631L12.1519 34.6538C12.5645 34.3816 12.9034 34.0117 13.1386 33.577C13.3738 33.1423 13.498 32.6561 13.5 32.1619L13.5394 25.3688L17.4694 19.5C17.4886 19.5148 17.5087 19.5286 17.5294 19.5413L21.2175 21.9544C21.8356 22.3906 22.5961 22.5762 23.3456 22.4738L29.25 21.6731C29.9781 21.576 30.6453 21.215 31.125 20.6588L35.2819 15.8287C35.7468 15.2841 36.0015 14.5911 36 13.875V12.6881C38.0289 14.8346 39.4434 17.487 40.0956 20.3677C40.7477 23.2484 40.6135 26.2515 39.7069 29.0625L36.6806 26.295C36.2599 25.9088 35.7377 25.6508 35.1754 25.5511C34.6131 25.4515 34.034 25.5144 33.5063 25.7325L27.795 28.1044C27.3175 28.3048 26.8996 28.6249 26.5817 29.0338C26.2638 29.4427 26.0566 29.9265 25.98 30.4387L25.5319 33.4744C25.4242 34.205 25.5898 34.9498 25.997 35.5659C26.4042 36.1821 27.0244 36.6264 27.7388 36.8138L31.7625 37.875L32.205 38.3194C28.9193 40.2046 25.0843 40.9001 21.3458 40.2888C17.6072 39.6775 14.1935 37.7967 11.6794 34.9631ZM34.6875 36.5625L33.8813 35.7544C33.5052 35.3769 33.0353 35.1063 32.52 34.9706L28.5 33.9094L28.9481 30.8738L34.6575 28.5L38.4375 31.965C37.4741 33.7105 36.2038 35.2679 34.6875 36.5625Z" fill="#6A31CE"/>
</svg>
