<svg width="48" height="49" viewBox="0 0 48 49" fill="none" xmlns="http://www.w3.org/2000/svg">
<path opacity="0.2" d="M36.75 22.6914L19.9387 39.5027C19.6577 39.7834 19.2767 39.9412 18.8794 39.9414H9V30.062C9.00018 29.6647 9.15798 29.2837 9.43875 29.0027L26.25 12.1914L36.75 22.6914Z" fill="#9A3242"/>
<path d="M44.5611 13.38L35.5611 4.38001C35.4217 4.24065 35.2563 4.1301 35.0742 4.05467C34.8921 3.97925 34.697 3.94043 34.4999 3.94043C34.3028 3.94043 34.1076 3.97925 33.9255 4.05467C33.7434 4.1301 33.578 4.24065 33.4386 4.38001C33.2992 4.51938 33.1887 4.68483 33.1133 4.86692C33.0378 5.04901 32.999 5.24417 32.999 5.44126C32.999 5.63836 33.0378 5.83352 33.1133 6.01561C33.1887 6.1977 33.2992 6.36315 33.4386 6.50251L36.8792 9.94126L31.4999 15.3206L25.0611 8.88001C24.7796 8.59855 24.3979 8.44043 23.9999 8.44043C23.6018 8.44043 23.2201 8.59855 22.9386 8.88001C22.6571 9.16147 22.499 9.54322 22.499 9.94126C22.499 10.3393 22.6571 10.7211 22.9386 11.0025L24.1292 12.1913L8.37923 27.9413C8.09944 28.2188 7.87762 28.5492 7.72666 28.9133C7.57569 29.2773 7.4986 29.6678 7.49986 30.0619V39.3206L3.43861 43.38C3.29924 43.5194 3.18869 43.6848 3.11327 43.8669C3.03784 44.049 2.99902 44.2442 2.99902 44.4413C2.99902 44.6384 3.03784 44.8335 3.11327 45.0156C3.18869 45.1977 3.29924 45.3632 3.43861 45.5025C3.72007 45.784 4.10181 45.9421 4.49986 45.9421C4.69695 45.9421 4.89211 45.9033 5.0742 45.8279C5.25629 45.7524 5.42174 45.6419 5.56111 45.5025L9.62048 41.4413H18.8792C19.2733 41.4425 19.6638 41.3654 20.0278 41.2145C20.3919 41.0635 20.7223 40.8417 20.9999 40.5619L36.7499 24.8119L37.9386 26.0025C38.078 26.1419 38.2434 26.2524 38.4255 26.3279C38.6076 26.4033 38.8028 26.4421 38.9999 26.4421C39.197 26.4421 39.3921 26.4033 39.5742 26.3279C39.7563 26.2524 39.9217 26.1419 40.0611 26.0025C40.2005 25.8631 40.311 25.6977 40.3864 25.5156C40.4619 25.3335 40.5007 25.1384 40.5007 24.9413C40.5007 24.7442 40.4619 24.549 40.3864 24.3669C40.311 24.1848 40.2005 24.0194 40.0611 23.88L33.6205 17.4413L38.9999 12.0619L42.4386 15.5025C42.7201 15.784 43.1018 15.9421 43.4999 15.9421C43.8979 15.9421 44.2796 15.784 44.5611 15.5025C44.8426 15.2211 45.0007 14.8393 45.0007 14.4413C45.0007 14.0432 44.8426 13.6615 44.5611 13.38ZM18.8792 38.4413H10.4999V30.0619L13.8749 26.6869L17.6886 30.5025C17.828 30.6419 17.9934 30.7524 18.1755 30.8279C18.3576 30.9033 18.5528 30.9421 18.7499 30.9421C18.9469 30.9421 19.1421 30.9033 19.3242 30.8279C19.5063 30.7524 19.6717 30.6419 19.8111 30.5025C19.9505 30.3631 20.061 30.1977 20.1364 30.0156C20.2119 29.8335 20.2507 29.6384 20.2507 29.4413C20.2507 29.2442 20.2119 29.049 20.1364 28.8669C20.061 28.6848 19.9505 28.5194 19.8111 28.38L15.9955 24.5663L18.3749 22.1869L22.1886 26.0025C22.4701 26.284 22.8518 26.4421 23.2499 26.4421C23.6479 26.4421 24.0296 26.284 24.3111 26.0025C24.5926 25.7211 24.7507 25.3393 24.7507 24.9413C24.7507 24.5432 24.5926 24.1615 24.3111 23.88L20.4955 20.0663L26.2499 14.3119L34.6292 22.6913L18.8792 38.4413Z" fill="#9A3242"/>
</svg>
