<svg width="48" height="49" viewBox="0 0 48 49" fill="none" xmlns="http://www.w3.org/2000/svg">
<path opacity="0.2" d="M39 8.44141H9C8.60218 8.44141 8.22064 8.59944 7.93934 8.88075C7.65804 9.16205 7.5 9.54358 7.5 9.94141V39.9414C7.5 40.3392 7.65804 40.7208 7.93934 41.0021C8.22064 41.2834 8.60218 41.4414 9 41.4414H39C39.3978 41.4414 39.7794 41.2834 40.0607 41.0021C40.342 40.7208 40.5 40.3392 40.5 39.9414V9.94141C40.5 9.54358 40.342 9.16205 40.0607 8.88075C39.7794 8.59944 39.3978 8.44141 39 8.44141ZM16.5 35.4414C15.9067 35.4414 15.3266 35.2655 14.8333 34.9358C14.3399 34.6062 13.9554 34.1376 13.7284 33.5895C13.5013 33.0413 13.4419 32.4381 13.5576 31.8561C13.6734 31.2742 13.9591 30.7396 14.3787 30.3201C14.7982 29.9005 15.3328 29.6148 15.9147 29.4991C16.4967 29.3833 17.0999 29.4427 17.6481 29.6698C18.1962 29.8968 18.6648 30.2813 18.9944 30.7747C19.3241 31.268 19.5 31.8481 19.5 32.4414C19.5 33.2371 19.1839 34.0001 18.6213 34.5627C18.0587 35.1253 17.2956 35.4414 16.5 35.4414ZM31.5 23.4414C30.9067 23.4414 30.3266 23.2655 29.8333 22.9358C29.3399 22.6062 28.9554 22.1376 28.7284 21.5895C28.5013 21.0413 28.4419 20.4381 28.5576 19.8561C28.6734 19.2742 28.9591 18.7396 29.3787 18.3201C29.7982 17.9005 30.3328 17.6148 30.9147 17.4991C31.4967 17.3833 32.0999 17.4427 32.6481 17.6698C33.1962 17.8968 33.6648 18.2813 33.9944 18.7747C34.3241 19.268 34.5 19.8481 34.5 20.4414C34.5 21.2371 34.1839 22.0001 33.6213 22.5627C33.0587 23.1253 32.2956 23.4414 31.5 23.4414Z" fill="#9A3242"/>
<path d="M39 6.94141H9C8.20435 6.94141 7.44129 7.25748 6.87868 7.82009C6.31607 8.38269 6 9.14576 6 9.94141V39.9414C6 40.7371 6.31607 41.5001 6.87868 42.0627C7.44129 42.6253 8.20435 42.9414 9 42.9414H39C39.7957 42.9414 40.5587 42.6253 41.1213 42.0627C41.6839 41.5001 42 40.7371 42 39.9414V9.94141C42 9.14576 41.6839 8.38269 41.1213 7.82009C40.5587 7.25748 39.7957 6.94141 39 6.94141ZM16.5 30.9414C16.7967 30.9414 17.0867 31.0294 17.3334 31.1942C17.58 31.359 17.7723 31.5933 17.8858 31.8674C17.9994 32.1415 18.0291 32.4431 17.9712 32.734C17.9133 33.025 17.7704 33.2923 17.5607 33.5021C17.3509 33.7118 17.0836 33.8547 16.7926 33.9126C16.5017 33.9705 16.2001 33.9408 15.926 33.8272C15.6519 33.7137 15.4176 33.5214 15.2528 33.2748C15.088 33.0281 15 32.7381 15 32.4414C15 32.0436 15.158 31.6621 15.4393 31.3807C15.7206 31.0994 16.1022 30.9414 16.5 30.9414ZM9 9.94141H15V28.2002C13.9992 28.554 13.1557 29.2503 12.6186 30.1659C12.0814 31.0815 11.8853 32.1575 12.0648 33.2038C12.2443 34.25 12.7879 35.1991 13.5995 35.8833C14.4111 36.5675 15.4385 36.9428 16.5 36.9428C17.5615 36.9428 18.5889 36.5675 19.4005 35.8833C20.2121 35.1991 20.7557 34.25 20.9352 33.2038C21.1147 32.1575 20.9186 31.0815 20.3814 30.1659C19.8443 29.2503 19.0008 28.554 18 28.2002V22.562L27 31.562V39.9414H9V9.94141ZM39 39.9414H30V30.9414C30.0002 30.7444 29.9615 30.5492 29.8862 30.3671C29.8109 30.185 29.7005 30.0196 29.5613 29.8802L18 18.3208V9.94141H24V14.4414C23.9998 14.6384 24.0385 14.8336 24.1138 15.0157C24.1891 15.1978 24.2995 15.3633 24.4387 15.5027L27.4387 18.5027C27.1482 19.1076 26.9982 19.7703 27 20.4414C27 21.3314 27.2639 22.2015 27.7584 22.9415C28.2529 23.6815 28.9557 24.2583 29.7779 24.5989C30.6002 24.9395 31.505 25.0286 32.3779 24.8549C33.2508 24.6813 34.0526 24.2527 34.682 23.6234C35.3113 22.9941 35.7399 22.1922 35.9135 21.3193C36.0872 20.4464 35.9981 19.5416 35.6575 18.7193C35.3169 17.8971 34.7401 17.1943 34.0001 16.6998C33.26 16.2053 32.39 15.9414 31.5 15.9414C30.8288 15.9402 30.166 16.0909 29.5613 16.382L27 13.8208V9.94141H39V39.9414ZM31.5 18.9414C31.7967 18.9414 32.0867 19.0294 32.3334 19.1942C32.58 19.359 32.7723 19.5933 32.8858 19.8674C32.9994 20.1415 33.0291 20.4431 32.9712 20.734C32.9133 21.025 32.7704 21.2923 32.5607 21.5021C32.3509 21.7118 32.0836 21.8547 31.7926 21.9126C31.5017 21.9705 31.2001 21.9408 30.926 21.8272C30.6519 21.7137 30.4176 21.5214 30.2528 21.2748C30.088 21.0281 30 20.7381 30 20.4414C30 20.0436 30.158 19.6621 30.4393 19.3807C30.7206 19.0994 31.1022 18.9414 31.5 18.9414Z" fill="#9A3242"/>
</svg>
