<svg width="48" height="49" viewBox="0 0 48 49" fill="none" xmlns="http://www.w3.org/2000/svg">
<path opacity="0.2" d="M39 17.4414H9C8.60218 17.4414 8.22064 17.5994 7.93934 17.8807C7.65804 18.1621 7.5 18.5436 7.5 18.9414V39.9414C7.5 40.3392 7.65804 40.7208 7.93934 41.0021C8.22064 41.2834 8.60218 41.4414 9 41.4414H39C39.3978 41.4414 39.7794 41.2834 40.0607 41.0021C40.342 40.7208 40.5 40.3392 40.5 39.9414V18.9414C40.5 18.5436 40.342 18.1621 40.0607 17.8807C39.7794 17.5994 39.3978 17.4414 39 17.4414ZM24 30.9414C23.2583 30.9414 22.5333 30.7215 21.9166 30.3094C21.2999 29.8974 20.8193 29.3117 20.5355 28.6265C20.2516 27.9412 20.1774 27.1872 20.3221 26.4598C20.4667 25.7324 20.8239 25.0642 21.3483 24.5398C21.8728 24.0153 22.541 23.6582 23.2684 23.5135C23.9958 23.3688 24.7498 23.443 25.4351 23.7269C26.1203 24.0107 26.706 24.4913 27.118 25.108C27.5301 25.7247 27.75 26.4497 27.75 27.1914C27.75 28.186 27.3549 29.1398 26.6516 29.8431C25.9484 30.5463 24.9946 30.9414 24 30.9414Z" fill="#9A3242"/>
<path d="M39 15.9414H33V11.4414C33 9.05446 32.0518 6.76527 30.364 5.07745C28.6761 3.38962 26.3869 2.44141 24 2.44141C21.6131 2.44141 19.3239 3.38962 17.636 5.07745C15.9482 6.76527 15 9.05446 15 11.4414V15.9414H9C8.20435 15.9414 7.44129 16.2575 6.87868 16.8201C6.31607 17.3827 6 18.1458 6 18.9414V39.9414C6 40.7371 6.31607 41.5001 6.87868 42.0627C7.44129 42.6253 8.20435 42.9414 9 42.9414H39C39.7957 42.9414 40.5587 42.6253 41.1213 42.0627C41.6839 41.5001 42 40.7371 42 39.9414V18.9414C42 18.1458 41.6839 17.3827 41.1213 16.8201C40.5587 16.2575 39.7957 15.9414 39 15.9414ZM18 11.4414C18 9.85011 18.6321 8.32398 19.7574 7.19877C20.8826 6.07355 22.4087 5.44141 24 5.44141C25.5913 5.44141 27.1174 6.07355 28.2426 7.19877C29.3679 8.32398 30 9.85011 30 11.4414V15.9414H18V11.4414ZM39 39.9414H9V18.9414H39V39.9414ZM24 21.9414C22.7392 21.9418 21.5207 22.3959 20.5672 23.2207C19.6137 24.0455 18.9888 25.1859 18.8068 26.4334C18.6248 27.681 18.8977 28.9524 19.5759 30.0152C20.254 31.0781 21.2919 31.8614 22.5 32.222V35.4414C22.5 35.8392 22.658 36.2208 22.9393 36.5021C23.2206 36.7834 23.6022 36.9414 24 36.9414C24.3978 36.9414 24.7794 36.7834 25.0607 36.5021C25.342 36.2208 25.5 35.8392 25.5 35.4414V32.222C26.7081 31.8614 27.746 31.0781 28.4241 30.0152C29.1023 28.9524 29.3752 27.681 29.1932 26.4334C29.0112 25.1859 28.3863 24.0455 27.4328 23.2207C26.4792 22.3959 25.2608 21.9418 24 21.9414ZM24 29.4414C23.555 29.4414 23.12 29.3094 22.75 29.0622C22.38 28.815 22.0916 28.4636 21.9213 28.0524C21.751 27.6413 21.7064 27.1889 21.7932 26.7525C21.88 26.316 22.0943 25.9151 22.409 25.6004C22.7237 25.2857 23.1246 25.0715 23.561 24.9846C23.9975 24.8978 24.4499 24.9424 24.861 25.1127C25.2722 25.283 25.6236 25.5714 25.8708 25.9414C26.118 26.3114 26.25 26.7464 26.25 27.1914C26.25 27.7881 26.0129 28.3604 25.591 28.7824C25.169 29.2044 24.5967 29.4414 24 29.4414Z" fill="#9A3242"/>
</svg>
