<svg width="48" height="49" viewBox="0 0 48 49" fill="none" xmlns="http://www.w3.org/2000/svg">
<path opacity="0.2" d="M30 24.9414C30 26.1281 29.6481 27.2881 28.9888 28.2748C28.3295 29.2615 27.3925 30.0306 26.2961 30.4847C25.1997 30.9388 23.9933 31.0576 22.8295 30.8261C21.6656 30.5946 20.5965 30.0232 19.7574 29.184C18.9182 28.3449 18.3468 27.2758 18.1153 26.1119C17.8838 24.9481 18.0026 23.7417 18.4567 22.6453C18.9108 21.5489 19.6799 20.6119 20.6666 19.9526C21.6533 19.2933 22.8133 18.9414 24 18.9414C25.5913 18.9414 27.1174 19.5735 28.2426 20.6988C29.3679 21.824 30 23.3501 30 24.9414ZM37.5 12.9414C37.8176 14.8151 38.7101 16.5437 40.0539 17.8875C41.3977 19.2313 43.1263 20.1238 45 20.4414V12.9414H37.5ZM37.5 36.9414H45V29.4414C43.1263 29.759 41.3977 30.6515 40.0539 31.9953C38.7101 33.3391 37.8176 35.0677 37.5 36.9414ZM3 29.4414V36.9414H10.5C10.1824 35.0677 9.28989 33.3391 7.94607 31.9953C6.60226 30.6515 4.87372 29.759 3 29.4414ZM3 20.4414C4.87372 20.1238 6.60226 19.2313 7.94607 17.8875C9.28989 16.5437 10.1824 14.8151 10.5 12.9414H3V20.4414Z" fill="#9A3242"/>
<path d="M24 17.4414C22.5166 17.4414 21.0666 17.8813 19.8332 18.7054C18.5999 19.5295 17.6386 20.7008 17.0709 22.0713C16.5032 23.4417 16.3547 24.9497 16.6441 26.4046C16.9335 27.8594 17.6478 29.1958 18.6967 30.2447C19.7456 31.2936 21.082 32.0079 22.5368 32.2973C23.9917 32.5867 25.4997 32.4382 26.8701 31.8705C28.2406 31.3028 29.4119 30.3416 30.236 29.1082C31.0601 27.8748 31.5 26.4248 31.5 24.9414C31.5 22.9523 30.7098 21.0446 29.3033 19.6381C27.8968 18.2316 25.9891 17.4414 24 17.4414ZM24 29.4414C23.11 29.4414 22.24 29.1775 21.4999 28.683C20.7599 28.1886 20.1831 27.4857 19.8425 26.6635C19.5019 25.8412 19.4128 24.9364 19.5865 24.0635C19.7601 23.1906 20.1887 22.3888 20.818 21.7594C21.4474 21.1301 22.2492 20.7015 23.1221 20.5279C23.995 20.3542 24.8998 20.4434 25.7221 20.7839C26.5443 21.1245 27.2471 21.7013 27.7416 22.4413C28.2361 23.1814 28.5 24.0514 28.5 24.9414C28.5 26.1349 28.0259 27.2795 27.182 28.1234C26.3381 28.9673 25.1935 29.4414 24 29.4414ZM45 11.4414H3C2.60218 11.4414 2.22064 11.5994 1.93934 11.8807C1.65804 12.1621 1.5 12.5436 1.5 12.9414V36.9414C1.5 37.3392 1.65804 37.7208 1.93934 38.0021C2.22064 38.2834 2.60218 38.4414 3 38.4414H45C45.3978 38.4414 45.7794 38.2834 46.0607 38.0021C46.342 37.7208 46.5 37.3392 46.5 36.9414V12.9414C46.5 12.5436 46.342 12.1621 46.0607 11.8807C45.7794 11.5994 45.3978 11.4414 45 11.4414ZM4.5 14.4414H8.50688C7.73324 16.2406 6.29918 17.6746 4.5 18.4483V14.4414ZM4.5 35.4414V31.4345C6.29918 32.2082 7.73324 33.6422 8.50688 35.4414H4.5ZM43.5 35.4414H39.4931C40.2668 33.6422 41.7008 32.2082 43.5 31.4345V35.4414ZM43.5 28.2508C41.7968 28.7544 40.2466 29.6761 38.9907 30.9321C37.7347 32.188 36.813 33.7382 36.3094 35.4414H11.6906C11.187 33.7382 10.2653 32.188 9.00934 30.9321C7.75342 29.6761 6.20324 28.7544 4.5 28.2508V21.632C6.20324 21.1284 7.75342 20.2067 9.00934 18.9508C10.2653 17.6948 11.187 16.1447 11.6906 14.4414H36.3094C36.813 16.1447 37.7347 17.6948 38.9907 18.9508C40.2466 20.2067 41.7968 21.1284 43.5 21.632V28.2508ZM43.5 18.4483C41.7008 17.6746 40.2668 16.2406 39.4931 14.4414H43.5V18.4483Z" fill="#9A3242"/>
</svg>
