<svg width="48" height="49" viewBox="0 0 48 49" fill="none" xmlns="http://www.w3.org/2000/svg">
<path opacity="0.2" d="M40.3128 32.5744C39.019 35.3324 37.0493 37.7188 34.5865 39.5119L32.8315 37.755C32.6435 37.5662 32.4086 37.431 32.1509 37.3631L28.1253 36.3019C27.7684 36.208 27.4587 35.9859 27.2553 35.6781C27.0519 35.3702 26.9691 34.9982 27.0228 34.6331L27.469 31.5956C27.5068 31.3394 27.6102 31.0974 27.7692 30.893C27.9282 30.6886 28.1375 30.5289 28.3765 30.4294L34.0878 28.0556C34.3516 27.9461 34.6412 27.9143 34.9226 27.9638C35.2039 28.0132 35.4653 28.142 35.6759 28.335L40.3128 32.5744ZM29.9797 20.6287L34.1365 15.7912C34.3702 15.5201 34.4993 15.1742 34.5003 14.8162V10.3162C31.0223 7.81477 26.7661 6.63583 22.4967 6.99129C18.2274 7.34676 14.2248 9.21333 11.2083 12.2555C8.19191 15.2977 6.35943 19.316 6.04028 23.5883C5.72112 27.8605 6.93621 32.1065 9.46716 35.5631L11.3272 34.3406C11.5332 34.2045 11.7024 34.0197 11.8198 33.8025C11.9372 33.5853 11.9992 33.3425 12.0003 33.0956L12.0397 26.3025C12.0417 26.0081 12.1297 25.7207 12.2928 25.4756L16.219 19.6069C16.3316 19.4397 16.4767 19.297 16.6457 19.1872C16.8147 19.0774 17.0041 19.0028 17.2025 18.9678C17.401 18.9328 17.6044 18.9381 17.8008 18.9835C17.9971 19.0289 18.1823 19.1133 18.3453 19.2319L22.0597 21.6694C22.3724 21.8946 22.7594 21.9919 23.1415 21.9412L29.0403 21.1425C29.4059 21.0926 29.7404 20.9097 29.9797 20.6287Z" fill="#9A3242"/>
<path d="M24 5.44116C20.1433 5.44116 16.3731 6.58482 13.1664 8.7275C9.95963 10.8702 7.46027 13.9157 5.98436 17.4788C4.50845 21.042 4.12228 24.9628 4.8747 28.7454C5.62711 32.5281 7.4843 36.0026 10.2114 38.7297C12.9386 41.4569 16.4131 43.3141 20.1957 44.0665C23.9784 44.8189 27.8992 44.4327 31.4623 42.9568C35.0255 41.4809 38.071 38.9815 40.2137 35.7748C42.3564 32.568 43.5 28.7979 43.5 24.9412C43.4945 19.7711 41.4383 14.8144 37.7826 11.1586C34.1268 7.50283 29.1701 5.44662 24 5.44116ZM24 8.44116C27.1968 8.43777 30.3249 9.36839 33 11.1187V14.8162L28.8431 19.6424L22.9425 20.4412L22.8844 20.3999L19.1963 17.9887C18.8693 17.7583 18.4995 17.5957 18.1088 17.5104C17.718 17.425 17.3141 17.4187 16.9209 17.4917C16.5276 17.5647 16.153 17.7156 15.8189 17.9356C15.4848 18.1555 15.1981 18.44 14.9756 18.7724L11.0494 24.6412C10.7223 25.1302 10.5462 25.7047 10.5431 26.293L10.5 33.0862L9.88688 33.4893C8.37116 30.9868 7.54809 28.1263 7.50203 25.2009C7.45597 22.2756 8.18858 19.3906 9.62477 16.8416C11.061 14.2926 13.1491 12.1714 15.6751 10.6952C18.2012 9.21909 21.0743 8.44116 24 8.44116ZM11.6794 35.9043L12.1519 35.5949C12.5645 35.3228 12.9034 34.9529 13.1386 34.5181C13.3738 34.0834 13.498 33.5973 13.5 33.103L13.5394 26.3099L17.4694 20.4412C17.4886 20.456 17.5087 20.4697 17.5294 20.4824L21.2175 22.8955C21.8356 23.3318 22.5961 23.5174 23.3456 23.4149L29.25 22.6143C29.9781 22.5171 30.6453 22.1562 31.125 21.5999L35.2819 16.7699C35.7468 16.2252 36.0015 15.5322 36 14.8162V13.6293C38.0289 15.7758 39.4434 18.4282 40.0956 21.3089C40.7477 24.1896 40.6135 27.1926 39.7069 30.0037L36.6806 27.2362C36.2599 26.85 35.7377 26.5919 35.1754 26.4923C34.6131 26.3926 34.034 26.4556 33.5063 26.6737L27.795 29.0455C27.3175 29.246 26.8996 29.5661 26.5817 29.9749C26.2638 30.3838 26.0566 30.8677 25.98 31.3799L25.5319 34.4155C25.4242 35.1462 25.5898 35.8909 25.997 36.5071C26.4042 37.1232 27.0244 37.5676 27.7388 37.7549L31.7625 38.8162L32.205 39.2605C28.9193 41.1458 25.0843 41.8413 21.3458 41.23C17.6072 40.6187 14.1935 38.7379 11.6794 35.9043ZM34.6875 37.5037L33.8813 36.6955C33.5052 36.318 33.0353 36.0475 32.52 35.9118L28.5 34.8505L28.9481 31.8149L34.6575 29.4412L38.4375 32.9062C37.4741 34.6517 36.2038 36.2091 34.6875 37.5037Z" fill="#9A3242"/>
</svg>
