<svg width="48" height="48" viewBox="0 0 48 48" fill="none" xmlns="http://www.w3.org/2000/svg">
<path opacity="0.2" d="M39 16.5H9C8.60218 16.5 8.22064 16.658 7.93934 16.9393C7.65804 17.2206 7.5 17.6022 7.5 18V39C7.5 39.3978 7.65804 39.7794 7.93934 40.0607C8.22064 40.342 8.60218 40.5 9 40.5H39C39.3978 40.5 39.7794 40.342 40.0607 40.0607C40.342 39.7794 40.5 39.3978 40.5 39V18C40.5 17.6022 40.342 17.2206 40.0607 16.9393C39.7794 16.658 39.3978 16.5 39 16.5ZM24 30C23.2583 30 22.5333 29.7801 21.9166 29.368C21.2999 28.956 20.8193 28.3703 20.5355 27.6851C20.2516 26.9998 20.1774 26.2458 20.3221 25.5184C20.4667 24.791 20.8239 24.1228 21.3483 23.5983C21.8728 23.0739 22.541 22.7167 23.2684 22.5721C23.9958 22.4274 24.7498 22.5016 25.4351 22.7855C26.1203 23.0693 26.706 23.5499 27.118 24.1666C27.5301 24.7833 27.75 25.5083 27.75 26.25C27.75 27.2446 27.3549 28.1984 26.6516 28.9017C25.9484 29.6049 24.9946 30 24 30Z" fill="#6A31CE"/>
<path d="M39 15H33V10.5C33 8.11305 32.0518 5.82387 30.364 4.13604C28.6761 2.44821 26.3869 1.5 24 1.5C21.6131 1.5 19.3239 2.44821 17.636 4.13604C15.9482 5.82387 15 8.11305 15 10.5V15H9C8.20435 15 7.44129 15.3161 6.87868 15.8787C6.31607 16.4413 6 17.2044 6 18V39C6 39.7957 6.31607 40.5587 6.87868 41.1213C7.44129 41.6839 8.20435 42 9 42H39C39.7957 42 40.5587 41.6839 41.1213 41.1213C41.6839 40.5587 42 39.7957 42 39V18C42 17.2044 41.6839 16.4413 41.1213 15.8787C40.5587 15.3161 39.7957 15 39 15ZM18 10.5C18 8.9087 18.6321 7.38258 19.7574 6.25736C20.8826 5.13214 22.4087 4.5 24 4.5C25.5913 4.5 27.1174 5.13214 28.2426 6.25736C29.3679 7.38258 30 8.9087 30 10.5V15H18V10.5ZM39 39H9V18H39V39ZM24 21C22.7392 21.0004 21.5207 21.4545 20.5672 22.2793C19.6137 23.1041 18.9888 24.2445 18.8068 25.492C18.6248 26.7396 18.8977 28.011 19.5759 29.0738C20.254 30.1367 21.2919 30.92 22.5 31.2806V34.5C22.5 34.8978 22.658 35.2794 22.9393 35.5607C23.2206 35.842 23.6022 36 24 36C24.3978 36 24.7794 35.842 25.0607 35.5607C25.342 35.2794 25.5 34.8978 25.5 34.5V31.2806C26.7081 30.92 27.746 30.1367 28.4241 29.0738C29.1023 28.011 29.3752 26.7396 29.1932 25.492C29.0112 24.2445 28.3863 23.1041 27.4328 22.2793C26.4792 21.4545 25.2608 21.0004 24 21ZM24 28.5C23.555 28.5 23.12 28.368 22.75 28.1208C22.38 27.8736 22.0916 27.5222 21.9213 27.111C21.751 26.6999 21.7064 26.2475 21.7932 25.811C21.88 25.3746 22.0943 24.9737 22.409 24.659C22.7237 24.3443 23.1246 24.13 23.561 24.0432C23.9975 23.9564 24.4499 24.001 24.861 24.1713C25.2722 24.3416 25.6236 24.63 25.8708 25C26.118 25.37 26.25 25.805 26.25 26.25C26.25 26.8467 26.0129 27.419 25.591 27.841C25.169 28.2629 24.5967 28.5 24 28.5Z" fill="#6A31CE"/>
</svg>
