<svg width="48" height="49" viewBox="0 0 48 49" fill="none" xmlns="http://www.w3.org/2000/svg">
<path opacity="0.2" d="M37.5 12.9414V15.9414H33C32.2044 15.9414 31.4413 16.2575 30.8787 16.8201C30.3161 17.3827 30 18.1458 30 18.9414V33.9414H7.5C6.70435 33.9414 5.94129 33.6253 5.37868 33.0627C4.81607 32.5001 4.5 31.7371 4.5 30.9414V12.9414C4.5 12.1458 4.81607 11.3827 5.37868 10.8201C5.94129 10.2575 6.70435 9.94141 7.5 9.94141H34.5C35.2956 9.94141 36.0587 10.2575 36.6213 10.8201C37.1839 11.3827 37.5 12.1458 37.5 12.9414Z" fill="#9A3242"/>
<path d="M42 14.4414H39V12.9414C39 11.7479 38.5259 10.6033 37.682 9.75943C36.8381 8.91551 35.6935 8.44141 34.5 8.44141H7.5C6.30653 8.44141 5.16193 8.91551 4.31802 9.75943C3.47411 10.6033 3 11.7479 3 12.9414V30.9414C3 32.1349 3.47411 33.2795 4.31802 34.1234C5.16193 34.9673 6.30653 35.4414 7.5 35.4414H28.5V36.9414C28.5 38.1349 28.9741 39.2795 29.818 40.1234C30.6619 40.9673 31.8065 41.4414 33 41.4414H42C43.1935 41.4414 44.3381 40.9673 45.182 40.1234C46.0259 39.2795 46.5 38.1349 46.5 36.9414V18.9414C46.5 17.7479 46.0259 16.6033 45.182 15.7594C44.3381 14.9155 43.1935 14.4414 42 14.4414ZM7.5 32.4414C7.10218 32.4414 6.72064 32.2834 6.43934 32.0021C6.15804 31.7208 6 31.3392 6 30.9414V12.9414C6 12.5436 6.15804 12.1621 6.43934 11.8807C6.72064 11.5994 7.10218 11.4414 7.5 11.4414H34.5C34.8978 11.4414 35.2794 11.5994 35.5607 11.8807C35.842 12.1621 36 12.5436 36 12.9414V14.4414H33C31.8065 14.4414 30.6619 14.9155 29.818 15.7594C28.9741 16.6033 28.5 17.7479 28.5 18.9414V32.4414H7.5ZM43.5 36.9414C43.5 37.3392 43.342 37.7208 43.0607 38.0021C42.7794 38.2834 42.3978 38.4414 42 38.4414H33C32.6022 38.4414 32.2206 38.2834 31.9393 38.0021C31.658 37.7208 31.5 37.3392 31.5 36.9414V18.9414C31.5 18.5436 31.658 18.1621 31.9393 17.8807C32.2206 17.5994 32.6022 17.4414 33 17.4414H42C42.3978 17.4414 42.7794 17.5994 43.0607 17.8807C43.342 18.1621 43.5 18.5436 43.5 18.9414V36.9414ZM25.5 39.9414C25.5 40.3392 25.342 40.7208 25.0607 41.0021C24.7794 41.2834 24.3978 41.4414 24 41.4414H16.5C16.1022 41.4414 15.7206 41.2834 15.4393 41.0021C15.158 40.7208 15 40.3392 15 39.9414C15 39.5436 15.158 39.1621 15.4393 38.8807C15.7206 38.5994 16.1022 38.4414 16.5 38.4414H24C24.3978 38.4414 24.7794 38.5994 25.0607 38.8807C25.342 39.1621 25.5 39.5436 25.5 39.9414ZM40.5 21.9414C40.5 22.3392 40.342 22.7208 40.0607 23.0021C39.7794 23.2834 39.3978 23.4414 39 23.4414H36C35.6022 23.4414 35.2206 23.2834 34.9393 23.0021C34.658 22.7208 34.5 22.3392 34.5 21.9414C34.5 21.5436 34.658 21.1621 34.9393 20.8807C35.2206 20.5994 35.6022 20.4414 36 20.4414H39C39.3978 20.4414 39.7794 20.5994 40.0607 20.8807C40.342 21.1621 40.5 21.5436 40.5 21.9414Z" fill="#9A3242"/>
</svg>
