<svg width="48" height="32" viewBox="0 0 48 32" fill="none" xmlns="http://www.w3.org/2000/svg">
<g clip-path="url(#clip0_2056_39160)">
<path d="M45 0.999997C45 1.55229 45.4477 2 46 2H47C47.5523 2 48 1.55229 48 0.999997C48 0.447716 47.5523 0 47 0H46C45.4477 0 45 0.447716 45 0.999997Z" fill="white"/>
<path d="M16 32H20.8578L19.4436 30.5858C19.0686 30.2107 18.5598 30 18.0294 30H16C8.268 30 2 23.732 2 16C2 8.268 8.268 2.00001 16 2H32C39.732 2 46 8.268 46 16C46 23.732 39.732 30 32 30H26.0147C25.219 30 24.456 29.6839 23.8934 29.1214L22.2366 27.4645C21.2989 26.5268 20.027 26 18.701 26H16C10.4771 26 6 21.5229 6 16C6 10.4771 10.4771 6 16 6H32C37.5229 6 42 10.4771 42 16C42 21.5229 37.5229 26 32 26H28.1569C27.3612 26 26.5982 25.6839 26.0355 25.1214L24.3786 23.4645C23.441 22.5268 22.1692 22 20.8431 22H16C12.6863 22 10 19.3137 10 16C10 12.6863 12.6863 10 16 10H32C35.3137 10 38 12.6863 38 16C38 19.2733 35.3788 21.9344 32.121 21.9988L32.1203 22H30.6569C29.8612 22 29.0982 21.6839 28.5355 21.1214L26.8786 19.4645C26.1093 18.695 25.115 18.2023 24.0502 18.0502L24 18H16C14.8954 18 14 17.1046 14 16C14 14.8954 14.8954 14 16 14H32C33.1046 14 34 14.8954 34 16C34 17.1046 33.1046 18 32 18H28L29.4142 19.4142C29.7893 19.7893 30.298 20 30.8284 20H32C34.2091 20 36 18.2091 36 16C36 13.7909 34.2091 12 32 12H16C13.7909 12 12 13.7909 12 16C12 18.2091 13.7909 20 16 20H23.3431C24.1388 20 24.9018 20.3161 25.4645 20.8786L27.1214 22.5355C28.059 23.4732 29.3308 24 30.6569 24H32.5V23.9846C36.6854 23.7266 40 20.2503 40 16C40 11.5818 36.4182 8 32 8H16C11.5818 8 8 11.5818 8 16C8 20.4183 11.5818 24 16 24H20.8431C21.6388 24 22.4018 24.3161 22.9645 24.8786L24.6214 26.5355C25.559 27.4732 26.8308 28 28.1569 28H32C38.6274 28 44 22.6274 44 16C44 9.37256 38.6274 4 32 4H16C9.37256 4 4 9.37256 4 16C4 22.6274 9.37256 28 16 28H18.701C19.4966 28 20.2597 28.3161 20.8223 28.8786L22.4792 30.5355C23.4169 31.4732 24.6886 32 26.0147 32H32C40.8366 32 48 24.8366 48 16C48 7.16344 40.8366 -7.72516e-07 32 0L16 3.30611e-06C7.16344 4.07863e-06 -7.72516e-07 7.16345 0 16C7.72516e-07 24.8366 7.16345 32 16 32Z" fill="white"/>
</g>
<defs>
<clipPath id="clip0_2056_39160">
<rect width="48" height="32" fill="white"/>
</clipPath>
</defs>
</svg>
